G04 PROVISIONAL - MODULE FOOTPRINTS ESTIMATED - NOT RELEASED FOR FABRICATION*
%TF.GenerationSoftware,OpenAI,ELC-Native-Writer,1.0*%
%TF.FileFunction,Legend,Top*%
%TF.FilePolarity,Positive*%
%FSLAX46Y46*%
%MOMM*%
%LPD*%
%ADD10R,0.1143X0.1143*%
%ADD11R,0.1143X0.1143*%
%ADD12R,0.1143X0.1143*%
%ADD13R,0.1143X0.1143*%
%ADD14R,0.1143X0.1143*%
%ADD15R,0.1143X0.1143*%
%ADD16R,0.1143X0.1143*%
%ADD17R,0.1143X0.1143*%
%ADD18R,0.1143X0.1143*%
%ADD19R,0.1143X0.1143*%
%ADD20R,0.1143X0.1143*%
%ADD21R,0.1143X0.1143*%
%ADD22C,0.1500*%
%ADD23R,0.1071X0.1071*%
%ADD24R,0.1071X0.1071*%
%ADD25R,0.1071X0.1071*%
%ADD26R,0.1071X0.1071*%
%ADD27R,0.1071X0.1071*%
%ADD28R,0.1071X0.1071*%
%ADD29R,0.1071X0.1071*%
%ADD30R,0.1071X0.1071*%
%ADD31R,0.1071X0.1071*%
%ADD32R,0.1071X0.1071*%
%ADD33R,0.1071X0.1071*%
%ADD34R,0.1071X0.1071*%
%ADD35R,0.1071X0.1071*%
%ADD36R,0.1071X0.1071*%
%ADD37R,0.1143X0.1143*%
%ADD38R,0.1143X0.1143*%
%ADD39R,0.1143X0.1143*%
%ADD40R,0.1714X0.1714*%
%ADD41R,0.1714X0.1714*%
%ADD42R,0.1714X0.1714*%
%ADD43R,0.1714X0.1714*%
%ADD44R,0.1714X0.1714*%
%ADD45R,0.1714X0.1714*%
%ADD46R,0.1714X0.1714*%
%ADD47R,0.1714X0.1714*%
%ADD48R,0.1714X0.1714*%
%ADD49R,0.1714X0.1714*%
%ADD50R,0.1714X0.1714*%
%ADD51R,0.1714X0.1714*%
%ADD52R,0.1714X0.1714*%
%ADD53R,0.1714X0.1714*%
%ADD54R,0.1714X0.1714*%
%ADD55R,0.1143X0.1143*%
%ADD56R,0.1143X0.1143*%
%ADD57R,0.1143X0.1143*%
%ADD58R,0.1143X0.1143*%
%ADD59R,0.1143X0.1143*%
%ADD60R,0.1143X0.1143*%
%ADD9000C,0.1500*%
G01*
D10*
X9600000Y75542857D03*
D11*
X9714286Y75542857D03*
X9828571Y75542857D03*
X9714286Y75428571D03*
D12*
X9714286Y75314286D03*
D11*
X9714286Y75200000D03*
X9371429Y75085714D03*
X9714286Y75085714D03*
X9371429Y74971429D03*
X9714286Y74971429D03*
D12*
X9485714Y74857143D03*
D13*
X9600000Y74857143D03*
D11*
X10285714Y75542857D03*
X10171429Y75428571D03*
X10285714Y75428571D03*
D12*
X10285714Y75314286D03*
D11*
X10285714Y75200000D03*
X10285714Y75085714D03*
X10285714Y74971429D03*
D12*
X10171429Y74857143D03*
X10285714Y74857143D03*
X10400000Y74857143D03*
D14*
X129600000Y75542857D03*
D15*
X129714286Y75542857D03*
D14*
X129828571Y75542857D03*
D15*
X129714286Y75428571D03*
D16*
X129714286Y75314286D03*
D15*
X129714286Y75200000D03*
D14*
X129371429Y75085714D03*
D15*
X129714286Y75085714D03*
D14*
X129371429Y74971429D03*
D15*
X129714286Y74971429D03*
D16*
X129485714Y74857143D03*
D17*
X129600000Y74857143D03*
D15*
X130171429Y75542857D03*
D14*
X130285714Y75542857D03*
D15*
X130400000Y75542857D03*
D14*
X130057143Y75428571D03*
X130514286Y75428571D03*
D17*
X130514286Y75314286D03*
D15*
X130400000Y75200000D03*
D14*
X130285714Y75085714D03*
D15*
X130171429Y74971429D03*
D17*
X130057143Y74857143D03*
D16*
X130171429Y74857143D03*
D17*
X130285714Y74857143D03*
D16*
X130400000Y74857143D03*
D17*
X130514286Y74857143D03*
D11*
X25485714Y71742857D03*
X25600000Y71742857D03*
X25714286Y71742857D03*
X25371429Y71628571D03*
D18*
X25828571Y71628571D03*
D12*
X25371429Y71514286D03*
D19*
X25828571Y71514286D03*
D11*
X25371429Y71400000D03*
D18*
X25828571Y71400000D03*
D11*
X25371429Y71285714D03*
X25600000Y71285714D03*
D18*
X25828571Y71285714D03*
D11*
X25371429Y71171429D03*
X25714286Y71171429D03*
D12*
X25485714Y71057143D03*
X25600000Y71057143D03*
D19*
X25828571Y71057143D03*
D11*
X26285714Y71742857D03*
X26171429Y71628571D03*
X26285714Y71628571D03*
D12*
X26285714Y71514286D03*
D11*
X26285714Y71400000D03*
X26285714Y71285714D03*
X26285714Y71171429D03*
D12*
X26171429Y71057143D03*
X26285714Y71057143D03*
X26400000Y71057143D03*
D11*
X39485714Y71742857D03*
X39600000Y71742857D03*
X39714286Y71742857D03*
X39371429Y71628571D03*
X39828571Y71628571D03*
D12*
X39371429Y71514286D03*
X39828571Y71514286D03*
D11*
X39371429Y71400000D03*
X39828571Y71400000D03*
X39371429Y71285714D03*
X39600000Y71285714D03*
X39828571Y71285714D03*
X39371429Y71171429D03*
X39714286Y71171429D03*
D12*
X39485714Y71057143D03*
X39600000Y71057143D03*
X39828571Y71057143D03*
D11*
X40171429Y71742857D03*
D20*
X40285714Y71742857D03*
D11*
X40400000Y71742857D03*
X40057143Y71628571D03*
X40514286Y71628571D03*
D12*
X40514286Y71514286D03*
D11*
X40400000Y71400000D03*
D20*
X40285714Y71285714D03*
D11*
X40171429Y71171429D03*
D12*
X40057143Y71057143D03*
X40171429Y71057143D03*
D21*
X40285714Y71057143D03*
D12*
X40400000Y71057143D03*
X40514286Y71057143D03*
D11*
X55485714Y71742857D03*
X55600000Y71742857D03*
X55714286Y71742857D03*
X55371429Y71628571D03*
X55828571Y71628571D03*
D12*
X55371429Y71514286D03*
X55828571Y71514286D03*
D11*
X55371429Y71400000D03*
X55828571Y71400000D03*
X55371429Y71285714D03*
X55600000Y71285714D03*
X55828571Y71285714D03*
X55371429Y71171429D03*
X55714286Y71171429D03*
D12*
X55485714Y71057143D03*
X55600000Y71057143D03*
X55828571Y71057143D03*
D11*
X56057143Y71742857D03*
X56171429Y71742857D03*
D20*
X56285714Y71742857D03*
D11*
X56400000Y71742857D03*
X56514286Y71628571D03*
D12*
X56514286Y71514286D03*
D11*
X56171429Y71400000D03*
D20*
X56285714Y71400000D03*
D11*
X56400000Y71400000D03*
X56514286Y71285714D03*
X56514286Y71171429D03*
D12*
X56057143Y71057143D03*
X56171429Y71057143D03*
D21*
X56285714Y71057143D03*
D12*
X56400000Y71057143D03*
D11*
X69485714Y71742857D03*
X69600000Y71742857D03*
X69714286Y71742857D03*
X69371429Y71628571D03*
X69828571Y71628571D03*
D12*
X69371429Y71514286D03*
X69828571Y71514286D03*
D11*
X69371429Y71400000D03*
X69828571Y71400000D03*
X69371429Y71285714D03*
X69600000Y71285714D03*
X69828571Y71285714D03*
X69371429Y71171429D03*
X69714286Y71171429D03*
D12*
X69485714Y71057143D03*
X69600000Y71057143D03*
X69828571Y71057143D03*
D11*
X70400000Y71742857D03*
X70285714Y71628571D03*
X70400000Y71628571D03*
D12*
X70171429Y71514286D03*
X70400000Y71514286D03*
D11*
X70057143Y71400000D03*
X70400000Y71400000D03*
X70057143Y71285714D03*
X70171429Y71285714D03*
X70285714Y71285714D03*
X70400000Y71285714D03*
X70514286Y71285714D03*
X70400000Y71171429D03*
D12*
X70400000Y71057143D03*
D11*
X11485714Y52842857D03*
D10*
X11600000Y52842857D03*
D11*
X11714286Y52842857D03*
X11828571Y52842857D03*
X11371429Y52728571D03*
X11371429Y52614286D03*
X11371429Y52500000D03*
X11371429Y52385714D03*
X11371429Y52271429D03*
X11485714Y52157143D03*
D10*
X11600000Y52157143D03*
D11*
X11714286Y52157143D03*
X11828571Y52157143D03*
X12285714Y52842857D03*
X12171429Y52728571D03*
X12285714Y52728571D03*
X12285714Y52614286D03*
X12285714Y52500000D03*
X12285714Y52385714D03*
X12285714Y52271429D03*
X12171429Y52157143D03*
X12285714Y52157143D03*
X12400000Y52157143D03*
X24371429Y40192857D03*
X24485714Y40192857D03*
X24600000Y40192857D03*
X24714286Y40192857D03*
X24371429Y40078571D03*
D18*
X24828571Y40078571D03*
D11*
X24371429Y39964286D03*
D18*
X24828571Y39964286D03*
D11*
X24371429Y39850000D03*
D18*
X24828571Y39850000D03*
D11*
X24371429Y39735714D03*
D18*
X24828571Y39735714D03*
D11*
X24371429Y39621429D03*
D18*
X24828571Y39621429D03*
D11*
X24371429Y39507143D03*
X24485714Y39507143D03*
X24600000Y39507143D03*
X24714286Y39507143D03*
X25285714Y40192857D03*
X25171429Y40078571D03*
X25285714Y40078571D03*
X25285714Y39964286D03*
X25285714Y39850000D03*
X25285714Y39735714D03*
X25285714Y39621429D03*
X25171429Y39507143D03*
X25285714Y39507143D03*
X25400000Y39507143D03*
D14*
X129371429Y50192857D03*
D15*
X129485714Y50192857D03*
D14*
X129600000Y50192857D03*
D15*
X129714286Y50192857D03*
D14*
X129371429Y50078571D03*
X129828571Y50078571D03*
X129371429Y49964286D03*
X129828571Y49964286D03*
X129371429Y49850000D03*
X129828571Y49850000D03*
X129371429Y49735714D03*
X129828571Y49735714D03*
X129371429Y49621429D03*
X129828571Y49621429D03*
X129371429Y49507143D03*
D15*
X129485714Y49507143D03*
D14*
X129600000Y49507143D03*
D15*
X129714286Y49507143D03*
X130171429Y50192857D03*
D14*
X130285714Y50192857D03*
D15*
X130400000Y50192857D03*
D14*
X130057143Y50078571D03*
X130514286Y50078571D03*
X130514286Y49964286D03*
D15*
X130400000Y49850000D03*
D14*
X130285714Y49735714D03*
D15*
X130171429Y49621429D03*
D14*
X130057143Y49507143D03*
D15*
X130171429Y49507143D03*
D14*
X130285714Y49507143D03*
D15*
X130400000Y49507143D03*
D14*
X130514286Y49507143D03*
D11*
X97371429Y76342857D03*
X97828571Y76342857D03*
X97371429Y76228571D03*
X97485714Y76228571D03*
X97714286Y76228571D03*
X97828571Y76228571D03*
D12*
X97371429Y76114286D03*
X97600000Y76114286D03*
X97828571Y76114286D03*
D11*
X97371429Y76000000D03*
X97600000Y76000000D03*
X97828571Y76000000D03*
X97371429Y75885714D03*
X97828571Y75885714D03*
X97371429Y75771429D03*
X97828571Y75771429D03*
D12*
X97371429Y75657143D03*
X97828571Y75657143D03*
D11*
X98057143Y76342857D03*
X98171429Y76342857D03*
X98285714Y76342857D03*
X98400000Y76342857D03*
X98514286Y76228571D03*
D12*
X98514286Y76114286D03*
D11*
X98171429Y76000000D03*
X98285714Y76000000D03*
X98400000Y76000000D03*
X98514286Y75885714D03*
X98514286Y75771429D03*
D12*
X98057143Y75657143D03*
X98171429Y75657143D03*
X98285714Y75657143D03*
X98400000Y75657143D03*
D22*
X78000000Y75000000D02*
X118000000Y75000000D01*
X118000000Y75000000D02*
X118000000Y55000000D01*
X118000000Y55000000D02*
X78000000Y55000000D01*
X78000000Y55000000D02*
X78000000Y75000000D01*
D23*
X91946429Y65321429D03*
D24*
X92053571Y65321429D03*
D23*
X92160714Y65321429D03*
X92267857Y65321429D03*
X92375000Y65321429D03*
X91946429Y65214286D03*
X91946429Y65107143D03*
D25*
X91946429Y65000000D03*
D26*
X92053571Y65000000D03*
D25*
X92160714Y65000000D03*
X92267857Y65000000D03*
D23*
X91946429Y64892857D03*
X91946429Y64785714D03*
X91946429Y64678571D03*
D24*
X92053571Y64678571D03*
D23*
X92160714Y64678571D03*
X92267857Y64678571D03*
X92375000Y64678571D03*
X92696429Y65321429D03*
D24*
X92803571Y65321429D03*
D23*
X92910714Y65321429D03*
X93017857Y65321429D03*
X92589286Y65214286D03*
X92589286Y65107143D03*
D25*
X92696429Y65000000D03*
D26*
X92803571Y65000000D03*
D25*
X92910714Y65000000D03*
D23*
X93017857Y64892857D03*
X93017857Y64785714D03*
X92589286Y64678571D03*
X92696429Y64678571D03*
D24*
X92803571Y64678571D03*
D23*
X92910714Y64678571D03*
D24*
X93232143Y65321429D03*
D23*
X93339286Y65321429D03*
X93446429Y65321429D03*
D24*
X93553571Y65321429D03*
D23*
X93660714Y65321429D03*
X93446429Y65214286D03*
X93446429Y65107143D03*
D25*
X93446429Y65000000D03*
D23*
X93446429Y64892857D03*
X93446429Y64785714D03*
X93446429Y64678571D03*
X93875000Y65321429D03*
D24*
X93982143Y65321429D03*
D23*
X94089286Y65321429D03*
X94196429Y65321429D03*
D24*
X94303571Y65321429D03*
D23*
X94089286Y65214286D03*
X94089286Y65107143D03*
D25*
X94089286Y65000000D03*
D23*
X94089286Y64892857D03*
X94089286Y64785714D03*
X93875000Y64678571D03*
D24*
X93982143Y64678571D03*
D23*
X94089286Y64678571D03*
X94196429Y64678571D03*
D24*
X94303571Y64678571D03*
D23*
X94517857Y65321429D03*
X94946429Y65321429D03*
X94517857Y65214286D03*
X94625000Y65214286D03*
X94839286Y65214286D03*
X94946429Y65214286D03*
X94517857Y65107143D03*
D24*
X94732143Y65107143D03*
D23*
X94946429Y65107143D03*
D25*
X94517857Y65000000D03*
D26*
X94732143Y65000000D03*
D25*
X94946429Y65000000D03*
D23*
X94517857Y64892857D03*
X94946429Y64892857D03*
X94517857Y64785714D03*
X94946429Y64785714D03*
X94517857Y64678571D03*
X94946429Y64678571D03*
X95267857Y65321429D03*
X95375000Y65321429D03*
D24*
X95482143Y65321429D03*
D23*
X95160714Y65214286D03*
X95589286Y65214286D03*
X95160714Y65107143D03*
X95589286Y65107143D03*
D25*
X95160714Y65000000D03*
X95267857Y65000000D03*
X95375000Y65000000D03*
D26*
X95482143Y65000000D03*
D25*
X95589286Y65000000D03*
D23*
X95160714Y64892857D03*
X95589286Y64892857D03*
X95160714Y64785714D03*
X95589286Y64785714D03*
X95160714Y64678571D03*
X95589286Y64678571D03*
D24*
X95803571Y65321429D03*
D23*
X95910714Y65321429D03*
X96017857Y65321429D03*
X96125000Y65321429D03*
D24*
X96232143Y65321429D03*
D23*
X96017857Y65214286D03*
X96017857Y65107143D03*
D25*
X96017857Y65000000D03*
D23*
X96017857Y64892857D03*
X96017857Y64785714D03*
X96017857Y64678571D03*
X96446429Y65321429D03*
D24*
X96553571Y65321429D03*
D23*
X96660714Y65321429D03*
X96767857Y65321429D03*
X96875000Y65321429D03*
X96446429Y65214286D03*
X96446429Y65107143D03*
D25*
X96446429Y65000000D03*
D26*
X96553571Y65000000D03*
D25*
X96660714Y65000000D03*
X96767857Y65000000D03*
D23*
X96446429Y64892857D03*
X96446429Y64785714D03*
X96446429Y64678571D03*
D24*
X96553571Y64678571D03*
D23*
X96660714Y64678571D03*
X96767857Y64678571D03*
X96875000Y64678571D03*
X97089286Y65321429D03*
X97196429Y65321429D03*
D24*
X97303571Y65321429D03*
D23*
X97410714Y65321429D03*
X97089286Y65214286D03*
X97517857Y65214286D03*
X97089286Y65107143D03*
X97517857Y65107143D03*
D25*
X97089286Y65000000D03*
X97517857Y65000000D03*
D23*
X97089286Y64892857D03*
X97517857Y64892857D03*
X97089286Y64785714D03*
X97517857Y64785714D03*
X97089286Y64678571D03*
X97196429Y64678571D03*
D24*
X97303571Y64678571D03*
D23*
X97410714Y64678571D03*
D25*
X98375000Y65000000D03*
D26*
X98482143Y65000000D03*
D25*
X98589286Y65000000D03*
X98696429Y65000000D03*
D26*
X98803571Y65000000D03*
D23*
X99660714Y65321429D03*
X99767857Y65321429D03*
D24*
X99875000Y65321429D03*
D23*
X99982143Y65321429D03*
X99660714Y65214286D03*
X100089286Y65214286D03*
X99660714Y65107143D03*
X100089286Y65107143D03*
D25*
X99660714Y65000000D03*
X99767857Y65000000D03*
D26*
X99875000Y65000000D03*
D25*
X99982143Y65000000D03*
D23*
X99660714Y64892857D03*
D24*
X99875000Y64892857D03*
D23*
X99660714Y64785714D03*
X99982143Y64785714D03*
X99660714Y64678571D03*
X100089286Y64678571D03*
D24*
X100303571Y65321429D03*
D23*
X100410714Y65321429D03*
X100517857Y65321429D03*
D24*
X100625000Y65321429D03*
D23*
X100732143Y65321429D03*
D24*
X100303571Y65214286D03*
X100303571Y65107143D03*
D26*
X100303571Y65000000D03*
D25*
X100410714Y65000000D03*
X100517857Y65000000D03*
D26*
X100625000Y65000000D03*
D24*
X100303571Y64892857D03*
X100303571Y64785714D03*
X100303571Y64678571D03*
D23*
X100410714Y64678571D03*
X100517857Y64678571D03*
D24*
X100625000Y64678571D03*
D23*
X100732143Y64678571D03*
X100946429Y65321429D03*
D24*
X101053571Y65321429D03*
D23*
X101160714Y65321429D03*
X101267857Y65321429D03*
X100946429Y65214286D03*
D24*
X101375000Y65214286D03*
D23*
X100946429Y65107143D03*
D24*
X101375000Y65107143D03*
D25*
X100946429Y65000000D03*
D26*
X101053571Y65000000D03*
D25*
X101160714Y65000000D03*
X101267857Y65000000D03*
D23*
X100946429Y64892857D03*
X100946429Y64785714D03*
X100946429Y64678571D03*
X101589286Y65321429D03*
X101589286Y65214286D03*
X101589286Y65107143D03*
D25*
X101589286Y65000000D03*
D23*
X101589286Y64892857D03*
X101589286Y64785714D03*
X101589286Y64678571D03*
X101696429Y64678571D03*
D24*
X101803571Y64678571D03*
D23*
X101910714Y64678571D03*
X102017857Y64678571D03*
X102339286Y65321429D03*
X102446429Y65321429D03*
D24*
X102553571Y65321429D03*
D23*
X102232143Y65214286D03*
X102660714Y65214286D03*
X102232143Y65107143D03*
X102660714Y65107143D03*
D25*
X102232143Y65000000D03*
X102339286Y65000000D03*
X102446429Y65000000D03*
D26*
X102553571Y65000000D03*
D25*
X102660714Y65000000D03*
D23*
X102232143Y64892857D03*
X102660714Y64892857D03*
X102232143Y64785714D03*
X102660714Y64785714D03*
X102232143Y64678571D03*
X102660714Y64678571D03*
X102982143Y65321429D03*
X103089286Y65321429D03*
X103196429Y65321429D03*
D24*
X103303571Y65321429D03*
X102875000Y65214286D03*
X102875000Y65107143D03*
D26*
X102875000Y65000000D03*
D24*
X102875000Y64892857D03*
X102875000Y64785714D03*
D23*
X102982143Y64678571D03*
X103089286Y64678571D03*
X103196429Y64678571D03*
D24*
X103303571Y64678571D03*
D23*
X103517857Y65321429D03*
D24*
X103625000Y65321429D03*
D23*
X103732143Y65321429D03*
X103839286Y65321429D03*
X103946429Y65321429D03*
X103517857Y65214286D03*
X103517857Y65107143D03*
D25*
X103517857Y65000000D03*
D26*
X103625000Y65000000D03*
D25*
X103732143Y65000000D03*
X103839286Y65000000D03*
D23*
X103517857Y64892857D03*
X103517857Y64785714D03*
X103517857Y64678571D03*
D24*
X103625000Y64678571D03*
D23*
X103732143Y64678571D03*
X103839286Y64678571D03*
X103946429Y64678571D03*
D11*
X25371429Y29842857D03*
D18*
X25828571Y29842857D03*
D11*
X25371429Y29728571D03*
X25485714Y29728571D03*
X25714286Y29728571D03*
D18*
X25828571Y29728571D03*
D11*
X25371429Y29614286D03*
X25600000Y29614286D03*
D18*
X25828571Y29614286D03*
D11*
X25371429Y29500000D03*
X25600000Y29500000D03*
D18*
X25828571Y29500000D03*
D11*
X25371429Y29385714D03*
D18*
X25828571Y29385714D03*
D11*
X25371429Y29271429D03*
D18*
X25828571Y29271429D03*
D11*
X25371429Y29157143D03*
D18*
X25828571Y29157143D03*
D11*
X26171429Y29842857D03*
X26285714Y29842857D03*
X26400000Y29842857D03*
X26057143Y29728571D03*
X26514286Y29728571D03*
X26514286Y29614286D03*
X26400000Y29500000D03*
X26285714Y29385714D03*
X26171429Y29271429D03*
X26057143Y29157143D03*
X26171429Y29157143D03*
X26285714Y29157143D03*
X26400000Y29157143D03*
X26514286Y29157143D03*
D22*
X4500000Y28500000D02*
X47500000Y28500000D01*
X47500000Y28500000D02*
X47500000Y7500000D01*
X47500000Y7500000D02*
X4500000Y7500000D01*
X4500000Y7500000D02*
X4500000Y28500000D01*
D27*
X19946429Y18321429D03*
X20053571Y18321429D03*
X20160714Y18321429D03*
D28*
X20267857Y18321429D03*
D27*
X20375000Y18321429D03*
D29*
X19946429Y18214286D03*
D27*
X19946429Y18107143D03*
X19946429Y18000000D03*
X20053571Y18000000D03*
X20160714Y18000000D03*
D28*
X20267857Y18000000D03*
D27*
X19946429Y17892857D03*
D29*
X19946429Y17785714D03*
D27*
X19946429Y17678571D03*
X20053571Y17678571D03*
X20160714Y17678571D03*
D28*
X20267857Y17678571D03*
D27*
X20375000Y17678571D03*
X20696429Y18321429D03*
X20803571Y18321429D03*
X20910714Y18321429D03*
D28*
X21017857Y18321429D03*
D29*
X20589286Y18214286D03*
D27*
X20589286Y18107143D03*
X20696429Y18000000D03*
X20803571Y18000000D03*
X20910714Y18000000D03*
D28*
X21017857Y17892857D03*
D30*
X21017857Y17785714D03*
D27*
X20589286Y17678571D03*
X20696429Y17678571D03*
X20803571Y17678571D03*
X20910714Y17678571D03*
X21232143Y18321429D03*
X21339286Y18321429D03*
X21446429Y18321429D03*
X21553571Y18321429D03*
X21660714Y18321429D03*
D29*
X21446429Y18214286D03*
D27*
X21446429Y18107143D03*
X21446429Y18000000D03*
X21446429Y17892857D03*
D29*
X21446429Y17785714D03*
D27*
X21446429Y17678571D03*
X21875000Y18321429D03*
X21982143Y18321429D03*
X22089286Y18321429D03*
X22196429Y18321429D03*
X22303571Y18321429D03*
D29*
X22089286Y18214286D03*
D27*
X22089286Y18107143D03*
X22089286Y18000000D03*
X22089286Y17892857D03*
D29*
X22089286Y17785714D03*
D27*
X21875000Y17678571D03*
X21982143Y17678571D03*
X22089286Y17678571D03*
X22196429Y17678571D03*
X22303571Y17678571D03*
D28*
X22517857Y18321429D03*
D27*
X22946429Y18321429D03*
D30*
X22517857Y18214286D03*
D29*
X22625000Y18214286D03*
X22839286Y18214286D03*
X22946429Y18214286D03*
D28*
X22517857Y18107143D03*
D27*
X22732143Y18107143D03*
X22946429Y18107143D03*
D28*
X22517857Y18000000D03*
D27*
X22732143Y18000000D03*
X22946429Y18000000D03*
D28*
X22517857Y17892857D03*
D27*
X22946429Y17892857D03*
D30*
X22517857Y17785714D03*
D29*
X22946429Y17785714D03*
D28*
X22517857Y17678571D03*
D27*
X22946429Y17678571D03*
D28*
X23267857Y18321429D03*
D27*
X23375000Y18321429D03*
X23482143Y18321429D03*
D29*
X23160714Y18214286D03*
X23589286Y18214286D03*
D27*
X23160714Y18107143D03*
X23589286Y18107143D03*
X23160714Y18000000D03*
D28*
X23267857Y18000000D03*
D27*
X23375000Y18000000D03*
X23482143Y18000000D03*
X23589286Y18000000D03*
X23160714Y17892857D03*
X23589286Y17892857D03*
D29*
X23160714Y17785714D03*
X23589286Y17785714D03*
D27*
X23160714Y17678571D03*
X23589286Y17678571D03*
X23803571Y18321429D03*
X23910714Y18321429D03*
D28*
X24017857Y18321429D03*
D27*
X24125000Y18321429D03*
X24232143Y18321429D03*
D30*
X24017857Y18214286D03*
D28*
X24017857Y18107143D03*
X24017857Y18000000D03*
X24017857Y17892857D03*
D30*
X24017857Y17785714D03*
D28*
X24017857Y17678571D03*
D27*
X24446429Y18321429D03*
X24553571Y18321429D03*
X24660714Y18321429D03*
D28*
X24767857Y18321429D03*
D27*
X24875000Y18321429D03*
D29*
X24446429Y18214286D03*
D27*
X24446429Y18107143D03*
X24446429Y18000000D03*
X24553571Y18000000D03*
X24660714Y18000000D03*
D28*
X24767857Y18000000D03*
D27*
X24446429Y17892857D03*
D29*
X24446429Y17785714D03*
D27*
X24446429Y17678571D03*
X24553571Y17678571D03*
X24660714Y17678571D03*
D28*
X24767857Y17678571D03*
D27*
X24875000Y17678571D03*
X25089286Y18321429D03*
X25196429Y18321429D03*
X25303571Y18321429D03*
X25410714Y18321429D03*
D29*
X25089286Y18214286D03*
D30*
X25517857Y18214286D03*
D27*
X25089286Y18107143D03*
D28*
X25517857Y18107143D03*
D27*
X25089286Y18000000D03*
D28*
X25517857Y18000000D03*
D27*
X25089286Y17892857D03*
D28*
X25517857Y17892857D03*
D29*
X25089286Y17785714D03*
D30*
X25517857Y17785714D03*
D27*
X25089286Y17678571D03*
X25196429Y17678571D03*
X25303571Y17678571D03*
X25410714Y17678571D03*
X26375000Y18000000D03*
X26482143Y18000000D03*
X26589286Y18000000D03*
X26696429Y18000000D03*
D28*
X26803571Y18000000D03*
D31*
X27660714Y18321429D03*
D28*
X27767857Y18321429D03*
D27*
X27875000Y18321429D03*
X27982143Y18321429D03*
D32*
X27660714Y18214286D03*
D29*
X28089286Y18214286D03*
D31*
X27660714Y18107143D03*
D27*
X28089286Y18107143D03*
D31*
X27660714Y18000000D03*
D28*
X27767857Y18000000D03*
D27*
X27875000Y18000000D03*
X27982143Y18000000D03*
D31*
X27660714Y17892857D03*
D27*
X27875000Y17892857D03*
D32*
X27660714Y17785714D03*
D29*
X27982143Y17785714D03*
D31*
X27660714Y17678571D03*
D27*
X28089286Y17678571D03*
D28*
X28303571Y18321429D03*
D31*
X28410714Y18321429D03*
D28*
X28517857Y18321429D03*
D27*
X28625000Y18321429D03*
X28732143Y18321429D03*
D30*
X28303571Y18214286D03*
D28*
X28303571Y18107143D03*
X28303571Y18000000D03*
D31*
X28410714Y18000000D03*
D28*
X28517857Y18000000D03*
D27*
X28625000Y18000000D03*
D28*
X28303571Y17892857D03*
D30*
X28303571Y17785714D03*
D28*
X28303571Y17678571D03*
D31*
X28410714Y17678571D03*
D28*
X28517857Y17678571D03*
D27*
X28625000Y17678571D03*
X28732143Y17678571D03*
X28946429Y18321429D03*
D28*
X29053571Y18321429D03*
D31*
X29160714Y18321429D03*
D28*
X29267857Y18321429D03*
D29*
X28946429Y18214286D03*
X29375000Y18214286D03*
D27*
X28946429Y18107143D03*
X29375000Y18107143D03*
X28946429Y18000000D03*
D28*
X29053571Y18000000D03*
D31*
X29160714Y18000000D03*
D28*
X29267857Y18000000D03*
D27*
X28946429Y17892857D03*
D29*
X28946429Y17785714D03*
D27*
X28946429Y17678571D03*
X29589286Y18321429D03*
D29*
X29589286Y18214286D03*
D27*
X29589286Y18107143D03*
X29589286Y18000000D03*
X29589286Y17892857D03*
D29*
X29589286Y17785714D03*
D27*
X29589286Y17678571D03*
X29696429Y17678571D03*
D28*
X29803571Y17678571D03*
D31*
X29910714Y17678571D03*
D28*
X30017857Y17678571D03*
D27*
X30339286Y18321429D03*
X30446429Y18321429D03*
D28*
X30553571Y18321429D03*
D29*
X30232143Y18214286D03*
D32*
X30660714Y18214286D03*
D27*
X30232143Y18107143D03*
D31*
X30660714Y18107143D03*
D27*
X30232143Y18000000D03*
X30339286Y18000000D03*
X30446429Y18000000D03*
D28*
X30553571Y18000000D03*
D31*
X30660714Y18000000D03*
D27*
X30232143Y17892857D03*
D31*
X30660714Y17892857D03*
D29*
X30232143Y17785714D03*
D32*
X30660714Y17785714D03*
D27*
X30232143Y17678571D03*
D31*
X30660714Y17678571D03*
D27*
X30982143Y18321429D03*
X31089286Y18321429D03*
X31196429Y18321429D03*
D28*
X31303571Y18321429D03*
D29*
X30875000Y18214286D03*
D27*
X30875000Y18107143D03*
X30875000Y18000000D03*
X30875000Y17892857D03*
D29*
X30875000Y17785714D03*
D27*
X30982143Y17678571D03*
X31089286Y17678571D03*
X31196429Y17678571D03*
D28*
X31303571Y17678571D03*
X31517857Y18321429D03*
D27*
X31625000Y18321429D03*
X31732143Y18321429D03*
X31839286Y18321429D03*
X31946429Y18321429D03*
D30*
X31517857Y18214286D03*
D28*
X31517857Y18107143D03*
X31517857Y18000000D03*
D27*
X31625000Y18000000D03*
X31732143Y18000000D03*
X31839286Y18000000D03*
D28*
X31517857Y17892857D03*
D30*
X31517857Y17785714D03*
D28*
X31517857Y17678571D03*
D27*
X31625000Y17678571D03*
X31732143Y17678571D03*
X31839286Y17678571D03*
X31946429Y17678571D03*
D11*
X85371429Y32842857D03*
X85828571Y32842857D03*
X85371429Y32728571D03*
X85485714Y32728571D03*
X85714286Y32728571D03*
X85828571Y32728571D03*
X85371429Y32614286D03*
X85600000Y32614286D03*
X85828571Y32614286D03*
X85371429Y32500000D03*
X85600000Y32500000D03*
X85828571Y32500000D03*
X85371429Y32385714D03*
X85828571Y32385714D03*
X85371429Y32271429D03*
X85828571Y32271429D03*
X85371429Y32157143D03*
X85828571Y32157143D03*
X86285714Y32842857D03*
X86171429Y32728571D03*
X86285714Y32728571D03*
X86285714Y32614286D03*
X86285714Y32500000D03*
X86285714Y32385714D03*
X86285714Y32271429D03*
X86171429Y32157143D03*
X86285714Y32157143D03*
X86400000Y32157143D03*
D22*
X59500000Y31500000D02*
X112500000Y31500000D01*
X112500000Y31500000D02*
X112500000Y8500000D01*
X112500000Y8500000D02*
X59500000Y8500000D01*
X59500000Y8500000D02*
X59500000Y31500000D01*
D31*
X79946429Y20321429D03*
D33*
X80053571Y20321429D03*
D31*
X80160714Y20321429D03*
X80267857Y20321429D03*
X80375000Y20321429D03*
D32*
X79946429Y20214286D03*
D31*
X79946429Y20107143D03*
X79946429Y20000000D03*
D33*
X80053571Y20000000D03*
D31*
X80160714Y20000000D03*
X80267857Y20000000D03*
X79946429Y19892857D03*
D32*
X79946429Y19785714D03*
D31*
X79946429Y19678571D03*
D33*
X80053571Y19678571D03*
D31*
X80160714Y19678571D03*
X80267857Y19678571D03*
X80375000Y19678571D03*
X80696429Y20321429D03*
D33*
X80803571Y20321429D03*
D31*
X80910714Y20321429D03*
X81017857Y20321429D03*
D32*
X80589286Y20214286D03*
D31*
X80589286Y20107143D03*
X80696429Y20000000D03*
D33*
X80803571Y20000000D03*
D31*
X80910714Y20000000D03*
X81017857Y19892857D03*
D32*
X81017857Y19785714D03*
D31*
X80589286Y19678571D03*
X80696429Y19678571D03*
D33*
X80803571Y19678571D03*
D31*
X80910714Y19678571D03*
D33*
X81232143Y20321429D03*
D31*
X81339286Y20321429D03*
X81446429Y20321429D03*
D33*
X81553571Y20321429D03*
D31*
X81660714Y20321429D03*
D32*
X81446429Y20214286D03*
D31*
X81446429Y20107143D03*
X81446429Y20000000D03*
X81446429Y19892857D03*
D32*
X81446429Y19785714D03*
D31*
X81446429Y19678571D03*
X81875000Y20321429D03*
D33*
X81982143Y20321429D03*
D31*
X82089286Y20321429D03*
X82196429Y20321429D03*
D33*
X82303571Y20321429D03*
D32*
X82089286Y20214286D03*
D31*
X82089286Y20107143D03*
X82089286Y20000000D03*
X82089286Y19892857D03*
D32*
X82089286Y19785714D03*
D31*
X81875000Y19678571D03*
D33*
X81982143Y19678571D03*
D31*
X82089286Y19678571D03*
X82196429Y19678571D03*
D33*
X82303571Y19678571D03*
D31*
X82517857Y20321429D03*
X82946429Y20321429D03*
D32*
X82517857Y20214286D03*
X82625000Y20214286D03*
X82839286Y20214286D03*
X82946429Y20214286D03*
D31*
X82517857Y20107143D03*
D33*
X82732143Y20107143D03*
D31*
X82946429Y20107143D03*
X82517857Y20000000D03*
D33*
X82732143Y20000000D03*
D31*
X82946429Y20000000D03*
X82517857Y19892857D03*
X82946429Y19892857D03*
D32*
X82517857Y19785714D03*
X82946429Y19785714D03*
D31*
X82517857Y19678571D03*
X82946429Y19678571D03*
X83267857Y20321429D03*
X83375000Y20321429D03*
D33*
X83482143Y20321429D03*
D32*
X83160714Y20214286D03*
X83589286Y20214286D03*
D31*
X83160714Y20107143D03*
X83589286Y20107143D03*
X83160714Y20000000D03*
X83267857Y20000000D03*
X83375000Y20000000D03*
D33*
X83482143Y20000000D03*
D31*
X83589286Y20000000D03*
X83160714Y19892857D03*
X83589286Y19892857D03*
D32*
X83160714Y19785714D03*
X83589286Y19785714D03*
D31*
X83160714Y19678571D03*
X83589286Y19678571D03*
D33*
X83803571Y20321429D03*
D31*
X83910714Y20321429D03*
X84017857Y20321429D03*
X84125000Y20321429D03*
D33*
X84232143Y20321429D03*
D32*
X84017857Y20214286D03*
D31*
X84017857Y20107143D03*
X84017857Y20000000D03*
X84017857Y19892857D03*
D32*
X84017857Y19785714D03*
D31*
X84017857Y19678571D03*
X84446429Y20321429D03*
D33*
X84553571Y20321429D03*
D31*
X84660714Y20321429D03*
X84767857Y20321429D03*
X84875000Y20321429D03*
D32*
X84446429Y20214286D03*
D31*
X84446429Y20107143D03*
X84446429Y20000000D03*
D33*
X84553571Y20000000D03*
D31*
X84660714Y20000000D03*
X84767857Y20000000D03*
X84446429Y19892857D03*
D32*
X84446429Y19785714D03*
D31*
X84446429Y19678571D03*
D33*
X84553571Y19678571D03*
D31*
X84660714Y19678571D03*
X84767857Y19678571D03*
X84875000Y19678571D03*
X85089286Y20321429D03*
X85196429Y20321429D03*
D33*
X85303571Y20321429D03*
D31*
X85410714Y20321429D03*
D32*
X85089286Y20214286D03*
X85517857Y20214286D03*
D31*
X85089286Y20107143D03*
X85517857Y20107143D03*
X85089286Y20000000D03*
X85517857Y20000000D03*
X85089286Y19892857D03*
X85517857Y19892857D03*
D32*
X85089286Y19785714D03*
X85517857Y19785714D03*
D31*
X85089286Y19678571D03*
X85196429Y19678571D03*
D33*
X85303571Y19678571D03*
D31*
X85410714Y19678571D03*
X86375000Y20000000D03*
D33*
X86482143Y20000000D03*
D31*
X86589286Y20000000D03*
X86696429Y20000000D03*
D33*
X86803571Y20000000D03*
D31*
X87660714Y20321429D03*
X87767857Y20321429D03*
D33*
X87875000Y20321429D03*
D31*
X87982143Y20321429D03*
D32*
X87660714Y20214286D03*
X88089286Y20214286D03*
D31*
X87660714Y20107143D03*
X88089286Y20107143D03*
X87660714Y20000000D03*
X87767857Y20000000D03*
D33*
X87875000Y20000000D03*
D31*
X87982143Y20000000D03*
X87660714Y19892857D03*
D33*
X87875000Y19892857D03*
D32*
X87660714Y19785714D03*
X87982143Y19785714D03*
D31*
X87660714Y19678571D03*
X88089286Y19678571D03*
D33*
X88303571Y20321429D03*
D31*
X88410714Y20321429D03*
X88517857Y20321429D03*
D33*
X88625000Y20321429D03*
D31*
X88732143Y20321429D03*
D34*
X88303571Y20214286D03*
D33*
X88303571Y20107143D03*
X88303571Y20000000D03*
D31*
X88410714Y20000000D03*
X88517857Y20000000D03*
D33*
X88625000Y20000000D03*
X88303571Y19892857D03*
D34*
X88303571Y19785714D03*
D33*
X88303571Y19678571D03*
D31*
X88410714Y19678571D03*
X88517857Y19678571D03*
D33*
X88625000Y19678571D03*
D31*
X88732143Y19678571D03*
X88946429Y20321429D03*
D33*
X89053571Y20321429D03*
D31*
X89160714Y20321429D03*
X89267857Y20321429D03*
D32*
X88946429Y20214286D03*
D34*
X89375000Y20214286D03*
D31*
X88946429Y20107143D03*
D33*
X89375000Y20107143D03*
D31*
X88946429Y20000000D03*
D33*
X89053571Y20000000D03*
D31*
X89160714Y20000000D03*
X89267857Y20000000D03*
X88946429Y19892857D03*
D32*
X88946429Y19785714D03*
D31*
X88946429Y19678571D03*
X89589286Y20321429D03*
D32*
X89589286Y20214286D03*
D31*
X89589286Y20107143D03*
X89589286Y20000000D03*
X89589286Y19892857D03*
D32*
X89589286Y19785714D03*
D31*
X89589286Y19678571D03*
X89696429Y19678571D03*
D33*
X89803571Y19678571D03*
D31*
X89910714Y19678571D03*
X90017857Y19678571D03*
X90339286Y20321429D03*
X90446429Y20321429D03*
D33*
X90553571Y20321429D03*
D32*
X90232143Y20214286D03*
X90660714Y20214286D03*
D31*
X90232143Y20107143D03*
X90660714Y20107143D03*
X90232143Y20000000D03*
X90339286Y20000000D03*
X90446429Y20000000D03*
D33*
X90553571Y20000000D03*
D31*
X90660714Y20000000D03*
X90232143Y19892857D03*
X90660714Y19892857D03*
D32*
X90232143Y19785714D03*
X90660714Y19785714D03*
D31*
X90232143Y19678571D03*
X90660714Y19678571D03*
X90982143Y20321429D03*
X91089286Y20321429D03*
X91196429Y20321429D03*
D33*
X91303571Y20321429D03*
D34*
X90875000Y20214286D03*
D33*
X90875000Y20107143D03*
X90875000Y20000000D03*
X90875000Y19892857D03*
D34*
X90875000Y19785714D03*
D31*
X90982143Y19678571D03*
X91089286Y19678571D03*
X91196429Y19678571D03*
D33*
X91303571Y19678571D03*
D31*
X91517857Y20321429D03*
D33*
X91625000Y20321429D03*
D31*
X91732143Y20321429D03*
X91839286Y20321429D03*
X91946429Y20321429D03*
D32*
X91517857Y20214286D03*
D31*
X91517857Y20107143D03*
X91517857Y20000000D03*
D33*
X91625000Y20000000D03*
D31*
X91732143Y20000000D03*
X91839286Y20000000D03*
X91517857Y19892857D03*
D32*
X91517857Y19785714D03*
D31*
X91517857Y19678571D03*
D33*
X91625000Y19678571D03*
D31*
X91732143Y19678571D03*
X91839286Y19678571D03*
X91946429Y19678571D03*
D11*
X125371429Y29092857D03*
X125828571Y29092857D03*
X125371429Y28978571D03*
X125485714Y28978571D03*
X125714286Y28978571D03*
X125828571Y28978571D03*
X125371429Y28864286D03*
X125600000Y28864286D03*
X125828571Y28864286D03*
X125371429Y28750000D03*
X125600000Y28750000D03*
X125828571Y28750000D03*
X125371429Y28635714D03*
X125828571Y28635714D03*
X125371429Y28521429D03*
X125828571Y28521429D03*
X125371429Y28407143D03*
X125828571Y28407143D03*
X126400000Y29092857D03*
X126285714Y28978571D03*
X126400000Y28978571D03*
X126171429Y28864286D03*
X126400000Y28864286D03*
X126057143Y28750000D03*
X126400000Y28750000D03*
X126057143Y28635714D03*
X126171429Y28635714D03*
X126285714Y28635714D03*
X126400000Y28635714D03*
X126514286Y28635714D03*
X126400000Y28521429D03*
X126400000Y28407143D03*
D22*
X116000000Y27750000D02*
X136000000Y27750000D01*
X136000000Y27750000D02*
X136000000Y12250000D01*
X136000000Y12250000D02*
X116000000Y12250000D01*
X116000000Y12250000D02*
X116000000Y27750000D01*
D31*
X119946429Y20321429D03*
D33*
X120053571Y20321429D03*
D31*
X120160714Y20321429D03*
X120267857Y20321429D03*
X120375000Y20321429D03*
D32*
X119946429Y20214286D03*
D31*
X119946429Y20107143D03*
X119946429Y20000000D03*
D33*
X120053571Y20000000D03*
D31*
X120160714Y20000000D03*
X120267857Y20000000D03*
X119946429Y19892857D03*
D32*
X119946429Y19785714D03*
D31*
X119946429Y19678571D03*
D33*
X120053571Y19678571D03*
D31*
X120160714Y19678571D03*
X120267857Y19678571D03*
X120375000Y19678571D03*
X120696429Y20321429D03*
D33*
X120803571Y20321429D03*
D31*
X120910714Y20321429D03*
X121017857Y20321429D03*
D32*
X120589286Y20214286D03*
D31*
X120589286Y20107143D03*
X120696429Y20000000D03*
D33*
X120803571Y20000000D03*
D31*
X120910714Y20000000D03*
X121017857Y19892857D03*
D32*
X121017857Y19785714D03*
D31*
X120589286Y19678571D03*
X120696429Y19678571D03*
D33*
X120803571Y19678571D03*
D31*
X120910714Y19678571D03*
D33*
X121232143Y20321429D03*
D31*
X121339286Y20321429D03*
X121446429Y20321429D03*
D33*
X121553571Y20321429D03*
D31*
X121660714Y20321429D03*
D32*
X121446429Y20214286D03*
D31*
X121446429Y20107143D03*
X121446429Y20000000D03*
X121446429Y19892857D03*
D32*
X121446429Y19785714D03*
D31*
X121446429Y19678571D03*
X121875000Y20321429D03*
D33*
X121982143Y20321429D03*
D31*
X122089286Y20321429D03*
X122196429Y20321429D03*
D33*
X122303571Y20321429D03*
D32*
X122089286Y20214286D03*
D31*
X122089286Y20107143D03*
X122089286Y20000000D03*
X122089286Y19892857D03*
D32*
X122089286Y19785714D03*
D31*
X121875000Y19678571D03*
D33*
X121982143Y19678571D03*
D31*
X122089286Y19678571D03*
X122196429Y19678571D03*
D33*
X122303571Y19678571D03*
D31*
X122517857Y20321429D03*
X122946429Y20321429D03*
D32*
X122517857Y20214286D03*
X122625000Y20214286D03*
X122839286Y20214286D03*
X122946429Y20214286D03*
D31*
X122517857Y20107143D03*
D33*
X122732143Y20107143D03*
D31*
X122946429Y20107143D03*
X122517857Y20000000D03*
D33*
X122732143Y20000000D03*
D31*
X122946429Y20000000D03*
X122517857Y19892857D03*
X122946429Y19892857D03*
D32*
X122517857Y19785714D03*
X122946429Y19785714D03*
D31*
X122517857Y19678571D03*
X122946429Y19678571D03*
X123267857Y20321429D03*
X123375000Y20321429D03*
D33*
X123482143Y20321429D03*
D32*
X123160714Y20214286D03*
X123589286Y20214286D03*
D31*
X123160714Y20107143D03*
X123589286Y20107143D03*
X123160714Y20000000D03*
X123267857Y20000000D03*
X123375000Y20000000D03*
D33*
X123482143Y20000000D03*
D31*
X123589286Y20000000D03*
X123160714Y19892857D03*
X123589286Y19892857D03*
D32*
X123160714Y19785714D03*
X123589286Y19785714D03*
D31*
X123160714Y19678571D03*
X123589286Y19678571D03*
D33*
X123803571Y20321429D03*
D31*
X123910714Y20321429D03*
X124017857Y20321429D03*
X124125000Y20321429D03*
D33*
X124232143Y20321429D03*
D32*
X124017857Y20214286D03*
D31*
X124017857Y20107143D03*
X124017857Y20000000D03*
X124017857Y19892857D03*
D32*
X124017857Y19785714D03*
D31*
X124017857Y19678571D03*
X124446429Y20321429D03*
D33*
X124553571Y20321429D03*
D31*
X124660714Y20321429D03*
X124767857Y20321429D03*
X124875000Y20321429D03*
D32*
X124446429Y20214286D03*
D31*
X124446429Y20107143D03*
X124446429Y20000000D03*
D33*
X124553571Y20000000D03*
D31*
X124660714Y20000000D03*
X124767857Y20000000D03*
X124446429Y19892857D03*
D32*
X124446429Y19785714D03*
D31*
X124446429Y19678571D03*
D33*
X124553571Y19678571D03*
D31*
X124660714Y19678571D03*
X124767857Y19678571D03*
X124875000Y19678571D03*
X125089286Y20321429D03*
X125196429Y20321429D03*
D33*
X125303571Y20321429D03*
D31*
X125410714Y20321429D03*
D32*
X125089286Y20214286D03*
X125517857Y20214286D03*
D31*
X125089286Y20107143D03*
X125517857Y20107143D03*
X125089286Y20000000D03*
X125517857Y20000000D03*
X125089286Y19892857D03*
X125517857Y19892857D03*
D32*
X125089286Y19785714D03*
X125517857Y19785714D03*
D31*
X125089286Y19678571D03*
X125196429Y19678571D03*
D33*
X125303571Y19678571D03*
D31*
X125410714Y19678571D03*
X126375000Y20000000D03*
D33*
X126482143Y20000000D03*
D31*
X126589286Y20000000D03*
X126696429Y20000000D03*
D33*
X126803571Y20000000D03*
D31*
X127660714Y20321429D03*
X127767857Y20321429D03*
D33*
X127875000Y20321429D03*
D31*
X127982143Y20321429D03*
D32*
X127660714Y20214286D03*
X128089286Y20214286D03*
D31*
X127660714Y20107143D03*
X128089286Y20107143D03*
X127660714Y20000000D03*
X127767857Y20000000D03*
D33*
X127875000Y20000000D03*
D31*
X127982143Y20000000D03*
X127660714Y19892857D03*
D33*
X127875000Y19892857D03*
D32*
X127660714Y19785714D03*
X127982143Y19785714D03*
D31*
X127660714Y19678571D03*
X128089286Y19678571D03*
X128303571Y20321429D03*
X128410714Y20321429D03*
D35*
X128517857Y20321429D03*
D31*
X128625000Y20321429D03*
X128732143Y20321429D03*
D32*
X128303571Y20214286D03*
D31*
X128303571Y20107143D03*
X128303571Y20000000D03*
X128410714Y20000000D03*
D35*
X128517857Y20000000D03*
D31*
X128625000Y20000000D03*
X128303571Y19892857D03*
D32*
X128303571Y19785714D03*
D31*
X128303571Y19678571D03*
X128410714Y19678571D03*
D35*
X128517857Y19678571D03*
D31*
X128625000Y19678571D03*
X128732143Y19678571D03*
X128946429Y20321429D03*
X129053571Y20321429D03*
X129160714Y20321429D03*
D35*
X129267857Y20321429D03*
D32*
X128946429Y20214286D03*
X129375000Y20214286D03*
D31*
X128946429Y20107143D03*
X129375000Y20107143D03*
X128946429Y20000000D03*
X129053571Y20000000D03*
X129160714Y20000000D03*
D35*
X129267857Y20000000D03*
D31*
X128946429Y19892857D03*
D32*
X128946429Y19785714D03*
D31*
X128946429Y19678571D03*
X129589286Y20321429D03*
D32*
X129589286Y20214286D03*
D31*
X129589286Y20107143D03*
X129589286Y20000000D03*
X129589286Y19892857D03*
D32*
X129589286Y19785714D03*
D31*
X129589286Y19678571D03*
X129696429Y19678571D03*
X129803571Y19678571D03*
X129910714Y19678571D03*
D35*
X130017857Y19678571D03*
D31*
X130339286Y20321429D03*
X130446429Y20321429D03*
X130553571Y20321429D03*
D32*
X130232143Y20214286D03*
X130660714Y20214286D03*
D31*
X130232143Y20107143D03*
X130660714Y20107143D03*
X130232143Y20000000D03*
X130339286Y20000000D03*
X130446429Y20000000D03*
X130553571Y20000000D03*
X130660714Y20000000D03*
X130232143Y19892857D03*
X130660714Y19892857D03*
D32*
X130232143Y19785714D03*
X130660714Y19785714D03*
D31*
X130232143Y19678571D03*
X130660714Y19678571D03*
X130982143Y20321429D03*
X131089286Y20321429D03*
X131196429Y20321429D03*
X131303571Y20321429D03*
D32*
X130875000Y20214286D03*
D31*
X130875000Y20107143D03*
X130875000Y20000000D03*
X130875000Y19892857D03*
D32*
X130875000Y19785714D03*
D31*
X130982143Y19678571D03*
X131089286Y19678571D03*
X131196429Y19678571D03*
X131303571Y19678571D03*
D35*
X131517857Y20321429D03*
D31*
X131625000Y20321429D03*
X131732143Y20321429D03*
X131839286Y20321429D03*
X131946429Y20321429D03*
D36*
X131517857Y20214286D03*
D35*
X131517857Y20107143D03*
X131517857Y20000000D03*
D31*
X131625000Y20000000D03*
X131732143Y20000000D03*
X131839286Y20000000D03*
D35*
X131517857Y19892857D03*
D36*
X131517857Y19785714D03*
D35*
X131517857Y19678571D03*
D31*
X131625000Y19678571D03*
X131732143Y19678571D03*
X131839286Y19678571D03*
X131946429Y19678571D03*
D11*
X125600000Y8842857D03*
X125714286Y8842857D03*
X125828571Y8842857D03*
X125714286Y8728571D03*
X125714286Y8614286D03*
X125714286Y8500000D03*
X125371429Y8385714D03*
X125714286Y8385714D03*
X125371429Y8271429D03*
X125714286Y8271429D03*
X125485714Y8157143D03*
X125600000Y8157143D03*
X126057143Y8842857D03*
X126171429Y8842857D03*
X126285714Y8842857D03*
X126400000Y8842857D03*
X126514286Y8728571D03*
X126514286Y8614286D03*
X126171429Y8500000D03*
X126285714Y8500000D03*
X126400000Y8500000D03*
X126514286Y8385714D03*
X126514286Y8271429D03*
X126057143Y8157143D03*
X126171429Y8157143D03*
X126285714Y8157143D03*
X126400000Y8157143D03*
X7371429Y35192857D03*
D37*
X7485714Y35192857D03*
D11*
X7600000Y35192857D03*
D37*
X7714286Y35192857D03*
D11*
X7371429Y35078571D03*
X7828571Y35078571D03*
X7371429Y34964286D03*
X7828571Y34964286D03*
X7371429Y34850000D03*
X7828571Y34850000D03*
X7371429Y34735714D03*
X7828571Y34735714D03*
X7371429Y34621429D03*
X7828571Y34621429D03*
X7371429Y34507143D03*
D37*
X7485714Y34507143D03*
D11*
X7600000Y34507143D03*
D37*
X7714286Y34507143D03*
D11*
X8057143Y35192857D03*
X8171429Y35192857D03*
D10*
X8285714Y35192857D03*
D11*
X8400000Y35192857D03*
X8514286Y35078571D03*
X8514286Y34964286D03*
X8171429Y34850000D03*
D10*
X8285714Y34850000D03*
D11*
X8400000Y34850000D03*
X8514286Y34735714D03*
X8514286Y34621429D03*
X8057143Y34507143D03*
X8171429Y34507143D03*
D10*
X8285714Y34507143D03*
D11*
X8400000Y34507143D03*
X15371429Y35192857D03*
X15485714Y35192857D03*
D10*
X15600000Y35192857D03*
D11*
X15714286Y35192857D03*
X15371429Y35078571D03*
X15828571Y35078571D03*
X15371429Y34964286D03*
X15828571Y34964286D03*
X15371429Y34850000D03*
X15828571Y34850000D03*
X15371429Y34735714D03*
X15828571Y34735714D03*
X15371429Y34621429D03*
X15828571Y34621429D03*
X15371429Y34507143D03*
X15485714Y34507143D03*
D10*
X15600000Y34507143D03*
D11*
X15714286Y34507143D03*
X16400000Y35192857D03*
D18*
X16285714Y35078571D03*
D11*
X16400000Y35078571D03*
X16171429Y34964286D03*
X16400000Y34964286D03*
X16057143Y34850000D03*
X16400000Y34850000D03*
X16057143Y34735714D03*
X16171429Y34735714D03*
D18*
X16285714Y34735714D03*
D11*
X16400000Y34735714D03*
X16514286Y34735714D03*
X16400000Y34621429D03*
X16400000Y34507143D03*
X23371429Y34592857D03*
X23485714Y34592857D03*
X23600000Y34592857D03*
X23714286Y34592857D03*
D18*
X23828571Y34592857D03*
D11*
X23371429Y34478571D03*
X23371429Y34364286D03*
X23371429Y34250000D03*
X23485714Y34250000D03*
X23600000Y34250000D03*
X23714286Y34250000D03*
X23371429Y34135714D03*
X23371429Y34021429D03*
X23371429Y33907143D03*
X24285714Y34592857D03*
X24171429Y34478571D03*
X24285714Y34478571D03*
X24285714Y34364286D03*
X24285714Y34250000D03*
X24285714Y34135714D03*
X24285714Y34021429D03*
X24171429Y33907143D03*
X24285714Y33907143D03*
X24400000Y33907143D03*
X31485714Y34592857D03*
X31600000Y34592857D03*
X31714286Y34592857D03*
D18*
X31828571Y34592857D03*
D11*
X31371429Y34478571D03*
X31371429Y34364286D03*
X31371429Y34250000D03*
X31371429Y34135714D03*
X31371429Y34021429D03*
X31485714Y33907143D03*
X31600000Y33907143D03*
X31714286Y33907143D03*
D18*
X31828571Y33907143D03*
D11*
X32171429Y34592857D03*
X32285714Y34592857D03*
X32400000Y34592857D03*
X32057143Y34478571D03*
X32514286Y34478571D03*
X32514286Y34364286D03*
X32400000Y34250000D03*
X32285714Y34135714D03*
X32171429Y34021429D03*
X32057143Y33907143D03*
X32171429Y33907143D03*
X32285714Y33907143D03*
X32400000Y33907143D03*
X32514286Y33907143D03*
X46485714Y33592857D03*
X46600000Y33592857D03*
X46714286Y33592857D03*
X46828571Y33592857D03*
X46371429Y33478571D03*
X46371429Y33364286D03*
X46371429Y33250000D03*
X46371429Y33135714D03*
X46371429Y33021429D03*
X46485714Y32907143D03*
X46600000Y32907143D03*
X46714286Y32907143D03*
X46828571Y32907143D03*
X47057143Y33592857D03*
X47171429Y33592857D03*
D20*
X47285714Y33592857D03*
D11*
X47400000Y33592857D03*
X47514286Y33478571D03*
X47514286Y33364286D03*
X47171429Y33250000D03*
D20*
X47285714Y33250000D03*
D11*
X47400000Y33250000D03*
X47514286Y33135714D03*
X47514286Y33021429D03*
X47057143Y32907143D03*
X47171429Y32907143D03*
D20*
X47285714Y32907143D03*
D11*
X47400000Y32907143D03*
X56485714Y10292857D03*
X56600000Y10292857D03*
X56714286Y10292857D03*
X56828571Y10292857D03*
X56371429Y10178571D03*
X56371429Y10064286D03*
X56371429Y9950000D03*
X56371429Y9835714D03*
X56371429Y9721429D03*
X56485714Y9607143D03*
X56600000Y9607143D03*
X56714286Y9607143D03*
X56828571Y9607143D03*
X57400000Y10292857D03*
D20*
X57285714Y10178571D03*
D11*
X57400000Y10178571D03*
X57171429Y10064286D03*
X57400000Y10064286D03*
X57057143Y9950000D03*
X57400000Y9950000D03*
X57057143Y9835714D03*
X57171429Y9835714D03*
D20*
X57285714Y9835714D03*
D11*
X57400000Y9835714D03*
X57514286Y9835714D03*
X57400000Y9721429D03*
X57400000Y9607143D03*
X114371429Y33292857D03*
X114485714Y33292857D03*
X114600000Y33292857D03*
X114714286Y33292857D03*
X114371429Y33178571D03*
X114828571Y33178571D03*
X114371429Y33064286D03*
X114828571Y33064286D03*
X114371429Y32950000D03*
X114485714Y32950000D03*
X114600000Y32950000D03*
X114714286Y32950000D03*
X114371429Y32835714D03*
X114600000Y32835714D03*
X114371429Y32721429D03*
X114714286Y32721429D03*
X114371429Y32607143D03*
X114828571Y32607143D03*
X115285714Y33292857D03*
X115171429Y33178571D03*
X115285714Y33178571D03*
X115285714Y33064286D03*
X115285714Y32950000D03*
X115285714Y32835714D03*
X115285714Y32721429D03*
X115171429Y32607143D03*
X115285714Y32607143D03*
X115400000Y32607143D03*
X119371429Y33292857D03*
X119485714Y33292857D03*
X119600000Y33292857D03*
X119714286Y33292857D03*
X119371429Y33178571D03*
X119828571Y33178571D03*
X119371429Y33064286D03*
X119828571Y33064286D03*
X119371429Y32950000D03*
X119485714Y32950000D03*
X119600000Y32950000D03*
X119714286Y32950000D03*
X119371429Y32835714D03*
X119600000Y32835714D03*
X119371429Y32721429D03*
X119714286Y32721429D03*
X119371429Y32607143D03*
X119828571Y32607143D03*
X120171429Y33292857D03*
X120285714Y33292857D03*
X120400000Y33292857D03*
X120057143Y33178571D03*
X120514286Y33178571D03*
X120514286Y33064286D03*
X120400000Y32950000D03*
X120285714Y32835714D03*
X120171429Y32721429D03*
X120057143Y32607143D03*
X120171429Y32607143D03*
X120285714Y32607143D03*
X120400000Y32607143D03*
X120514286Y32607143D03*
X125371429Y33292857D03*
X125485714Y33292857D03*
X125600000Y33292857D03*
X125714286Y33292857D03*
X125371429Y33178571D03*
X125828571Y33178571D03*
X125371429Y33064286D03*
X125828571Y33064286D03*
X125371429Y32950000D03*
X125485714Y32950000D03*
X125600000Y32950000D03*
X125714286Y32950000D03*
X125371429Y32835714D03*
X125600000Y32835714D03*
X125371429Y32721429D03*
X125714286Y32721429D03*
X125371429Y32607143D03*
X125828571Y32607143D03*
X126057143Y33292857D03*
X126171429Y33292857D03*
X126285714Y33292857D03*
X126400000Y33292857D03*
X126514286Y33178571D03*
X126514286Y33064286D03*
X126171429Y32950000D03*
X126285714Y32950000D03*
X126400000Y32950000D03*
X126514286Y32835714D03*
X126514286Y32721429D03*
X126057143Y32607143D03*
X126171429Y32607143D03*
X126285714Y32607143D03*
X126400000Y32607143D03*
X32371429Y48142857D03*
X32828571Y48142857D03*
X32371429Y48028571D03*
X32828571Y48028571D03*
X32371429Y47914286D03*
X32828571Y47914286D03*
X32371429Y47800000D03*
X32828571Y47800000D03*
X32371429Y47685714D03*
X32828571Y47685714D03*
X32371429Y47571429D03*
X32828571Y47571429D03*
X32485714Y47457143D03*
X32600000Y47457143D03*
X32714286Y47457143D03*
D20*
X33285714Y48142857D03*
D11*
X33171429Y48028571D03*
D20*
X33285714Y48028571D03*
X33285714Y47914286D03*
X33285714Y47800000D03*
X33285714Y47685714D03*
X33285714Y47571429D03*
D11*
X33171429Y47457143D03*
D20*
X33285714Y47457143D03*
D11*
X33400000Y47457143D03*
X37142857Y49792857D03*
X37257143Y49792857D03*
X37371429Y49792857D03*
X37485714Y49792857D03*
X37028571Y49678571D03*
X37028571Y49564286D03*
X37028571Y49450000D03*
X37028571Y49335714D03*
X37028571Y49221429D03*
X37142857Y49107143D03*
X37257143Y49107143D03*
X37371429Y49107143D03*
X37485714Y49107143D03*
D20*
X37942857Y49792857D03*
D11*
X37828571Y49678571D03*
D20*
X37942857Y49678571D03*
X37942857Y49564286D03*
X37942857Y49450000D03*
X37942857Y49335714D03*
X37942857Y49221429D03*
D11*
X37828571Y49107143D03*
D20*
X37942857Y49107143D03*
D11*
X38057143Y49107143D03*
X38628571Y49792857D03*
X38514286Y49678571D03*
X38628571Y49678571D03*
X38628571Y49564286D03*
X38628571Y49450000D03*
X38628571Y49335714D03*
X38628571Y49221429D03*
X38514286Y49107143D03*
X38628571Y49107143D03*
X38742857Y49107143D03*
X27142857Y48292857D03*
X27257143Y48292857D03*
X27371429Y48292857D03*
D18*
X27485714Y48292857D03*
D11*
X27028571Y48178571D03*
X27028571Y48064286D03*
X27028571Y47950000D03*
X27028571Y47835714D03*
X27028571Y47721429D03*
X27142857Y47607143D03*
X27257143Y47607143D03*
X27371429Y47607143D03*
D18*
X27485714Y47607143D03*
D11*
X27942857Y48292857D03*
X27828571Y48178571D03*
X27942857Y48178571D03*
X27942857Y48064286D03*
X27942857Y47950000D03*
X27942857Y47835714D03*
X27942857Y47721429D03*
X27828571Y47607143D03*
X27942857Y47607143D03*
X28057143Y47607143D03*
X28742857Y48292857D03*
X28628571Y48178571D03*
X28742857Y48178571D03*
D18*
X28514286Y48064286D03*
D11*
X28742857Y48064286D03*
X28400000Y47950000D03*
X28742857Y47950000D03*
X28400000Y47835714D03*
D18*
X28514286Y47835714D03*
D11*
X28628571Y47835714D03*
X28742857Y47835714D03*
X28857143Y47835714D03*
X28742857Y47721429D03*
X28742857Y47607143D03*
X37028571Y44442857D03*
X37142857Y44442857D03*
X37257143Y44442857D03*
X37371429Y44442857D03*
X37028571Y44328571D03*
X37485714Y44328571D03*
X37028571Y44214286D03*
X37485714Y44214286D03*
X37028571Y44100000D03*
X37485714Y44100000D03*
X37028571Y43985714D03*
X37485714Y43985714D03*
X37028571Y43871429D03*
X37485714Y43871429D03*
X37028571Y43757143D03*
X37142857Y43757143D03*
X37257143Y43757143D03*
X37371429Y43757143D03*
D20*
X37942857Y44442857D03*
D11*
X37828571Y44328571D03*
D20*
X37942857Y44328571D03*
X37942857Y44214286D03*
X37942857Y44100000D03*
X37942857Y43985714D03*
X37942857Y43871429D03*
D11*
X37828571Y43757143D03*
D20*
X37942857Y43757143D03*
D11*
X38057143Y43757143D03*
X38628571Y44442857D03*
X38514286Y44328571D03*
X38628571Y44328571D03*
X38628571Y44214286D03*
X38628571Y44100000D03*
X38628571Y43985714D03*
X38628571Y43871429D03*
X38514286Y43757143D03*
X38628571Y43757143D03*
X38742857Y43757143D03*
D18*
X32028571Y42192857D03*
D11*
X32142857Y42192857D03*
X32257143Y42192857D03*
X32371429Y42192857D03*
D18*
X32028571Y42078571D03*
D11*
X32485714Y42078571D03*
D18*
X32028571Y41964286D03*
D11*
X32485714Y41964286D03*
D18*
X32028571Y41850000D03*
D11*
X32485714Y41850000D03*
D18*
X32028571Y41735714D03*
D11*
X32485714Y41735714D03*
D18*
X32028571Y41621429D03*
D11*
X32485714Y41621429D03*
D18*
X32028571Y41507143D03*
D11*
X32142857Y41507143D03*
X32257143Y41507143D03*
X32371429Y41507143D03*
X32942857Y42192857D03*
X32828571Y42078571D03*
X32942857Y42078571D03*
X32942857Y41964286D03*
X32942857Y41850000D03*
X32942857Y41735714D03*
X32942857Y41621429D03*
X32828571Y41507143D03*
X32942857Y41507143D03*
X33057143Y41507143D03*
X33742857Y42192857D03*
X33628571Y42078571D03*
X33742857Y42078571D03*
X33514286Y41964286D03*
X33742857Y41964286D03*
X33400000Y41850000D03*
X33742857Y41850000D03*
X33400000Y41735714D03*
X33514286Y41735714D03*
X33628571Y41735714D03*
X33742857Y41735714D03*
X33857143Y41735714D03*
X33742857Y41621429D03*
X33742857Y41507143D03*
X27028571Y44292857D03*
X27142857Y44292857D03*
X27257143Y44292857D03*
X27371429Y44292857D03*
X27028571Y44178571D03*
D18*
X27485714Y44178571D03*
D11*
X27028571Y44064286D03*
D18*
X27485714Y44064286D03*
D11*
X27028571Y43950000D03*
X27142857Y43950000D03*
X27257143Y43950000D03*
X27371429Y43950000D03*
X27028571Y43835714D03*
X27257143Y43835714D03*
X27028571Y43721429D03*
X27371429Y43721429D03*
X27028571Y43607143D03*
D18*
X27485714Y43607143D03*
D11*
X27942857Y44292857D03*
X27828571Y44178571D03*
X27942857Y44178571D03*
X27942857Y44064286D03*
X27942857Y43950000D03*
X27942857Y43835714D03*
X27942857Y43721429D03*
X27828571Y43607143D03*
X27942857Y43607143D03*
X28057143Y43607143D03*
X28628571Y44292857D03*
D18*
X28514286Y44178571D03*
D11*
X28628571Y44178571D03*
X28628571Y44064286D03*
X28628571Y43950000D03*
X28628571Y43835714D03*
X28628571Y43721429D03*
D18*
X28514286Y43607143D03*
D11*
X28628571Y43607143D03*
X28742857Y43607143D03*
X62371429Y48142857D03*
X62828571Y48142857D03*
X62371429Y48028571D03*
X62828571Y48028571D03*
X62371429Y47914286D03*
X62828571Y47914286D03*
X62371429Y47800000D03*
X62828571Y47800000D03*
X62371429Y47685714D03*
X62828571Y47685714D03*
X62371429Y47571429D03*
X62828571Y47571429D03*
X62485714Y47457143D03*
X62600000Y47457143D03*
X62714286Y47457143D03*
X63171429Y48142857D03*
D20*
X63285714Y48142857D03*
D11*
X63400000Y48142857D03*
X63057143Y48028571D03*
X63514286Y48028571D03*
X63514286Y47914286D03*
X63400000Y47800000D03*
D20*
X63285714Y47685714D03*
D11*
X63171429Y47571429D03*
X63057143Y47457143D03*
X63171429Y47457143D03*
D20*
X63285714Y47457143D03*
D11*
X63400000Y47457143D03*
X63514286Y47457143D03*
X67142857Y49792857D03*
X67257143Y49792857D03*
X67371429Y49792857D03*
X67485714Y49792857D03*
X67028571Y49678571D03*
X67028571Y49564286D03*
X67028571Y49450000D03*
X67028571Y49335714D03*
X67028571Y49221429D03*
X67142857Y49107143D03*
X67257143Y49107143D03*
X67371429Y49107143D03*
X67485714Y49107143D03*
X67942857Y49792857D03*
X67828571Y49678571D03*
X67942857Y49678571D03*
X67942857Y49564286D03*
X67942857Y49450000D03*
X67942857Y49335714D03*
X67942857Y49221429D03*
X67828571Y49107143D03*
X67942857Y49107143D03*
X68057143Y49107143D03*
X68514286Y49792857D03*
X68628571Y49792857D03*
X68742857Y49792857D03*
X68400000Y49678571D03*
X68857143Y49678571D03*
X68857143Y49564286D03*
X68742857Y49450000D03*
X68628571Y49335714D03*
X68514286Y49221429D03*
X68400000Y49107143D03*
X68514286Y49107143D03*
X68628571Y49107143D03*
X68742857Y49107143D03*
X68857143Y49107143D03*
X57142857Y48292857D03*
X57257143Y48292857D03*
X57371429Y48292857D03*
X57485714Y48292857D03*
X57028571Y48178571D03*
X57028571Y48064286D03*
X57028571Y47950000D03*
X57028571Y47835714D03*
X57028571Y47721429D03*
X57142857Y47607143D03*
X57257143Y47607143D03*
X57371429Y47607143D03*
X57485714Y47607143D03*
D20*
X57942857Y48292857D03*
D11*
X57828571Y48178571D03*
D20*
X57942857Y48178571D03*
X57942857Y48064286D03*
X57942857Y47950000D03*
X57942857Y47835714D03*
X57942857Y47721429D03*
D11*
X57828571Y47607143D03*
D20*
X57942857Y47607143D03*
D11*
X58057143Y47607143D03*
X58400000Y48292857D03*
X58514286Y48292857D03*
X58628571Y48292857D03*
X58742857Y48292857D03*
X58857143Y48292857D03*
X58400000Y48178571D03*
X58400000Y48064286D03*
X58400000Y47950000D03*
X58514286Y47950000D03*
X58628571Y47950000D03*
X58742857Y47950000D03*
X58857143Y47835714D03*
X58857143Y47721429D03*
X58400000Y47607143D03*
X58514286Y47607143D03*
X58628571Y47607143D03*
X58742857Y47607143D03*
X67028571Y44442857D03*
X67142857Y44442857D03*
X67257143Y44442857D03*
X67371429Y44442857D03*
X67028571Y44328571D03*
X67485714Y44328571D03*
X67028571Y44214286D03*
X67485714Y44214286D03*
X67028571Y44100000D03*
X67485714Y44100000D03*
X67028571Y43985714D03*
X67485714Y43985714D03*
X67028571Y43871429D03*
X67485714Y43871429D03*
X67028571Y43757143D03*
X67142857Y43757143D03*
X67257143Y43757143D03*
X67371429Y43757143D03*
X67942857Y44442857D03*
X67828571Y44328571D03*
X67942857Y44328571D03*
X67942857Y44214286D03*
X67942857Y44100000D03*
X67942857Y43985714D03*
X67942857Y43871429D03*
X67828571Y43757143D03*
X67942857Y43757143D03*
X68057143Y43757143D03*
X68514286Y44442857D03*
X68628571Y44442857D03*
X68742857Y44442857D03*
X68400000Y44328571D03*
X68857143Y44328571D03*
X68857143Y44214286D03*
X68742857Y44100000D03*
X68628571Y43985714D03*
X68514286Y43871429D03*
X68400000Y43757143D03*
X68514286Y43757143D03*
X68628571Y43757143D03*
X68742857Y43757143D03*
X68857143Y43757143D03*
X62028571Y42192857D03*
X62142857Y42192857D03*
X62257143Y42192857D03*
X62371429Y42192857D03*
X62028571Y42078571D03*
X62485714Y42078571D03*
X62028571Y41964286D03*
X62485714Y41964286D03*
X62028571Y41850000D03*
X62485714Y41850000D03*
X62028571Y41735714D03*
X62485714Y41735714D03*
X62028571Y41621429D03*
X62485714Y41621429D03*
X62028571Y41507143D03*
X62142857Y41507143D03*
X62257143Y41507143D03*
X62371429Y41507143D03*
D20*
X62942857Y42192857D03*
D11*
X62828571Y42078571D03*
D20*
X62942857Y42078571D03*
X62942857Y41964286D03*
X62942857Y41850000D03*
X62942857Y41735714D03*
X62942857Y41621429D03*
D11*
X62828571Y41507143D03*
D20*
X62942857Y41507143D03*
D11*
X63057143Y41507143D03*
X63400000Y42192857D03*
X63514286Y42192857D03*
X63628571Y42192857D03*
X63742857Y42192857D03*
X63857143Y42192857D03*
X63400000Y42078571D03*
X63400000Y41964286D03*
X63400000Y41850000D03*
X63514286Y41850000D03*
X63628571Y41850000D03*
X63742857Y41850000D03*
X63857143Y41735714D03*
X63857143Y41621429D03*
X63400000Y41507143D03*
X63514286Y41507143D03*
X63628571Y41507143D03*
X63742857Y41507143D03*
X57028571Y44292857D03*
X57142857Y44292857D03*
X57257143Y44292857D03*
X57371429Y44292857D03*
X57028571Y44178571D03*
X57485714Y44178571D03*
X57028571Y44064286D03*
X57485714Y44064286D03*
X57028571Y43950000D03*
X57142857Y43950000D03*
X57257143Y43950000D03*
X57371429Y43950000D03*
X57028571Y43835714D03*
X57257143Y43835714D03*
X57028571Y43721429D03*
X57371429Y43721429D03*
X57028571Y43607143D03*
X57485714Y43607143D03*
D20*
X57942857Y44292857D03*
D11*
X57828571Y44178571D03*
D20*
X57942857Y44178571D03*
X57942857Y44064286D03*
X57942857Y43950000D03*
X57942857Y43835714D03*
X57942857Y43721429D03*
D11*
X57828571Y43607143D03*
D20*
X57942857Y43607143D03*
D11*
X58057143Y43607143D03*
X58514286Y44292857D03*
X58628571Y44292857D03*
X58742857Y44292857D03*
X58400000Y44178571D03*
X58857143Y44178571D03*
X58857143Y44064286D03*
X58742857Y43950000D03*
X58628571Y43835714D03*
X58514286Y43721429D03*
X58400000Y43607143D03*
X58514286Y43607143D03*
X58628571Y43607143D03*
X58742857Y43607143D03*
X58857143Y43607143D03*
X81371429Y45142857D03*
X81828571Y45142857D03*
X81371429Y45028571D03*
X81828571Y45028571D03*
X81371429Y44914286D03*
X81828571Y44914286D03*
X81371429Y44800000D03*
X81828571Y44800000D03*
X81371429Y44685714D03*
X81828571Y44685714D03*
X81371429Y44571429D03*
X81828571Y44571429D03*
X81485714Y44457143D03*
X81600000Y44457143D03*
X81714286Y44457143D03*
X82057143Y45142857D03*
X82171429Y45142857D03*
X82285714Y45142857D03*
X82400000Y45142857D03*
X82514286Y45028571D03*
X82514286Y44914286D03*
X82171429Y44800000D03*
X82285714Y44800000D03*
X82400000Y44800000D03*
X82514286Y44685714D03*
X82514286Y44571429D03*
X82057143Y44457143D03*
X82171429Y44457143D03*
X82285714Y44457143D03*
X82400000Y44457143D03*
X86142857Y46792857D03*
X86257143Y46792857D03*
X86371429Y46792857D03*
X86485714Y46792857D03*
X86028571Y46678571D03*
X86028571Y46564286D03*
X86028571Y46450000D03*
X86028571Y46335714D03*
X86028571Y46221429D03*
X86142857Y46107143D03*
X86257143Y46107143D03*
X86371429Y46107143D03*
X86485714Y46107143D03*
X86942857Y46792857D03*
X86828571Y46678571D03*
X86942857Y46678571D03*
X86942857Y46564286D03*
X86942857Y46450000D03*
X86942857Y46335714D03*
X86942857Y46221429D03*
X86828571Y46107143D03*
X86942857Y46107143D03*
X87057143Y46107143D03*
X87400000Y46792857D03*
X87514286Y46792857D03*
X87628571Y46792857D03*
X87742857Y46792857D03*
X87857143Y46678571D03*
X87857143Y46564286D03*
X87514286Y46450000D03*
X87628571Y46450000D03*
X87742857Y46450000D03*
X87857143Y46335714D03*
X87857143Y46221429D03*
X87400000Y46107143D03*
X87514286Y46107143D03*
X87628571Y46107143D03*
X87742857Y46107143D03*
X76142857Y45292857D03*
X76257143Y45292857D03*
X76371429Y45292857D03*
X76485714Y45292857D03*
X76028571Y45178571D03*
X76028571Y45064286D03*
X76028571Y44950000D03*
X76028571Y44835714D03*
X76028571Y44721429D03*
X76142857Y44607143D03*
X76257143Y44607143D03*
X76371429Y44607143D03*
X76485714Y44607143D03*
X76942857Y45292857D03*
X76828571Y45178571D03*
X76942857Y45178571D03*
X76942857Y45064286D03*
X76942857Y44950000D03*
X76942857Y44835714D03*
X76942857Y44721429D03*
X76828571Y44607143D03*
X76942857Y44607143D03*
X77057143Y44607143D03*
X77514286Y45292857D03*
X77628571Y45292857D03*
X77742857Y45292857D03*
X77400000Y45178571D03*
X77400000Y45064286D03*
X77400000Y44950000D03*
X77514286Y44950000D03*
X77628571Y44950000D03*
X77742857Y44950000D03*
X77400000Y44835714D03*
X77857143Y44835714D03*
X77400000Y44721429D03*
X77857143Y44721429D03*
X77514286Y44607143D03*
X77628571Y44607143D03*
X77742857Y44607143D03*
X86028571Y41442857D03*
X86142857Y41442857D03*
X86257143Y41442857D03*
X86371429Y41442857D03*
X86028571Y41328571D03*
X86485714Y41328571D03*
X86028571Y41214286D03*
X86485714Y41214286D03*
X86028571Y41100000D03*
X86485714Y41100000D03*
X86028571Y40985714D03*
X86485714Y40985714D03*
X86028571Y40871429D03*
X86485714Y40871429D03*
X86028571Y40757143D03*
X86142857Y40757143D03*
X86257143Y40757143D03*
X86371429Y40757143D03*
X86942857Y41442857D03*
X86828571Y41328571D03*
X86942857Y41328571D03*
X86942857Y41214286D03*
X86942857Y41100000D03*
X86942857Y40985714D03*
X86942857Y40871429D03*
X86828571Y40757143D03*
X86942857Y40757143D03*
X87057143Y40757143D03*
X87400000Y41442857D03*
X87514286Y41442857D03*
X87628571Y41442857D03*
X87742857Y41442857D03*
X87857143Y41328571D03*
X87857143Y41214286D03*
X87514286Y41100000D03*
X87628571Y41100000D03*
X87742857Y41100000D03*
X87857143Y40985714D03*
X87857143Y40871429D03*
X87400000Y40757143D03*
X87514286Y40757143D03*
X87628571Y40757143D03*
X87742857Y40757143D03*
X93028571Y51192857D03*
X93142857Y51192857D03*
X93257143Y51192857D03*
X93371429Y51192857D03*
X93028571Y51078571D03*
X93485714Y51078571D03*
X93028571Y50964286D03*
X93485714Y50964286D03*
X93028571Y50850000D03*
X93485714Y50850000D03*
X93028571Y50735714D03*
X93485714Y50735714D03*
X93028571Y50621429D03*
X93485714Y50621429D03*
X93028571Y50507143D03*
X93142857Y50507143D03*
X93257143Y50507143D03*
X93371429Y50507143D03*
X93942857Y51192857D03*
X93828571Y51078571D03*
X93942857Y51078571D03*
X93942857Y50964286D03*
X93942857Y50850000D03*
X93942857Y50735714D03*
X93942857Y50621429D03*
X93828571Y50507143D03*
X93942857Y50507143D03*
X94057143Y50507143D03*
X94514286Y51192857D03*
X94628571Y51192857D03*
X94742857Y51192857D03*
X94400000Y51078571D03*
X94400000Y50964286D03*
X94400000Y50850000D03*
X94514286Y50850000D03*
X94628571Y50850000D03*
X94742857Y50850000D03*
X94400000Y50735714D03*
X94857143Y50735714D03*
X94400000Y50621429D03*
X94857143Y50621429D03*
X94514286Y50507143D03*
X94628571Y50507143D03*
X94742857Y50507143D03*
X76028571Y41292857D03*
X76142857Y41292857D03*
X76257143Y41292857D03*
X76371429Y41292857D03*
X76028571Y41178571D03*
X76485714Y41178571D03*
X76028571Y41064286D03*
X76485714Y41064286D03*
X76028571Y40950000D03*
X76142857Y40950000D03*
X76257143Y40950000D03*
X76371429Y40950000D03*
X76028571Y40835714D03*
X76257143Y40835714D03*
X76028571Y40721429D03*
X76371429Y40721429D03*
X76028571Y40607143D03*
X76485714Y40607143D03*
X76942857Y41292857D03*
X76828571Y41178571D03*
X76942857Y41178571D03*
X76942857Y41064286D03*
X76942857Y40950000D03*
X76942857Y40835714D03*
X76942857Y40721429D03*
X76828571Y40607143D03*
X76942857Y40607143D03*
X77057143Y40607143D03*
X77400000Y41292857D03*
X77514286Y41292857D03*
X77628571Y41292857D03*
X77742857Y41292857D03*
X77857143Y41178571D03*
X77857143Y41064286D03*
X77514286Y40950000D03*
X77628571Y40950000D03*
X77742857Y40950000D03*
X77857143Y40835714D03*
X77857143Y40721429D03*
X77400000Y40607143D03*
X77514286Y40607143D03*
X77628571Y40607143D03*
X77742857Y40607143D03*
X29028571Y51792857D03*
X29142857Y51792857D03*
X29257143Y51792857D03*
X29371429Y51792857D03*
X29028571Y51678571D03*
D18*
X29485714Y51678571D03*
D11*
X29028571Y51564286D03*
D18*
X29485714Y51564286D03*
D11*
X29028571Y51450000D03*
X29142857Y51450000D03*
X29257143Y51450000D03*
X29371429Y51450000D03*
X29028571Y51335714D03*
X29257143Y51335714D03*
X29028571Y51221429D03*
X29371429Y51221429D03*
X29028571Y51107143D03*
D18*
X29485714Y51107143D03*
D11*
X29828571Y51792857D03*
X29942857Y51792857D03*
X30057143Y51792857D03*
X29714286Y51678571D03*
X30171429Y51678571D03*
X30171429Y51564286D03*
X30057143Y51450000D03*
X29942857Y51335714D03*
X29828571Y51221429D03*
X29714286Y51107143D03*
X29828571Y51107143D03*
X29942857Y51107143D03*
X30057143Y51107143D03*
X30171429Y51107143D03*
X30628571Y51792857D03*
D18*
X30514286Y51678571D03*
D11*
X30628571Y51678571D03*
X30628571Y51564286D03*
X30628571Y51450000D03*
X30628571Y51335714D03*
X30628571Y51221429D03*
D18*
X30514286Y51107143D03*
D11*
X30628571Y51107143D03*
X30742857Y51107143D03*
X27028571Y57292857D03*
X27142857Y57292857D03*
X27257143Y57292857D03*
X27371429Y57292857D03*
X27028571Y57178571D03*
D18*
X27485714Y57178571D03*
D11*
X27028571Y57064286D03*
D18*
X27485714Y57064286D03*
D11*
X27028571Y56950000D03*
X27142857Y56950000D03*
X27257143Y56950000D03*
X27371429Y56950000D03*
D38*
X27028571Y56835714D03*
X27257143Y56835714D03*
D11*
X27028571Y56721429D03*
X27371429Y56721429D03*
X27028571Y56607143D03*
D18*
X27485714Y56607143D03*
D11*
X27828571Y57292857D03*
X27942857Y57292857D03*
X28057143Y57292857D03*
X27714286Y57178571D03*
X28171429Y57178571D03*
X28171429Y57064286D03*
X28057143Y56950000D03*
D38*
X27942857Y56835714D03*
D11*
X27828571Y56721429D03*
X27714286Y56607143D03*
X27828571Y56607143D03*
X27942857Y56607143D03*
X28057143Y56607143D03*
X28171429Y56607143D03*
X28400000Y57292857D03*
D18*
X28514286Y57292857D03*
D11*
X28628571Y57292857D03*
X28742857Y57292857D03*
X28857143Y57292857D03*
X28400000Y57178571D03*
X28400000Y57064286D03*
X28400000Y56950000D03*
D18*
X28514286Y56950000D03*
D11*
X28628571Y56950000D03*
X28742857Y56950000D03*
D38*
X28857143Y56835714D03*
D11*
X28857143Y56721429D03*
X28400000Y56607143D03*
D18*
X28514286Y56607143D03*
D11*
X28628571Y56607143D03*
X28742857Y56607143D03*
X35028571Y51792857D03*
X35142857Y51792857D03*
X35257143Y51792857D03*
X35371429Y51792857D03*
X35028571Y51678571D03*
X35485714Y51678571D03*
X35028571Y51564286D03*
X35485714Y51564286D03*
X35028571Y51450000D03*
X35142857Y51450000D03*
X35257143Y51450000D03*
X35371429Y51450000D03*
X35028571Y51335714D03*
X35257143Y51335714D03*
X35028571Y51221429D03*
X35371429Y51221429D03*
X35028571Y51107143D03*
X35485714Y51107143D03*
X35828571Y51792857D03*
D20*
X35942857Y51792857D03*
D11*
X36057143Y51792857D03*
X35714286Y51678571D03*
X36171429Y51678571D03*
X36171429Y51564286D03*
X36057143Y51450000D03*
D20*
X35942857Y51335714D03*
D11*
X35828571Y51221429D03*
X35714286Y51107143D03*
X35828571Y51107143D03*
D20*
X35942857Y51107143D03*
D11*
X36057143Y51107143D03*
X36171429Y51107143D03*
X36514286Y51792857D03*
X36628571Y51792857D03*
X36742857Y51792857D03*
X36400000Y51678571D03*
X36857143Y51678571D03*
X36857143Y51564286D03*
X36742857Y51450000D03*
X36628571Y51335714D03*
X36514286Y51221429D03*
X36400000Y51107143D03*
X36514286Y51107143D03*
X36628571Y51107143D03*
X36742857Y51107143D03*
X36857143Y51107143D03*
X38028571Y57292857D03*
X38142857Y57292857D03*
X38257143Y57292857D03*
X38371429Y57292857D03*
X38028571Y57178571D03*
X38485714Y57178571D03*
X38028571Y57064286D03*
X38485714Y57064286D03*
X38028571Y56950000D03*
X38142857Y56950000D03*
X38257143Y56950000D03*
X38371429Y56950000D03*
D38*
X38028571Y56835714D03*
X38257143Y56835714D03*
D11*
X38028571Y56721429D03*
X38371429Y56721429D03*
X38028571Y56607143D03*
X38485714Y56607143D03*
X38828571Y57292857D03*
D20*
X38942857Y57292857D03*
D11*
X39057143Y57292857D03*
X38714286Y57178571D03*
X39171429Y57178571D03*
X39171429Y57064286D03*
X39057143Y56950000D03*
D39*
X38942857Y56835714D03*
D11*
X38828571Y56721429D03*
X38714286Y56607143D03*
X38828571Y56607143D03*
D20*
X38942857Y56607143D03*
D11*
X39057143Y56607143D03*
X39171429Y56607143D03*
X39514286Y57292857D03*
X39628571Y57292857D03*
X39742857Y57292857D03*
X39400000Y57178571D03*
X39400000Y57064286D03*
X39400000Y56950000D03*
X39514286Y56950000D03*
X39628571Y56950000D03*
X39742857Y56950000D03*
D38*
X39400000Y56835714D03*
X39857143Y56835714D03*
D11*
X39400000Y56721429D03*
X39857143Y56721429D03*
X39514286Y56607143D03*
X39628571Y56607143D03*
X39742857Y56607143D03*
X59028571Y51792857D03*
X59142857Y51792857D03*
X59257143Y51792857D03*
X59371429Y51792857D03*
X59028571Y51678571D03*
X59485714Y51678571D03*
X59028571Y51564286D03*
X59485714Y51564286D03*
X59028571Y51450000D03*
X59142857Y51450000D03*
X59257143Y51450000D03*
X59371429Y51450000D03*
X59028571Y51335714D03*
X59257143Y51335714D03*
X59028571Y51221429D03*
X59371429Y51221429D03*
X59028571Y51107143D03*
X59485714Y51107143D03*
X59828571Y51792857D03*
D20*
X59942857Y51792857D03*
D11*
X60057143Y51792857D03*
X59714286Y51678571D03*
X60171429Y51678571D03*
X60171429Y51564286D03*
X60057143Y51450000D03*
D20*
X59942857Y51335714D03*
D11*
X59828571Y51221429D03*
X59714286Y51107143D03*
X59828571Y51107143D03*
D20*
X59942857Y51107143D03*
D11*
X60057143Y51107143D03*
X60171429Y51107143D03*
X60400000Y51792857D03*
X60514286Y51792857D03*
X60628571Y51792857D03*
X60742857Y51792857D03*
X60857143Y51678571D03*
X60857143Y51564286D03*
X60514286Y51450000D03*
X60628571Y51450000D03*
X60742857Y51450000D03*
X60857143Y51335714D03*
X60857143Y51221429D03*
X60400000Y51107143D03*
X60514286Y51107143D03*
X60628571Y51107143D03*
X60742857Y51107143D03*
X57028571Y57292857D03*
X57142857Y57292857D03*
X57257143Y57292857D03*
X57371429Y57292857D03*
X57028571Y57178571D03*
X57485714Y57178571D03*
X57028571Y57064286D03*
X57485714Y57064286D03*
X57028571Y56950000D03*
X57142857Y56950000D03*
X57257143Y56950000D03*
X57371429Y56950000D03*
D38*
X57028571Y56835714D03*
X57257143Y56835714D03*
D11*
X57028571Y56721429D03*
X57371429Y56721429D03*
X57028571Y56607143D03*
X57485714Y56607143D03*
X57828571Y57292857D03*
D20*
X57942857Y57292857D03*
D11*
X58057143Y57292857D03*
X57714286Y57178571D03*
X58171429Y57178571D03*
X58171429Y57064286D03*
X58057143Y56950000D03*
D39*
X57942857Y56835714D03*
D11*
X57828571Y56721429D03*
X57714286Y56607143D03*
X57828571Y56607143D03*
D20*
X57942857Y56607143D03*
D11*
X58057143Y56607143D03*
X58171429Y56607143D03*
X58400000Y57292857D03*
X58514286Y57292857D03*
X58628571Y57292857D03*
X58742857Y57292857D03*
X58857143Y57292857D03*
X58857143Y57178571D03*
X58742857Y57064286D03*
X58628571Y56950000D03*
D38*
X58514286Y56835714D03*
D11*
X58514286Y56721429D03*
X58514286Y56607143D03*
X65028571Y51792857D03*
X65142857Y51792857D03*
X65257143Y51792857D03*
X65371429Y51792857D03*
X65028571Y51678571D03*
X65485714Y51678571D03*
X65028571Y51564286D03*
X65485714Y51564286D03*
X65028571Y51450000D03*
X65142857Y51450000D03*
X65257143Y51450000D03*
X65371429Y51450000D03*
X65028571Y51335714D03*
X65257143Y51335714D03*
X65028571Y51221429D03*
X65371429Y51221429D03*
X65028571Y51107143D03*
X65485714Y51107143D03*
X65828571Y51792857D03*
X65942857Y51792857D03*
X66057143Y51792857D03*
X65714286Y51678571D03*
X66171429Y51678571D03*
X66171429Y51564286D03*
X66057143Y51450000D03*
X65942857Y51335714D03*
X65828571Y51221429D03*
X65714286Y51107143D03*
X65828571Y51107143D03*
X65942857Y51107143D03*
X66057143Y51107143D03*
X66171429Y51107143D03*
X66742857Y51792857D03*
X66628571Y51678571D03*
X66742857Y51678571D03*
X66514286Y51564286D03*
X66742857Y51564286D03*
X66400000Y51450000D03*
X66742857Y51450000D03*
X66400000Y51335714D03*
X66514286Y51335714D03*
X66628571Y51335714D03*
X66742857Y51335714D03*
X66857143Y51335714D03*
X66742857Y51221429D03*
X66742857Y51107143D03*
X68028571Y57292857D03*
X68142857Y57292857D03*
X68257143Y57292857D03*
X68371429Y57292857D03*
X68028571Y57178571D03*
X68485714Y57178571D03*
X68028571Y57064286D03*
X68485714Y57064286D03*
X68028571Y56950000D03*
X68142857Y56950000D03*
X68257143Y56950000D03*
X68371429Y56950000D03*
D38*
X68028571Y56835714D03*
X68257143Y56835714D03*
D11*
X68028571Y56721429D03*
X68371429Y56721429D03*
X68028571Y56607143D03*
X68485714Y56607143D03*
X68828571Y57292857D03*
X68942857Y57292857D03*
X69057143Y57292857D03*
X68714286Y57178571D03*
X69171429Y57178571D03*
X69171429Y57064286D03*
X69057143Y56950000D03*
D38*
X68942857Y56835714D03*
D11*
X68828571Y56721429D03*
X68714286Y56607143D03*
X68828571Y56607143D03*
X68942857Y56607143D03*
X69057143Y56607143D03*
X69171429Y56607143D03*
X69514286Y57292857D03*
X69628571Y57292857D03*
X69742857Y57292857D03*
X69400000Y57178571D03*
X69857143Y57178571D03*
X69400000Y57064286D03*
X69857143Y57064286D03*
X69514286Y56950000D03*
X69628571Y56950000D03*
X69742857Y56950000D03*
D38*
X69400000Y56835714D03*
X69857143Y56835714D03*
D11*
X69400000Y56721429D03*
X69857143Y56721429D03*
X69514286Y56607143D03*
X69628571Y56607143D03*
X69742857Y56607143D03*
X81485714Y51992857D03*
X81600000Y51992857D03*
X81714286Y51992857D03*
X81371429Y51878571D03*
X81828571Y51878571D03*
X81371429Y51764286D03*
X81828571Y51764286D03*
X81371429Y51650000D03*
X81828571Y51650000D03*
X81371429Y51535714D03*
X81600000Y51535714D03*
X81828571Y51535714D03*
X81371429Y51421429D03*
X81714286Y51421429D03*
X81485714Y51307143D03*
X81600000Y51307143D03*
X81828571Y51307143D03*
X82057143Y51992857D03*
X82171429Y51992857D03*
X82285714Y51992857D03*
X82400000Y51992857D03*
X82514286Y51992857D03*
X82057143Y51878571D03*
X82057143Y51764286D03*
X82057143Y51650000D03*
X82171429Y51650000D03*
X82285714Y51650000D03*
X82400000Y51650000D03*
X82514286Y51535714D03*
X82514286Y51421429D03*
X82057143Y51307143D03*
X82171429Y51307143D03*
X82285714Y51307143D03*
X82400000Y51307143D03*
X86485714Y51992857D03*
X86600000Y51992857D03*
X86714286Y51992857D03*
X86371429Y51878571D03*
X86828571Y51878571D03*
X86371429Y51764286D03*
X86828571Y51764286D03*
X86371429Y51650000D03*
X86828571Y51650000D03*
X86371429Y51535714D03*
X86600000Y51535714D03*
X86828571Y51535714D03*
X86371429Y51421429D03*
X86714286Y51421429D03*
X86485714Y51307143D03*
X86600000Y51307143D03*
X86828571Y51307143D03*
X87171429Y51992857D03*
X87285714Y51992857D03*
X87400000Y51992857D03*
X87057143Y51878571D03*
X87057143Y51764286D03*
X87057143Y51650000D03*
X87171429Y51650000D03*
X87285714Y51650000D03*
X87400000Y51650000D03*
X87057143Y51535714D03*
X87514286Y51535714D03*
X87057143Y51421429D03*
X87514286Y51421429D03*
X87171429Y51307143D03*
X87285714Y51307143D03*
X87400000Y51307143D03*
X87028571Y55292857D03*
X87142857Y55292857D03*
X87257143Y55292857D03*
X87371429Y55292857D03*
X87028571Y55178571D03*
X87485714Y55178571D03*
X87028571Y55064286D03*
X87485714Y55064286D03*
X87028571Y54950000D03*
X87142857Y54950000D03*
X87257143Y54950000D03*
X87371429Y54950000D03*
D38*
X87028571Y54835714D03*
X87257143Y54835714D03*
D11*
X87028571Y54721429D03*
X87371429Y54721429D03*
X87028571Y54607143D03*
X87485714Y54607143D03*
X87828571Y55292857D03*
X87942857Y55292857D03*
X88057143Y55292857D03*
X87714286Y55178571D03*
X88171429Y55178571D03*
X88171429Y55064286D03*
X88057143Y54950000D03*
D38*
X87942857Y54835714D03*
D11*
X87828571Y54721429D03*
X87714286Y54607143D03*
X87828571Y54607143D03*
X87942857Y54607143D03*
X88057143Y54607143D03*
X88171429Y54607143D03*
X88514286Y55292857D03*
X88628571Y55292857D03*
X88742857Y55292857D03*
X88400000Y55178571D03*
X88857143Y55178571D03*
X88400000Y55064286D03*
X88857143Y55064286D03*
X88514286Y54950000D03*
X88628571Y54950000D03*
X88742857Y54950000D03*
X88857143Y54950000D03*
D38*
X88857143Y54835714D03*
D11*
X88857143Y54721429D03*
X88514286Y54607143D03*
X88628571Y54607143D03*
X88742857Y54607143D03*
X99028571Y44442857D03*
X99142857Y44442857D03*
X99257143Y44442857D03*
X99371429Y44442857D03*
X99028571Y44328571D03*
X99485714Y44328571D03*
X99028571Y44214286D03*
X99485714Y44214286D03*
X99028571Y44100000D03*
X99142857Y44100000D03*
X99257143Y44100000D03*
X99371429Y44100000D03*
X99028571Y43985714D03*
X99257143Y43985714D03*
X99028571Y43871429D03*
X99371429Y43871429D03*
X99028571Y43757143D03*
X99485714Y43757143D03*
X99714286Y44442857D03*
X99828571Y44442857D03*
X99942857Y44442857D03*
X100057143Y44442857D03*
X100171429Y44328571D03*
X100171429Y44214286D03*
X99828571Y44100000D03*
X99942857Y44100000D03*
X100057143Y44100000D03*
X100171429Y43985714D03*
X100171429Y43871429D03*
X99714286Y43757143D03*
X99828571Y43757143D03*
X99942857Y43757143D03*
X100057143Y43757143D03*
X100514286Y44442857D03*
X100628571Y44442857D03*
X100742857Y44442857D03*
X100400000Y44328571D03*
X100857143Y44328571D03*
X100400000Y44214286D03*
X100742857Y44214286D03*
X100857143Y44214286D03*
X100400000Y44100000D03*
X100628571Y44100000D03*
X100857143Y44100000D03*
X100400000Y43985714D03*
X100514286Y43985714D03*
X100857143Y43985714D03*
X100400000Y43871429D03*
X100857143Y43871429D03*
X100514286Y43757143D03*
X100628571Y43757143D03*
X100742857Y43757143D03*
X107828571Y44442857D03*
X107942857Y44442857D03*
X108057143Y44442857D03*
X108171429Y44442857D03*
X107828571Y44328571D03*
X108285714Y44328571D03*
X107828571Y44214286D03*
X108285714Y44214286D03*
X107828571Y44100000D03*
X107942857Y44100000D03*
X108057143Y44100000D03*
X108171429Y44100000D03*
X107828571Y43985714D03*
X108057143Y43985714D03*
X107828571Y43871429D03*
X108171429Y43871429D03*
X107828571Y43757143D03*
X108285714Y43757143D03*
X108514286Y44442857D03*
X108628571Y44442857D03*
X108742857Y44442857D03*
X108857143Y44442857D03*
X108971429Y44328571D03*
X108971429Y44214286D03*
X108628571Y44100000D03*
X108742857Y44100000D03*
X108857143Y44100000D03*
X108971429Y43985714D03*
X108971429Y43871429D03*
X108514286Y43757143D03*
X108628571Y43757143D03*
X108742857Y43757143D03*
X108857143Y43757143D03*
X109428571Y44442857D03*
X109314286Y44328571D03*
X109428571Y44328571D03*
X109428571Y44214286D03*
X109428571Y44100000D03*
X109428571Y43985714D03*
X109428571Y43871429D03*
X109314286Y43757143D03*
X109428571Y43757143D03*
X109542857Y43757143D03*
X116628571Y44442857D03*
X116742857Y44442857D03*
X116857143Y44442857D03*
X116971429Y44442857D03*
X116628571Y44328571D03*
X117085714Y44328571D03*
X116628571Y44214286D03*
X117085714Y44214286D03*
X116628571Y44100000D03*
X116742857Y44100000D03*
X116857143Y44100000D03*
X116971429Y44100000D03*
X116628571Y43985714D03*
X116857143Y43985714D03*
X116628571Y43871429D03*
X116971429Y43871429D03*
X116628571Y43757143D03*
X117085714Y43757143D03*
X117314286Y44442857D03*
X117428571Y44442857D03*
X117542857Y44442857D03*
X117657143Y44442857D03*
X117771429Y44328571D03*
X117771429Y44214286D03*
X117428571Y44100000D03*
X117542857Y44100000D03*
X117657143Y44100000D03*
X117771429Y43985714D03*
X117771429Y43871429D03*
X117314286Y43757143D03*
X117428571Y43757143D03*
X117542857Y43757143D03*
X117657143Y43757143D03*
X118114286Y44442857D03*
X118228571Y44442857D03*
X118342857Y44442857D03*
X118000000Y44328571D03*
X118457143Y44328571D03*
X118457143Y44214286D03*
X118342857Y44100000D03*
X118228571Y43985714D03*
X118114286Y43871429D03*
X118000000Y43757143D03*
X118114286Y43757143D03*
X118228571Y43757143D03*
X118342857Y43757143D03*
X118457143Y43757143D03*
X125428571Y44442857D03*
X125542857Y44442857D03*
X125657143Y44442857D03*
X125771429Y44442857D03*
X125428571Y44328571D03*
X125885714Y44328571D03*
X125428571Y44214286D03*
X125885714Y44214286D03*
X125428571Y44100000D03*
X125542857Y44100000D03*
X125657143Y44100000D03*
X125771429Y44100000D03*
X125428571Y43985714D03*
X125657143Y43985714D03*
X125428571Y43871429D03*
X125771429Y43871429D03*
X125428571Y43757143D03*
X125885714Y43757143D03*
X126114286Y44442857D03*
X126228571Y44442857D03*
X126342857Y44442857D03*
X126457143Y44442857D03*
X126571429Y44328571D03*
X126571429Y44214286D03*
X126228571Y44100000D03*
X126342857Y44100000D03*
X126457143Y44100000D03*
X126571429Y43985714D03*
X126571429Y43871429D03*
X126114286Y43757143D03*
X126228571Y43757143D03*
X126342857Y43757143D03*
X126457143Y43757143D03*
X126800000Y44442857D03*
X126914286Y44442857D03*
X127028571Y44442857D03*
X127142857Y44442857D03*
X127257143Y44328571D03*
X127257143Y44214286D03*
X126914286Y44100000D03*
X127028571Y44100000D03*
X127142857Y44100000D03*
X127257143Y43985714D03*
X127257143Y43871429D03*
X126800000Y43757143D03*
X126914286Y43757143D03*
X127028571Y43757143D03*
X127142857Y43757143D03*
D14*
X134228571Y44442857D03*
D15*
X134342857Y44442857D03*
D14*
X134457143Y44442857D03*
D15*
X134571429Y44442857D03*
D14*
X134228571Y44328571D03*
X134685714Y44328571D03*
X134228571Y44214286D03*
X134685714Y44214286D03*
X134228571Y44100000D03*
D15*
X134342857Y44100000D03*
D14*
X134457143Y44100000D03*
D15*
X134571429Y44100000D03*
D14*
X134228571Y43985714D03*
X134457143Y43985714D03*
X134228571Y43871429D03*
D15*
X134571429Y43871429D03*
D14*
X134228571Y43757143D03*
X134685714Y43757143D03*
X134914286Y44442857D03*
D15*
X135028571Y44442857D03*
D14*
X135142857Y44442857D03*
D15*
X135257143Y44442857D03*
D14*
X135371429Y44328571D03*
X135371429Y44214286D03*
D15*
X135028571Y44100000D03*
D14*
X135142857Y44100000D03*
D15*
X135257143Y44100000D03*
D14*
X135371429Y43985714D03*
X135371429Y43871429D03*
X134914286Y43757143D03*
D15*
X135028571Y43757143D03*
D14*
X135142857Y43757143D03*
D15*
X135257143Y43757143D03*
X135942857Y44442857D03*
D14*
X135828571Y44328571D03*
D15*
X135942857Y44328571D03*
X135714286Y44214286D03*
X135942857Y44214286D03*
D14*
X135600000Y44100000D03*
D15*
X135942857Y44100000D03*
D14*
X135600000Y43985714D03*
D15*
X135714286Y43985714D03*
D14*
X135828571Y43985714D03*
D15*
X135942857Y43985714D03*
D14*
X136057143Y43985714D03*
D15*
X135942857Y43871429D03*
X135942857Y43757143D03*
D11*
X72028571Y60292857D03*
X72142857Y60292857D03*
X72257143Y60292857D03*
X72371429Y60292857D03*
X72485714Y60292857D03*
X72257143Y60178571D03*
X72257143Y60064286D03*
X72257143Y59950000D03*
D38*
X72257143Y59835714D03*
D11*
X72257143Y59721429D03*
X72257143Y59607143D03*
X72714286Y60292857D03*
X73171429Y60292857D03*
X72714286Y60178571D03*
X73171429Y60178571D03*
X72714286Y60064286D03*
X73171429Y60064286D03*
X72714286Y59950000D03*
X72828571Y59950000D03*
X72942857Y59950000D03*
X73057143Y59950000D03*
X73171429Y59950000D03*
D38*
X72714286Y59835714D03*
X73171429Y59835714D03*
D11*
X72714286Y59721429D03*
X73171429Y59721429D03*
X72714286Y59607143D03*
X73171429Y59607143D03*
X73628571Y60292857D03*
X73514286Y60178571D03*
X73628571Y60178571D03*
X73628571Y60064286D03*
X73628571Y59950000D03*
D38*
X73628571Y59835714D03*
D11*
X73628571Y59721429D03*
X73514286Y59607143D03*
X73628571Y59607143D03*
X73742857Y59607143D03*
X72028571Y37292857D03*
X72142857Y37292857D03*
X72257143Y37292857D03*
X72371429Y37292857D03*
X72028571Y37178571D03*
X72485714Y37178571D03*
X72028571Y37064286D03*
X72485714Y37064286D03*
X72028571Y36950000D03*
X72142857Y36950000D03*
X72257143Y36950000D03*
X72371429Y36950000D03*
X72028571Y36835714D03*
X72257143Y36835714D03*
X72028571Y36721429D03*
X72371429Y36721429D03*
X72028571Y36607143D03*
X72485714Y36607143D03*
X73057143Y37292857D03*
X72942857Y37178571D03*
X73057143Y37178571D03*
X72828571Y37064286D03*
X73057143Y37064286D03*
X72714286Y36950000D03*
X73057143Y36950000D03*
X72714286Y36835714D03*
X72828571Y36835714D03*
X72942857Y36835714D03*
X73057143Y36835714D03*
X73171429Y36835714D03*
X73057143Y36721429D03*
X73057143Y36607143D03*
X73514286Y37292857D03*
X73628571Y37292857D03*
X73742857Y37292857D03*
X73400000Y37178571D03*
X73857143Y37178571D03*
X73400000Y37064286D03*
X73742857Y37064286D03*
X73857143Y37064286D03*
X73400000Y36950000D03*
X73628571Y36950000D03*
X73857143Y36950000D03*
X73400000Y36835714D03*
X73514286Y36835714D03*
X73857143Y36835714D03*
X73400000Y36721429D03*
X73857143Y36721429D03*
X73514286Y36607143D03*
X73628571Y36607143D03*
X73742857Y36607143D03*
X77028571Y37292857D03*
X77142857Y37292857D03*
X77257143Y37292857D03*
X77371429Y37292857D03*
X77028571Y37178571D03*
X77485714Y37178571D03*
X77028571Y37064286D03*
X77485714Y37064286D03*
X77028571Y36950000D03*
X77142857Y36950000D03*
X77257143Y36950000D03*
X77371429Y36950000D03*
X77028571Y36835714D03*
X77257143Y36835714D03*
X77028571Y36721429D03*
X77371429Y36721429D03*
X77028571Y36607143D03*
X77485714Y36607143D03*
X78057143Y37292857D03*
X77942857Y37178571D03*
X78057143Y37178571D03*
X77828571Y37064286D03*
X78057143Y37064286D03*
X77714286Y36950000D03*
X78057143Y36950000D03*
X77714286Y36835714D03*
X77828571Y36835714D03*
X77942857Y36835714D03*
X78057143Y36835714D03*
X78171429Y36835714D03*
X78057143Y36721429D03*
X78057143Y36607143D03*
X78628571Y37292857D03*
X78514286Y37178571D03*
X78628571Y37178571D03*
X78628571Y37064286D03*
X78628571Y36950000D03*
X78628571Y36835714D03*
X78628571Y36721429D03*
X78514286Y36607143D03*
X78628571Y36607143D03*
X78742857Y36607143D03*
X82142857Y37292857D03*
X82257143Y37292857D03*
X82371429Y37292857D03*
X82485714Y37292857D03*
X82028571Y37178571D03*
X82028571Y37064286D03*
X82028571Y36950000D03*
X82028571Y36835714D03*
X82028571Y36721429D03*
X82142857Y36607143D03*
X82257143Y36607143D03*
X82371429Y36607143D03*
X82485714Y36607143D03*
X83057143Y37292857D03*
X82942857Y37178571D03*
X83057143Y37178571D03*
X82828571Y37064286D03*
X83057143Y37064286D03*
X82714286Y36950000D03*
X83057143Y36950000D03*
X82714286Y36835714D03*
X82828571Y36835714D03*
X82942857Y36835714D03*
X83057143Y36835714D03*
X83171429Y36835714D03*
X83057143Y36721429D03*
X83057143Y36607143D03*
X83514286Y37292857D03*
X83628571Y37292857D03*
X83742857Y37292857D03*
X83400000Y37178571D03*
X83857143Y37178571D03*
X83400000Y37064286D03*
X83742857Y37064286D03*
X83857143Y37064286D03*
X83400000Y36950000D03*
X83628571Y36950000D03*
X83857143Y36950000D03*
X83400000Y36835714D03*
X83514286Y36835714D03*
X83857143Y36835714D03*
X83400000Y36721429D03*
X83857143Y36721429D03*
X83514286Y36607143D03*
X83628571Y36607143D03*
X83742857Y36607143D03*
X53028571Y38292857D03*
X53142857Y38292857D03*
X53257143Y38292857D03*
X53371429Y38292857D03*
X53028571Y38178571D03*
X53485714Y38178571D03*
X53028571Y38064286D03*
X53485714Y38064286D03*
X53028571Y37950000D03*
X53142857Y37950000D03*
X53257143Y37950000D03*
X53371429Y37950000D03*
X53028571Y37835714D03*
X53257143Y37835714D03*
X53028571Y37721429D03*
X53371429Y37721429D03*
X53028571Y37607143D03*
X53485714Y37607143D03*
X54057143Y38292857D03*
D20*
X53942857Y38178571D03*
D11*
X54057143Y38178571D03*
X53828571Y38064286D03*
X54057143Y38064286D03*
X53714286Y37950000D03*
X54057143Y37950000D03*
X53714286Y37835714D03*
X53828571Y37835714D03*
D20*
X53942857Y37835714D03*
D11*
X54057143Y37835714D03*
X54171429Y37835714D03*
X54057143Y37721429D03*
X54057143Y37607143D03*
X54514286Y38292857D03*
X54628571Y38292857D03*
X54742857Y38292857D03*
X54400000Y38178571D03*
X54857143Y38178571D03*
X54857143Y38064286D03*
X54742857Y37950000D03*
X54628571Y37835714D03*
X54514286Y37721429D03*
X54400000Y37607143D03*
X54514286Y37607143D03*
X54628571Y37607143D03*
X54742857Y37607143D03*
X54857143Y37607143D03*
X53028571Y34292857D03*
X53142857Y34292857D03*
X53257143Y34292857D03*
X53371429Y34292857D03*
X53028571Y34178571D03*
X53485714Y34178571D03*
X53028571Y34064286D03*
X53485714Y34064286D03*
X53028571Y33950000D03*
X53142857Y33950000D03*
X53257143Y33950000D03*
X53371429Y33950000D03*
X53028571Y33835714D03*
X53257143Y33835714D03*
X53028571Y33721429D03*
X53371429Y33721429D03*
X53028571Y33607143D03*
X53485714Y33607143D03*
X54057143Y34292857D03*
D20*
X53942857Y34178571D03*
D11*
X54057143Y34178571D03*
X53828571Y34064286D03*
X54057143Y34064286D03*
X53714286Y33950000D03*
X54057143Y33950000D03*
X53714286Y33835714D03*
X53828571Y33835714D03*
D20*
X53942857Y33835714D03*
D11*
X54057143Y33835714D03*
X54171429Y33835714D03*
X54057143Y33721429D03*
X54057143Y33607143D03*
X54400000Y34292857D03*
X54514286Y34292857D03*
X54628571Y34292857D03*
X54742857Y34292857D03*
X54857143Y34178571D03*
X54857143Y34064286D03*
X54514286Y33950000D03*
X54628571Y33950000D03*
X54742857Y33950000D03*
X54857143Y33835714D03*
X54857143Y33721429D03*
X54400000Y33607143D03*
X54514286Y33607143D03*
X54628571Y33607143D03*
X54742857Y33607143D03*
X58028571Y38292857D03*
X58142857Y38292857D03*
X58257143Y38292857D03*
X58371429Y38292857D03*
X58028571Y38178571D03*
X58485714Y38178571D03*
X58028571Y38064286D03*
X58485714Y38064286D03*
X58028571Y37950000D03*
X58142857Y37950000D03*
X58257143Y37950000D03*
X58371429Y37950000D03*
X58028571Y37835714D03*
X58257143Y37835714D03*
X58028571Y37721429D03*
X58371429Y37721429D03*
X58028571Y37607143D03*
X58485714Y37607143D03*
X59057143Y38292857D03*
D20*
X58942857Y38178571D03*
D11*
X59057143Y38178571D03*
X58828571Y38064286D03*
X59057143Y38064286D03*
X58714286Y37950000D03*
X59057143Y37950000D03*
X58714286Y37835714D03*
X58828571Y37835714D03*
D20*
X58942857Y37835714D03*
D11*
X59057143Y37835714D03*
X59171429Y37835714D03*
X59057143Y37721429D03*
X59057143Y37607143D03*
X59742857Y38292857D03*
X59628571Y38178571D03*
X59742857Y38178571D03*
X59514286Y38064286D03*
X59742857Y38064286D03*
X59400000Y37950000D03*
X59742857Y37950000D03*
X59400000Y37835714D03*
X59514286Y37835714D03*
X59628571Y37835714D03*
X59742857Y37835714D03*
X59857143Y37835714D03*
X59742857Y37721429D03*
X59742857Y37607143D03*
X58142857Y35492857D03*
X58257143Y35492857D03*
X58371429Y35492857D03*
X58485714Y35492857D03*
X58028571Y35378571D03*
X58028571Y35264286D03*
X58028571Y35150000D03*
X58028571Y35035714D03*
X58028571Y34921429D03*
X58142857Y34807143D03*
X58257143Y34807143D03*
X58371429Y34807143D03*
X58485714Y34807143D03*
X59057143Y35492857D03*
D20*
X58942857Y35378571D03*
D11*
X59057143Y35378571D03*
X58828571Y35264286D03*
X59057143Y35264286D03*
X58714286Y35150000D03*
X59057143Y35150000D03*
X58714286Y35035714D03*
X58828571Y35035714D03*
D20*
X58942857Y35035714D03*
D11*
X59057143Y35035714D03*
X59171429Y35035714D03*
X59057143Y34921429D03*
X59057143Y34807143D03*
X59628571Y35492857D03*
X59514286Y35378571D03*
X59628571Y35378571D03*
X59628571Y35264286D03*
X59628571Y35150000D03*
X59628571Y35035714D03*
X59628571Y34921429D03*
X59514286Y34807143D03*
X59628571Y34807143D03*
X59742857Y34807143D03*
X65028571Y38292857D03*
X65142857Y38292857D03*
X65257143Y38292857D03*
X65371429Y38292857D03*
X65028571Y38178571D03*
X65485714Y38178571D03*
X65028571Y38064286D03*
X65485714Y38064286D03*
X65028571Y37950000D03*
X65142857Y37950000D03*
X65257143Y37950000D03*
X65371429Y37950000D03*
X65028571Y37835714D03*
X65257143Y37835714D03*
X65028571Y37721429D03*
X65371429Y37721429D03*
X65028571Y37607143D03*
X65485714Y37607143D03*
X66057143Y38292857D03*
X65942857Y38178571D03*
X66057143Y38178571D03*
X65828571Y38064286D03*
X66057143Y38064286D03*
X65714286Y37950000D03*
X66057143Y37950000D03*
X65714286Y37835714D03*
X65828571Y37835714D03*
X65942857Y37835714D03*
X66057143Y37835714D03*
X66171429Y37835714D03*
X66057143Y37721429D03*
X66057143Y37607143D03*
X66400000Y38292857D03*
X66514286Y38292857D03*
X66628571Y38292857D03*
X66742857Y38292857D03*
X66857143Y38292857D03*
X66400000Y38178571D03*
X66400000Y38064286D03*
X66400000Y37950000D03*
X66514286Y37950000D03*
X66628571Y37950000D03*
X66742857Y37950000D03*
X66857143Y37835714D03*
X66857143Y37721429D03*
X66400000Y37607143D03*
X66514286Y37607143D03*
X66628571Y37607143D03*
X66742857Y37607143D03*
X65028571Y35492857D03*
X65142857Y35492857D03*
X65257143Y35492857D03*
X65371429Y35492857D03*
X65028571Y35378571D03*
X65485714Y35378571D03*
X65028571Y35264286D03*
X65485714Y35264286D03*
X65028571Y35150000D03*
X65142857Y35150000D03*
X65257143Y35150000D03*
X65371429Y35150000D03*
X65028571Y35035714D03*
X65257143Y35035714D03*
X65028571Y34921429D03*
X65371429Y34921429D03*
X65028571Y34807143D03*
X65485714Y34807143D03*
X66057143Y35492857D03*
X65942857Y35378571D03*
X66057143Y35378571D03*
X65828571Y35264286D03*
X66057143Y35264286D03*
X65714286Y35150000D03*
X66057143Y35150000D03*
X65714286Y35035714D03*
X65828571Y35035714D03*
X65942857Y35035714D03*
X66057143Y35035714D03*
X66171429Y35035714D03*
X66057143Y34921429D03*
X66057143Y34807143D03*
X66514286Y35492857D03*
X66628571Y35492857D03*
X66742857Y35492857D03*
X66400000Y35378571D03*
X66400000Y35264286D03*
X66400000Y35150000D03*
X66514286Y35150000D03*
X66628571Y35150000D03*
X66742857Y35150000D03*
X66400000Y35035714D03*
X66857143Y35035714D03*
X66400000Y34921429D03*
X66857143Y34921429D03*
X66514286Y34807143D03*
X66628571Y34807143D03*
X66742857Y34807143D03*
X70028571Y41292857D03*
X70142857Y41292857D03*
X70257143Y41292857D03*
X70371429Y41292857D03*
X70028571Y41178571D03*
X70485714Y41178571D03*
X70028571Y41064286D03*
X70485714Y41064286D03*
X70028571Y40950000D03*
X70142857Y40950000D03*
X70257143Y40950000D03*
X70371429Y40950000D03*
X70028571Y40835714D03*
X70257143Y40835714D03*
X70028571Y40721429D03*
X70371429Y40721429D03*
X70028571Y40607143D03*
X70485714Y40607143D03*
X71057143Y41292857D03*
X70942857Y41178571D03*
X71057143Y41178571D03*
X70828571Y41064286D03*
X71057143Y41064286D03*
X70714286Y40950000D03*
X71057143Y40950000D03*
X70714286Y40835714D03*
X70828571Y40835714D03*
X70942857Y40835714D03*
X71057143Y40835714D03*
X71171429Y40835714D03*
X71057143Y40721429D03*
X71057143Y40607143D03*
X71400000Y41292857D03*
X71514286Y41292857D03*
X71628571Y41292857D03*
X71742857Y41292857D03*
X71857143Y41292857D03*
X71857143Y41178571D03*
X71742857Y41064286D03*
X71628571Y40950000D03*
X71514286Y40835714D03*
X71514286Y40721429D03*
X71514286Y40607143D03*
X69142857Y35192857D03*
X69257143Y35192857D03*
X69371429Y35192857D03*
X69485714Y35192857D03*
X69028571Y35078571D03*
X69028571Y34964286D03*
X69028571Y34850000D03*
X69028571Y34735714D03*
X69028571Y34621429D03*
X69142857Y34507143D03*
X69257143Y34507143D03*
X69371429Y34507143D03*
X69485714Y34507143D03*
X70057143Y35192857D03*
X69942857Y35078571D03*
X70057143Y35078571D03*
X69828571Y34964286D03*
X70057143Y34964286D03*
X69714286Y34850000D03*
X70057143Y34850000D03*
X69714286Y34735714D03*
X69828571Y34735714D03*
X69942857Y34735714D03*
X70057143Y34735714D03*
X70171429Y34735714D03*
X70057143Y34621429D03*
X70057143Y34507143D03*
X70514286Y35192857D03*
X70628571Y35192857D03*
X70742857Y35192857D03*
X70400000Y35078571D03*
X70857143Y35078571D03*
X70857143Y34964286D03*
X70742857Y34850000D03*
X70628571Y34735714D03*
X70514286Y34621429D03*
X70400000Y34507143D03*
X70514286Y34507143D03*
X70628571Y34507143D03*
X70742857Y34507143D03*
X70857143Y34507143D03*
X87028571Y37292857D03*
X87142857Y37292857D03*
X87257143Y37292857D03*
X87371429Y37292857D03*
X87028571Y37178571D03*
X87485714Y37178571D03*
X87028571Y37064286D03*
X87485714Y37064286D03*
X87028571Y36950000D03*
X87142857Y36950000D03*
X87257143Y36950000D03*
X87371429Y36950000D03*
X87028571Y36835714D03*
X87257143Y36835714D03*
X87028571Y36721429D03*
X87371429Y36721429D03*
X87028571Y36607143D03*
X87485714Y36607143D03*
X88057143Y37292857D03*
X87942857Y37178571D03*
X88057143Y37178571D03*
X87828571Y37064286D03*
X88057143Y37064286D03*
X87714286Y36950000D03*
X88057143Y36950000D03*
X87714286Y36835714D03*
X87828571Y36835714D03*
X87942857Y36835714D03*
X88057143Y36835714D03*
X88171429Y36835714D03*
X88057143Y36721429D03*
X88057143Y36607143D03*
X88514286Y37292857D03*
X88628571Y37292857D03*
X88742857Y37292857D03*
X88400000Y37178571D03*
X88857143Y37178571D03*
X88400000Y37064286D03*
X88857143Y37064286D03*
X88514286Y36950000D03*
X88628571Y36950000D03*
X88742857Y36950000D03*
X88400000Y36835714D03*
X88857143Y36835714D03*
X88400000Y36721429D03*
X88857143Y36721429D03*
X88514286Y36607143D03*
X88628571Y36607143D03*
X88742857Y36607143D03*
X92028571Y37292857D03*
X92142857Y37292857D03*
X92257143Y37292857D03*
X92371429Y37292857D03*
X92028571Y37178571D03*
X92485714Y37178571D03*
X92028571Y37064286D03*
X92485714Y37064286D03*
X92028571Y36950000D03*
X92142857Y36950000D03*
X92257143Y36950000D03*
X92371429Y36950000D03*
X92028571Y36835714D03*
X92257143Y36835714D03*
X92028571Y36721429D03*
X92371429Y36721429D03*
X92028571Y36607143D03*
X92485714Y36607143D03*
X93057143Y37292857D03*
X92942857Y37178571D03*
X93057143Y37178571D03*
X92828571Y37064286D03*
X93057143Y37064286D03*
X92714286Y36950000D03*
X93057143Y36950000D03*
X92714286Y36835714D03*
X92828571Y36835714D03*
X92942857Y36835714D03*
X93057143Y36835714D03*
X93171429Y36835714D03*
X93057143Y36721429D03*
X93057143Y36607143D03*
X93514286Y37292857D03*
X93628571Y37292857D03*
X93742857Y37292857D03*
X93400000Y37178571D03*
X93857143Y37178571D03*
X93400000Y37064286D03*
X93857143Y37064286D03*
X93514286Y36950000D03*
X93628571Y36950000D03*
X93742857Y36950000D03*
X93857143Y36950000D03*
X93857143Y36835714D03*
X93857143Y36721429D03*
X93514286Y36607143D03*
X93628571Y36607143D03*
X93742857Y36607143D03*
X97142857Y37292857D03*
X97257143Y37292857D03*
X97371429Y37292857D03*
X97485714Y37292857D03*
X97028571Y37178571D03*
X97028571Y37064286D03*
X97028571Y36950000D03*
X97028571Y36835714D03*
X97028571Y36721429D03*
X97142857Y36607143D03*
X97257143Y36607143D03*
X97371429Y36607143D03*
X97485714Y36607143D03*
X98057143Y37292857D03*
X97942857Y37178571D03*
X98057143Y37178571D03*
X97828571Y37064286D03*
X98057143Y37064286D03*
X97714286Y36950000D03*
X98057143Y36950000D03*
X97714286Y36835714D03*
X97828571Y36835714D03*
X97942857Y36835714D03*
X98057143Y36835714D03*
X98171429Y36835714D03*
X98057143Y36721429D03*
X98057143Y36607143D03*
X98400000Y37292857D03*
X98514286Y37292857D03*
X98628571Y37292857D03*
X98742857Y37292857D03*
X98857143Y37178571D03*
X98857143Y37064286D03*
X98514286Y36950000D03*
X98628571Y36950000D03*
X98742857Y36950000D03*
X98857143Y36835714D03*
X98857143Y36721429D03*
X98400000Y36607143D03*
X98514286Y36607143D03*
X98628571Y36607143D03*
X98742857Y36607143D03*
X104028571Y8292857D03*
X104142857Y8292857D03*
X104257143Y8292857D03*
X104371429Y8292857D03*
X104028571Y8178571D03*
X104485714Y8178571D03*
X104028571Y8064286D03*
X104485714Y8064286D03*
X104028571Y7950000D03*
X104142857Y7950000D03*
X104257143Y7950000D03*
X104371429Y7950000D03*
X104028571Y7835714D03*
X104257143Y7835714D03*
X104028571Y7721429D03*
X104371429Y7721429D03*
X104028571Y7607143D03*
X104485714Y7607143D03*
X104714286Y8292857D03*
X104828571Y8292857D03*
X104942857Y8292857D03*
X105057143Y8292857D03*
X105171429Y8292857D03*
X104714286Y8178571D03*
X104714286Y8064286D03*
X104714286Y7950000D03*
X104828571Y7950000D03*
X104942857Y7950000D03*
X105057143Y7950000D03*
X105171429Y7835714D03*
X105171429Y7721429D03*
X104714286Y7607143D03*
X104828571Y7607143D03*
X104942857Y7607143D03*
X105057143Y7607143D03*
X105514286Y8292857D03*
X105628571Y8292857D03*
X105742857Y8292857D03*
X105400000Y8178571D03*
X105857143Y8178571D03*
X105400000Y8064286D03*
X105742857Y8064286D03*
X105857143Y8064286D03*
X105400000Y7950000D03*
X105628571Y7950000D03*
X105857143Y7950000D03*
X105400000Y7835714D03*
X105514286Y7835714D03*
X105857143Y7835714D03*
X105400000Y7721429D03*
X105857143Y7721429D03*
X105514286Y7607143D03*
X105628571Y7607143D03*
X105742857Y7607143D03*
X98028571Y8292857D03*
X98142857Y8292857D03*
X98257143Y8292857D03*
X98371429Y8292857D03*
X98028571Y8178571D03*
X98485714Y8178571D03*
X98028571Y8064286D03*
X98485714Y8064286D03*
X98028571Y7950000D03*
X98142857Y7950000D03*
X98257143Y7950000D03*
X98371429Y7950000D03*
X98028571Y7835714D03*
X98257143Y7835714D03*
X98028571Y7721429D03*
X98371429Y7721429D03*
X98028571Y7607143D03*
X98485714Y7607143D03*
X98714286Y8292857D03*
X98828571Y8292857D03*
X98942857Y8292857D03*
X99057143Y8292857D03*
X99171429Y8292857D03*
X98714286Y8178571D03*
X98714286Y8064286D03*
X98714286Y7950000D03*
X98828571Y7950000D03*
X98942857Y7950000D03*
X99057143Y7950000D03*
X99171429Y7835714D03*
X99171429Y7721429D03*
X98714286Y7607143D03*
X98828571Y7607143D03*
X98942857Y7607143D03*
X99057143Y7607143D03*
X99628571Y8292857D03*
X99514286Y8178571D03*
X99628571Y8178571D03*
X99628571Y8064286D03*
X99628571Y7950000D03*
X99628571Y7835714D03*
X99628571Y7721429D03*
X99514286Y7607143D03*
X99628571Y7607143D03*
X99742857Y7607143D03*
X92142857Y8292857D03*
X92257143Y8292857D03*
X92371429Y8292857D03*
X92485714Y8292857D03*
X92028571Y8178571D03*
X92028571Y8064286D03*
X92028571Y7950000D03*
X92028571Y7835714D03*
X92028571Y7721429D03*
X92142857Y7607143D03*
X92257143Y7607143D03*
X92371429Y7607143D03*
X92485714Y7607143D03*
X93057143Y8292857D03*
X92942857Y8178571D03*
X93057143Y8178571D03*
X92828571Y8064286D03*
X93057143Y8064286D03*
X92714286Y7950000D03*
X93057143Y7950000D03*
X92714286Y7835714D03*
X92828571Y7835714D03*
X92942857Y7835714D03*
X93057143Y7835714D03*
X93171429Y7835714D03*
X93057143Y7721429D03*
X93057143Y7607143D03*
X93742857Y8292857D03*
X93628571Y8178571D03*
X93742857Y8178571D03*
X93514286Y8064286D03*
X93742857Y8064286D03*
X93400000Y7950000D03*
X93742857Y7950000D03*
X93400000Y7835714D03*
X93514286Y7835714D03*
X93628571Y7835714D03*
X93742857Y7835714D03*
X93857143Y7835714D03*
X93742857Y7721429D03*
X93742857Y7607143D03*
X86028571Y8992857D03*
X86142857Y8992857D03*
X86257143Y8992857D03*
X86371429Y8992857D03*
X86028571Y8878571D03*
X86485714Y8878571D03*
X86028571Y8764286D03*
X86485714Y8764286D03*
X86028571Y8650000D03*
X86485714Y8650000D03*
X86028571Y8535714D03*
X86485714Y8535714D03*
X86028571Y8421429D03*
X86485714Y8421429D03*
X86028571Y8307143D03*
X86142857Y8307143D03*
X86257143Y8307143D03*
X86371429Y8307143D03*
X86828571Y8992857D03*
X86942857Y8992857D03*
X87057143Y8992857D03*
X86714286Y8878571D03*
X87171429Y8878571D03*
X87171429Y8764286D03*
X87057143Y8650000D03*
X86942857Y8535714D03*
X86828571Y8421429D03*
X86714286Y8307143D03*
X86828571Y8307143D03*
X86942857Y8307143D03*
X87057143Y8307143D03*
X87171429Y8307143D03*
X87514286Y8992857D03*
X87628571Y8992857D03*
X87742857Y8992857D03*
X87400000Y8878571D03*
X87857143Y8878571D03*
X87400000Y8764286D03*
X87742857Y8764286D03*
X87857143Y8764286D03*
X87400000Y8650000D03*
X87628571Y8650000D03*
X87857143Y8650000D03*
X87400000Y8535714D03*
X87514286Y8535714D03*
X87857143Y8535714D03*
X87400000Y8421429D03*
X87857143Y8421429D03*
X87514286Y8307143D03*
X87628571Y8307143D03*
X87742857Y8307143D03*
X106028571Y37292857D03*
X106142857Y37292857D03*
X106257143Y37292857D03*
X106371429Y37292857D03*
X106028571Y37178571D03*
X106485714Y37178571D03*
X106028571Y37064286D03*
X106485714Y37064286D03*
X106028571Y36950000D03*
X106142857Y36950000D03*
X106257143Y36950000D03*
X106371429Y36950000D03*
X106028571Y36835714D03*
X106257143Y36835714D03*
X106028571Y36721429D03*
X106371429Y36721429D03*
X106028571Y36607143D03*
X106485714Y36607143D03*
X106714286Y37292857D03*
X106828571Y37292857D03*
X106942857Y37292857D03*
X107057143Y37292857D03*
X107171429Y37292857D03*
X106714286Y37178571D03*
X106714286Y37064286D03*
X106714286Y36950000D03*
X106828571Y36950000D03*
X106942857Y36950000D03*
X107057143Y36950000D03*
X107171429Y36835714D03*
X107171429Y36721429D03*
X106714286Y36607143D03*
X106828571Y36607143D03*
X106942857Y36607143D03*
X107057143Y36607143D03*
X107514286Y37292857D03*
X107628571Y37292857D03*
X107742857Y37292857D03*
X107400000Y37178571D03*
X107857143Y37178571D03*
X107857143Y37064286D03*
X107742857Y36950000D03*
X107628571Y36835714D03*
X107514286Y36721429D03*
X107400000Y36607143D03*
X107514286Y36607143D03*
X107628571Y36607143D03*
X107742857Y36607143D03*
X107857143Y36607143D03*
X107028571Y48292857D03*
X107142857Y48292857D03*
X107257143Y48292857D03*
X107371429Y48292857D03*
X107028571Y48178571D03*
X107485714Y48178571D03*
X107028571Y48064286D03*
X107485714Y48064286D03*
X107028571Y47950000D03*
X107142857Y47950000D03*
X107257143Y47950000D03*
X107371429Y47950000D03*
X107028571Y47835714D03*
X107257143Y47835714D03*
X107028571Y47721429D03*
X107371429Y47721429D03*
X107028571Y47607143D03*
X107485714Y47607143D03*
X107714286Y48292857D03*
X107828571Y48292857D03*
X107942857Y48292857D03*
X108057143Y48292857D03*
X108171429Y48292857D03*
X107714286Y48178571D03*
X107714286Y48064286D03*
X107714286Y47950000D03*
X107828571Y47950000D03*
X107942857Y47950000D03*
X108057143Y47950000D03*
X108171429Y47835714D03*
X108171429Y47721429D03*
X107714286Y47607143D03*
X107828571Y47607143D03*
X107942857Y47607143D03*
X108057143Y47607143D03*
X108400000Y48292857D03*
X108514286Y48292857D03*
X108628571Y48292857D03*
X108742857Y48292857D03*
X108857143Y48178571D03*
X108857143Y48064286D03*
X108514286Y47950000D03*
X108628571Y47950000D03*
X108742857Y47950000D03*
X108857143Y47835714D03*
X108857143Y47721429D03*
X108400000Y47607143D03*
X108514286Y47607143D03*
X108628571Y47607143D03*
X108742857Y47607143D03*
X111485714Y38992857D03*
X111600000Y38992857D03*
X111714286Y38992857D03*
X111371429Y38878571D03*
X111828571Y38878571D03*
X111371429Y38764286D03*
X111828571Y38764286D03*
X111371429Y38650000D03*
X111828571Y38650000D03*
X111371429Y38535714D03*
X111600000Y38535714D03*
X111828571Y38535714D03*
X111371429Y38421429D03*
X111714286Y38421429D03*
X111485714Y38307143D03*
X111600000Y38307143D03*
X111828571Y38307143D03*
X112057143Y38992857D03*
X112171429Y38992857D03*
X112285714Y38992857D03*
X112400000Y38992857D03*
X112514286Y38992857D03*
X112514286Y38878571D03*
X112400000Y38764286D03*
X112285714Y38650000D03*
X112171429Y38535714D03*
X112171429Y38421429D03*
X112171429Y38307143D03*
X112028571Y8292857D03*
X112142857Y8292857D03*
X112257143Y8292857D03*
X112371429Y8292857D03*
X112028571Y8178571D03*
X112485714Y8178571D03*
X112028571Y8064286D03*
X112485714Y8064286D03*
X112028571Y7950000D03*
X112142857Y7950000D03*
X112257143Y7950000D03*
X112371429Y7950000D03*
X112028571Y7835714D03*
X112257143Y7835714D03*
X112028571Y7721429D03*
X112371429Y7721429D03*
X112028571Y7607143D03*
X112485714Y7607143D03*
X112714286Y8292857D03*
X112828571Y8292857D03*
X112942857Y8292857D03*
X113057143Y8292857D03*
X113171429Y8292857D03*
X112714286Y8178571D03*
X112714286Y8064286D03*
X112714286Y7950000D03*
X112828571Y7950000D03*
X112942857Y7950000D03*
X113057143Y7950000D03*
X113171429Y7835714D03*
X113171429Y7721429D03*
X112714286Y7607143D03*
X112828571Y7607143D03*
X112942857Y7607143D03*
X113057143Y7607143D03*
X113742857Y8292857D03*
X113628571Y8178571D03*
X113742857Y8178571D03*
X113514286Y8064286D03*
X113742857Y8064286D03*
X113400000Y7950000D03*
X113742857Y7950000D03*
X113400000Y7835714D03*
X113514286Y7835714D03*
X113628571Y7835714D03*
X113742857Y7835714D03*
X113857143Y7835714D03*
X113742857Y7721429D03*
X113742857Y7607143D03*
X76028571Y8992857D03*
X76142857Y8992857D03*
X76257143Y8992857D03*
X76371429Y8992857D03*
X76028571Y8878571D03*
X76485714Y8878571D03*
X76028571Y8764286D03*
X76485714Y8764286D03*
X76028571Y8650000D03*
X76485714Y8650000D03*
X76028571Y8535714D03*
X76485714Y8535714D03*
X76028571Y8421429D03*
X76485714Y8421429D03*
X76028571Y8307143D03*
X76142857Y8307143D03*
X76257143Y8307143D03*
X76371429Y8307143D03*
X76828571Y8992857D03*
X76942857Y8992857D03*
X77057143Y8992857D03*
X76714286Y8878571D03*
X77171429Y8878571D03*
X77171429Y8764286D03*
X77057143Y8650000D03*
X76942857Y8535714D03*
X76828571Y8421429D03*
X76714286Y8307143D03*
X76828571Y8307143D03*
X76942857Y8307143D03*
X77057143Y8307143D03*
X77171429Y8307143D03*
X77628571Y8992857D03*
X77514286Y8878571D03*
X77628571Y8878571D03*
X77628571Y8764286D03*
X77628571Y8650000D03*
X77628571Y8535714D03*
X77628571Y8421429D03*
X77514286Y8307143D03*
X77628571Y8307143D03*
X77742857Y8307143D03*
X70028571Y8992857D03*
X70142857Y8992857D03*
X70257143Y8992857D03*
X70371429Y8992857D03*
X70028571Y8878571D03*
X70485714Y8878571D03*
X70028571Y8764286D03*
X70485714Y8764286D03*
X70028571Y8650000D03*
X70485714Y8650000D03*
X70028571Y8535714D03*
X70485714Y8535714D03*
X70028571Y8421429D03*
X70485714Y8421429D03*
X70028571Y8307143D03*
X70142857Y8307143D03*
X70257143Y8307143D03*
X70371429Y8307143D03*
X70828571Y8992857D03*
X70942857Y8992857D03*
X71057143Y8992857D03*
X70714286Y8878571D03*
X71171429Y8878571D03*
X71171429Y8764286D03*
X71057143Y8650000D03*
X70942857Y8535714D03*
X70828571Y8421429D03*
X70714286Y8307143D03*
X70828571Y8307143D03*
X70942857Y8307143D03*
X71057143Y8307143D03*
X71171429Y8307143D03*
X71514286Y8992857D03*
X71628571Y8992857D03*
X71742857Y8992857D03*
X71400000Y8878571D03*
X71857143Y8878571D03*
X71857143Y8764286D03*
X71742857Y8650000D03*
X71628571Y8535714D03*
X71514286Y8421429D03*
X71400000Y8307143D03*
X71514286Y8307143D03*
X71628571Y8307143D03*
X71742857Y8307143D03*
X71857143Y8307143D03*
X64028571Y8992857D03*
X64142857Y8992857D03*
X64257143Y8992857D03*
X64371429Y8992857D03*
X64028571Y8878571D03*
X64485714Y8878571D03*
X64028571Y8764286D03*
X64485714Y8764286D03*
X64028571Y8650000D03*
X64485714Y8650000D03*
X64028571Y8535714D03*
X64485714Y8535714D03*
X64028571Y8421429D03*
X64485714Y8421429D03*
X64028571Y8307143D03*
X64142857Y8307143D03*
X64257143Y8307143D03*
X64371429Y8307143D03*
X64828571Y8992857D03*
X64942857Y8992857D03*
X65057143Y8992857D03*
X64714286Y8878571D03*
X65171429Y8878571D03*
X65171429Y8764286D03*
X65057143Y8650000D03*
X64942857Y8535714D03*
X64828571Y8421429D03*
X64714286Y8307143D03*
X64828571Y8307143D03*
X64942857Y8307143D03*
X65057143Y8307143D03*
X65171429Y8307143D03*
X65400000Y8992857D03*
X65514286Y8992857D03*
X65628571Y8992857D03*
X65742857Y8992857D03*
X65857143Y8878571D03*
X65857143Y8764286D03*
X65514286Y8650000D03*
X65628571Y8650000D03*
X65742857Y8650000D03*
X65857143Y8535714D03*
X65857143Y8421429D03*
X65400000Y8307143D03*
X65514286Y8307143D03*
X65628571Y8307143D03*
X65742857Y8307143D03*
D40*
X8542857Y77514286D03*
D41*
X8714286Y77514286D03*
D40*
X8885714Y77514286D03*
X9057143Y77514286D03*
D41*
X9228571Y77514286D03*
D42*
X8885714Y77342857D03*
D40*
X8885714Y77171429D03*
D42*
X8885714Y77000000D03*
D43*
X8885714Y76828571D03*
D42*
X8885714Y76657143D03*
X8885714Y76485714D03*
D40*
X9571429Y77514286D03*
D41*
X9742857Y77514286D03*
D40*
X9914286Y77514286D03*
X10085714Y77514286D03*
D44*
X10257143Y77342857D03*
D41*
X10257143Y77171429D03*
D44*
X9742857Y77000000D03*
D42*
X9914286Y77000000D03*
X10085714Y77000000D03*
D45*
X10257143Y76828571D03*
D44*
X10257143Y76657143D03*
D42*
X9571429Y76485714D03*
D44*
X9742857Y76485714D03*
D42*
X9914286Y76485714D03*
X10085714Y76485714D03*
D40*
X10771429Y77514286D03*
X10942857Y77514286D03*
X11114286Y77514286D03*
D44*
X10600000Y77342857D03*
X11285714Y77342857D03*
D41*
X10600000Y77171429D03*
D40*
X11114286Y77171429D03*
D41*
X11285714Y77171429D03*
D44*
X10600000Y77000000D03*
D42*
X10942857Y77000000D03*
D44*
X11285714Y77000000D03*
D45*
X10600000Y76828571D03*
D43*
X10771429Y76828571D03*
D45*
X11285714Y76828571D03*
D44*
X10600000Y76657143D03*
X11285714Y76657143D03*
D42*
X10771429Y76485714D03*
X10942857Y76485714D03*
X11114286Y76485714D03*
D46*
X127171429Y77514286D03*
D47*
X127342857Y77514286D03*
D46*
X127514286Y77514286D03*
D48*
X127000000Y77342857D03*
X127685714Y77342857D03*
D47*
X127000000Y77171429D03*
X127685714Y77171429D03*
D48*
X127000000Y77000000D03*
X127685714Y77000000D03*
D49*
X127000000Y76828571D03*
X127685714Y76828571D03*
D48*
X127000000Y76657143D03*
X127685714Y76657143D03*
D50*
X127171429Y76485714D03*
D48*
X127342857Y76485714D03*
D50*
X127514286Y76485714D03*
D46*
X128028571Y77514286D03*
D51*
X128714286Y77514286D03*
D50*
X128028571Y77342857D03*
D52*
X128714286Y77342857D03*
D46*
X128028571Y77171429D03*
D51*
X128714286Y77171429D03*
D50*
X128028571Y77000000D03*
D52*
X128714286Y77000000D03*
D53*
X128028571Y76828571D03*
D54*
X128714286Y76828571D03*
D50*
X128028571Y76657143D03*
D52*
X128714286Y76657143D03*
D48*
X128200000Y76485714D03*
X128371429Y76485714D03*
X128542857Y76485714D03*
D47*
X129057143Y77514286D03*
X129228571Y77514286D03*
X129400000Y77514286D03*
D51*
X129571429Y77514286D03*
D47*
X129742857Y77514286D03*
D48*
X129400000Y77342857D03*
D47*
X129400000Y77171429D03*
D48*
X129400000Y77000000D03*
D49*
X129400000Y76828571D03*
D48*
X129400000Y76657143D03*
X129400000Y76485714D03*
D47*
X130085714Y77514286D03*
D51*
X130257143Y77514286D03*
D47*
X130428571Y77514286D03*
X130600000Y77514286D03*
D48*
X130085714Y77342857D03*
X130771429Y77342857D03*
D47*
X130085714Y77171429D03*
X130771429Y77171429D03*
D48*
X130085714Y77000000D03*
D52*
X130257143Y77000000D03*
D48*
X130428571Y77000000D03*
X130600000Y77000000D03*
D49*
X130085714Y76828571D03*
D48*
X130085714Y76657143D03*
X130085714Y76485714D03*
D47*
X131114286Y77514286D03*
D51*
X131800000Y77514286D03*
D48*
X131114286Y77342857D03*
D52*
X131800000Y77342857D03*
D47*
X131114286Y77171429D03*
D51*
X131800000Y77171429D03*
D48*
X131114286Y77000000D03*
D52*
X131800000Y77000000D03*
D49*
X131114286Y76828571D03*
D54*
X131800000Y76828571D03*
D48*
X131114286Y76657143D03*
D52*
X131800000Y76657143D03*
D48*
X131285714Y76485714D03*
X131457143Y76485714D03*
X131628571Y76485714D03*
D47*
X132142857Y77514286D03*
X132314286Y77514286D03*
D51*
X132485714Y77514286D03*
D47*
X132657143Y77514286D03*
X132828571Y77514286D03*
D52*
X132485714Y77342857D03*
D51*
X132485714Y77171429D03*
D52*
X132485714Y77000000D03*
D54*
X132485714Y76828571D03*
D52*
X132485714Y76657143D03*
X132485714Y76485714D03*
D55*
X29971429Y83342857D03*
X30085714Y83342857D03*
X30200000Y83342857D03*
X30314286Y83342857D03*
X29971429Y83228571D03*
D56*
X30428571Y83228571D03*
D55*
X29971429Y83114286D03*
D56*
X30428571Y83114286D03*
D55*
X29971429Y83000000D03*
X30085714Y83000000D03*
X30200000Y83000000D03*
X30314286Y83000000D03*
X29971429Y82885714D03*
X30200000Y82885714D03*
D11*
X29971429Y82771429D03*
X30314286Y82771429D03*
D57*
X29971429Y82657143D03*
D58*
X30428571Y82657143D03*
D55*
X30657143Y83342857D03*
X30771429Y83342857D03*
X30885714Y83342857D03*
X31000000Y83342857D03*
X31114286Y83342857D03*
X30657143Y83228571D03*
X30657143Y83114286D03*
X30657143Y83000000D03*
X30771429Y83000000D03*
X30885714Y83000000D03*
X31000000Y83000000D03*
X30657143Y82885714D03*
D11*
X30657143Y82771429D03*
D57*
X30657143Y82657143D03*
X30771429Y82657143D03*
X30885714Y82657143D03*
X31000000Y82657143D03*
X31114286Y82657143D03*
D55*
X31342857Y83342857D03*
X31800000Y83342857D03*
X31342857Y83228571D03*
X31800000Y83228571D03*
X31342857Y83114286D03*
X31800000Y83114286D03*
X31342857Y83000000D03*
X31800000Y83000000D03*
X31342857Y82885714D03*
X31800000Y82885714D03*
D18*
X31457143Y82771429D03*
D11*
X31685714Y82771429D03*
D57*
X31571429Y82657143D03*
D55*
X32714286Y83342857D03*
X32828571Y83342857D03*
X32942857Y83342857D03*
X33057143Y83342857D03*
X32714286Y83228571D03*
X33171429Y83228571D03*
X32714286Y83114286D03*
X33171429Y83114286D03*
X32714286Y83000000D03*
X32828571Y83000000D03*
X32942857Y83000000D03*
X33057143Y83000000D03*
X32714286Y82885714D03*
X33171429Y82885714D03*
D11*
X32714286Y82771429D03*
X33171429Y82771429D03*
D57*
X32714286Y82657143D03*
X32828571Y82657143D03*
X32942857Y82657143D03*
X33057143Y82657143D03*
D55*
X33400000Y83342857D03*
X33400000Y83228571D03*
X33400000Y83114286D03*
X33400000Y83000000D03*
X33400000Y82885714D03*
D11*
X33400000Y82771429D03*
D57*
X33400000Y82657143D03*
X33514286Y82657143D03*
X33628571Y82657143D03*
X33742857Y82657143D03*
X33857143Y82657143D03*
D55*
X34200000Y83342857D03*
X34314286Y83342857D03*
X34428571Y83342857D03*
X34085714Y83228571D03*
X34542857Y83228571D03*
X34085714Y83114286D03*
X34542857Y83114286D03*
X34085714Y83000000D03*
X34542857Y83000000D03*
X34085714Y82885714D03*
X34542857Y82885714D03*
D11*
X34085714Y82771429D03*
X34542857Y82771429D03*
D57*
X34200000Y82657143D03*
X34314286Y82657143D03*
X34428571Y82657143D03*
D55*
X34885714Y83342857D03*
X35000000Y83342857D03*
X35114286Y83342857D03*
X35228571Y83342857D03*
X34771429Y83228571D03*
X34771429Y83114286D03*
X34771429Y83000000D03*
X34771429Y82885714D03*
D11*
X34771429Y82771429D03*
D57*
X34885714Y82657143D03*
X35000000Y82657143D03*
X35114286Y82657143D03*
X35228571Y82657143D03*
D55*
X35457143Y83342857D03*
X35914286Y83342857D03*
X35457143Y83228571D03*
X35800000Y83228571D03*
X35457143Y83114286D03*
D59*
X35685714Y83114286D03*
D55*
X35457143Y83000000D03*
X35571429Y83000000D03*
X35457143Y82885714D03*
D59*
X35685714Y82885714D03*
D11*
X35457143Y82771429D03*
X35800000Y82771429D03*
D57*
X35457143Y82657143D03*
X35914286Y82657143D03*
D55*
X59285714Y83342857D03*
X59742857Y83342857D03*
X59285714Y83228571D03*
X59400000Y83228571D03*
X59628571Y83228571D03*
X59742857Y83228571D03*
X59285714Y83114286D03*
X59514286Y83114286D03*
X59742857Y83114286D03*
X59285714Y83000000D03*
X59514286Y83000000D03*
X59742857Y83000000D03*
X59285714Y82885714D03*
X59742857Y82885714D03*
D11*
X59285714Y82771429D03*
X59742857Y82771429D03*
D57*
X59285714Y82657143D03*
X59742857Y82657143D03*
D55*
X60085714Y83342857D03*
D59*
X60200000Y83342857D03*
D55*
X60314286Y83342857D03*
X59971429Y83228571D03*
X60428571Y83228571D03*
X59971429Y83114286D03*
X60428571Y83114286D03*
X59971429Y83000000D03*
X60085714Y83000000D03*
D59*
X60200000Y83000000D03*
D55*
X60314286Y83000000D03*
X60428571Y83000000D03*
X59971429Y82885714D03*
X60428571Y82885714D03*
D11*
X59971429Y82771429D03*
X60428571Y82771429D03*
D57*
X59971429Y82657143D03*
X60428571Y82657143D03*
D55*
X60657143Y83342857D03*
X60771429Y83342857D03*
X60885714Y83342857D03*
X61000000Y83342857D03*
X61114286Y83342857D03*
X60885714Y83228571D03*
X60885714Y83114286D03*
X60885714Y83000000D03*
X60885714Y82885714D03*
D11*
X60885714Y82771429D03*
D57*
X60657143Y82657143D03*
X60771429Y82657143D03*
X60885714Y82657143D03*
X61000000Y82657143D03*
X61114286Y82657143D03*
D55*
X61342857Y83342857D03*
X61800000Y83342857D03*
X61342857Y83228571D03*
X61457143Y83228571D03*
X61800000Y83228571D03*
X61342857Y83114286D03*
X61457143Y83114286D03*
X61800000Y83114286D03*
X61342857Y83000000D03*
X61571429Y83000000D03*
X61800000Y83000000D03*
X61342857Y82885714D03*
X61685714Y82885714D03*
X61800000Y82885714D03*
D11*
X61342857Y82771429D03*
X61685714Y82771429D03*
X61800000Y82771429D03*
D57*
X61342857Y82657143D03*
X61800000Y82657143D03*
D55*
X62828571Y83342857D03*
X62942857Y83342857D03*
X63057143Y83342857D03*
X63171429Y83342857D03*
X62714286Y83228571D03*
X62714286Y83114286D03*
X62828571Y83000000D03*
X62942857Y83000000D03*
X63057143Y83000000D03*
X63171429Y82885714D03*
D11*
X63171429Y82771429D03*
D57*
X62714286Y82657143D03*
X62828571Y82657143D03*
X62942857Y82657143D03*
X63057143Y82657143D03*
D55*
X63400000Y83342857D03*
X63857143Y83342857D03*
X63400000Y83228571D03*
X63857143Y83228571D03*
X63400000Y83114286D03*
X63857143Y83114286D03*
X63400000Y83000000D03*
X63628571Y83000000D03*
X63857143Y83000000D03*
X63400000Y82885714D03*
X63628571Y82885714D03*
X63857143Y82885714D03*
D11*
X63400000Y82771429D03*
X63628571Y82771429D03*
X63857143Y82771429D03*
D57*
X63514286Y82657143D03*
X63742857Y82657143D03*
D55*
X64085714Y83342857D03*
X64200000Y83342857D03*
X64314286Y83342857D03*
X64428571Y83342857D03*
X64542857Y83342857D03*
X64314286Y83228571D03*
X64314286Y83114286D03*
X64314286Y83000000D03*
X64314286Y82885714D03*
D11*
X64314286Y82771429D03*
D57*
X64085714Y82657143D03*
X64200000Y82657143D03*
X64314286Y82657143D03*
X64428571Y82657143D03*
X64542857Y82657143D03*
D55*
X64771429Y83342857D03*
X64885714Y83342857D03*
X65000000Y83342857D03*
D60*
X65114286Y83342857D03*
D55*
X65228571Y83342857D03*
X65000000Y83228571D03*
X65000000Y83114286D03*
X65000000Y83000000D03*
X65000000Y82885714D03*
D11*
X65000000Y82771429D03*
D57*
X65000000Y82657143D03*
D55*
X65571429Y83342857D03*
X65685714Y83342857D03*
X65800000Y83342857D03*
X65914286Y83342857D03*
X65457143Y83228571D03*
X65457143Y83114286D03*
X65457143Y83000000D03*
X65457143Y82885714D03*
D11*
X65457143Y82771429D03*
D57*
X65571429Y82657143D03*
X65685714Y82657143D03*
X65800000Y82657143D03*
X65914286Y82657143D03*
D55*
X66142857Y83342857D03*
X66600000Y83342857D03*
X66142857Y83228571D03*
X66600000Y83228571D03*
X66142857Y83114286D03*
X66600000Y83114286D03*
X66142857Y83000000D03*
X66257143Y83000000D03*
X66371429Y83000000D03*
X66485714Y83000000D03*
X66600000Y83000000D03*
X66142857Y82885714D03*
X66600000Y82885714D03*
D11*
X66142857Y82771429D03*
X66600000Y82771429D03*
D57*
X66142857Y82657143D03*
X66600000Y82657143D03*
D11*
X20228571Y5342857D03*
X20342857Y5342857D03*
X20457143Y5342857D03*
X20571429Y5342857D03*
D18*
X20685714Y5342857D03*
D11*
X20228571Y5228571D03*
X20228571Y5114286D03*
X20228571Y5000000D03*
X20342857Y5000000D03*
X20457143Y5000000D03*
X20571429Y5000000D03*
D18*
X20685714Y4885714D03*
X20685714Y4771429D03*
D11*
X20228571Y4657143D03*
X20342857Y4657143D03*
X20457143Y4657143D03*
X20571429Y4657143D03*
X20914286Y5342857D03*
X21371429Y5342857D03*
X20914286Y5228571D03*
X21371429Y5228571D03*
X20914286Y5114286D03*
X21371429Y5114286D03*
X20914286Y5000000D03*
X21371429Y5000000D03*
X20914286Y4885714D03*
X21371429Y4885714D03*
X21028571Y4771429D03*
X21257143Y4771429D03*
X21142857Y4657143D03*
X22400000Y5342857D03*
X22514286Y5342857D03*
D18*
X22628571Y5342857D03*
D11*
X22742857Y5342857D03*
X22285714Y5228571D03*
X22285714Y5114286D03*
X22400000Y5000000D03*
X22514286Y5000000D03*
D18*
X22628571Y5000000D03*
D11*
X22742857Y4885714D03*
X22742857Y4771429D03*
X22285714Y4657143D03*
X22400000Y4657143D03*
X22514286Y4657143D03*
D18*
X22628571Y4657143D03*
D11*
X22971429Y5342857D03*
X23085714Y5342857D03*
X23200000Y5342857D03*
X23314286Y5342857D03*
X23428571Y5342857D03*
X22971429Y5228571D03*
X22971429Y5114286D03*
X22971429Y5000000D03*
X23085714Y5000000D03*
X23200000Y5000000D03*
X23314286Y5000000D03*
X22971429Y4885714D03*
X22971429Y4771429D03*
X22971429Y4657143D03*
X23085714Y4657143D03*
X23200000Y4657143D03*
X23314286Y4657143D03*
X23428571Y4657143D03*
X23657143Y5342857D03*
X23771429Y5342857D03*
X23885714Y5342857D03*
X24000000Y5342857D03*
X24114286Y5342857D03*
X23885714Y5228571D03*
X23885714Y5114286D03*
X23885714Y5000000D03*
X23885714Y4885714D03*
X23885714Y4771429D03*
X23885714Y4657143D03*
X25028571Y5342857D03*
X25142857Y5342857D03*
X25257143Y5342857D03*
D18*
X25371429Y5342857D03*
D11*
X25028571Y5228571D03*
X25485714Y5228571D03*
X25028571Y5114286D03*
X25485714Y5114286D03*
X25028571Y5000000D03*
X25142857Y5000000D03*
X25257143Y5000000D03*
D18*
X25371429Y5000000D03*
D11*
X25028571Y4885714D03*
X25485714Y4885714D03*
X25028571Y4771429D03*
X25485714Y4771429D03*
X25028571Y4657143D03*
X25142857Y4657143D03*
X25257143Y4657143D03*
D18*
X25371429Y4657143D03*
D11*
X25714286Y5342857D03*
X25828571Y5342857D03*
X25942857Y5342857D03*
X26057143Y5342857D03*
X26171429Y5342857D03*
X25714286Y5228571D03*
X25714286Y5114286D03*
X25714286Y5000000D03*
X25828571Y5000000D03*
X25942857Y5000000D03*
X26057143Y5000000D03*
X25714286Y4885714D03*
X25714286Y4771429D03*
X25714286Y4657143D03*
X25828571Y4657143D03*
X25942857Y4657143D03*
X26057143Y4657143D03*
X26171429Y4657143D03*
X26400000Y5342857D03*
X26514286Y5342857D03*
D18*
X26628571Y5342857D03*
D11*
X26742857Y5342857D03*
X26857143Y5342857D03*
X26400000Y5228571D03*
X26400000Y5114286D03*
X26400000Y5000000D03*
X26514286Y5000000D03*
D18*
X26628571Y5000000D03*
D11*
X26742857Y5000000D03*
X26400000Y4885714D03*
X26400000Y4771429D03*
X26400000Y4657143D03*
X27200000Y5342857D03*
D18*
X27314286Y5342857D03*
D11*
X27428571Y5342857D03*
X27085714Y5228571D03*
X27542857Y5228571D03*
X27085714Y5114286D03*
X27542857Y5114286D03*
X27085714Y5000000D03*
X27542857Y5000000D03*
X27085714Y4885714D03*
X27542857Y4885714D03*
X27085714Y4771429D03*
X27542857Y4771429D03*
X27200000Y4657143D03*
D18*
X27314286Y4657143D03*
D11*
X27428571Y4657143D03*
X27771429Y5342857D03*
X27885714Y5342857D03*
X28000000Y5342857D03*
X28114286Y5342857D03*
X27771429Y5228571D03*
X28228571Y5228571D03*
X27771429Y5114286D03*
X28228571Y5114286D03*
X27771429Y5000000D03*
X27885714Y5000000D03*
X28000000Y5000000D03*
X28114286Y5000000D03*
X27771429Y4885714D03*
X28000000Y4885714D03*
X27771429Y4771429D03*
X28114286Y4771429D03*
X27771429Y4657143D03*
X28228571Y4657143D03*
X28457143Y5342857D03*
X28571429Y5342857D03*
D18*
X28685714Y5342857D03*
D11*
X28800000Y5342857D03*
X28914286Y5342857D03*
X28457143Y5228571D03*
X28457143Y5114286D03*
X28457143Y5000000D03*
X28571429Y5000000D03*
D18*
X28685714Y5000000D03*
D11*
X28800000Y5000000D03*
X28457143Y4885714D03*
X28457143Y4771429D03*
X28457143Y4657143D03*
X28571429Y4657143D03*
D18*
X28685714Y4657143D03*
D11*
X28800000Y4657143D03*
X28914286Y4657143D03*
X29828571Y5342857D03*
X29942857Y5342857D03*
X30057143Y5342857D03*
X30171429Y5342857D03*
X30285714Y5342857D03*
X29828571Y5228571D03*
X29828571Y5114286D03*
X29828571Y5000000D03*
X29942857Y5000000D03*
X30057143Y5000000D03*
X30171429Y5000000D03*
X29828571Y4885714D03*
X29828571Y4771429D03*
X29828571Y4657143D03*
X30514286Y5342857D03*
D18*
X30628571Y5342857D03*
D11*
X30742857Y5342857D03*
X30857143Y5342857D03*
X30971429Y5342857D03*
X30742857Y5228571D03*
X30742857Y5114286D03*
X30742857Y5000000D03*
X30742857Y4885714D03*
X30742857Y4771429D03*
X30514286Y4657143D03*
D18*
X30628571Y4657143D03*
D11*
X30742857Y4657143D03*
X30857143Y4657143D03*
X30971429Y4657143D03*
D18*
X31200000Y5342857D03*
D11*
X31314286Y5342857D03*
X31428571Y5342857D03*
X31542857Y5342857D03*
X31657143Y5342857D03*
X31428571Y5228571D03*
X31428571Y5114286D03*
X31428571Y5000000D03*
X31428571Y4885714D03*
X31428571Y4771429D03*
X31428571Y4657143D03*
X59771429Y2342857D03*
X59885714Y2342857D03*
X60000000Y2342857D03*
X60114286Y2342857D03*
X59771429Y2228571D03*
X60228571Y2228571D03*
X59771429Y2114286D03*
X60228571Y2114286D03*
X59771429Y2000000D03*
X59885714Y2000000D03*
X60000000Y2000000D03*
X60114286Y2000000D03*
X59771429Y1885714D03*
X59771429Y1771429D03*
X59771429Y1657143D03*
X60457143Y2342857D03*
X60571429Y2342857D03*
D20*
X60685714Y2342857D03*
D11*
X60800000Y2342857D03*
X60457143Y2228571D03*
X60914286Y2228571D03*
X60457143Y2114286D03*
X60914286Y2114286D03*
X60457143Y2000000D03*
X60571429Y2000000D03*
D20*
X60685714Y2000000D03*
D11*
X60800000Y2000000D03*
X60457143Y1885714D03*
D20*
X60685714Y1885714D03*
D11*
X60457143Y1771429D03*
X60800000Y1771429D03*
X60457143Y1657143D03*
X60914286Y1657143D03*
X61257143Y2342857D03*
X61371429Y2342857D03*
X61485714Y2342857D03*
X61142857Y2228571D03*
X61600000Y2228571D03*
X61142857Y2114286D03*
X61600000Y2114286D03*
X61142857Y2000000D03*
X61600000Y2000000D03*
X61142857Y1885714D03*
X61600000Y1885714D03*
X61142857Y1771429D03*
X61600000Y1771429D03*
X61257143Y1657143D03*
X61371429Y1657143D03*
X61485714Y1657143D03*
X61828571Y2342857D03*
X62285714Y2342857D03*
X61828571Y2228571D03*
X62285714Y2228571D03*
X61828571Y2114286D03*
X62285714Y2114286D03*
X61828571Y2000000D03*
X62285714Y2000000D03*
X61828571Y1885714D03*
X62285714Y1885714D03*
X61942857Y1771429D03*
X62171429Y1771429D03*
X62057143Y1657143D03*
X62514286Y2342857D03*
X62628571Y2342857D03*
D20*
X62742857Y2342857D03*
D11*
X62857143Y2342857D03*
X62971429Y2342857D03*
D20*
X62742857Y2228571D03*
X62742857Y2114286D03*
X62742857Y2000000D03*
X62742857Y1885714D03*
X62742857Y1771429D03*
D11*
X62514286Y1657143D03*
X62628571Y1657143D03*
D20*
X62742857Y1657143D03*
D11*
X62857143Y1657143D03*
X62971429Y1657143D03*
X63314286Y2342857D03*
X63428571Y2342857D03*
X63542857Y2342857D03*
X63657143Y2342857D03*
X63200000Y2228571D03*
X63200000Y2114286D03*
X63314286Y2000000D03*
X63428571Y2000000D03*
X63542857Y2000000D03*
X63657143Y1885714D03*
X63657143Y1771429D03*
X63200000Y1657143D03*
X63314286Y1657143D03*
X63428571Y1657143D03*
X63542857Y1657143D03*
X63885714Y2342857D03*
D20*
X64000000Y2342857D03*
D11*
X64114286Y2342857D03*
X64228571Y2342857D03*
X64342857Y2342857D03*
X64114286Y2228571D03*
X64114286Y2114286D03*
X64114286Y2000000D03*
X64114286Y1885714D03*
X64114286Y1771429D03*
X63885714Y1657143D03*
D20*
X64000000Y1657143D03*
D11*
X64114286Y1657143D03*
X64228571Y1657143D03*
X64342857Y1657143D03*
X64685714Y2342857D03*
X64800000Y2342857D03*
X64914286Y2342857D03*
X64571429Y2228571D03*
X65028571Y2228571D03*
X64571429Y2114286D03*
X65028571Y2114286D03*
X64571429Y2000000D03*
X65028571Y2000000D03*
X64571429Y1885714D03*
X65028571Y1885714D03*
X64571429Y1771429D03*
X65028571Y1771429D03*
X64685714Y1657143D03*
X64800000Y1657143D03*
X64914286Y1657143D03*
X65257143Y2342857D03*
X65714286Y2342857D03*
X65257143Y2228571D03*
X65371429Y2228571D03*
X65714286Y2228571D03*
X65257143Y2114286D03*
X65371429Y2114286D03*
X65714286Y2114286D03*
X65257143Y2000000D03*
X65485714Y2000000D03*
X65714286Y2000000D03*
X65257143Y1885714D03*
X65600000Y1885714D03*
X65714286Y1885714D03*
X65257143Y1771429D03*
X65600000Y1771429D03*
X65714286Y1771429D03*
X65257143Y1657143D03*
X65714286Y1657143D03*
X66057143Y2342857D03*
X66171429Y2342857D03*
X66285714Y2342857D03*
X65942857Y2228571D03*
X66400000Y2228571D03*
X65942857Y2114286D03*
X66400000Y2114286D03*
X65942857Y2000000D03*
X66057143Y2000000D03*
X66171429Y2000000D03*
X66285714Y2000000D03*
X66400000Y2000000D03*
X65942857Y1885714D03*
X66400000Y1885714D03*
X65942857Y1771429D03*
X66400000Y1771429D03*
X65942857Y1657143D03*
X66400000Y1657143D03*
X66628571Y2342857D03*
X66628571Y2228571D03*
X66628571Y2114286D03*
X66628571Y2000000D03*
X66628571Y1885714D03*
X66628571Y1771429D03*
X66628571Y1657143D03*
X66742857Y1657143D03*
X66857143Y1657143D03*
X66971429Y1657143D03*
X67085714Y1657143D03*
X68000000Y2000000D03*
X68114286Y2000000D03*
X68228571Y2000000D03*
X68342857Y2000000D03*
X68457143Y2000000D03*
X69485714Y2342857D03*
X69600000Y2342857D03*
X69714286Y2342857D03*
X69828571Y2342857D03*
X69371429Y2228571D03*
X69371429Y2114286D03*
X69371429Y2000000D03*
X69371429Y1885714D03*
X69371429Y1771429D03*
X69485714Y1657143D03*
X69600000Y1657143D03*
X69714286Y1657143D03*
X69828571Y1657143D03*
X70057143Y2342857D03*
X70514286Y2342857D03*
X70057143Y2228571D03*
X70514286Y2228571D03*
X70057143Y2114286D03*
X70514286Y2114286D03*
X70057143Y2000000D03*
X70171429Y2000000D03*
X70285714Y2000000D03*
X70400000Y2000000D03*
X70514286Y2000000D03*
X70057143Y1885714D03*
X70514286Y1885714D03*
X70057143Y1771429D03*
X70514286Y1771429D03*
X70057143Y1657143D03*
X70514286Y1657143D03*
X70742857Y2342857D03*
X70857143Y2342857D03*
X70971429Y2342857D03*
X71085714Y2342857D03*
D14*
X71200000Y2342857D03*
D11*
X70742857Y2228571D03*
X70742857Y2114286D03*
X70742857Y2000000D03*
X70857143Y2000000D03*
X70971429Y2000000D03*
X71085714Y2000000D03*
X70742857Y1885714D03*
X70742857Y1771429D03*
X70742857Y1657143D03*
X70857143Y1657143D03*
X70971429Y1657143D03*
X71085714Y1657143D03*
D14*
X71200000Y1657143D03*
D15*
X71542857Y2342857D03*
D14*
X71657143Y2342857D03*
D11*
X71771429Y2342857D03*
X71885714Y2342857D03*
D14*
X71428571Y2228571D03*
X71428571Y2114286D03*
X71428571Y2000000D03*
X71428571Y1885714D03*
X71428571Y1771429D03*
D15*
X71542857Y1657143D03*
D14*
X71657143Y1657143D03*
D11*
X71771429Y1657143D03*
X71885714Y1657143D03*
X72114286Y2342857D03*
X72571429Y2342857D03*
X72114286Y2228571D03*
X72457143Y2228571D03*
X72114286Y2114286D03*
X72342857Y2114286D03*
X72114286Y2000000D03*
X72228571Y2000000D03*
X72114286Y1885714D03*
X72342857Y1885714D03*
X72114286Y1771429D03*
X72457143Y1771429D03*
X72114286Y1657143D03*
X72571429Y1657143D03*
X73485714Y2342857D03*
X73942857Y2342857D03*
X73485714Y2228571D03*
X73600000Y2228571D03*
X73828571Y2228571D03*
X73942857Y2228571D03*
X73485714Y2114286D03*
X73714286Y2114286D03*
X73942857Y2114286D03*
X73485714Y2000000D03*
X73714286Y2000000D03*
X73942857Y2000000D03*
X73485714Y1885714D03*
X73942857Y1885714D03*
X73485714Y1771429D03*
X73942857Y1771429D03*
X73485714Y1657143D03*
X73942857Y1657143D03*
X74285714Y2342857D03*
X74400000Y2342857D03*
X74514286Y2342857D03*
X74171429Y2228571D03*
X74628571Y2228571D03*
X74171429Y2114286D03*
X74628571Y2114286D03*
X74171429Y2000000D03*
X74628571Y2000000D03*
X74171429Y1885714D03*
X74628571Y1885714D03*
X74171429Y1771429D03*
X74628571Y1771429D03*
X74285714Y1657143D03*
X74400000Y1657143D03*
X74514286Y1657143D03*
X74857143Y2342857D03*
X74971429Y2342857D03*
X75085714Y2342857D03*
D14*
X75200000Y2342857D03*
D11*
X74857143Y2228571D03*
D15*
X75314286Y2228571D03*
D11*
X74857143Y2114286D03*
D15*
X75314286Y2114286D03*
D11*
X74857143Y2000000D03*
D15*
X75314286Y2000000D03*
D11*
X74857143Y1885714D03*
D15*
X75314286Y1885714D03*
D11*
X74857143Y1771429D03*
D15*
X75314286Y1771429D03*
D11*
X74857143Y1657143D03*
X74971429Y1657143D03*
X75085714Y1657143D03*
D14*
X75200000Y1657143D03*
D11*
X75542857Y2342857D03*
X76000000Y2342857D03*
X75542857Y2228571D03*
X76000000Y2228571D03*
X75542857Y2114286D03*
X76000000Y2114286D03*
X75542857Y2000000D03*
X76000000Y2000000D03*
X75542857Y1885714D03*
X76000000Y1885714D03*
X75542857Y1771429D03*
X76000000Y1771429D03*
X75657143Y1657143D03*
X75771429Y1657143D03*
X75885714Y1657143D03*
X76228571Y2342857D03*
X76228571Y2228571D03*
X76228571Y2114286D03*
X76228571Y2000000D03*
X76228571Y1885714D03*
X76228571Y1771429D03*
X76228571Y1657143D03*
X76342857Y1657143D03*
X76457143Y1657143D03*
X76571429Y1657143D03*
X76685714Y1657143D03*
X76914286Y2342857D03*
X77028571Y2342857D03*
X77142857Y2342857D03*
X77257143Y2342857D03*
X77371429Y2342857D03*
X76914286Y2228571D03*
X76914286Y2114286D03*
X76914286Y2000000D03*
X77028571Y2000000D03*
X77142857Y2000000D03*
X77257143Y2000000D03*
X76914286Y1885714D03*
X76914286Y1771429D03*
X76914286Y1657143D03*
X77028571Y1657143D03*
X77142857Y1657143D03*
X77257143Y1657143D03*
X77371429Y1657143D03*
X78285714Y2342857D03*
X78400000Y2342857D03*
X78514286Y2342857D03*
X78628571Y2342857D03*
D14*
X78742857Y2342857D03*
D11*
X78285714Y2228571D03*
X78285714Y2114286D03*
X78285714Y2000000D03*
X78400000Y2000000D03*
X78514286Y2000000D03*
X78628571Y2000000D03*
X78285714Y1885714D03*
X78285714Y1771429D03*
X78285714Y1657143D03*
D14*
X78971429Y2342857D03*
D15*
X79085714Y2342857D03*
D14*
X79200000Y2342857D03*
D15*
X79314286Y2342857D03*
D14*
X79428571Y2342857D03*
X79200000Y2228571D03*
X79200000Y2114286D03*
X79200000Y2000000D03*
X79200000Y1885714D03*
X79200000Y1771429D03*
X78971429Y1657143D03*
D15*
X79085714Y1657143D03*
D14*
X79200000Y1657143D03*
D15*
X79314286Y1657143D03*
D14*
X79428571Y1657143D03*
X79657143Y2342857D03*
D11*
X79771429Y2342857D03*
X79885714Y2342857D03*
X80000000Y2342857D03*
X80114286Y2342857D03*
X79885714Y2228571D03*
X79885714Y2114286D03*
X79885714Y2000000D03*
X79885714Y1885714D03*
X79885714Y1771429D03*
X79885714Y1657143D03*
D9000*
X7750000Y46000000D02*
X8750000Y46000000D01*
X8250000Y45500000D02*
X8250000Y46500000D01*
M02*
