G04 PROVISIONAL - MODULE FOOTPRINTS ESTIMATED - NOT RELEASED FOR FABRICATION*
%TF.GenerationSoftware,OpenAI,ELC-Native-Writer,1.0*%
%TF.FileFunction,Copper,4,Bot*%
%TF.FilePolarity,Positive*%
%FSLAX46Y46*%
%MOMM*%
%LPD*%
%ADD10R,27.0000X26.4000*%
%ADD11R,25.8000X0.1000*%
%ADD12R,0.8000X0.1000*%
%ADD13R,25.6000X0.1000*%
%ADD14R,0.6000X0.1000*%
%ADD15R,25.5000X0.2000*%
%ADD16R,0.5000X0.2000*%
%ADD17R,25.4000X0.4000*%
%ADD18R,0.4000X0.4000*%
%ADD19R,27.0000X3.4000*%
%ADD20R,6.2000X12.2000*%
%ADD21R,4.1000X0.1000*%
%ADD22R,1.6000X0.1000*%
%ADD23R,3.9000X0.2000*%
%ADD24R,1.4000X0.2000*%
%ADD25R,3.8000X0.5000*%
%ADD26R,1.3000X0.5000*%
%ADD27R,6.2000X7.4000*%
%ADD28R,1.4000X0.2000*%
%ADD29R,1.3000X0.5000*%
%ADD30R,6.2000X9.2000*%
%ADD31R,20.0000X26.4000*%
%ADD32R,18.6000X0.1000*%
%ADD33R,0.8000X0.1000*%
%ADD34R,18.2000X0.1000*%
%ADD35R,18.0000X0.2000*%
%ADD36R,17.8000X0.4000*%
%ADD37R,20.0000X3.4000*%
%ADD38R,6.2000X12.2000*%
%ADD39R,1.6000X0.1000*%
%ADD40R,1.4000X0.2000*%
%ADD41R,1.3000X0.5000*%
%ADD42R,6.2000X7.4000*%
%ADD43R,4.1000X0.1000*%
%ADD44R,3.9000X0.2000*%
%ADD45R,3.8000X0.5000*%
%ADD46R,6.2000X9.2000*%
%ADD47R,31.0000X23.4000*%
%ADD48R,3.8000X0.1000*%
%ADD49R,24.8000X0.1000*%
%ADD50R,3.6000X0.1000*%
%ADD51R,1.2000X0.1000*%
%ADD52R,24.6000X0.1000*%
%ADD53R,3.5000X0.2000*%
%ADD54R,1.0000X0.2000*%
%ADD55R,24.5000X0.2000*%
%ADD56R,3.4000X0.4000*%
%ADD57R,0.8000X0.4000*%
%ADD58R,19.3000X0.1000*%
%ADD59R,2.0000X0.1000*%
%ADD60R,19.1000X0.1000*%
%ADD61R,1.5000X0.1000*%
%ADD62R,1.4000X0.1000*%
%ADD63R,18.9000X0.1000*%
%ADD64R,1.1000X0.1000*%
%ADD65R,18.8000X0.1000*%
%ADD66R,0.9000X0.1000*%
%ADD67R,1.0000X0.1000*%
%ADD68R,18.8000X0.1000*%
%ADD69R,0.7000X0.1000*%
%ADD70R,0.8000X0.1000*%
%ADD71R,18.7000X0.1000*%
%ADD72R,0.6000X0.1000*%
%ADD73R,18.7000X0.1000*%
%ADD74R,0.4000X0.2000*%
%ADD75R,18.9000X0.1000*%
%ADD76R,0.3000X0.3000*%
%ADD77R,25.1000X0.1000*%
%ADD78R,0.2000X0.8000*%
%ADD79R,25.0000X0.6000*%
%ADD80R,0.2000X0.4000*%
%ADD81R,25.1000X0.3000*%
%ADD82R,25.2000X0.1000*%
%ADD83R,25.3000X0.1000*%
%ADD84R,25.4000X0.1000*%
%ADD85R,25.5000X0.1000*%
%ADD86R,25.7000X0.1000*%
%ADD87R,25.9000X0.1000*%
%ADD88R,31.0000X0.2000*%
%ADD89R,30.8000X0.1000*%
%ADD90R,30.6000X0.1000*%
%ADD91R,30.5000X0.2000*%
%ADD92R,30.4000X0.4000*%
%ADD93R,31.0000X0.8000*%
%ADD94R,9.8000X0.1000*%
%ADD95R,9.6000X0.1000*%
%ADD96R,18.5000X0.2000*%
%ADD97R,9.5000X0.2000*%
%ADD98R,18.4000X0.4000*%
%ADD99R,0.8000X0.4000*%
%ADD100R,9.4000X0.4000*%
%ADD101R,18.5000X0.2000*%
%ADD102R,1.0000X0.2000*%
%ADD103R,9.5000X0.2000*%
%ADD104R,31.0000X1.4000*%
%ADD105R,38.0000X23.8000*%
%ADD106R,0.5000X0.1000*%
%ADD107R,36.9000X0.1000*%
%ADD108R,0.3000X0.1000*%
%ADD109R,36.7000X0.1000*%
%ADD110R,0.1000X0.1000*%
%ADD111R,36.5000X0.1000*%
%ADD112R,36.4000X0.1000*%
%ADD113R,36.3000X0.1000*%
%ADD114R,36.2000X0.1000*%
%ADD115R,36.1000X0.3000*%
%ADD116R,36.0000X0.6000*%
%ADD117R,38.0000X4.8000*%
%ADD118C,18.0000*%
%ADD119C,3.3000*%
%ADD120C,10.0000*%
%ADD121C,1.8000*%
%ADD122C,3.0000*%
%ADD123C,2.5000*%
%ADD124C,0.8000*%
%ADD125C,0.6000*%
%ADD126C,0.2500*%
G01*
D10*
X14500000Y68800000D03*
D11*
X13900000Y55550000D03*
D12*
X27600000Y55550000D03*
D13*
X13800000Y55450000D03*
D14*
X27700000Y55450000D03*
D15*
X13750000Y55300000D03*
D16*
X27750000Y55300000D03*
D17*
X13700000Y55000000D03*
D18*
X27800000Y55000000D03*
D15*
X13750000Y54700000D03*
D16*
X27750000Y54700000D03*
D13*
X13800000Y54550000D03*
D14*
X27700000Y54550000D03*
D11*
X13900000Y54450000D03*
D12*
X27600000Y54450000D03*
D19*
X14500000Y52700000D03*
D20*
X33000000Y75900000D03*
D21*
X31950000Y69750000D03*
D22*
X35300000Y69750000D03*
D23*
X31850000Y69600000D03*
D24*
X35400000Y69600000D03*
D25*
X31800000Y69250000D03*
D26*
X35450000Y69250000D03*
D23*
X31850000Y68900000D03*
D24*
X35400000Y68900000D03*
D21*
X31950000Y68750000D03*
D22*
X35300000Y68750000D03*
D27*
X33000000Y65000000D03*
D22*
X30700000Y61250000D03*
D21*
X34050000Y61250000D03*
D28*
X30600000Y61100000D03*
D23*
X34150000Y61100000D03*
D29*
X30550000Y60750000D03*
D25*
X34200000Y60750000D03*
D28*
X30600000Y60400000D03*
D23*
X34150000Y60400000D03*
D22*
X30700000Y60250000D03*
D21*
X34050000Y60250000D03*
D30*
X33000000Y55600000D03*
D31*
X48000000Y68800000D03*
D32*
X47500000Y55550000D03*
D33*
X57600000Y55550000D03*
D34*
X47500000Y55450000D03*
D14*
X57700000Y55450000D03*
D35*
X47500000Y55300000D03*
D16*
X57750000Y55300000D03*
D36*
X47500000Y55000000D03*
D18*
X57800000Y55000000D03*
D35*
X47500000Y54700000D03*
D16*
X57750000Y54700000D03*
D34*
X47500000Y54550000D03*
D14*
X57700000Y54550000D03*
D32*
X47500000Y54450000D03*
D33*
X57600000Y54450000D03*
D37*
X48000000Y52700000D03*
D38*
X63000000Y75900000D03*
D21*
X61950000Y69750000D03*
D39*
X65300000Y69750000D03*
D23*
X61850000Y69600000D03*
D40*
X65400000Y69600000D03*
D25*
X61800000Y69250000D03*
D41*
X65450000Y69250000D03*
D23*
X61850000Y68900000D03*
D40*
X65400000Y68900000D03*
D21*
X61950000Y68750000D03*
D39*
X65300000Y68750000D03*
D42*
X63000000Y65000000D03*
D22*
X60700000Y61250000D03*
D43*
X64050000Y61250000D03*
D24*
X60600000Y61100000D03*
D44*
X64150000Y61100000D03*
D26*
X60550000Y60750000D03*
D45*
X64200000Y60750000D03*
D24*
X60600000Y60400000D03*
D44*
X64150000Y60400000D03*
D22*
X60700000Y60250000D03*
D43*
X64050000Y60250000D03*
D46*
X63000000Y55600000D03*
D47*
X83500000Y70300000D03*
D48*
X69900000Y58550000D03*
D39*
X73000000Y58550000D03*
D49*
X86600000Y58550000D03*
D50*
X69800000Y58450000D03*
D51*
X73000000Y58450000D03*
D52*
X86700000Y58450000D03*
D53*
X69750000Y58300000D03*
D54*
X73000000Y58300000D03*
D55*
X86750000Y58300000D03*
D56*
X69700000Y58000000D03*
D57*
X73000000Y58000000D03*
D58*
X84250000Y58150000D03*
D59*
X95500000Y58150000D03*
X98000000Y58150000D03*
D60*
X84150000Y58050000D03*
D61*
X95450000Y58050000D03*
D62*
X98000000Y58050000D03*
D63*
X84050000Y57950000D03*
D64*
X95450000Y57950000D03*
D51*
X98000000Y57950000D03*
D65*
X84000000Y57850000D03*
D66*
X95450000Y57850000D03*
D67*
X98000000Y57850000D03*
D53*
X69750000Y57700000D03*
D54*
X73000000Y57700000D03*
D68*
X83900000Y57750000D03*
D69*
X95450000Y57750000D03*
D70*
X98000000Y57750000D03*
D71*
X83850000Y57650000D03*
D16*
X95450000Y57600000D03*
D72*
X98000000Y57650000D03*
D50*
X69800000Y57550000D03*
D51*
X73000000Y57550000D03*
D73*
X83750000Y57550000D03*
D74*
X98000000Y57500000D03*
D48*
X69900000Y57450000D03*
D39*
X73000000Y57450000D03*
D75*
X83650000Y57450000D03*
D76*
X95450000Y57350000D03*
D77*
X80550000Y57350000D03*
D78*
X98000000Y57000000D03*
D79*
X80500000Y57000000D03*
D80*
X95500000Y57000000D03*
D76*
X95450000Y56650000D03*
D81*
X80550000Y56550000D03*
D74*
X98000000Y56500000D03*
D16*
X95450000Y56400000D03*
D82*
X80600000Y56350000D03*
D72*
X98000000Y56350000D03*
D83*
X80650000Y56250000D03*
D69*
X95450000Y56250000D03*
D70*
X98000000Y56250000D03*
D84*
X80700000Y56150000D03*
D66*
X95450000Y56150000D03*
D67*
X98000000Y56150000D03*
D85*
X80750000Y56050000D03*
D64*
X95450000Y56050000D03*
D51*
X98000000Y56050000D03*
D86*
X80850000Y55950000D03*
D61*
X95450000Y55950000D03*
D62*
X98000000Y55950000D03*
D87*
X80950000Y55850000D03*
D59*
X95500000Y55850000D03*
X98000000Y55850000D03*
D88*
X83500000Y55700000D03*
D89*
X83600000Y55550000D03*
D90*
X83700000Y55450000D03*
D91*
X83750000Y55300000D03*
D92*
X83800000Y55000000D03*
D91*
X83750000Y54700000D03*
D90*
X83700000Y54550000D03*
D89*
X83600000Y54450000D03*
D93*
X83500000Y54000000D03*
D68*
X77400000Y53550000D03*
D39*
X88000000Y53550000D03*
D94*
X94100000Y53550000D03*
D32*
X77300000Y53450000D03*
D51*
X88000000Y53450000D03*
D95*
X94200000Y53450000D03*
D96*
X77250000Y53300000D03*
D54*
X88000000Y53300000D03*
D97*
X94250000Y53300000D03*
D98*
X77200000Y53000000D03*
D99*
X88000000Y53000000D03*
D100*
X94300000Y53000000D03*
D101*
X77250000Y52700000D03*
D102*
X88000000Y52700000D03*
D103*
X94250000Y52700000D03*
D32*
X77300000Y52550000D03*
D51*
X88000000Y52550000D03*
D95*
X94200000Y52550000D03*
D68*
X77400000Y52450000D03*
D39*
X88000000Y52450000D03*
D94*
X94100000Y52450000D03*
D104*
X83500000Y51700000D03*
D105*
X120000000Y70100000D03*
D106*
X101250000Y58150000D03*
D107*
X120550000Y58150000D03*
D108*
X101150000Y58050000D03*
D109*
X120650000Y58050000D03*
D110*
X101050000Y57950000D03*
D111*
X120750000Y57950000D03*
D112*
X120800000Y57850000D03*
D113*
X120850000Y57750000D03*
D114*
X120900000Y57650000D03*
D115*
X120950000Y57450000D03*
D116*
X121000000Y57000000D03*
D115*
X120950000Y56550000D03*
D114*
X120900000Y56350000D03*
D113*
X120850000Y56250000D03*
D112*
X120800000Y56150000D03*
D110*
X101050000Y56050000D03*
D111*
X120750000Y56050000D03*
D108*
X101150000Y55950000D03*
D109*
X120650000Y55950000D03*
D106*
X101250000Y55850000D03*
D107*
X120550000Y55850000D03*
D117*
X120000000Y53400000D03*
D118*
X10000000Y65000000D03*
X130000000Y65000000D03*
D119*
X8250000Y43000000D03*
X15750000Y43000000D03*
D120*
X83000000Y65000000D03*
X113000000Y65000000D03*
D121*
X94190000Y57000000D03*
X96730000Y57000000D03*
X99270000Y57000000D03*
X101810000Y57000000D03*
D122*
X7000000Y26000000D03*
X7000000Y10000000D03*
X45000000Y26000000D03*
X45000000Y10000000D03*
D121*
X61870000Y27620000D03*
X64410000Y27620000D03*
X66950000Y27620000D03*
X69490000Y27620000D03*
X72030000Y27620000D03*
X74570000Y27620000D03*
X77110000Y27620000D03*
X79650000Y27620000D03*
X82190000Y27620000D03*
X84730000Y27620000D03*
X87270000Y27620000D03*
X89810000Y27620000D03*
X92350000Y27620000D03*
X94890000Y27620000D03*
X97430000Y27620000D03*
X99970000Y27620000D03*
X102510000Y27620000D03*
X105050000Y27620000D03*
X107590000Y27620000D03*
X110130000Y27620000D03*
X61870000Y12380000D03*
X64410000Y12380000D03*
X66950000Y12380000D03*
X69490000Y12380000D03*
X72030000Y12380000D03*
X74570000Y12380000D03*
X77110000Y12380000D03*
X79650000Y12380000D03*
X82190000Y12380000D03*
X84730000Y12380000D03*
X87270000Y12380000D03*
X89810000Y12380000D03*
X92350000Y12380000D03*
X94890000Y12380000D03*
X97430000Y12380000D03*
X99970000Y12380000D03*
X102510000Y12380000D03*
X105050000Y12380000D03*
X107590000Y12380000D03*
X110130000Y12380000D03*
X118380000Y25080000D03*
X118380000Y22540000D03*
X118380000Y20000000D03*
X118380000Y17460000D03*
X133620000Y22540000D03*
X133620000Y20000000D03*
X133620000Y17460000D03*
D123*
X118380000Y5000000D03*
X123460000Y5000000D03*
X128540000Y5000000D03*
X133620000Y5000000D03*
D124*
X3000000Y80000000D03*
X4500000Y80000000D03*
X6000000Y80000000D03*
X7500000Y80000000D03*
X9000000Y80000000D03*
X10500000Y80000000D03*
X12000000Y80000000D03*
X13500000Y80000000D03*
X15000000Y80000000D03*
X16500000Y80000000D03*
X18000000Y80000000D03*
X19500000Y80000000D03*
X21000000Y80000000D03*
X22500000Y80000000D03*
X24000000Y80000000D03*
X25500000Y80000000D03*
X27000000Y80000000D03*
X3000000Y78500000D03*
X4500000Y78500000D03*
X6000000Y78500000D03*
X7500000Y78500000D03*
X9000000Y78500000D03*
X10500000Y78500000D03*
X12000000Y78500000D03*
X13500000Y78500000D03*
X15000000Y78500000D03*
X16500000Y78500000D03*
X18000000Y78500000D03*
X19500000Y78500000D03*
X21000000Y78500000D03*
X22500000Y78500000D03*
X24000000Y78500000D03*
X25500000Y78500000D03*
X27000000Y78500000D03*
X3000000Y77000000D03*
X4500000Y77000000D03*
X6000000Y77000000D03*
X7500000Y77000000D03*
X9000000Y77000000D03*
X10500000Y77000000D03*
X12000000Y77000000D03*
X13500000Y77000000D03*
X15000000Y77000000D03*
X16500000Y77000000D03*
X18000000Y77000000D03*
X19500000Y77000000D03*
X21000000Y77000000D03*
X22500000Y77000000D03*
X24000000Y77000000D03*
X25500000Y77000000D03*
X27000000Y77000000D03*
X3000000Y75500000D03*
X4500000Y75500000D03*
X6000000Y75500000D03*
X7500000Y75500000D03*
X9000000Y75500000D03*
X10500000Y75500000D03*
X12000000Y75500000D03*
X13500000Y75500000D03*
X15000000Y75500000D03*
X16500000Y75500000D03*
X18000000Y75500000D03*
X19500000Y75500000D03*
X21000000Y75500000D03*
X22500000Y75500000D03*
X24000000Y75500000D03*
X25500000Y75500000D03*
X27000000Y75500000D03*
X3000000Y74000000D03*
X4500000Y74000000D03*
X6000000Y74000000D03*
X13500000Y74000000D03*
X15000000Y74000000D03*
X16500000Y74000000D03*
X18000000Y74000000D03*
X19500000Y74000000D03*
X21000000Y74000000D03*
X22500000Y74000000D03*
X24000000Y74000000D03*
X25500000Y74000000D03*
X27000000Y74000000D03*
X3000000Y72500000D03*
X16500000Y72500000D03*
X18000000Y72500000D03*
X19500000Y72500000D03*
X21000000Y72500000D03*
X22500000Y72500000D03*
X24000000Y72500000D03*
X25500000Y72500000D03*
X27000000Y72500000D03*
X18000000Y71000000D03*
X19500000Y71000000D03*
X21000000Y71000000D03*
X22500000Y71000000D03*
X24000000Y71000000D03*
X25500000Y71000000D03*
X27000000Y71000000D03*
X19500000Y69500000D03*
X21000000Y69500000D03*
X22500000Y69500000D03*
X24000000Y69500000D03*
X25500000Y69500000D03*
X27000000Y69500000D03*
X19500000Y68000000D03*
X21000000Y68000000D03*
X22500000Y68000000D03*
X24000000Y68000000D03*
X25500000Y68000000D03*
X27000000Y68000000D03*
X19500000Y66500000D03*
X21000000Y66500000D03*
X22500000Y66500000D03*
X24000000Y66500000D03*
X25500000Y66500000D03*
X27000000Y66500000D03*
X21000000Y65000000D03*
X22500000Y65000000D03*
X24000000Y65000000D03*
X25500000Y65000000D03*
X27000000Y65000000D03*
X19500000Y63500000D03*
X21000000Y63500000D03*
X22500000Y63500000D03*
X24000000Y63500000D03*
X25500000Y63500000D03*
X27000000Y63500000D03*
X19500000Y62000000D03*
X21000000Y62000000D03*
X22500000Y62000000D03*
X24000000Y62000000D03*
X25500000Y62000000D03*
X27000000Y62000000D03*
X19500000Y60500000D03*
X21000000Y60500000D03*
X22500000Y60500000D03*
X24000000Y60500000D03*
X25500000Y60500000D03*
X27000000Y60500000D03*
X18000000Y59000000D03*
X19500000Y59000000D03*
X21000000Y59000000D03*
X22500000Y59000000D03*
X24000000Y59000000D03*
X25500000Y59000000D03*
X27000000Y59000000D03*
X3000000Y57500000D03*
X16500000Y57500000D03*
X18000000Y57500000D03*
X19500000Y57500000D03*
X21000000Y57500000D03*
X22500000Y57500000D03*
X24000000Y57500000D03*
X25500000Y57500000D03*
X27000000Y57500000D03*
X3000000Y56000000D03*
X4500000Y56000000D03*
X6000000Y56000000D03*
X13500000Y56000000D03*
X15000000Y56000000D03*
X16500000Y56000000D03*
X18000000Y56000000D03*
X19500000Y56000000D03*
X21000000Y56000000D03*
X22500000Y56000000D03*
X24000000Y56000000D03*
X25500000Y56000000D03*
X3000000Y54500000D03*
X4500000Y54500000D03*
X6000000Y54500000D03*
X7500000Y54500000D03*
X9000000Y54500000D03*
X10500000Y54500000D03*
X12000000Y54500000D03*
X13500000Y54500000D03*
X15000000Y54500000D03*
X16500000Y54500000D03*
X18000000Y54500000D03*
X19500000Y54500000D03*
X21000000Y54500000D03*
X22500000Y54500000D03*
X24000000Y54500000D03*
X25500000Y54500000D03*
X3000000Y53000000D03*
X4500000Y53000000D03*
X6000000Y53000000D03*
X7500000Y53000000D03*
X9000000Y53000000D03*
X10500000Y53000000D03*
X12000000Y53000000D03*
X13500000Y53000000D03*
X15000000Y53000000D03*
X16500000Y53000000D03*
X18000000Y53000000D03*
X19500000Y53000000D03*
X21000000Y53000000D03*
X22500000Y53000000D03*
X24000000Y53000000D03*
X25500000Y53000000D03*
X27000000Y53000000D03*
X31500000Y80000000D03*
X33000000Y80000000D03*
X34500000Y80000000D03*
X31500000Y78500000D03*
X33000000Y78500000D03*
X34500000Y78500000D03*
X31500000Y77000000D03*
X33000000Y77000000D03*
X34500000Y77000000D03*
X31500000Y75500000D03*
X33000000Y75500000D03*
X34500000Y75500000D03*
X31500000Y74000000D03*
X33000000Y74000000D03*
X34500000Y74000000D03*
X31500000Y72500000D03*
X33000000Y72500000D03*
X34500000Y72500000D03*
X31500000Y71000000D03*
X33000000Y71000000D03*
X34500000Y71000000D03*
X31500000Y69500000D03*
X31500000Y68000000D03*
X33000000Y68000000D03*
X34500000Y68000000D03*
X31500000Y66500000D03*
X33000000Y66500000D03*
X34500000Y66500000D03*
X31500000Y65000000D03*
X33000000Y65000000D03*
X34500000Y65000000D03*
X31500000Y63500000D03*
X33000000Y63500000D03*
X34500000Y63500000D03*
X31500000Y62000000D03*
X33000000Y62000000D03*
X34500000Y62000000D03*
X34500000Y60500000D03*
X31500000Y59000000D03*
X33000000Y59000000D03*
X34500000Y59000000D03*
X31500000Y57500000D03*
X33000000Y57500000D03*
X34500000Y57500000D03*
X31500000Y56000000D03*
X33000000Y56000000D03*
X34500000Y56000000D03*
X31500000Y54500000D03*
X33000000Y54500000D03*
X34500000Y54500000D03*
X31500000Y53000000D03*
X33000000Y53000000D03*
X34500000Y53000000D03*
X39000000Y80000000D03*
X40500000Y80000000D03*
X42000000Y80000000D03*
X43500000Y80000000D03*
X45000000Y80000000D03*
X46500000Y80000000D03*
X48000000Y80000000D03*
X49500000Y80000000D03*
X51000000Y80000000D03*
X52500000Y80000000D03*
X54000000Y80000000D03*
X55500000Y80000000D03*
X57000000Y80000000D03*
X39000000Y78500000D03*
X40500000Y78500000D03*
X42000000Y78500000D03*
X43500000Y78500000D03*
X45000000Y78500000D03*
X46500000Y78500000D03*
X48000000Y78500000D03*
X49500000Y78500000D03*
X51000000Y78500000D03*
X52500000Y78500000D03*
X54000000Y78500000D03*
X55500000Y78500000D03*
X57000000Y78500000D03*
X39000000Y77000000D03*
X40500000Y77000000D03*
X42000000Y77000000D03*
X43500000Y77000000D03*
X45000000Y77000000D03*
X46500000Y77000000D03*
X48000000Y77000000D03*
X49500000Y77000000D03*
X51000000Y77000000D03*
X52500000Y77000000D03*
X54000000Y77000000D03*
X55500000Y77000000D03*
X57000000Y77000000D03*
X39000000Y75500000D03*
X40500000Y75500000D03*
X42000000Y75500000D03*
X43500000Y75500000D03*
X45000000Y75500000D03*
X46500000Y75500000D03*
X48000000Y75500000D03*
X49500000Y75500000D03*
X51000000Y75500000D03*
X52500000Y75500000D03*
X54000000Y75500000D03*
X55500000Y75500000D03*
X57000000Y75500000D03*
X39000000Y74000000D03*
X40500000Y74000000D03*
X42000000Y74000000D03*
X43500000Y74000000D03*
X45000000Y74000000D03*
X46500000Y74000000D03*
X48000000Y74000000D03*
X49500000Y74000000D03*
X51000000Y74000000D03*
X52500000Y74000000D03*
X54000000Y74000000D03*
X55500000Y74000000D03*
X57000000Y74000000D03*
X39000000Y72500000D03*
X40500000Y72500000D03*
X42000000Y72500000D03*
X43500000Y72500000D03*
X45000000Y72500000D03*
X46500000Y72500000D03*
X48000000Y72500000D03*
X49500000Y72500000D03*
X51000000Y72500000D03*
X52500000Y72500000D03*
X54000000Y72500000D03*
X55500000Y72500000D03*
X57000000Y72500000D03*
X39000000Y71000000D03*
X40500000Y71000000D03*
X42000000Y71000000D03*
X43500000Y71000000D03*
X45000000Y71000000D03*
X46500000Y71000000D03*
X48000000Y71000000D03*
X49500000Y71000000D03*
X51000000Y71000000D03*
X52500000Y71000000D03*
X54000000Y71000000D03*
X55500000Y71000000D03*
X57000000Y71000000D03*
X39000000Y69500000D03*
X40500000Y69500000D03*
X42000000Y69500000D03*
X43500000Y69500000D03*
X45000000Y69500000D03*
X46500000Y69500000D03*
X48000000Y69500000D03*
X49500000Y69500000D03*
X51000000Y69500000D03*
X52500000Y69500000D03*
X54000000Y69500000D03*
X55500000Y69500000D03*
X57000000Y69500000D03*
X39000000Y68000000D03*
X40500000Y68000000D03*
X42000000Y68000000D03*
X43500000Y68000000D03*
X45000000Y68000000D03*
X46500000Y68000000D03*
X48000000Y68000000D03*
X49500000Y68000000D03*
X51000000Y68000000D03*
X52500000Y68000000D03*
X54000000Y68000000D03*
X55500000Y68000000D03*
X57000000Y68000000D03*
X39000000Y66500000D03*
X40500000Y66500000D03*
X42000000Y66500000D03*
X43500000Y66500000D03*
X45000000Y66500000D03*
X46500000Y66500000D03*
X48000000Y66500000D03*
X49500000Y66500000D03*
X51000000Y66500000D03*
X52500000Y66500000D03*
X54000000Y66500000D03*
X55500000Y66500000D03*
X57000000Y66500000D03*
X39000000Y65000000D03*
X40500000Y65000000D03*
X42000000Y65000000D03*
X43500000Y65000000D03*
X45000000Y65000000D03*
X46500000Y65000000D03*
X48000000Y65000000D03*
X49500000Y65000000D03*
X51000000Y65000000D03*
X52500000Y65000000D03*
X54000000Y65000000D03*
X55500000Y65000000D03*
X57000000Y65000000D03*
X39000000Y63500000D03*
X40500000Y63500000D03*
X42000000Y63500000D03*
X43500000Y63500000D03*
X45000000Y63500000D03*
X46500000Y63500000D03*
X48000000Y63500000D03*
X49500000Y63500000D03*
X51000000Y63500000D03*
X52500000Y63500000D03*
X54000000Y63500000D03*
X55500000Y63500000D03*
X57000000Y63500000D03*
X39000000Y62000000D03*
X40500000Y62000000D03*
X42000000Y62000000D03*
X43500000Y62000000D03*
X45000000Y62000000D03*
X46500000Y62000000D03*
X48000000Y62000000D03*
X49500000Y62000000D03*
X51000000Y62000000D03*
X52500000Y62000000D03*
X54000000Y62000000D03*
X55500000Y62000000D03*
X57000000Y62000000D03*
X39000000Y60500000D03*
X40500000Y60500000D03*
X42000000Y60500000D03*
X43500000Y60500000D03*
X45000000Y60500000D03*
X46500000Y60500000D03*
X48000000Y60500000D03*
X49500000Y60500000D03*
X51000000Y60500000D03*
X52500000Y60500000D03*
X54000000Y60500000D03*
X55500000Y60500000D03*
X57000000Y60500000D03*
X39000000Y59000000D03*
X40500000Y59000000D03*
X42000000Y59000000D03*
X43500000Y59000000D03*
X45000000Y59000000D03*
X46500000Y59000000D03*
X48000000Y59000000D03*
X49500000Y59000000D03*
X51000000Y59000000D03*
X52500000Y59000000D03*
X54000000Y59000000D03*
X55500000Y59000000D03*
X57000000Y59000000D03*
X39000000Y57500000D03*
X40500000Y57500000D03*
X42000000Y57500000D03*
X43500000Y57500000D03*
X45000000Y57500000D03*
X46500000Y57500000D03*
X48000000Y57500000D03*
X49500000Y57500000D03*
X51000000Y57500000D03*
X52500000Y57500000D03*
X54000000Y57500000D03*
X55500000Y57500000D03*
X57000000Y57500000D03*
X42000000Y56000000D03*
X43500000Y56000000D03*
X45000000Y56000000D03*
X46500000Y56000000D03*
X48000000Y56000000D03*
X49500000Y56000000D03*
X51000000Y56000000D03*
X52500000Y56000000D03*
X54000000Y56000000D03*
X55500000Y56000000D03*
X42000000Y54500000D03*
X43500000Y54500000D03*
X45000000Y54500000D03*
X46500000Y54500000D03*
X48000000Y54500000D03*
X49500000Y54500000D03*
X51000000Y54500000D03*
X52500000Y54500000D03*
X54000000Y54500000D03*
X55500000Y54500000D03*
X39000000Y53000000D03*
X40500000Y53000000D03*
X42000000Y53000000D03*
X43500000Y53000000D03*
X45000000Y53000000D03*
X46500000Y53000000D03*
X48000000Y53000000D03*
X49500000Y53000000D03*
X51000000Y53000000D03*
X52500000Y53000000D03*
X54000000Y53000000D03*
X55500000Y53000000D03*
X57000000Y53000000D03*
X61500000Y80000000D03*
X63000000Y80000000D03*
X64500000Y80000000D03*
X61500000Y78500000D03*
X63000000Y78500000D03*
X64500000Y78500000D03*
X61500000Y77000000D03*
X63000000Y77000000D03*
X64500000Y77000000D03*
X61500000Y75500000D03*
X63000000Y75500000D03*
X64500000Y75500000D03*
X61500000Y74000000D03*
X63000000Y74000000D03*
X64500000Y74000000D03*
X61500000Y72500000D03*
X63000000Y72500000D03*
X64500000Y72500000D03*
X61500000Y71000000D03*
X63000000Y71000000D03*
X64500000Y71000000D03*
X61500000Y69500000D03*
X61500000Y68000000D03*
X63000000Y68000000D03*
X64500000Y68000000D03*
X61500000Y66500000D03*
X63000000Y66500000D03*
X64500000Y66500000D03*
X61500000Y65000000D03*
X63000000Y65000000D03*
X64500000Y65000000D03*
X61500000Y63500000D03*
X63000000Y63500000D03*
X64500000Y63500000D03*
X61500000Y62000000D03*
X63000000Y62000000D03*
X64500000Y62000000D03*
X64500000Y60500000D03*
X61500000Y59000000D03*
X63000000Y59000000D03*
X64500000Y59000000D03*
X61500000Y57500000D03*
X63000000Y57500000D03*
X64500000Y57500000D03*
X61500000Y56000000D03*
X63000000Y56000000D03*
X64500000Y56000000D03*
X61500000Y54500000D03*
X63000000Y54500000D03*
X64500000Y54500000D03*
X61500000Y53000000D03*
X63000000Y53000000D03*
X64500000Y53000000D03*
X69000000Y80000000D03*
X70500000Y80000000D03*
X72000000Y80000000D03*
X73500000Y80000000D03*
X75000000Y80000000D03*
X76500000Y80000000D03*
X78000000Y80000000D03*
X79500000Y80000000D03*
X81000000Y80000000D03*
X82500000Y80000000D03*
X84000000Y80000000D03*
X85500000Y80000000D03*
X87000000Y80000000D03*
X88500000Y80000000D03*
X90000000Y80000000D03*
X91500000Y80000000D03*
X93000000Y80000000D03*
X94500000Y80000000D03*
X96000000Y80000000D03*
X97500000Y80000000D03*
X69000000Y78500000D03*
X70500000Y78500000D03*
X72000000Y78500000D03*
X73500000Y78500000D03*
X75000000Y78500000D03*
X76500000Y78500000D03*
X78000000Y78500000D03*
X79500000Y78500000D03*
X81000000Y78500000D03*
X82500000Y78500000D03*
X84000000Y78500000D03*
X85500000Y78500000D03*
X87000000Y78500000D03*
X88500000Y78500000D03*
X90000000Y78500000D03*
X91500000Y78500000D03*
X93000000Y78500000D03*
X94500000Y78500000D03*
X96000000Y78500000D03*
X97500000Y78500000D03*
X69000000Y77000000D03*
X70500000Y77000000D03*
X72000000Y77000000D03*
X73500000Y77000000D03*
X75000000Y77000000D03*
X76500000Y77000000D03*
X78000000Y77000000D03*
X79500000Y77000000D03*
X81000000Y77000000D03*
X82500000Y77000000D03*
X84000000Y77000000D03*
X85500000Y77000000D03*
X87000000Y77000000D03*
X88500000Y77000000D03*
X90000000Y77000000D03*
X91500000Y77000000D03*
X93000000Y77000000D03*
X94500000Y77000000D03*
X96000000Y77000000D03*
X97500000Y77000000D03*
X69000000Y75500000D03*
X70500000Y75500000D03*
X72000000Y75500000D03*
X73500000Y75500000D03*
X75000000Y75500000D03*
X76500000Y75500000D03*
X78000000Y75500000D03*
X79500000Y75500000D03*
X81000000Y75500000D03*
X82500000Y75500000D03*
X84000000Y75500000D03*
X85500000Y75500000D03*
X87000000Y75500000D03*
X88500000Y75500000D03*
X90000000Y75500000D03*
X91500000Y75500000D03*
X93000000Y75500000D03*
X94500000Y75500000D03*
X96000000Y75500000D03*
X97500000Y75500000D03*
X69000000Y74000000D03*
X70500000Y74000000D03*
X72000000Y74000000D03*
X73500000Y74000000D03*
X75000000Y74000000D03*
X76500000Y74000000D03*
X78000000Y74000000D03*
X79500000Y74000000D03*
X81000000Y74000000D03*
X82500000Y74000000D03*
X84000000Y74000000D03*
X85500000Y74000000D03*
X87000000Y74000000D03*
X88500000Y74000000D03*
X90000000Y74000000D03*
X91500000Y74000000D03*
X93000000Y74000000D03*
X94500000Y74000000D03*
X96000000Y74000000D03*
X97500000Y74000000D03*
X69000000Y72500000D03*
X70500000Y72500000D03*
X72000000Y72500000D03*
X73500000Y72500000D03*
X75000000Y72500000D03*
X76500000Y72500000D03*
X78000000Y72500000D03*
X79500000Y72500000D03*
X81000000Y72500000D03*
X82500000Y72500000D03*
X84000000Y72500000D03*
X85500000Y72500000D03*
X87000000Y72500000D03*
X88500000Y72500000D03*
X90000000Y72500000D03*
X91500000Y72500000D03*
X93000000Y72500000D03*
X94500000Y72500000D03*
X96000000Y72500000D03*
X97500000Y72500000D03*
X69000000Y71000000D03*
X70500000Y71000000D03*
X72000000Y71000000D03*
X73500000Y71000000D03*
X75000000Y71000000D03*
X76500000Y71000000D03*
X78000000Y71000000D03*
X79500000Y71000000D03*
X81000000Y71000000D03*
X82500000Y71000000D03*
X84000000Y71000000D03*
X85500000Y71000000D03*
X87000000Y71000000D03*
X88500000Y71000000D03*
X90000000Y71000000D03*
X91500000Y71000000D03*
X93000000Y71000000D03*
X94500000Y71000000D03*
X96000000Y71000000D03*
X97500000Y71000000D03*
X69000000Y69500000D03*
X70500000Y69500000D03*
X72000000Y69500000D03*
X73500000Y69500000D03*
X75000000Y69500000D03*
X76500000Y69500000D03*
X78000000Y69500000D03*
X79500000Y69500000D03*
X87000000Y69500000D03*
X88500000Y69500000D03*
X90000000Y69500000D03*
X91500000Y69500000D03*
X93000000Y69500000D03*
X94500000Y69500000D03*
X96000000Y69500000D03*
X97500000Y69500000D03*
X69000000Y68000000D03*
X70500000Y68000000D03*
X72000000Y68000000D03*
X73500000Y68000000D03*
X75000000Y68000000D03*
X76500000Y68000000D03*
X78000000Y68000000D03*
X88500000Y68000000D03*
X90000000Y68000000D03*
X91500000Y68000000D03*
X93000000Y68000000D03*
X94500000Y68000000D03*
X96000000Y68000000D03*
X97500000Y68000000D03*
X69000000Y66500000D03*
X70500000Y66500000D03*
X72000000Y66500000D03*
X73500000Y66500000D03*
X75000000Y66500000D03*
X76500000Y66500000D03*
X88500000Y66500000D03*
X90000000Y66500000D03*
X91500000Y66500000D03*
X93000000Y66500000D03*
X94500000Y66500000D03*
X96000000Y66500000D03*
X97500000Y66500000D03*
X69000000Y65000000D03*
X70500000Y65000000D03*
X72000000Y65000000D03*
X73500000Y65000000D03*
X75000000Y65000000D03*
X76500000Y65000000D03*
X90000000Y65000000D03*
X91500000Y65000000D03*
X93000000Y65000000D03*
X94500000Y65000000D03*
X96000000Y65000000D03*
X97500000Y65000000D03*
X69000000Y63500000D03*
X70500000Y63500000D03*
X72000000Y63500000D03*
X73500000Y63500000D03*
X75000000Y63500000D03*
X76500000Y63500000D03*
X88500000Y63500000D03*
X90000000Y63500000D03*
X91500000Y63500000D03*
X93000000Y63500000D03*
X94500000Y63500000D03*
X96000000Y63500000D03*
X97500000Y63500000D03*
X69000000Y62000000D03*
X70500000Y62000000D03*
X72000000Y62000000D03*
X73500000Y62000000D03*
X75000000Y62000000D03*
X76500000Y62000000D03*
X78000000Y62000000D03*
X88500000Y62000000D03*
X90000000Y62000000D03*
X91500000Y62000000D03*
X93000000Y62000000D03*
X94500000Y62000000D03*
X96000000Y62000000D03*
X97500000Y62000000D03*
X69000000Y60500000D03*
X70500000Y60500000D03*
X72000000Y60500000D03*
X73500000Y60500000D03*
X75000000Y60500000D03*
X76500000Y60500000D03*
X78000000Y60500000D03*
X79500000Y60500000D03*
X87000000Y60500000D03*
X88500000Y60500000D03*
X90000000Y60500000D03*
X91500000Y60500000D03*
X93000000Y60500000D03*
X94500000Y60500000D03*
X96000000Y60500000D03*
X97500000Y60500000D03*
X69000000Y59000000D03*
X70500000Y59000000D03*
X76500000Y59000000D03*
X78000000Y59000000D03*
X79500000Y59000000D03*
X81000000Y59000000D03*
X82500000Y59000000D03*
X84000000Y59000000D03*
X85500000Y59000000D03*
X87000000Y59000000D03*
X88500000Y59000000D03*
X90000000Y59000000D03*
X91500000Y59000000D03*
X93000000Y59000000D03*
X94500000Y59000000D03*
X96000000Y59000000D03*
X97500000Y59000000D03*
X69000000Y57500000D03*
X70500000Y57500000D03*
X76500000Y57500000D03*
X78000000Y57500000D03*
X79500000Y57500000D03*
X81000000Y57500000D03*
X82500000Y57500000D03*
X84000000Y57500000D03*
X85500000Y57500000D03*
X87000000Y57500000D03*
X88500000Y57500000D03*
X90000000Y57500000D03*
X91500000Y57500000D03*
X72000000Y56000000D03*
X73500000Y56000000D03*
X75000000Y56000000D03*
X76500000Y56000000D03*
X78000000Y56000000D03*
X79500000Y56000000D03*
X81000000Y56000000D03*
X82500000Y56000000D03*
X84000000Y56000000D03*
X85500000Y56000000D03*
X87000000Y56000000D03*
X88500000Y56000000D03*
X90000000Y56000000D03*
X91500000Y56000000D03*
X72000000Y54500000D03*
X73500000Y54500000D03*
X75000000Y54500000D03*
X76500000Y54500000D03*
X78000000Y54500000D03*
X79500000Y54500000D03*
X81000000Y54500000D03*
X82500000Y54500000D03*
X84000000Y54500000D03*
X85500000Y54500000D03*
X87000000Y54500000D03*
X88500000Y54500000D03*
X90000000Y54500000D03*
X91500000Y54500000D03*
X93000000Y54500000D03*
X94500000Y54500000D03*
X96000000Y54500000D03*
X97500000Y54500000D03*
X69000000Y53000000D03*
X70500000Y53000000D03*
X72000000Y53000000D03*
X73500000Y53000000D03*
X75000000Y53000000D03*
X76500000Y53000000D03*
X78000000Y53000000D03*
X79500000Y53000000D03*
X81000000Y53000000D03*
X82500000Y53000000D03*
X84000000Y53000000D03*
X85500000Y53000000D03*
X91500000Y53000000D03*
X93000000Y53000000D03*
X94500000Y53000000D03*
X96000000Y53000000D03*
X97500000Y53000000D03*
X102000000Y80000000D03*
X103500000Y80000000D03*
X105000000Y80000000D03*
X106500000Y80000000D03*
X108000000Y80000000D03*
X109500000Y80000000D03*
X111000000Y80000000D03*
X112500000Y80000000D03*
X114000000Y80000000D03*
X115500000Y80000000D03*
X117000000Y80000000D03*
X118500000Y80000000D03*
X120000000Y80000000D03*
X121500000Y80000000D03*
X123000000Y80000000D03*
X124500000Y80000000D03*
X126000000Y80000000D03*
X127500000Y80000000D03*
X129000000Y80000000D03*
X130500000Y80000000D03*
X132000000Y80000000D03*
X133500000Y80000000D03*
X135000000Y80000000D03*
X136500000Y80000000D03*
X138000000Y80000000D03*
X102000000Y78500000D03*
X103500000Y78500000D03*
X105000000Y78500000D03*
X106500000Y78500000D03*
X108000000Y78500000D03*
X109500000Y78500000D03*
X111000000Y78500000D03*
X112500000Y78500000D03*
X114000000Y78500000D03*
X115500000Y78500000D03*
X117000000Y78500000D03*
X118500000Y78500000D03*
X120000000Y78500000D03*
X121500000Y78500000D03*
X123000000Y78500000D03*
X124500000Y78500000D03*
X126000000Y78500000D03*
X127500000Y78500000D03*
X129000000Y78500000D03*
X130500000Y78500000D03*
X132000000Y78500000D03*
X133500000Y78500000D03*
X135000000Y78500000D03*
X136500000Y78500000D03*
X138000000Y78500000D03*
X102000000Y77000000D03*
X103500000Y77000000D03*
X105000000Y77000000D03*
X106500000Y77000000D03*
X108000000Y77000000D03*
X109500000Y77000000D03*
X111000000Y77000000D03*
X112500000Y77000000D03*
X114000000Y77000000D03*
X115500000Y77000000D03*
X117000000Y77000000D03*
X118500000Y77000000D03*
X120000000Y77000000D03*
X121500000Y77000000D03*
X123000000Y77000000D03*
X124500000Y77000000D03*
X126000000Y77000000D03*
X127500000Y77000000D03*
X129000000Y77000000D03*
X130500000Y77000000D03*
X132000000Y77000000D03*
X133500000Y77000000D03*
X135000000Y77000000D03*
X136500000Y77000000D03*
X138000000Y77000000D03*
X102000000Y75500000D03*
X103500000Y75500000D03*
X105000000Y75500000D03*
X106500000Y75500000D03*
X108000000Y75500000D03*
X109500000Y75500000D03*
X111000000Y75500000D03*
X112500000Y75500000D03*
X114000000Y75500000D03*
X115500000Y75500000D03*
X117000000Y75500000D03*
X118500000Y75500000D03*
X120000000Y75500000D03*
X121500000Y75500000D03*
X123000000Y75500000D03*
X124500000Y75500000D03*
X126000000Y75500000D03*
X127500000Y75500000D03*
X129000000Y75500000D03*
X130500000Y75500000D03*
X132000000Y75500000D03*
X133500000Y75500000D03*
X135000000Y75500000D03*
X136500000Y75500000D03*
X138000000Y75500000D03*
X102000000Y74000000D03*
X103500000Y74000000D03*
X105000000Y74000000D03*
X106500000Y74000000D03*
X108000000Y74000000D03*
X109500000Y74000000D03*
X111000000Y74000000D03*
X112500000Y74000000D03*
X114000000Y74000000D03*
X115500000Y74000000D03*
X117000000Y74000000D03*
X118500000Y74000000D03*
X120000000Y74000000D03*
X121500000Y74000000D03*
X123000000Y74000000D03*
X124500000Y74000000D03*
X126000000Y74000000D03*
X133500000Y74000000D03*
X135000000Y74000000D03*
X136500000Y74000000D03*
X138000000Y74000000D03*
X102000000Y72500000D03*
X103500000Y72500000D03*
X105000000Y72500000D03*
X106500000Y72500000D03*
X108000000Y72500000D03*
X109500000Y72500000D03*
X111000000Y72500000D03*
X112500000Y72500000D03*
X114000000Y72500000D03*
X115500000Y72500000D03*
X117000000Y72500000D03*
X118500000Y72500000D03*
X120000000Y72500000D03*
X121500000Y72500000D03*
X123000000Y72500000D03*
X136500000Y72500000D03*
X138000000Y72500000D03*
X102000000Y71000000D03*
X103500000Y71000000D03*
X105000000Y71000000D03*
X106500000Y71000000D03*
X108000000Y71000000D03*
X109500000Y71000000D03*
X111000000Y71000000D03*
X112500000Y71000000D03*
X114000000Y71000000D03*
X115500000Y71000000D03*
X117000000Y71000000D03*
X118500000Y71000000D03*
X120000000Y71000000D03*
X121500000Y71000000D03*
X138000000Y71000000D03*
X102000000Y69500000D03*
X103500000Y69500000D03*
X105000000Y69500000D03*
X106500000Y69500000D03*
X108000000Y69500000D03*
X109500000Y69500000D03*
X117000000Y69500000D03*
X118500000Y69500000D03*
X120000000Y69500000D03*
X121500000Y69500000D03*
X102000000Y68000000D03*
X103500000Y68000000D03*
X105000000Y68000000D03*
X106500000Y68000000D03*
X108000000Y68000000D03*
X118500000Y68000000D03*
X120000000Y68000000D03*
X102000000Y66500000D03*
X103500000Y66500000D03*
X105000000Y66500000D03*
X106500000Y66500000D03*
X118500000Y66500000D03*
X120000000Y66500000D03*
X102000000Y65000000D03*
X103500000Y65000000D03*
X105000000Y65000000D03*
X106500000Y65000000D03*
X120000000Y65000000D03*
X102000000Y63500000D03*
X103500000Y63500000D03*
X105000000Y63500000D03*
X106500000Y63500000D03*
X118500000Y63500000D03*
X120000000Y63500000D03*
X102000000Y62000000D03*
X103500000Y62000000D03*
X105000000Y62000000D03*
X106500000Y62000000D03*
X108000000Y62000000D03*
X118500000Y62000000D03*
X120000000Y62000000D03*
X102000000Y60500000D03*
X103500000Y60500000D03*
X105000000Y60500000D03*
X106500000Y60500000D03*
X108000000Y60500000D03*
X109500000Y60500000D03*
X117000000Y60500000D03*
X118500000Y60500000D03*
X120000000Y60500000D03*
X121500000Y60500000D03*
X102000000Y59000000D03*
X103500000Y59000000D03*
X105000000Y59000000D03*
X106500000Y59000000D03*
X108000000Y59000000D03*
X109500000Y59000000D03*
X111000000Y59000000D03*
X112500000Y59000000D03*
X114000000Y59000000D03*
X115500000Y59000000D03*
X117000000Y59000000D03*
X118500000Y59000000D03*
X120000000Y59000000D03*
X121500000Y59000000D03*
X138000000Y59000000D03*
X103500000Y57500000D03*
X105000000Y57500000D03*
X106500000Y57500000D03*
X108000000Y57500000D03*
X109500000Y57500000D03*
X111000000Y57500000D03*
X112500000Y57500000D03*
X114000000Y57500000D03*
X115500000Y57500000D03*
X117000000Y57500000D03*
X118500000Y57500000D03*
X120000000Y57500000D03*
X121500000Y57500000D03*
X123000000Y57500000D03*
X136500000Y57500000D03*
X138000000Y57500000D03*
X103500000Y56000000D03*
X105000000Y56000000D03*
X106500000Y56000000D03*
X108000000Y56000000D03*
X109500000Y56000000D03*
X111000000Y56000000D03*
X112500000Y56000000D03*
X114000000Y56000000D03*
X115500000Y56000000D03*
X117000000Y56000000D03*
X118500000Y56000000D03*
X120000000Y56000000D03*
X121500000Y56000000D03*
X123000000Y56000000D03*
X124500000Y56000000D03*
X126000000Y56000000D03*
X133500000Y56000000D03*
X135000000Y56000000D03*
X136500000Y56000000D03*
X138000000Y56000000D03*
X102000000Y54500000D03*
X103500000Y54500000D03*
X105000000Y54500000D03*
X106500000Y54500000D03*
X108000000Y54500000D03*
X109500000Y54500000D03*
X111000000Y54500000D03*
X112500000Y54500000D03*
X114000000Y54500000D03*
X115500000Y54500000D03*
X117000000Y54500000D03*
X118500000Y54500000D03*
X120000000Y54500000D03*
X121500000Y54500000D03*
X123000000Y54500000D03*
X124500000Y54500000D03*
X126000000Y54500000D03*
X127500000Y54500000D03*
X129000000Y54500000D03*
X130500000Y54500000D03*
X132000000Y54500000D03*
X133500000Y54500000D03*
X135000000Y54500000D03*
X136500000Y54500000D03*
X138000000Y54500000D03*
X102000000Y53000000D03*
X103500000Y53000000D03*
X105000000Y53000000D03*
X106500000Y53000000D03*
X108000000Y53000000D03*
X109500000Y53000000D03*
X111000000Y53000000D03*
X112500000Y53000000D03*
X114000000Y53000000D03*
X115500000Y53000000D03*
X117000000Y53000000D03*
X118500000Y53000000D03*
X120000000Y53000000D03*
X121500000Y53000000D03*
X123000000Y53000000D03*
X124500000Y53000000D03*
X126000000Y53000000D03*
X127500000Y53000000D03*
X129000000Y53000000D03*
X130500000Y53000000D03*
X132000000Y53000000D03*
X133500000Y53000000D03*
X135000000Y53000000D03*
X136500000Y53000000D03*
X138000000Y53000000D03*
D125*
X37000000Y47500000D03*
X38000000Y45000000D03*
X35250000Y43250000D03*
X67000000Y47500000D03*
X68000000Y45000000D03*
X65250000Y43250000D03*
X86000000Y44500000D03*
X87000000Y42000000D03*
X84250000Y40250000D03*
X89000000Y53000000D03*
X92000000Y48000000D03*
X27000000Y55000000D03*
X31750000Y60750000D03*
X38000000Y55000000D03*
X34250000Y69250000D03*
X57000000Y55000000D03*
X61750000Y60750000D03*
X68000000Y55000000D03*
X64250000Y69250000D03*
X35000000Y49500000D03*
X36250000Y42000000D03*
X65000000Y49500000D03*
X66250000Y42000000D03*
X86000000Y50000000D03*
X87000000Y53000000D03*
X85250000Y39000000D03*
X69000000Y33000000D03*
X72000000Y6000000D03*
X66000000Y6000000D03*
X65000000Y36000000D03*
X106000000Y35000000D03*
X83000000Y49000000D03*
X53750000Y65000000D03*
X129500000Y41000000D03*
X120750000Y41000000D03*
X87000000Y35000000D03*
X81500000Y14500000D03*
X29750000Y44500000D03*
X59750000Y44500000D03*
X76000000Y39000000D03*
X116000000Y31000000D03*
X104000000Y6000000D03*
X14000000Y32000000D03*
X6000000Y32000000D03*
X22500000Y32000000D03*
X96750000Y41000000D03*
X89750000Y49000000D03*
X105500000Y41000000D03*
X114500000Y41000000D03*
X123250000Y41750000D03*
X74000000Y35000000D03*
X72000000Y58000000D03*
X58000000Y36000000D03*
X55000000Y36000000D03*
X53000000Y32000000D03*
X111000000Y37000000D03*
X108000000Y35000000D03*
X107000000Y46000000D03*
X88750000Y39000000D03*
X79750000Y43250000D03*
X60750000Y46250000D03*
X69750000Y42000000D03*
X30750000Y46250000D03*
X39750000Y42000000D03*
X45500000Y31000000D03*
X72000000Y35000000D03*
X112000000Y6750000D03*
X127000000Y31000000D03*
X35000000Y39000000D03*
X33000000Y45000000D03*
X33500000Y32000000D03*
X60500000Y33250000D03*
X55000000Y32000000D03*
X67000000Y33250000D03*
X62500000Y33250000D03*
X71000000Y33750000D03*
X65000000Y39000000D03*
X63000000Y45000000D03*
X94000000Y35000000D03*
X84000000Y35000000D03*
X111000000Y35000000D03*
X99000000Y35000000D03*
X109250000Y41750000D03*
X96000000Y48000000D03*
X109000000Y46000000D03*
X100000000Y6000000D03*
X86000000Y7000000D03*
X94000000Y6000000D03*
X76000000Y7000000D03*
X58000000Y8000000D03*
X64000000Y7000000D03*
X74000000Y58000000D03*
X78000000Y43000000D03*
X132000000Y47000000D03*
X121000000Y31750000D03*
X27000000Y37000000D03*
D126*
X118500000Y25000000D02*
X117750000Y25000000D01*
X117750000Y25000000D02*
X117750000Y24750000D01*
X117750000Y24750000D02*
X117500000Y24750000D01*
X117500000Y24750000D02*
X117500000Y24500000D01*
X117500000Y24500000D02*
X117250000Y24500000D01*
X117250000Y24500000D02*
X117250000Y24250000D01*
X117250000Y24250000D02*
X117000000Y24250000D01*
X117000000Y24250000D02*
X117000000Y24000000D01*
X117000000Y24000000D02*
X116500000Y24000000D01*
X116500000Y24000000D02*
X116500000Y23750000D01*
X116500000Y23750000D02*
X116250000Y23750000D01*
X116250000Y23750000D02*
X116250000Y23500000D01*
X116250000Y23500000D02*
X115500000Y23500000D01*
X115500000Y23500000D02*
X115500000Y23250000D01*
X115500000Y23250000D02*
X115000000Y23250000D01*
X115000000Y23250000D02*
X115000000Y23000000D01*
X115000000Y23000000D02*
X114500000Y23000000D01*
X114500000Y23000000D02*
X114500000Y22750000D01*
X114500000Y22750000D02*
X114000000Y22750000D01*
X114000000Y22750000D02*
X114000000Y22250000D01*
X114000000Y22250000D02*
X113500000Y22250000D01*
X113500000Y22250000D02*
X113500000Y22000000D01*
X113500000Y22000000D02*
X113250000Y22000000D01*
X113250000Y22000000D02*
X113250000Y21750000D01*
X113250000Y21750000D02*
X113000000Y21750000D01*
X113000000Y21750000D02*
X113000000Y21000000D01*
X113000000Y21000000D02*
X111500000Y21000000D01*
X111500000Y21000000D02*
X111500000Y20750000D01*
X111500000Y20750000D02*
X110500000Y20750000D01*
X110500000Y20750000D02*
X110500000Y20500000D01*
X110500000Y20500000D02*
X110250000Y20500000D01*
X110250000Y20500000D02*
X110250000Y19750000D01*
X110250000Y19750000D02*
X110000000Y19750000D01*
X110000000Y19750000D02*
X110000000Y19500000D01*
X110000000Y19500000D02*
X109750000Y19500000D01*
X109750000Y19500000D02*
X109750000Y19250000D01*
X109750000Y19250000D02*
X109500000Y19250000D01*
X109500000Y19250000D02*
X109500000Y18250000D01*
X109500000Y18250000D02*
X109250000Y18250000D01*
X109250000Y18250000D02*
X109250000Y18000000D01*
X109250000Y18000000D02*
X109000000Y18000000D01*
X109000000Y18000000D02*
X109000000Y17750000D01*
X109000000Y17750000D02*
X108750000Y17750000D01*
X108750000Y17750000D02*
X108750000Y17500000D01*
X108750000Y17500000D02*
X107750000Y17500000D01*
X107750000Y17500000D02*
X107750000Y17250000D01*
X107750000Y17250000D02*
X105000000Y17250000D01*
X105000000Y17250000D02*
X105000000Y12500000D01*
X118380000Y25080000D02*
X118500000Y25000000D01*
X105050000Y12380000D02*
X105000000Y12500000D01*
X109250000Y41750000D02*
X109250000Y40500000D01*
X109250000Y40500000D02*
X109500000Y40500000D01*
X109500000Y40500000D02*
X109500000Y40250000D01*
X109500000Y40250000D02*
X109750000Y40250000D01*
X109750000Y40250000D02*
X109750000Y36500000D01*
X109750000Y36500000D02*
X110500000Y36500000D01*
X110500000Y36500000D02*
X110500000Y36250000D01*
X110500000Y36250000D02*
X111000000Y36250000D01*
X111000000Y36250000D02*
X111000000Y35000000D01*
X107500000Y12500000D02*
X107750000Y12500000D01*
X107750000Y12500000D02*
X107750000Y13000000D01*
X107750000Y13000000D02*
X108250000Y13000000D01*
X108250000Y13000000D02*
X108250000Y13250000D01*
X108250000Y13250000D02*
X109250000Y13250000D01*
X109250000Y13250000D02*
X109250000Y13500000D01*
X109250000Y13500000D02*
X109500000Y13500000D01*
X109500000Y13500000D02*
X109500000Y13750000D01*
X109500000Y13750000D02*
X110250000Y13750000D01*
X110250000Y13750000D02*
X110250000Y14250000D01*
X110250000Y14250000D02*
X110750000Y14250000D01*
X110750000Y14250000D02*
X110750000Y15000000D01*
X110750000Y15000000D02*
X111750000Y15000000D01*
X111750000Y15000000D02*
X111750000Y15250000D01*
X111750000Y15250000D02*
X112250000Y15250000D01*
X112250000Y15250000D02*
X112250000Y15500000D01*
X112250000Y15500000D02*
X113000000Y15500000D01*
X113000000Y15500000D02*
X113000000Y15750000D01*
X113000000Y15750000D02*
X113250000Y15750000D01*
X113250000Y15750000D02*
X113250000Y16000000D01*
X113250000Y16000000D02*
X113500000Y16000000D01*
X113500000Y16000000D02*
X113500000Y16250000D01*
X113500000Y16250000D02*
X115000000Y16250000D01*
X115000000Y16250000D02*
X115000000Y17250000D01*
X115000000Y17250000D02*
X115250000Y17250000D01*
X115250000Y17250000D02*
X115250000Y17500000D01*
X115250000Y17500000D02*
X115500000Y17500000D01*
X115500000Y17500000D02*
X115500000Y18750000D01*
X115500000Y18750000D02*
X115750000Y18750000D01*
X115750000Y18750000D02*
X115750000Y19500000D01*
X115750000Y19500000D02*
X116000000Y19500000D01*
X116000000Y19500000D02*
X116000000Y21000000D01*
X116000000Y21000000D02*
X116250000Y21000000D01*
X116250000Y21000000D02*
X116250000Y21250000D01*
X116250000Y21250000D02*
X118500000Y21250000D01*
X118500000Y21250000D02*
X118500000Y22500000D01*
X107590000Y12380000D02*
X107500000Y12500000D01*
X118380000Y22540000D02*
X118500000Y22500000D01*
M02*
