G04 PROVISIONAL - MODULE FOOTPRINTS ESTIMATED - NOT RELEASED FOR FABRICATION*
%TF.GenerationSoftware,OpenAI,ELC-Native-Writer,1.0*%
%TF.FileFunction,Soldermask,Bot*%
%TF.FilePolarity,Positive*%
%FSLAX46Y46*%
%MOMM*%
%LPD*%
%ADD10C,18.0600*%
%ADD11C,3.3600*%
%ADD12C,10.0600*%
%ADD13C,1.8600*%
%ADD14C,3.0600*%
%ADD15C,2.5600*%
G01*
D10*
X10000000Y65000000D03*
X130000000Y65000000D03*
D11*
X8250000Y43000000D03*
X15750000Y43000000D03*
D12*
X83000000Y65000000D03*
X113000000Y65000000D03*
D13*
X94190000Y57000000D03*
X96730000Y57000000D03*
X99270000Y57000000D03*
X101810000Y57000000D03*
D14*
X7000000Y26000000D03*
X7000000Y10000000D03*
X45000000Y26000000D03*
X45000000Y10000000D03*
D13*
X61870000Y27620000D03*
X64410000Y27620000D03*
X66950000Y27620000D03*
X69490000Y27620000D03*
X72030000Y27620000D03*
X74570000Y27620000D03*
X77110000Y27620000D03*
X79650000Y27620000D03*
X82190000Y27620000D03*
X84730000Y27620000D03*
X87270000Y27620000D03*
X89810000Y27620000D03*
X92350000Y27620000D03*
X94890000Y27620000D03*
X97430000Y27620000D03*
X99970000Y27620000D03*
X102510000Y27620000D03*
X105050000Y27620000D03*
X107590000Y27620000D03*
X110130000Y27620000D03*
X61870000Y12380000D03*
X64410000Y12380000D03*
X66950000Y12380000D03*
X69490000Y12380000D03*
X72030000Y12380000D03*
X74570000Y12380000D03*
X77110000Y12380000D03*
X79650000Y12380000D03*
X82190000Y12380000D03*
X84730000Y12380000D03*
X87270000Y12380000D03*
X89810000Y12380000D03*
X92350000Y12380000D03*
X94890000Y12380000D03*
X97430000Y12380000D03*
X99970000Y12380000D03*
X102510000Y12380000D03*
X105050000Y12380000D03*
X107590000Y12380000D03*
X110130000Y12380000D03*
X118380000Y25080000D03*
X118380000Y22540000D03*
X118380000Y20000000D03*
X118380000Y17460000D03*
X133620000Y22540000D03*
X133620000Y20000000D03*
X133620000Y17460000D03*
D15*
X118380000Y5000000D03*
X123460000Y5000000D03*
X128540000Y5000000D03*
X133620000Y5000000D03*
M02*
