G04 PROVISIONAL - MODULE FOOTPRINTS ESTIMATED - NOT RELEASED FOR FABRICATION*
%TF.GenerationSoftware,OpenAI,ELC-Native-Writer,1.0*%
%TF.FileFunction,Paste,Top*%
%TF.FilePolarity,Positive*%
%FSLAX46Y46*%
%MOMM*%
%LPD*%
%ADD10R,1.5200X0.7600*%
%ADD11R,1.5200X0.7600*%
%ADD12R,5.5480X7.6000*%
%ADD13R,1.5200X0.7600*%
%ADD14R,1.5200X0.7600*%
%ADD15R,1.5200X0.7600*%
%ADD16R,1.5200X0.7600*%
%ADD17R,1.9000X1.6720*%
%ADD18R,1.9000X1.6720*%
%ADD19R,1.9000X1.6720*%
%ADD20R,1.9000X1.6720*%
%ADD21R,1.1400X1.3680*%
%ADD22R,0.9120X1.0640*%
%ADD23R,0.7220X0.2128*%
%ADD24R,0.7220X0.2128*%
%ADD25R,1.4288X1.2768*%
%ADD26R,0.9120X1.0640*%
%ADD27R,0.8360X0.9120*%
%ADD28R,1.9000X1.6720*%
%ADD29R,0.7220X0.2128*%
%ADD30R,0.8360X0.9120*%
%ADD31R,0.9120X1.0640*%
%ADD32R,0.9120X1.0640*%
%ADD33R,0.7600X0.4940*%
%ADD34R,0.9120X1.0640*%
%ADD35R,1.2920X2.4320*%
%ADD36R,1.2920X2.4320*%
%ADD37R,0.7600X0.4940*%
G01*
D10*
X31650000Y60800000D03*
X31650000Y62000000D03*
X31650000Y63200000D03*
X31650000Y64400000D03*
X31650000Y65600000D03*
X31650000Y66800000D03*
X31650000Y68000000D03*
D11*
X31650000Y69200000D03*
D12*
X23850000Y65000000D03*
D13*
X34350000Y69200000D03*
D14*
X34350000Y68000000D03*
X34350000Y66800000D03*
X34350000Y65600000D03*
X34350000Y64400000D03*
X34350000Y63200000D03*
X34350000Y62000000D03*
X34350000Y60800000D03*
D12*
X42150000Y65000000D03*
D14*
X61650000Y60800000D03*
X61650000Y62000000D03*
X61650000Y63200000D03*
X61650000Y64400000D03*
X61650000Y65600000D03*
X61650000Y66800000D03*
X61650000Y68000000D03*
D13*
X61650000Y69200000D03*
D12*
X53850000Y65000000D03*
D15*
X64350000Y69200000D03*
D16*
X64350000Y68000000D03*
X64350000Y66800000D03*
X64350000Y65600000D03*
X64350000Y64400000D03*
X64350000Y63200000D03*
X64350000Y62000000D03*
X64350000Y60800000D03*
D12*
X72150000Y65000000D03*
D17*
X22900000Y37000000D03*
X27100000Y37000000D03*
D18*
X127900000Y47000000D03*
D19*
X132100000Y47000000D03*
D20*
X5900000Y32000000D03*
D17*
X10100000Y32000000D03*
X13900000Y32000000D03*
X18100000Y32000000D03*
D21*
X22500000Y32000000D03*
X25500000Y32000000D03*
X30500000Y32000000D03*
X33500000Y32000000D03*
X45500000Y31000000D03*
X48500000Y31000000D03*
D22*
X56000000Y8000000D03*
X58000000Y8000000D03*
X114000000Y31000000D03*
X116000000Y31000000D03*
X119000000Y31000000D03*
X121000000Y31000000D03*
X125000000Y31000000D03*
X127000000Y31000000D03*
D23*
X30800000Y46000000D03*
X30800000Y45500000D03*
X30800000Y45000000D03*
X30800000Y44500000D03*
X30800000Y44000000D03*
D24*
X35200000Y44000000D03*
X35200000Y44500000D03*
X35200000Y45000000D03*
X35200000Y45500000D03*
X35200000Y46000000D03*
D25*
X33000000Y45000000D03*
D22*
X37000000Y47500000D03*
X39000000Y47500000D03*
D26*
X27000000Y46000000D03*
X29000000Y46000000D03*
D27*
X36200000Y42000000D03*
X39800000Y42000000D03*
D17*
X30900000Y39000000D03*
D28*
X35100000Y39000000D03*
D26*
X27000000Y42000000D03*
X29000000Y42000000D03*
D24*
X60800000Y46000000D03*
X60800000Y45500000D03*
X60800000Y45000000D03*
X60800000Y44500000D03*
X60800000Y44000000D03*
D29*
X65200000Y44000000D03*
X65200000Y44500000D03*
X65200000Y45000000D03*
X65200000Y45500000D03*
X65200000Y46000000D03*
D25*
X63000000Y45000000D03*
D22*
X67000000Y47500000D03*
X69000000Y47500000D03*
X57000000Y46000000D03*
X59000000Y46000000D03*
D30*
X66200000Y42000000D03*
X69800000Y42000000D03*
D28*
X60900000Y39000000D03*
X65100000Y39000000D03*
D22*
X57000000Y42000000D03*
X59000000Y42000000D03*
D29*
X79800000Y43000000D03*
X79800000Y42500000D03*
X79800000Y42000000D03*
X79800000Y41500000D03*
X79800000Y41000000D03*
X84200000Y41000000D03*
X84200000Y41500000D03*
X84200000Y42000000D03*
X84200000Y42500000D03*
X84200000Y43000000D03*
D25*
X82000000Y42000000D03*
D22*
X86000000Y44500000D03*
X88000000Y44500000D03*
X76000000Y43000000D03*
X78000000Y43000000D03*
D30*
X85200000Y39000000D03*
X88800000Y39000000D03*
D28*
X91900000Y48000000D03*
X96100000Y48000000D03*
D22*
X76000000Y39000000D03*
X78000000Y39000000D03*
D26*
X29000000Y49500000D03*
X31000000Y49500000D03*
D31*
X27000000Y55000000D03*
X29000000Y55000000D03*
D22*
X35000000Y49500000D03*
X37000000Y49500000D03*
D32*
X38000000Y55000000D03*
X40000000Y55000000D03*
D22*
X59000000Y49500000D03*
X61000000Y49500000D03*
D32*
X57000000Y55000000D03*
X59000000Y55000000D03*
D22*
X65000000Y49500000D03*
X67000000Y49500000D03*
D32*
X68000000Y55000000D03*
X70000000Y55000000D03*
D33*
X81000000Y49950000D03*
X81000000Y48050000D03*
X83000000Y49000000D03*
X86000000Y49950000D03*
X86000000Y48050000D03*
X88000000Y49000000D03*
D34*
X87000000Y53000000D03*
X89000000Y53000000D03*
D35*
X96800000Y41000000D03*
X103200000Y41000000D03*
X105600000Y41000000D03*
X112000000Y41000000D03*
X114400000Y41000000D03*
X120800000Y41000000D03*
X123200000Y41000000D03*
D36*
X129600000Y41000000D03*
X132000000Y41000000D03*
X138400000Y41000000D03*
D32*
X72000000Y58000000D03*
X74000000Y58000000D03*
D22*
X72000000Y35000000D03*
X74000000Y35000000D03*
X77000000Y35000000D03*
X79000000Y35000000D03*
X82000000Y35000000D03*
X84000000Y35000000D03*
X53000000Y36000000D03*
X55000000Y36000000D03*
X53000000Y32000000D03*
X55000000Y32000000D03*
X58000000Y36000000D03*
X60000000Y36000000D03*
X58000000Y33200000D03*
X60000000Y33200000D03*
X65000000Y36000000D03*
X67000000Y36000000D03*
X65000000Y33200000D03*
X67000000Y33200000D03*
X70000000Y39000000D03*
X72000000Y39000000D03*
X69000000Y32900000D03*
X71000000Y32900000D03*
X87000000Y35000000D03*
X89000000Y35000000D03*
X92000000Y35000000D03*
X94000000Y35000000D03*
X97000000Y35000000D03*
X99000000Y35000000D03*
X104000000Y6000000D03*
X106000000Y6000000D03*
X98000000Y6000000D03*
X100000000Y6000000D03*
X92000000Y6000000D03*
X94000000Y6000000D03*
D33*
X86000000Y6950000D03*
X86000000Y5050000D03*
X88000000Y6000000D03*
D22*
X106000000Y35000000D03*
X108000000Y35000000D03*
X107000000Y46000000D03*
X109000000Y46000000D03*
D33*
X111000000Y36950000D03*
X111000000Y35050000D03*
X113000000Y36000000D03*
D22*
X112000000Y6000000D03*
X114000000Y6000000D03*
D33*
X76000000Y6950000D03*
X76000000Y5050000D03*
X78000000Y6000000D03*
X70000000Y6950000D03*
X70000000Y5050000D03*
X72000000Y6000000D03*
D37*
X64000000Y6950000D03*
X64000000Y5050000D03*
D33*
X66000000Y6000000D03*
M02*
