G04 PROVISIONAL - MODULE FOOTPRINTS ESTIMATED - NOT RELEASED FOR FABRICATION*
%TF.GenerationSoftware,OpenAI,ELC-Native-Writer,1.0*%
%TF.FileFunction,Copper,1,Top*%
%TF.FilePolarity,Positive*%
%FSLAX46Y46*%
%MOMM*%
%LPD*%
%ADD10R,27.0000X26.0000*%
%ADD11R,25.3000X0.1000*%
%ADD12R,0.3000X0.1000*%
%ADD13R,25.2000X0.1000*%
%ADD14R,0.2000X0.1000*%
%ADD15R,25.1000X1.6000*%
%ADD16R,0.1000X1.6000*%
%ADD17R,25.6000X0.5000*%
%ADD18R,25.7000X0.1000*%
%ADD19R,25.9000X0.1000*%
%ADD20R,26.8000X1.1000*%
%ADD21R,26.9000X0.2000*%
%ADD22R,27.0000X1.0000*%
%ADD23R,6.2000X12.0000*%
%ADD24R,3.3000X0.1000*%
%ADD25R,0.6000X0.1000*%
%ADD26R,3.2000X1.4000*%
%ADD27R,0.5000X1.4000*%
%ADD28R,3.3000X0.1000*%
%ADD29R,0.6000X0.1000*%
%ADD30R,6.2000X6.8000*%
%ADD31R,0.5000X1.4000*%
%ADD32R,3.2000X1.4000*%
%ADD33R,6.2000X8.8000*%
%ADD34R,6.0000X0.1000*%
%ADD35R,5.8000X0.1000*%
%ADD36R,20.0000X25.3000*%
%ADD37R,18.9000X0.1000*%
%ADD38R,18.7000X0.1000*%
%ADD39R,18.6000X0.5000*%
%ADD40R,15.6000X0.1000*%
%ADD41R,0.3000X0.1000*%
%ADD42R,15.4000X0.1000*%
%ADD43R,0.2000X0.1000*%
%ADD44R,15.2000X1.6000*%
%ADD45R,0.2000X0.4000*%
%ADD46R,0.4000X0.1000*%
%ADD47R,0.6000X0.1000*%
%ADD48R,18.3000X0.1000*%
%ADD49R,18.5000X0.1000*%
%ADD50R,18.6000X0.3000*%
%ADD51R,19.8000X1.1000*%
%ADD52R,19.9000X0.2000*%
%ADD53R,20.0000X1.0000*%
%ADD54R,6.2000X12.0000*%
%ADD55R,0.6000X0.1000*%
%ADD56R,6.2000X6.8000*%
%ADD57R,3.3000X0.1000*%
%ADD58R,3.2000X1.4000*%
%ADD59R,6.2000X8.8000*%
%ADD60R,6.0000X0.1000*%
%ADD61R,5.8000X0.1000*%
%ADD62R,31.0000X23.0000*%
%ADD63R,24.3000X0.1000*%
%ADD64R,3.2000X0.1000*%
%ADD65R,24.2000X0.1000*%
%ADD66R,3.1000X1.6000*%
%ADD67R,0.2000X1.6000*%
%ADD68R,24.1000X0.6000*%
%ADD69R,19.0000X0.1000*%
%ADD70R,2.0000X0.1000*%
%ADD71R,18.8000X0.1000*%
%ADD72R,1.5000X0.1000*%
%ADD73R,1.4000X0.1000*%
%ADD74R,18.6000X0.1000*%
%ADD75R,1.1000X0.1000*%
%ADD76R,1.2000X0.1000*%
%ADD77R,0.9000X0.1000*%
%ADD78R,1.0000X0.1000*%
%ADD79R,18.4000X0.1000*%
%ADD80R,0.7000X0.1000*%
%ADD81R,0.8000X0.1000*%
%ADD82R,18.3000X0.1000*%
%ADD83R,0.5000X0.2000*%
%ADD84R,0.6000X0.1000*%
%ADD85R,18.2000X0.3000*%
%ADD86R,0.4000X0.2000*%
%ADD87R,0.3000X0.3000*%
%ADD88R,0.2000X0.8000*%
%ADD89R,18.1000X0.1000*%
%ADD90R,18.2000X0.1000*%
%ADD91R,0.2000X0.4000*%
%ADD92R,18.3000X0.1000*%
%ADD93R,25.0000X0.3000*%
%ADD94R,24.0000X0.1000*%
%ADD95R,23.8000X0.1000*%
%ADD96R,23.7000X0.1000*%
%ADD97R,23.8000X0.1000*%
%ADD98R,23.9000X0.1000*%
%ADD99R,24.1000X0.1000*%
%ADD100R,23.0000X0.1000*%
%ADD101R,23.1000X0.1000*%
%ADD102R,28.1000X1.6000*%
%ADD103R,0.2000X0.4000*%
%ADD104R,28.2000X0.1000*%
%ADD105R,28.3000X0.1000*%
%ADD106R,18.0000X0.1000*%
%ADD107R,9.3000X0.1000*%
%ADD108R,18.1000X0.1000*%
%ADD109R,9.2000X0.1000*%
%ADD110R,18.1000X1.6000*%
%ADD111R,0.2000X1.6000*%
%ADD112R,9.1000X1.6000*%
%ADD113R,18.2000X0.1000*%
%ADD114R,0.4000X0.1000*%
%ADD115R,9.2000X0.1000*%
%ADD116R,31.0000X1.0000*%
%ADD117R,38.0000X23.8000*%
%ADD118R,0.5000X0.1000*%
%ADD119R,36.9000X0.1000*%
%ADD120R,36.7000X0.1000*%
%ADD121R,0.1000X0.1000*%
%ADD122R,36.5000X0.1000*%
%ADD123R,36.4000X0.1000*%
%ADD124R,36.3000X0.1000*%
%ADD125R,36.2000X0.1000*%
%ADD126R,36.1000X0.3000*%
%ADD127R,36.0000X0.6000*%
%ADD128R,38.0000X4.8000*%
%ADD129C,18.0000*%
%ADD130R,2.0000X1.0000*%
%ADD131R,7.3000X10.0000*%
%ADD132R,7.3000X10.0000*%
%ADD133C,3.3000*%
%ADD134R,2.5000X2.2000*%
%ADD135C,10.0000*%
%ADD136C,1.8000*%
%ADD137C,3.0000*%
%ADD138C,2.5000*%
%ADD139R,1.5000X1.8000*%
%ADD140R,1.2000X1.4000*%
%ADD141R,1.2000X1.4000*%
%ADD142R,0.9500X0.2800*%
%ADD143R,1.8800X1.6800*%
%ADD144R,1.1000X1.2000*%
%ADD145R,0.9500X0.2800*%
%ADD146R,1.2000X1.4000*%
%ADD147R,1.2000X1.4000*%
%ADD148R,1.0000X0.6500*%
%ADD149R,1.2000X1.4000*%
%ADD150R,1.7000X3.2000*%
%ADD151C,0.8000*%
%ADD152C,0.6000*%
%ADD153C,0.2500*%
G01*
D10*
X14500000Y69000000D03*
D11*
X13650000Y55950000D03*
D12*
X27850000Y55950000D03*
D13*
X13600000Y55850000D03*
D14*
X27900000Y55850000D03*
D15*
X13550000Y55000000D03*
D16*
X27950000Y55000000D03*
D13*
X13600000Y54150000D03*
D11*
X13650000Y54050000D03*
D17*
X13800000Y53750000D03*
D18*
X13850000Y53450000D03*
D19*
X13950000Y53350000D03*
D20*
X14400000Y52750000D03*
D21*
X14450000Y52100000D03*
D22*
X14500000Y51500000D03*
D23*
X33000000Y76000000D03*
D24*
X31550000Y69950000D03*
D25*
X35800000Y69950000D03*
D26*
X31500000Y69200000D03*
D27*
X35850000Y69200000D03*
D28*
X31550000Y68450000D03*
D29*
X35800000Y68450000D03*
D30*
X33000000Y65000000D03*
D29*
X30200000Y61550000D03*
D28*
X34450000Y61550000D03*
D31*
X30150000Y60800000D03*
D32*
X34500000Y60800000D03*
D29*
X30200000Y60050000D03*
D28*
X34450000Y60050000D03*
D33*
X33000000Y55600000D03*
D34*
X33100000Y51150000D03*
D35*
X33200000Y51050000D03*
D36*
X48000000Y69350000D03*
D37*
X48550000Y56650000D03*
D38*
X48650000Y56550000D03*
D39*
X48700000Y56250000D03*
D40*
X48500000Y55950000D03*
D41*
X57850000Y55950000D03*
D42*
X48500000Y55850000D03*
D43*
X57900000Y55850000D03*
D44*
X48500000Y55000000D03*
D16*
X57950000Y55000000D03*
D45*
X39000000Y54400000D03*
D46*
X39000000Y54150000D03*
D42*
X48500000Y54150000D03*
D47*
X39000000Y54050000D03*
D40*
X48500000Y54050000D03*
D48*
X47450000Y53950000D03*
D49*
X47350000Y53850000D03*
D50*
X47300000Y53650000D03*
D38*
X47350000Y53450000D03*
D37*
X47450000Y53350000D03*
D51*
X47900000Y52750000D03*
D52*
X47950000Y52100000D03*
D53*
X48000000Y51500000D03*
D54*
X63000000Y76000000D03*
D24*
X61550000Y69950000D03*
D55*
X65800000Y69950000D03*
D26*
X61500000Y69200000D03*
D27*
X65850000Y69200000D03*
D28*
X61550000Y68450000D03*
D47*
X65800000Y68450000D03*
D56*
X63000000Y65000000D03*
D29*
X60200000Y61550000D03*
D57*
X64450000Y61550000D03*
D31*
X60150000Y60800000D03*
D58*
X64500000Y60800000D03*
D29*
X60200000Y60050000D03*
D57*
X64450000Y60050000D03*
D59*
X63000000Y55600000D03*
D60*
X63100000Y51150000D03*
D61*
X63200000Y51050000D03*
D62*
X83500000Y70500000D03*
D57*
X69650000Y58950000D03*
D47*
X73000000Y58950000D03*
D63*
X86850000Y58950000D03*
D64*
X69600000Y58850000D03*
D46*
X73000000Y58850000D03*
D65*
X86900000Y58850000D03*
D66*
X69550000Y58000000D03*
D67*
X73000000Y58000000D03*
D68*
X86950000Y58500000D03*
D69*
X84400000Y58150000D03*
D70*
X95500000Y58150000D03*
X98000000Y58150000D03*
D71*
X84300000Y58050000D03*
D72*
X95450000Y58050000D03*
D73*
X98000000Y58050000D03*
D74*
X84200000Y57950000D03*
D75*
X95450000Y57950000D03*
D76*
X98000000Y57950000D03*
D49*
X84150000Y57850000D03*
D77*
X95450000Y57850000D03*
D78*
X98000000Y57850000D03*
D79*
X84100000Y57750000D03*
D80*
X95450000Y57750000D03*
D81*
X98000000Y57750000D03*
D82*
X84050000Y57650000D03*
D83*
X95450000Y57600000D03*
D84*
X98000000Y57650000D03*
D85*
X84000000Y57450000D03*
D86*
X98000000Y57500000D03*
D87*
X95450000Y57350000D03*
D88*
X98000000Y57000000D03*
D89*
X83950000Y57250000D03*
D64*
X69600000Y57150000D03*
D46*
X73000000Y57150000D03*
D90*
X83900000Y57150000D03*
D91*
X95500000Y57000000D03*
D57*
X69650000Y57050000D03*
D47*
X73000000Y57050000D03*
D92*
X83850000Y57050000D03*
D93*
X80500000Y56850000D03*
D87*
X95450000Y56650000D03*
D94*
X81100000Y56650000D03*
D95*
X81200000Y56550000D03*
D86*
X98000000Y56500000D03*
D96*
X81250000Y56450000D03*
D83*
X95450000Y56400000D03*
D97*
X81300000Y56350000D03*
D84*
X98000000Y56350000D03*
D98*
X81350000Y56250000D03*
D80*
X95450000Y56250000D03*
D81*
X98000000Y56250000D03*
D94*
X81400000Y56150000D03*
D77*
X95450000Y56150000D03*
D78*
X98000000Y56150000D03*
D99*
X81450000Y56050000D03*
D75*
X95450000Y56050000D03*
D76*
X98000000Y56050000D03*
D100*
X82200000Y55950000D03*
D72*
X95450000Y55950000D03*
D73*
X98000000Y55950000D03*
D101*
X82350000Y55850000D03*
D70*
X95500000Y55850000D03*
X98000000Y55850000D03*
D102*
X84950000Y55000000D03*
D103*
X69000000Y54400000D03*
D46*
X69000000Y54150000D03*
D104*
X84900000Y54150000D03*
D47*
X69000000Y54050000D03*
D105*
X84850000Y54050000D03*
D106*
X77300000Y53950000D03*
D47*
X88000000Y53950000D03*
D107*
X94350000Y53950000D03*
D108*
X77150000Y53850000D03*
D46*
X88000000Y53850000D03*
D109*
X94400000Y53850000D03*
D110*
X77050000Y53000000D03*
D111*
X88000000Y53000000D03*
D112*
X94450000Y53000000D03*
D113*
X77100000Y52150000D03*
D114*
X88000000Y52150000D03*
D115*
X94400000Y52150000D03*
D92*
X77150000Y52050000D03*
D47*
X88000000Y52050000D03*
D107*
X94350000Y52050000D03*
D116*
X83500000Y51500000D03*
D117*
X120000000Y70100000D03*
D118*
X101250000Y58150000D03*
D119*
X120550000Y58150000D03*
D41*
X101150000Y58050000D03*
D120*
X120650000Y58050000D03*
D121*
X101050000Y57950000D03*
D122*
X120750000Y57950000D03*
D123*
X120800000Y57850000D03*
D124*
X120850000Y57750000D03*
D125*
X120900000Y57650000D03*
D126*
X120950000Y57450000D03*
D127*
X121000000Y57000000D03*
D126*
X120950000Y56550000D03*
D125*
X120900000Y56350000D03*
D124*
X120850000Y56250000D03*
D123*
X120800000Y56150000D03*
D121*
X101050000Y56050000D03*
D122*
X120750000Y56050000D03*
D41*
X101150000Y55950000D03*
D120*
X120650000Y55950000D03*
D118*
X101250000Y55850000D03*
D119*
X120550000Y55850000D03*
D128*
X120000000Y53400000D03*
D129*
X10000000Y65000000D03*
X130000000Y65000000D03*
D130*
X31650000Y60800000D03*
X31650000Y62000000D03*
X31650000Y63200000D03*
X31650000Y64400000D03*
X31650000Y65600000D03*
X31650000Y66800000D03*
X31650000Y68000000D03*
X31650000Y69200000D03*
D131*
X23850000Y65000000D03*
D130*
X34350000Y69200000D03*
X34350000Y68000000D03*
X34350000Y66800000D03*
X34350000Y65600000D03*
X34350000Y64400000D03*
X34350000Y63200000D03*
X34350000Y62000000D03*
X34350000Y60800000D03*
D131*
X42150000Y65000000D03*
D130*
X61650000Y60800000D03*
X61650000Y62000000D03*
X61650000Y63200000D03*
X61650000Y64400000D03*
X61650000Y65600000D03*
X61650000Y66800000D03*
X61650000Y68000000D03*
X61650000Y69200000D03*
D131*
X53850000Y65000000D03*
D130*
X64350000Y69200000D03*
X64350000Y68000000D03*
X64350000Y66800000D03*
X64350000Y65600000D03*
X64350000Y64400000D03*
X64350000Y63200000D03*
X64350000Y62000000D03*
X64350000Y60800000D03*
D132*
X72150000Y65000000D03*
D133*
X8250000Y43000000D03*
X15750000Y43000000D03*
D134*
X22900000Y37000000D03*
X27100000Y37000000D03*
X127900000Y47000000D03*
X132100000Y47000000D03*
D135*
X83000000Y65000000D03*
X113000000Y65000000D03*
D136*
X94190000Y57000000D03*
X96730000Y57000000D03*
X99270000Y57000000D03*
X101810000Y57000000D03*
D137*
X7000000Y26000000D03*
X7000000Y10000000D03*
X45000000Y26000000D03*
X45000000Y10000000D03*
D136*
X61870000Y27620000D03*
X64410000Y27620000D03*
X66950000Y27620000D03*
X69490000Y27620000D03*
X72030000Y27620000D03*
X74570000Y27620000D03*
X77110000Y27620000D03*
X79650000Y27620000D03*
X82190000Y27620000D03*
X84730000Y27620000D03*
X87270000Y27620000D03*
X89810000Y27620000D03*
X92350000Y27620000D03*
X94890000Y27620000D03*
X97430000Y27620000D03*
X99970000Y27620000D03*
X102510000Y27620000D03*
X105050000Y27620000D03*
X107590000Y27620000D03*
X110130000Y27620000D03*
X61870000Y12380000D03*
X64410000Y12380000D03*
X66950000Y12380000D03*
X69490000Y12380000D03*
X72030000Y12380000D03*
X74570000Y12380000D03*
X77110000Y12380000D03*
X79650000Y12380000D03*
X82190000Y12380000D03*
X84730000Y12380000D03*
X87270000Y12380000D03*
X89810000Y12380000D03*
X92350000Y12380000D03*
X94890000Y12380000D03*
X97430000Y12380000D03*
X99970000Y12380000D03*
X102510000Y12380000D03*
X105050000Y12380000D03*
X107590000Y12380000D03*
X110130000Y12380000D03*
X118380000Y25080000D03*
X118380000Y22540000D03*
X118380000Y20000000D03*
X118380000Y17460000D03*
X133620000Y22540000D03*
X133620000Y20000000D03*
X133620000Y17460000D03*
D138*
X118380000Y5000000D03*
X123460000Y5000000D03*
X128540000Y5000000D03*
X133620000Y5000000D03*
D134*
X5900000Y32000000D03*
X10100000Y32000000D03*
X13900000Y32000000D03*
X18100000Y32000000D03*
D139*
X22500000Y32000000D03*
X25500000Y32000000D03*
X30500000Y32000000D03*
X33500000Y32000000D03*
X45500000Y31000000D03*
X48500000Y31000000D03*
D140*
X56000000Y8000000D03*
X58000000Y8000000D03*
D141*
X114000000Y31000000D03*
X116000000Y31000000D03*
X119000000Y31000000D03*
X121000000Y31000000D03*
X125000000Y31000000D03*
X127000000Y31000000D03*
D142*
X30800000Y46000000D03*
X30800000Y45500000D03*
X30800000Y45000000D03*
X30800000Y44500000D03*
X30800000Y44000000D03*
X35200000Y44000000D03*
X35200000Y44500000D03*
X35200000Y45000000D03*
X35200000Y45500000D03*
X35200000Y46000000D03*
D143*
X33000000Y45000000D03*
D140*
X37000000Y47500000D03*
X39000000Y47500000D03*
X27000000Y46000000D03*
X29000000Y46000000D03*
D144*
X36200000Y42000000D03*
X39800000Y42000000D03*
D134*
X30900000Y39000000D03*
X35100000Y39000000D03*
D140*
X27000000Y42000000D03*
X29000000Y42000000D03*
D142*
X60800000Y46000000D03*
X60800000Y45500000D03*
X60800000Y45000000D03*
X60800000Y44500000D03*
X60800000Y44000000D03*
D145*
X65200000Y44000000D03*
X65200000Y44500000D03*
X65200000Y45000000D03*
X65200000Y45500000D03*
X65200000Y46000000D03*
D143*
X63000000Y45000000D03*
D141*
X67000000Y47500000D03*
X69000000Y47500000D03*
D140*
X57000000Y46000000D03*
X59000000Y46000000D03*
D144*
X66200000Y42000000D03*
X69800000Y42000000D03*
D134*
X60900000Y39000000D03*
X65100000Y39000000D03*
D140*
X57000000Y42000000D03*
X59000000Y42000000D03*
D145*
X79800000Y43000000D03*
X79800000Y42500000D03*
X79800000Y42000000D03*
X79800000Y41500000D03*
X79800000Y41000000D03*
X84200000Y41000000D03*
X84200000Y41500000D03*
X84200000Y42000000D03*
X84200000Y42500000D03*
X84200000Y43000000D03*
D143*
X82000000Y42000000D03*
D141*
X86000000Y44500000D03*
X88000000Y44500000D03*
X76000000Y43000000D03*
X78000000Y43000000D03*
D144*
X85200000Y39000000D03*
X88800000Y39000000D03*
D134*
X91900000Y48000000D03*
X96100000Y48000000D03*
D141*
X76000000Y39000000D03*
X78000000Y39000000D03*
D140*
X29000000Y49500000D03*
X31000000Y49500000D03*
D146*
X27000000Y55000000D03*
X29000000Y55000000D03*
D140*
X35000000Y49500000D03*
X37000000Y49500000D03*
D146*
X38000000Y55000000D03*
X40000000Y55000000D03*
D140*
X59000000Y49500000D03*
X61000000Y49500000D03*
D146*
X57000000Y55000000D03*
X59000000Y55000000D03*
D141*
X65000000Y49500000D03*
X67000000Y49500000D03*
D147*
X68000000Y55000000D03*
X70000000Y55000000D03*
D148*
X81000000Y49950000D03*
X81000000Y48050000D03*
X83000000Y49000000D03*
X86000000Y49950000D03*
X86000000Y48050000D03*
X88000000Y49000000D03*
D149*
X87000000Y53000000D03*
X89000000Y53000000D03*
D150*
X96800000Y41000000D03*
X103200000Y41000000D03*
X105600000Y41000000D03*
X112000000Y41000000D03*
X114400000Y41000000D03*
X120800000Y41000000D03*
X123200000Y41000000D03*
X129600000Y41000000D03*
X132000000Y41000000D03*
X138400000Y41000000D03*
D147*
X72000000Y58000000D03*
X74000000Y58000000D03*
D141*
X72000000Y35000000D03*
X74000000Y35000000D03*
X77000000Y35000000D03*
X79000000Y35000000D03*
X82000000Y35000000D03*
X84000000Y35000000D03*
D140*
X53000000Y36000000D03*
X55000000Y36000000D03*
X53000000Y32000000D03*
X55000000Y32000000D03*
X58000000Y36000000D03*
X60000000Y36000000D03*
X58000000Y33200000D03*
X60000000Y33200000D03*
D141*
X65000000Y36000000D03*
X67000000Y36000000D03*
X65000000Y33200000D03*
X67000000Y33200000D03*
X70000000Y39000000D03*
X72000000Y39000000D03*
X69000000Y32900000D03*
X71000000Y32900000D03*
X87000000Y35000000D03*
X89000000Y35000000D03*
X92000000Y35000000D03*
X94000000Y35000000D03*
X97000000Y35000000D03*
X99000000Y35000000D03*
X104000000Y6000000D03*
X106000000Y6000000D03*
X98000000Y6000000D03*
X100000000Y6000000D03*
X92000000Y6000000D03*
X94000000Y6000000D03*
D148*
X86000000Y6950000D03*
X86000000Y5050000D03*
X88000000Y6000000D03*
D141*
X106000000Y35000000D03*
X108000000Y35000000D03*
X107000000Y46000000D03*
X109000000Y46000000D03*
D148*
X111000000Y36950000D03*
X111000000Y35050000D03*
X113000000Y36000000D03*
D141*
X112000000Y6000000D03*
X114000000Y6000000D03*
D148*
X76000000Y6950000D03*
X76000000Y5050000D03*
X78000000Y6000000D03*
X70000000Y6950000D03*
X70000000Y5050000D03*
X72000000Y6000000D03*
X64000000Y6950000D03*
X64000000Y5050000D03*
X66000000Y6000000D03*
D151*
X3000000Y80000000D03*
X4500000Y80000000D03*
X6000000Y80000000D03*
X7500000Y80000000D03*
X9000000Y80000000D03*
X10500000Y80000000D03*
X12000000Y80000000D03*
X13500000Y80000000D03*
X15000000Y80000000D03*
X16500000Y80000000D03*
X18000000Y80000000D03*
X19500000Y80000000D03*
X21000000Y80000000D03*
X22500000Y80000000D03*
X24000000Y80000000D03*
X25500000Y80000000D03*
X27000000Y80000000D03*
X3000000Y78500000D03*
X4500000Y78500000D03*
X6000000Y78500000D03*
X7500000Y78500000D03*
X9000000Y78500000D03*
X10500000Y78500000D03*
X12000000Y78500000D03*
X13500000Y78500000D03*
X15000000Y78500000D03*
X16500000Y78500000D03*
X18000000Y78500000D03*
X19500000Y78500000D03*
X21000000Y78500000D03*
X22500000Y78500000D03*
X24000000Y78500000D03*
X25500000Y78500000D03*
X27000000Y78500000D03*
X3000000Y77000000D03*
X4500000Y77000000D03*
X6000000Y77000000D03*
X7500000Y77000000D03*
X9000000Y77000000D03*
X10500000Y77000000D03*
X12000000Y77000000D03*
X13500000Y77000000D03*
X15000000Y77000000D03*
X16500000Y77000000D03*
X18000000Y77000000D03*
X19500000Y77000000D03*
X21000000Y77000000D03*
X22500000Y77000000D03*
X24000000Y77000000D03*
X25500000Y77000000D03*
X27000000Y77000000D03*
X3000000Y75500000D03*
X4500000Y75500000D03*
X6000000Y75500000D03*
X7500000Y75500000D03*
X9000000Y75500000D03*
X10500000Y75500000D03*
X12000000Y75500000D03*
X13500000Y75500000D03*
X15000000Y75500000D03*
X16500000Y75500000D03*
X18000000Y75500000D03*
X19500000Y75500000D03*
X21000000Y75500000D03*
X22500000Y75500000D03*
X24000000Y75500000D03*
X25500000Y75500000D03*
X27000000Y75500000D03*
X3000000Y74000000D03*
X4500000Y74000000D03*
X6000000Y74000000D03*
X13500000Y74000000D03*
X15000000Y74000000D03*
X16500000Y74000000D03*
X18000000Y74000000D03*
X19500000Y74000000D03*
X21000000Y74000000D03*
X22500000Y74000000D03*
X24000000Y74000000D03*
X25500000Y74000000D03*
X27000000Y74000000D03*
X3000000Y72500000D03*
X16500000Y72500000D03*
X18000000Y72500000D03*
X19500000Y72500000D03*
X21000000Y72500000D03*
X22500000Y72500000D03*
X24000000Y72500000D03*
X25500000Y72500000D03*
X27000000Y72500000D03*
X18000000Y71000000D03*
X19500000Y71000000D03*
X21000000Y71000000D03*
X22500000Y71000000D03*
X24000000Y71000000D03*
X25500000Y71000000D03*
X27000000Y71000000D03*
X19500000Y69500000D03*
X21000000Y69500000D03*
X22500000Y69500000D03*
X24000000Y69500000D03*
X25500000Y69500000D03*
X27000000Y69500000D03*
X19500000Y68000000D03*
X21000000Y68000000D03*
X22500000Y68000000D03*
X24000000Y68000000D03*
X25500000Y68000000D03*
X27000000Y68000000D03*
X19500000Y66500000D03*
X21000000Y66500000D03*
X22500000Y66500000D03*
X24000000Y66500000D03*
X25500000Y66500000D03*
X27000000Y66500000D03*
X21000000Y65000000D03*
X22500000Y65000000D03*
X24000000Y65000000D03*
X25500000Y65000000D03*
X27000000Y65000000D03*
X19500000Y63500000D03*
X21000000Y63500000D03*
X22500000Y63500000D03*
X24000000Y63500000D03*
X25500000Y63500000D03*
X27000000Y63500000D03*
X19500000Y62000000D03*
X21000000Y62000000D03*
X22500000Y62000000D03*
X24000000Y62000000D03*
X25500000Y62000000D03*
X27000000Y62000000D03*
X19500000Y60500000D03*
X21000000Y60500000D03*
X22500000Y60500000D03*
X24000000Y60500000D03*
X25500000Y60500000D03*
X27000000Y60500000D03*
X18000000Y59000000D03*
X19500000Y59000000D03*
X21000000Y59000000D03*
X22500000Y59000000D03*
X24000000Y59000000D03*
X25500000Y59000000D03*
X27000000Y59000000D03*
X3000000Y57500000D03*
X16500000Y57500000D03*
X18000000Y57500000D03*
X19500000Y57500000D03*
X21000000Y57500000D03*
X22500000Y57500000D03*
X24000000Y57500000D03*
X25500000Y57500000D03*
X27000000Y57500000D03*
X3000000Y56000000D03*
X4500000Y56000000D03*
X6000000Y56000000D03*
X13500000Y56000000D03*
X15000000Y56000000D03*
X16500000Y56000000D03*
X18000000Y56000000D03*
X19500000Y56000000D03*
X21000000Y56000000D03*
X22500000Y56000000D03*
X24000000Y56000000D03*
X25500000Y56000000D03*
X3000000Y54500000D03*
X4500000Y54500000D03*
X6000000Y54500000D03*
X7500000Y54500000D03*
X9000000Y54500000D03*
X10500000Y54500000D03*
X12000000Y54500000D03*
X13500000Y54500000D03*
X15000000Y54500000D03*
X16500000Y54500000D03*
X18000000Y54500000D03*
X19500000Y54500000D03*
X21000000Y54500000D03*
X22500000Y54500000D03*
X24000000Y54500000D03*
X25500000Y54500000D03*
X3000000Y53000000D03*
X4500000Y53000000D03*
X6000000Y53000000D03*
X7500000Y53000000D03*
X9000000Y53000000D03*
X10500000Y53000000D03*
X12000000Y53000000D03*
X13500000Y53000000D03*
X15000000Y53000000D03*
X16500000Y53000000D03*
X18000000Y53000000D03*
X19500000Y53000000D03*
X21000000Y53000000D03*
X22500000Y53000000D03*
X24000000Y53000000D03*
X25500000Y53000000D03*
X27000000Y53000000D03*
X31500000Y80000000D03*
X33000000Y80000000D03*
X34500000Y80000000D03*
X31500000Y78500000D03*
X33000000Y78500000D03*
X34500000Y78500000D03*
X31500000Y77000000D03*
X33000000Y77000000D03*
X34500000Y77000000D03*
X31500000Y75500000D03*
X33000000Y75500000D03*
X34500000Y75500000D03*
X31500000Y74000000D03*
X33000000Y74000000D03*
X34500000Y74000000D03*
X31500000Y72500000D03*
X33000000Y72500000D03*
X34500000Y72500000D03*
X31500000Y71000000D03*
X33000000Y71000000D03*
X34500000Y71000000D03*
X31500000Y69500000D03*
X31500000Y68000000D03*
X33000000Y68000000D03*
X34500000Y68000000D03*
X31500000Y66500000D03*
X33000000Y66500000D03*
X34500000Y66500000D03*
X31500000Y65000000D03*
X33000000Y65000000D03*
X34500000Y65000000D03*
X31500000Y63500000D03*
X33000000Y63500000D03*
X34500000Y63500000D03*
X31500000Y62000000D03*
X33000000Y62000000D03*
X34500000Y62000000D03*
X34500000Y60500000D03*
X31500000Y59000000D03*
X33000000Y59000000D03*
X34500000Y59000000D03*
X31500000Y57500000D03*
X33000000Y57500000D03*
X34500000Y57500000D03*
X31500000Y56000000D03*
X33000000Y56000000D03*
X34500000Y56000000D03*
X31500000Y54500000D03*
X33000000Y54500000D03*
X34500000Y54500000D03*
X31500000Y53000000D03*
X33000000Y53000000D03*
X34500000Y53000000D03*
X39000000Y80000000D03*
X40500000Y80000000D03*
X42000000Y80000000D03*
X43500000Y80000000D03*
X45000000Y80000000D03*
X46500000Y80000000D03*
X48000000Y80000000D03*
X49500000Y80000000D03*
X51000000Y80000000D03*
X52500000Y80000000D03*
X54000000Y80000000D03*
X55500000Y80000000D03*
X57000000Y80000000D03*
X39000000Y78500000D03*
X40500000Y78500000D03*
X42000000Y78500000D03*
X43500000Y78500000D03*
X45000000Y78500000D03*
X46500000Y78500000D03*
X48000000Y78500000D03*
X49500000Y78500000D03*
X51000000Y78500000D03*
X52500000Y78500000D03*
X54000000Y78500000D03*
X55500000Y78500000D03*
X57000000Y78500000D03*
X39000000Y77000000D03*
X40500000Y77000000D03*
X42000000Y77000000D03*
X43500000Y77000000D03*
X45000000Y77000000D03*
X46500000Y77000000D03*
X48000000Y77000000D03*
X49500000Y77000000D03*
X51000000Y77000000D03*
X52500000Y77000000D03*
X54000000Y77000000D03*
X55500000Y77000000D03*
X57000000Y77000000D03*
X39000000Y75500000D03*
X40500000Y75500000D03*
X42000000Y75500000D03*
X43500000Y75500000D03*
X45000000Y75500000D03*
X46500000Y75500000D03*
X48000000Y75500000D03*
X49500000Y75500000D03*
X51000000Y75500000D03*
X52500000Y75500000D03*
X54000000Y75500000D03*
X55500000Y75500000D03*
X57000000Y75500000D03*
X39000000Y74000000D03*
X40500000Y74000000D03*
X42000000Y74000000D03*
X43500000Y74000000D03*
X45000000Y74000000D03*
X46500000Y74000000D03*
X48000000Y74000000D03*
X49500000Y74000000D03*
X51000000Y74000000D03*
X52500000Y74000000D03*
X54000000Y74000000D03*
X55500000Y74000000D03*
X57000000Y74000000D03*
X39000000Y72500000D03*
X40500000Y72500000D03*
X42000000Y72500000D03*
X43500000Y72500000D03*
X45000000Y72500000D03*
X46500000Y72500000D03*
X48000000Y72500000D03*
X49500000Y72500000D03*
X51000000Y72500000D03*
X52500000Y72500000D03*
X54000000Y72500000D03*
X55500000Y72500000D03*
X57000000Y72500000D03*
X39000000Y71000000D03*
X40500000Y71000000D03*
X42000000Y71000000D03*
X43500000Y71000000D03*
X45000000Y71000000D03*
X46500000Y71000000D03*
X48000000Y71000000D03*
X49500000Y71000000D03*
X51000000Y71000000D03*
X52500000Y71000000D03*
X54000000Y71000000D03*
X55500000Y71000000D03*
X57000000Y71000000D03*
X39000000Y69500000D03*
X40500000Y69500000D03*
X42000000Y69500000D03*
X43500000Y69500000D03*
X45000000Y69500000D03*
X46500000Y69500000D03*
X48000000Y69500000D03*
X49500000Y69500000D03*
X51000000Y69500000D03*
X52500000Y69500000D03*
X54000000Y69500000D03*
X55500000Y69500000D03*
X57000000Y69500000D03*
X39000000Y68000000D03*
X40500000Y68000000D03*
X42000000Y68000000D03*
X43500000Y68000000D03*
X45000000Y68000000D03*
X46500000Y68000000D03*
X48000000Y68000000D03*
X49500000Y68000000D03*
X51000000Y68000000D03*
X52500000Y68000000D03*
X54000000Y68000000D03*
X55500000Y68000000D03*
X57000000Y68000000D03*
X39000000Y66500000D03*
X40500000Y66500000D03*
X42000000Y66500000D03*
X43500000Y66500000D03*
X45000000Y66500000D03*
X46500000Y66500000D03*
X48000000Y66500000D03*
X49500000Y66500000D03*
X51000000Y66500000D03*
X52500000Y66500000D03*
X54000000Y66500000D03*
X55500000Y66500000D03*
X57000000Y66500000D03*
X39000000Y65000000D03*
X40500000Y65000000D03*
X42000000Y65000000D03*
X43500000Y65000000D03*
X45000000Y65000000D03*
X46500000Y65000000D03*
X48000000Y65000000D03*
X49500000Y65000000D03*
X51000000Y65000000D03*
X52500000Y65000000D03*
X54000000Y65000000D03*
X55500000Y65000000D03*
X57000000Y65000000D03*
X39000000Y63500000D03*
X40500000Y63500000D03*
X42000000Y63500000D03*
X43500000Y63500000D03*
X45000000Y63500000D03*
X46500000Y63500000D03*
X48000000Y63500000D03*
X49500000Y63500000D03*
X51000000Y63500000D03*
X52500000Y63500000D03*
X54000000Y63500000D03*
X55500000Y63500000D03*
X57000000Y63500000D03*
X39000000Y62000000D03*
X40500000Y62000000D03*
X42000000Y62000000D03*
X43500000Y62000000D03*
X45000000Y62000000D03*
X46500000Y62000000D03*
X48000000Y62000000D03*
X49500000Y62000000D03*
X51000000Y62000000D03*
X52500000Y62000000D03*
X54000000Y62000000D03*
X55500000Y62000000D03*
X57000000Y62000000D03*
X39000000Y60500000D03*
X40500000Y60500000D03*
X42000000Y60500000D03*
X43500000Y60500000D03*
X45000000Y60500000D03*
X46500000Y60500000D03*
X48000000Y60500000D03*
X49500000Y60500000D03*
X51000000Y60500000D03*
X52500000Y60500000D03*
X54000000Y60500000D03*
X55500000Y60500000D03*
X57000000Y60500000D03*
X39000000Y59000000D03*
X40500000Y59000000D03*
X42000000Y59000000D03*
X43500000Y59000000D03*
X45000000Y59000000D03*
X46500000Y59000000D03*
X48000000Y59000000D03*
X49500000Y59000000D03*
X51000000Y59000000D03*
X52500000Y59000000D03*
X54000000Y59000000D03*
X55500000Y59000000D03*
X57000000Y59000000D03*
X39000000Y57500000D03*
X40500000Y57500000D03*
X42000000Y57500000D03*
X43500000Y57500000D03*
X45000000Y57500000D03*
X46500000Y57500000D03*
X48000000Y57500000D03*
X49500000Y57500000D03*
X51000000Y57500000D03*
X52500000Y57500000D03*
X54000000Y57500000D03*
X55500000Y57500000D03*
X57000000Y57500000D03*
X42000000Y56000000D03*
X43500000Y56000000D03*
X45000000Y56000000D03*
X46500000Y56000000D03*
X48000000Y56000000D03*
X49500000Y56000000D03*
X51000000Y56000000D03*
X52500000Y56000000D03*
X54000000Y56000000D03*
X55500000Y56000000D03*
X42000000Y54500000D03*
X43500000Y54500000D03*
X45000000Y54500000D03*
X46500000Y54500000D03*
X48000000Y54500000D03*
X49500000Y54500000D03*
X51000000Y54500000D03*
X52500000Y54500000D03*
X54000000Y54500000D03*
X55500000Y54500000D03*
X39000000Y53000000D03*
X40500000Y53000000D03*
X42000000Y53000000D03*
X43500000Y53000000D03*
X45000000Y53000000D03*
X46500000Y53000000D03*
X48000000Y53000000D03*
X49500000Y53000000D03*
X51000000Y53000000D03*
X52500000Y53000000D03*
X54000000Y53000000D03*
X55500000Y53000000D03*
X57000000Y53000000D03*
X61500000Y80000000D03*
X63000000Y80000000D03*
X64500000Y80000000D03*
X61500000Y78500000D03*
X63000000Y78500000D03*
X64500000Y78500000D03*
X61500000Y77000000D03*
X63000000Y77000000D03*
X64500000Y77000000D03*
X61500000Y75500000D03*
X63000000Y75500000D03*
X64500000Y75500000D03*
X61500000Y74000000D03*
X63000000Y74000000D03*
X64500000Y74000000D03*
X61500000Y72500000D03*
X63000000Y72500000D03*
X64500000Y72500000D03*
X61500000Y71000000D03*
X63000000Y71000000D03*
X64500000Y71000000D03*
X61500000Y69500000D03*
X61500000Y68000000D03*
X63000000Y68000000D03*
X64500000Y68000000D03*
X61500000Y66500000D03*
X63000000Y66500000D03*
X64500000Y66500000D03*
X61500000Y65000000D03*
X63000000Y65000000D03*
X64500000Y65000000D03*
X61500000Y63500000D03*
X63000000Y63500000D03*
X64500000Y63500000D03*
X61500000Y62000000D03*
X63000000Y62000000D03*
X64500000Y62000000D03*
X64500000Y60500000D03*
X61500000Y59000000D03*
X63000000Y59000000D03*
X64500000Y59000000D03*
X61500000Y57500000D03*
X63000000Y57500000D03*
X64500000Y57500000D03*
X61500000Y56000000D03*
X63000000Y56000000D03*
X64500000Y56000000D03*
X61500000Y54500000D03*
X63000000Y54500000D03*
X64500000Y54500000D03*
X61500000Y53000000D03*
X63000000Y53000000D03*
X64500000Y53000000D03*
X69000000Y80000000D03*
X70500000Y80000000D03*
X72000000Y80000000D03*
X73500000Y80000000D03*
X75000000Y80000000D03*
X76500000Y80000000D03*
X78000000Y80000000D03*
X79500000Y80000000D03*
X81000000Y80000000D03*
X82500000Y80000000D03*
X84000000Y80000000D03*
X85500000Y80000000D03*
X87000000Y80000000D03*
X88500000Y80000000D03*
X90000000Y80000000D03*
X91500000Y80000000D03*
X93000000Y80000000D03*
X94500000Y80000000D03*
X96000000Y80000000D03*
X97500000Y80000000D03*
X69000000Y78500000D03*
X70500000Y78500000D03*
X72000000Y78500000D03*
X73500000Y78500000D03*
X75000000Y78500000D03*
X76500000Y78500000D03*
X78000000Y78500000D03*
X79500000Y78500000D03*
X81000000Y78500000D03*
X82500000Y78500000D03*
X84000000Y78500000D03*
X85500000Y78500000D03*
X87000000Y78500000D03*
X88500000Y78500000D03*
X90000000Y78500000D03*
X91500000Y78500000D03*
X93000000Y78500000D03*
X94500000Y78500000D03*
X96000000Y78500000D03*
X97500000Y78500000D03*
X69000000Y77000000D03*
X70500000Y77000000D03*
X72000000Y77000000D03*
X73500000Y77000000D03*
X75000000Y77000000D03*
X76500000Y77000000D03*
X78000000Y77000000D03*
X79500000Y77000000D03*
X81000000Y77000000D03*
X82500000Y77000000D03*
X84000000Y77000000D03*
X85500000Y77000000D03*
X87000000Y77000000D03*
X88500000Y77000000D03*
X90000000Y77000000D03*
X91500000Y77000000D03*
X93000000Y77000000D03*
X94500000Y77000000D03*
X96000000Y77000000D03*
X97500000Y77000000D03*
X69000000Y75500000D03*
X70500000Y75500000D03*
X72000000Y75500000D03*
X73500000Y75500000D03*
X75000000Y75500000D03*
X76500000Y75500000D03*
X78000000Y75500000D03*
X79500000Y75500000D03*
X81000000Y75500000D03*
X82500000Y75500000D03*
X84000000Y75500000D03*
X85500000Y75500000D03*
X87000000Y75500000D03*
X88500000Y75500000D03*
X90000000Y75500000D03*
X91500000Y75500000D03*
X93000000Y75500000D03*
X94500000Y75500000D03*
X96000000Y75500000D03*
X97500000Y75500000D03*
X69000000Y74000000D03*
X70500000Y74000000D03*
X72000000Y74000000D03*
X73500000Y74000000D03*
X75000000Y74000000D03*
X76500000Y74000000D03*
X78000000Y74000000D03*
X79500000Y74000000D03*
X81000000Y74000000D03*
X82500000Y74000000D03*
X84000000Y74000000D03*
X85500000Y74000000D03*
X87000000Y74000000D03*
X88500000Y74000000D03*
X90000000Y74000000D03*
X91500000Y74000000D03*
X93000000Y74000000D03*
X94500000Y74000000D03*
X96000000Y74000000D03*
X97500000Y74000000D03*
X69000000Y72500000D03*
X70500000Y72500000D03*
X72000000Y72500000D03*
X73500000Y72500000D03*
X75000000Y72500000D03*
X76500000Y72500000D03*
X78000000Y72500000D03*
X79500000Y72500000D03*
X81000000Y72500000D03*
X82500000Y72500000D03*
X84000000Y72500000D03*
X85500000Y72500000D03*
X87000000Y72500000D03*
X88500000Y72500000D03*
X90000000Y72500000D03*
X91500000Y72500000D03*
X93000000Y72500000D03*
X94500000Y72500000D03*
X96000000Y72500000D03*
X97500000Y72500000D03*
X69000000Y71000000D03*
X70500000Y71000000D03*
X72000000Y71000000D03*
X73500000Y71000000D03*
X75000000Y71000000D03*
X76500000Y71000000D03*
X78000000Y71000000D03*
X79500000Y71000000D03*
X81000000Y71000000D03*
X82500000Y71000000D03*
X84000000Y71000000D03*
X85500000Y71000000D03*
X87000000Y71000000D03*
X88500000Y71000000D03*
X90000000Y71000000D03*
X91500000Y71000000D03*
X93000000Y71000000D03*
X94500000Y71000000D03*
X96000000Y71000000D03*
X97500000Y71000000D03*
X69000000Y69500000D03*
X70500000Y69500000D03*
X72000000Y69500000D03*
X73500000Y69500000D03*
X75000000Y69500000D03*
X76500000Y69500000D03*
X78000000Y69500000D03*
X79500000Y69500000D03*
X87000000Y69500000D03*
X88500000Y69500000D03*
X90000000Y69500000D03*
X91500000Y69500000D03*
X93000000Y69500000D03*
X94500000Y69500000D03*
X96000000Y69500000D03*
X97500000Y69500000D03*
X69000000Y68000000D03*
X70500000Y68000000D03*
X72000000Y68000000D03*
X73500000Y68000000D03*
X75000000Y68000000D03*
X76500000Y68000000D03*
X78000000Y68000000D03*
X88500000Y68000000D03*
X90000000Y68000000D03*
X91500000Y68000000D03*
X93000000Y68000000D03*
X94500000Y68000000D03*
X96000000Y68000000D03*
X97500000Y68000000D03*
X69000000Y66500000D03*
X70500000Y66500000D03*
X72000000Y66500000D03*
X73500000Y66500000D03*
X75000000Y66500000D03*
X76500000Y66500000D03*
X88500000Y66500000D03*
X90000000Y66500000D03*
X91500000Y66500000D03*
X93000000Y66500000D03*
X94500000Y66500000D03*
X96000000Y66500000D03*
X97500000Y66500000D03*
X69000000Y65000000D03*
X70500000Y65000000D03*
X72000000Y65000000D03*
X73500000Y65000000D03*
X75000000Y65000000D03*
X76500000Y65000000D03*
X90000000Y65000000D03*
X91500000Y65000000D03*
X93000000Y65000000D03*
X94500000Y65000000D03*
X96000000Y65000000D03*
X97500000Y65000000D03*
X69000000Y63500000D03*
X70500000Y63500000D03*
X72000000Y63500000D03*
X73500000Y63500000D03*
X75000000Y63500000D03*
X76500000Y63500000D03*
X88500000Y63500000D03*
X90000000Y63500000D03*
X91500000Y63500000D03*
X93000000Y63500000D03*
X94500000Y63500000D03*
X96000000Y63500000D03*
X97500000Y63500000D03*
X69000000Y62000000D03*
X70500000Y62000000D03*
X72000000Y62000000D03*
X73500000Y62000000D03*
X75000000Y62000000D03*
X76500000Y62000000D03*
X78000000Y62000000D03*
X88500000Y62000000D03*
X90000000Y62000000D03*
X91500000Y62000000D03*
X93000000Y62000000D03*
X94500000Y62000000D03*
X96000000Y62000000D03*
X97500000Y62000000D03*
X69000000Y60500000D03*
X70500000Y60500000D03*
X72000000Y60500000D03*
X73500000Y60500000D03*
X75000000Y60500000D03*
X76500000Y60500000D03*
X78000000Y60500000D03*
X79500000Y60500000D03*
X87000000Y60500000D03*
X88500000Y60500000D03*
X90000000Y60500000D03*
X91500000Y60500000D03*
X93000000Y60500000D03*
X94500000Y60500000D03*
X96000000Y60500000D03*
X97500000Y60500000D03*
X69000000Y59000000D03*
X70500000Y59000000D03*
X76500000Y59000000D03*
X78000000Y59000000D03*
X79500000Y59000000D03*
X81000000Y59000000D03*
X82500000Y59000000D03*
X84000000Y59000000D03*
X85500000Y59000000D03*
X87000000Y59000000D03*
X88500000Y59000000D03*
X90000000Y59000000D03*
X91500000Y59000000D03*
X93000000Y59000000D03*
X94500000Y59000000D03*
X96000000Y59000000D03*
X97500000Y59000000D03*
X69000000Y57500000D03*
X70500000Y57500000D03*
X76500000Y57500000D03*
X78000000Y57500000D03*
X79500000Y57500000D03*
X81000000Y57500000D03*
X82500000Y57500000D03*
X84000000Y57500000D03*
X85500000Y57500000D03*
X87000000Y57500000D03*
X88500000Y57500000D03*
X90000000Y57500000D03*
X91500000Y57500000D03*
X72000000Y56000000D03*
X73500000Y56000000D03*
X75000000Y56000000D03*
X76500000Y56000000D03*
X78000000Y56000000D03*
X79500000Y56000000D03*
X81000000Y56000000D03*
X82500000Y56000000D03*
X84000000Y56000000D03*
X85500000Y56000000D03*
X87000000Y56000000D03*
X88500000Y56000000D03*
X90000000Y56000000D03*
X91500000Y56000000D03*
X72000000Y54500000D03*
X73500000Y54500000D03*
X75000000Y54500000D03*
X76500000Y54500000D03*
X78000000Y54500000D03*
X79500000Y54500000D03*
X81000000Y54500000D03*
X82500000Y54500000D03*
X84000000Y54500000D03*
X85500000Y54500000D03*
X87000000Y54500000D03*
X88500000Y54500000D03*
X90000000Y54500000D03*
X91500000Y54500000D03*
X93000000Y54500000D03*
X94500000Y54500000D03*
X96000000Y54500000D03*
X97500000Y54500000D03*
X69000000Y53000000D03*
X70500000Y53000000D03*
X72000000Y53000000D03*
X73500000Y53000000D03*
X75000000Y53000000D03*
X76500000Y53000000D03*
X78000000Y53000000D03*
X79500000Y53000000D03*
X81000000Y53000000D03*
X82500000Y53000000D03*
X84000000Y53000000D03*
X85500000Y53000000D03*
X91500000Y53000000D03*
X93000000Y53000000D03*
X94500000Y53000000D03*
X96000000Y53000000D03*
X97500000Y53000000D03*
X102000000Y80000000D03*
X103500000Y80000000D03*
X105000000Y80000000D03*
X106500000Y80000000D03*
X108000000Y80000000D03*
X109500000Y80000000D03*
X111000000Y80000000D03*
X112500000Y80000000D03*
X114000000Y80000000D03*
X115500000Y80000000D03*
X117000000Y80000000D03*
X118500000Y80000000D03*
X120000000Y80000000D03*
X121500000Y80000000D03*
X123000000Y80000000D03*
X124500000Y80000000D03*
X126000000Y80000000D03*
X127500000Y80000000D03*
X129000000Y80000000D03*
X130500000Y80000000D03*
X132000000Y80000000D03*
X133500000Y80000000D03*
X135000000Y80000000D03*
X136500000Y80000000D03*
X138000000Y80000000D03*
X102000000Y78500000D03*
X103500000Y78500000D03*
X105000000Y78500000D03*
X106500000Y78500000D03*
X108000000Y78500000D03*
X109500000Y78500000D03*
X111000000Y78500000D03*
X112500000Y78500000D03*
X114000000Y78500000D03*
X115500000Y78500000D03*
X117000000Y78500000D03*
X118500000Y78500000D03*
X120000000Y78500000D03*
X121500000Y78500000D03*
X123000000Y78500000D03*
X124500000Y78500000D03*
X126000000Y78500000D03*
X127500000Y78500000D03*
X129000000Y78500000D03*
X130500000Y78500000D03*
X132000000Y78500000D03*
X133500000Y78500000D03*
X135000000Y78500000D03*
X136500000Y78500000D03*
X138000000Y78500000D03*
X102000000Y77000000D03*
X103500000Y77000000D03*
X105000000Y77000000D03*
X106500000Y77000000D03*
X108000000Y77000000D03*
X109500000Y77000000D03*
X111000000Y77000000D03*
X112500000Y77000000D03*
X114000000Y77000000D03*
X115500000Y77000000D03*
X117000000Y77000000D03*
X118500000Y77000000D03*
X120000000Y77000000D03*
X121500000Y77000000D03*
X123000000Y77000000D03*
X124500000Y77000000D03*
X126000000Y77000000D03*
X127500000Y77000000D03*
X129000000Y77000000D03*
X130500000Y77000000D03*
X132000000Y77000000D03*
X133500000Y77000000D03*
X135000000Y77000000D03*
X136500000Y77000000D03*
X138000000Y77000000D03*
X102000000Y75500000D03*
X103500000Y75500000D03*
X105000000Y75500000D03*
X106500000Y75500000D03*
X108000000Y75500000D03*
X109500000Y75500000D03*
X111000000Y75500000D03*
X112500000Y75500000D03*
X114000000Y75500000D03*
X115500000Y75500000D03*
X117000000Y75500000D03*
X118500000Y75500000D03*
X120000000Y75500000D03*
X121500000Y75500000D03*
X123000000Y75500000D03*
X124500000Y75500000D03*
X126000000Y75500000D03*
X127500000Y75500000D03*
X129000000Y75500000D03*
X130500000Y75500000D03*
X132000000Y75500000D03*
X133500000Y75500000D03*
X135000000Y75500000D03*
X136500000Y75500000D03*
X138000000Y75500000D03*
X102000000Y74000000D03*
X103500000Y74000000D03*
X105000000Y74000000D03*
X106500000Y74000000D03*
X108000000Y74000000D03*
X109500000Y74000000D03*
X111000000Y74000000D03*
X112500000Y74000000D03*
X114000000Y74000000D03*
X115500000Y74000000D03*
X117000000Y74000000D03*
X118500000Y74000000D03*
X120000000Y74000000D03*
X121500000Y74000000D03*
X123000000Y74000000D03*
X124500000Y74000000D03*
X126000000Y74000000D03*
X133500000Y74000000D03*
X135000000Y74000000D03*
X136500000Y74000000D03*
X138000000Y74000000D03*
X102000000Y72500000D03*
X103500000Y72500000D03*
X105000000Y72500000D03*
X106500000Y72500000D03*
X108000000Y72500000D03*
X109500000Y72500000D03*
X111000000Y72500000D03*
X112500000Y72500000D03*
X114000000Y72500000D03*
X115500000Y72500000D03*
X117000000Y72500000D03*
X118500000Y72500000D03*
X120000000Y72500000D03*
X121500000Y72500000D03*
X123000000Y72500000D03*
X136500000Y72500000D03*
X138000000Y72500000D03*
X102000000Y71000000D03*
X103500000Y71000000D03*
X105000000Y71000000D03*
X106500000Y71000000D03*
X108000000Y71000000D03*
X109500000Y71000000D03*
X111000000Y71000000D03*
X112500000Y71000000D03*
X114000000Y71000000D03*
X115500000Y71000000D03*
X117000000Y71000000D03*
X118500000Y71000000D03*
X120000000Y71000000D03*
X121500000Y71000000D03*
X138000000Y71000000D03*
X102000000Y69500000D03*
X103500000Y69500000D03*
X105000000Y69500000D03*
X106500000Y69500000D03*
X108000000Y69500000D03*
X109500000Y69500000D03*
X117000000Y69500000D03*
X118500000Y69500000D03*
X120000000Y69500000D03*
X121500000Y69500000D03*
X102000000Y68000000D03*
X103500000Y68000000D03*
X105000000Y68000000D03*
X106500000Y68000000D03*
X108000000Y68000000D03*
X118500000Y68000000D03*
X120000000Y68000000D03*
X102000000Y66500000D03*
X103500000Y66500000D03*
X105000000Y66500000D03*
X106500000Y66500000D03*
X118500000Y66500000D03*
X120000000Y66500000D03*
X102000000Y65000000D03*
X103500000Y65000000D03*
X105000000Y65000000D03*
X106500000Y65000000D03*
X120000000Y65000000D03*
X102000000Y63500000D03*
X103500000Y63500000D03*
X105000000Y63500000D03*
X106500000Y63500000D03*
X118500000Y63500000D03*
X120000000Y63500000D03*
X102000000Y62000000D03*
X103500000Y62000000D03*
X105000000Y62000000D03*
X106500000Y62000000D03*
X108000000Y62000000D03*
X118500000Y62000000D03*
X120000000Y62000000D03*
X102000000Y60500000D03*
X103500000Y60500000D03*
X105000000Y60500000D03*
X106500000Y60500000D03*
X108000000Y60500000D03*
X109500000Y60500000D03*
X117000000Y60500000D03*
X118500000Y60500000D03*
X120000000Y60500000D03*
X121500000Y60500000D03*
X102000000Y59000000D03*
X103500000Y59000000D03*
X105000000Y59000000D03*
X106500000Y59000000D03*
X108000000Y59000000D03*
X109500000Y59000000D03*
X111000000Y59000000D03*
X112500000Y59000000D03*
X114000000Y59000000D03*
X115500000Y59000000D03*
X117000000Y59000000D03*
X118500000Y59000000D03*
X120000000Y59000000D03*
X121500000Y59000000D03*
X138000000Y59000000D03*
X103500000Y57500000D03*
X105000000Y57500000D03*
X106500000Y57500000D03*
X108000000Y57500000D03*
X109500000Y57500000D03*
X111000000Y57500000D03*
X112500000Y57500000D03*
X114000000Y57500000D03*
X115500000Y57500000D03*
X117000000Y57500000D03*
X118500000Y57500000D03*
X120000000Y57500000D03*
X121500000Y57500000D03*
X123000000Y57500000D03*
X136500000Y57500000D03*
X138000000Y57500000D03*
X103500000Y56000000D03*
X105000000Y56000000D03*
X106500000Y56000000D03*
X108000000Y56000000D03*
X109500000Y56000000D03*
X111000000Y56000000D03*
X112500000Y56000000D03*
X114000000Y56000000D03*
X115500000Y56000000D03*
X117000000Y56000000D03*
X118500000Y56000000D03*
X120000000Y56000000D03*
X121500000Y56000000D03*
X123000000Y56000000D03*
X124500000Y56000000D03*
X126000000Y56000000D03*
X133500000Y56000000D03*
X135000000Y56000000D03*
X136500000Y56000000D03*
X138000000Y56000000D03*
X102000000Y54500000D03*
X103500000Y54500000D03*
X105000000Y54500000D03*
X106500000Y54500000D03*
X108000000Y54500000D03*
X109500000Y54500000D03*
X111000000Y54500000D03*
X112500000Y54500000D03*
X114000000Y54500000D03*
X115500000Y54500000D03*
X117000000Y54500000D03*
X118500000Y54500000D03*
X120000000Y54500000D03*
X121500000Y54500000D03*
X123000000Y54500000D03*
X124500000Y54500000D03*
X126000000Y54500000D03*
X127500000Y54500000D03*
X129000000Y54500000D03*
X130500000Y54500000D03*
X132000000Y54500000D03*
X133500000Y54500000D03*
X135000000Y54500000D03*
X136500000Y54500000D03*
X138000000Y54500000D03*
X102000000Y53000000D03*
X103500000Y53000000D03*
X105000000Y53000000D03*
X106500000Y53000000D03*
X108000000Y53000000D03*
X109500000Y53000000D03*
X111000000Y53000000D03*
X112500000Y53000000D03*
X114000000Y53000000D03*
X115500000Y53000000D03*
X117000000Y53000000D03*
X118500000Y53000000D03*
X120000000Y53000000D03*
X121500000Y53000000D03*
X123000000Y53000000D03*
X124500000Y53000000D03*
X126000000Y53000000D03*
X127500000Y53000000D03*
X129000000Y53000000D03*
X130500000Y53000000D03*
X132000000Y53000000D03*
X133500000Y53000000D03*
X135000000Y53000000D03*
X136500000Y53000000D03*
X138000000Y53000000D03*
D152*
X37000000Y47500000D03*
X38000000Y45000000D03*
X35250000Y43250000D03*
X67000000Y47500000D03*
X68000000Y45000000D03*
X65250000Y43250000D03*
X86000000Y44500000D03*
X87000000Y42000000D03*
X84250000Y40250000D03*
X89000000Y53000000D03*
X92000000Y48000000D03*
X27000000Y55000000D03*
X31750000Y60750000D03*
X38000000Y55000000D03*
X34250000Y69250000D03*
X57000000Y55000000D03*
X61750000Y60750000D03*
X68000000Y55000000D03*
X64250000Y69250000D03*
X35000000Y49500000D03*
X36250000Y42000000D03*
X65000000Y49500000D03*
X66250000Y42000000D03*
X86000000Y50000000D03*
X87000000Y53000000D03*
X85250000Y39000000D03*
X69000000Y33000000D03*
X72000000Y6000000D03*
X66000000Y6000000D03*
X65000000Y36000000D03*
X106000000Y35000000D03*
X83000000Y49000000D03*
X53750000Y65000000D03*
X129500000Y41000000D03*
X120750000Y41000000D03*
X87000000Y35000000D03*
X81500000Y14500000D03*
X29750000Y44500000D03*
X59750000Y44500000D03*
X76000000Y39000000D03*
X116000000Y31000000D03*
X104000000Y6000000D03*
X14000000Y32000000D03*
X6000000Y32000000D03*
X22500000Y32000000D03*
X96750000Y41000000D03*
X89750000Y49000000D03*
X105500000Y41000000D03*
X114500000Y41000000D03*
X123250000Y41750000D03*
X74000000Y35000000D03*
X72000000Y58000000D03*
X58000000Y36000000D03*
X55000000Y36000000D03*
X53000000Y32000000D03*
X111000000Y37000000D03*
X108000000Y35000000D03*
X107000000Y46000000D03*
X88750000Y39000000D03*
X79750000Y43250000D03*
X60750000Y46250000D03*
X69750000Y42000000D03*
X30750000Y46250000D03*
X39750000Y42000000D03*
X45500000Y31000000D03*
X72000000Y35000000D03*
X112000000Y6750000D03*
X127000000Y31000000D03*
X35000000Y39000000D03*
X33000000Y45000000D03*
X33500000Y32000000D03*
X60500000Y33250000D03*
X55000000Y32000000D03*
X67000000Y33250000D03*
X62500000Y33250000D03*
X71000000Y33750000D03*
X65000000Y39000000D03*
X63000000Y45000000D03*
X94000000Y35000000D03*
X84000000Y35000000D03*
X111000000Y35000000D03*
X99000000Y35000000D03*
X109250000Y41750000D03*
X96000000Y48000000D03*
X109000000Y46000000D03*
X100000000Y6000000D03*
X86000000Y7000000D03*
X94000000Y6000000D03*
X76000000Y7000000D03*
X58000000Y8000000D03*
X64000000Y7000000D03*
X74000000Y58000000D03*
X78000000Y43000000D03*
X132000000Y47000000D03*
X121000000Y31750000D03*
X27000000Y37000000D03*
D153*
X35200000Y45500000D02*
X36250000Y45500000D01*
X36250000Y45500000D02*
X36250000Y47500000D01*
X36250000Y47500000D02*
X37000000Y47500000D01*
X35200000Y45000000D02*
X39000000Y45000000D01*
X39000000Y45000000D02*
X39000000Y47500000D01*
X35200000Y44500000D02*
X35200000Y44000000D01*
X35200000Y44000000D02*
X35250000Y43250000D01*
X65200000Y45500000D02*
X66250000Y45500000D01*
X66250000Y45500000D02*
X66250000Y47500000D01*
X66250000Y47500000D02*
X67000000Y47500000D01*
X65200000Y45000000D02*
X69000000Y45000000D01*
X69000000Y45000000D02*
X69000000Y47500000D01*
X65200000Y44500000D02*
X65200000Y44000000D01*
X65200000Y44000000D02*
X65250000Y43250000D01*
X84200000Y42500000D02*
X85250000Y42500000D01*
X85250000Y42500000D02*
X85250000Y44500000D01*
X85250000Y44500000D02*
X86000000Y44500000D01*
X84200000Y42000000D02*
X88000000Y42000000D01*
X88000000Y42000000D02*
X88000000Y44500000D01*
X84200000Y41500000D02*
X84200000Y41000000D01*
X84200000Y41000000D02*
X84250000Y40250000D01*
X29000000Y55000000D02*
X29000000Y57000000D01*
X29000000Y57000000D02*
X30250000Y57000000D01*
X30250000Y57000000D02*
X30250000Y61750000D01*
X30250000Y61750000D02*
X31750000Y61750000D01*
X31750000Y61750000D02*
X31750000Y62000000D01*
X31650000Y62000000D02*
X31750000Y62000000D01*
X40000000Y55000000D02*
X39000000Y55000000D01*
X39000000Y55000000D02*
X39000000Y56250000D01*
X39000000Y56250000D02*
X37500000Y56250000D01*
X37500000Y56250000D02*
X37500000Y60000000D01*
X37500000Y60000000D02*
X34250000Y60000000D01*
X34250000Y60000000D02*
X34250000Y60750000D01*
X34350000Y60800000D02*
X34250000Y60750000D01*
X31000000Y39000000D02*
X31250000Y39000000D01*
X31250000Y39000000D02*
X31250000Y40250000D01*
X31250000Y40250000D02*
X33500000Y40250000D01*
X33500000Y40250000D02*
X33500000Y40500000D01*
X33500000Y40500000D02*
X37750000Y40500000D01*
X37750000Y40500000D02*
X37750000Y44000000D01*
X37750000Y44000000D02*
X38000000Y44000000D01*
X38000000Y44000000D02*
X38000000Y45000000D01*
X30900000Y39000000D02*
X31000000Y39000000D01*
X59000000Y55000000D02*
X59000000Y57000000D01*
X59000000Y57000000D02*
X60250000Y57000000D01*
X60250000Y57000000D02*
X60250000Y61750000D01*
X60250000Y61750000D02*
X61750000Y61750000D01*
X61750000Y61750000D02*
X61750000Y62000000D01*
X61650000Y62000000D02*
X61750000Y62000000D01*
X70000000Y55000000D02*
X69000000Y55000000D01*
X69000000Y55000000D02*
X69000000Y56250000D01*
X69000000Y56250000D02*
X67500000Y56250000D01*
X67500000Y56250000D02*
X67500000Y60000000D01*
X67500000Y60000000D02*
X64250000Y60000000D01*
X64250000Y60000000D02*
X64250000Y60750000D01*
X64350000Y60800000D02*
X64250000Y60750000D01*
X61000000Y39000000D02*
X61250000Y39000000D01*
X61250000Y39000000D02*
X61250000Y40250000D01*
X61250000Y40250000D02*
X63500000Y40250000D01*
X63500000Y40250000D02*
X63500000Y40500000D01*
X63500000Y40500000D02*
X67750000Y40500000D01*
X67750000Y40500000D02*
X67750000Y44000000D01*
X67750000Y44000000D02*
X68000000Y44000000D01*
X68000000Y44000000D02*
X68000000Y45000000D01*
X60900000Y39000000D02*
X61000000Y39000000D01*
X86000000Y48000000D02*
X86250000Y48000000D01*
X86250000Y48000000D02*
X86250000Y46750000D01*
X86250000Y46750000D02*
X87000000Y46750000D01*
X87000000Y46750000D02*
X87000000Y42000000D01*
X86000000Y48050000D02*
X86000000Y48000000D01*
X81000000Y48000000D02*
X86000000Y48000000D01*
X81000000Y48050000D02*
X81000000Y48000000D01*
X86000000Y48050000D02*
X86000000Y48000000D01*
X92000000Y48000000D02*
X86000000Y48000000D01*
X91900000Y48000000D02*
X92000000Y48000000D01*
X86000000Y48050000D02*
X86000000Y48000000D01*
X91900000Y48000000D02*
X92000000Y48000000D01*
X31650000Y60800000D02*
X31750000Y60750000D01*
X31000000Y49500000D02*
X30000000Y49500000D01*
X30000000Y49500000D02*
X30000000Y50750000D01*
X30000000Y50750000D02*
X29250000Y50750000D01*
X29250000Y50750000D02*
X29250000Y51500000D01*
X29250000Y51500000D02*
X28500000Y51500000D01*
X28500000Y51500000D02*
X28500000Y52250000D01*
X28500000Y52250000D02*
X28250000Y52250000D01*
X28250000Y52250000D02*
X28250000Y53750000D01*
X28250000Y53750000D02*
X27000000Y53750000D01*
X27000000Y53750000D02*
X27000000Y55000000D01*
X34350000Y69200000D02*
X34250000Y69250000D01*
X37000000Y49500000D02*
X37000000Y51500000D01*
X37000000Y51500000D02*
X37500000Y51500000D01*
X37500000Y51500000D02*
X37500000Y54250000D01*
X37500000Y54250000D02*
X38000000Y54250000D01*
X38000000Y54250000D02*
X38000000Y55000000D01*
X61650000Y60800000D02*
X61750000Y60750000D01*
X61000000Y49500000D02*
X60000000Y49500000D01*
X60000000Y49500000D02*
X60000000Y50750000D01*
X60000000Y50750000D02*
X59250000Y50750000D01*
X59250000Y50750000D02*
X59250000Y51500000D01*
X59250000Y51500000D02*
X58500000Y51500000D01*
X58500000Y51500000D02*
X58500000Y52250000D01*
X58500000Y52250000D02*
X58250000Y52250000D01*
X58250000Y52250000D02*
X58250000Y53750000D01*
X58250000Y53750000D02*
X57000000Y53750000D01*
X57000000Y53750000D02*
X57000000Y55000000D01*
X64350000Y69200000D02*
X64250000Y69250000D01*
X67000000Y49500000D02*
X67000000Y51500000D01*
X67000000Y51500000D02*
X67500000Y51500000D01*
X67500000Y51500000D02*
X67500000Y54250000D01*
X67500000Y54250000D02*
X68000000Y54250000D01*
X68000000Y54250000D02*
X68000000Y55000000D01*
X29000000Y49500000D02*
X29500000Y49500000D01*
X29500000Y49500000D02*
X29500000Y49000000D01*
X29500000Y49000000D02*
X30000000Y49000000D01*
X30000000Y49000000D02*
X30000000Y48250000D01*
X30000000Y48250000D02*
X33000000Y48250000D01*
X33000000Y48250000D02*
X33000000Y49000000D01*
X33000000Y49000000D02*
X35000000Y49000000D01*
X35000000Y49000000D02*
X35000000Y49500000D01*
X36200000Y42000000D02*
X36250000Y42000000D01*
X59000000Y49500000D02*
X59500000Y49500000D01*
X59500000Y49500000D02*
X59500000Y49000000D01*
X59500000Y49000000D02*
X60000000Y49000000D01*
X60000000Y49000000D02*
X60000000Y48250000D01*
X60000000Y48250000D02*
X63000000Y48250000D01*
X63000000Y48250000D02*
X63000000Y49000000D01*
X63000000Y49000000D02*
X65000000Y49000000D01*
X65000000Y49000000D02*
X65000000Y49500000D01*
X66200000Y42000000D02*
X66250000Y42000000D01*
X86000000Y49950000D02*
X86000000Y50000000D01*
X86000000Y49950000D02*
X86000000Y50000000D01*
X81000000Y50000000D02*
X86000000Y50000000D01*
X81000000Y49950000D02*
X81000000Y50000000D01*
X86000000Y49950000D02*
X86000000Y50000000D01*
X85200000Y39000000D02*
X85250000Y39000000D01*
X58000000Y33250000D02*
X59000000Y33250000D01*
X59000000Y33250000D02*
X59000000Y32000000D01*
X59000000Y32000000D02*
X67250000Y32000000D01*
X67250000Y32000000D02*
X67250000Y31750000D01*
X67250000Y31750000D02*
X71750000Y31750000D01*
X71750000Y31750000D02*
X71750000Y31500000D01*
X71750000Y31500000D02*
X74500000Y31500000D01*
X74500000Y31500000D02*
X74500000Y27500000D01*
X58000000Y33200000D02*
X58000000Y33250000D01*
X74570000Y27620000D02*
X74500000Y27500000D01*
X60000000Y36000000D02*
X59000000Y36000000D01*
X59000000Y36000000D02*
X59000000Y34750000D01*
X59000000Y34750000D02*
X58250000Y34750000D01*
X58250000Y34750000D02*
X58250000Y34250000D01*
X58250000Y34250000D02*
X58000000Y34250000D01*
X58000000Y34250000D02*
X58000000Y33250000D01*
X58000000Y33200000D02*
X58000000Y33250000D01*
X78000000Y6000000D02*
X77750000Y6000000D01*
X77750000Y6000000D02*
X77750000Y7250000D01*
X77750000Y7250000D02*
X77000000Y7250000D01*
X77000000Y7250000D02*
X77000000Y7750000D01*
X77000000Y7750000D02*
X75500000Y7750000D01*
X75500000Y7750000D02*
X75500000Y9000000D01*
X75500000Y9000000D02*
X74500000Y9000000D01*
X74500000Y9000000D02*
X74500000Y11000000D01*
X74500000Y11000000D02*
X74000000Y11000000D01*
X74000000Y11000000D02*
X74000000Y11250000D01*
X74000000Y11250000D02*
X73500000Y11250000D01*
X73500000Y11250000D02*
X73500000Y11750000D01*
X73500000Y11750000D02*
X73250000Y11750000D01*
X73250000Y11750000D02*
X73250000Y13000000D01*
X73250000Y13000000D02*
X73500000Y13000000D01*
X73500000Y13000000D02*
X73500000Y27000000D01*
X73500000Y27000000D02*
X74500000Y27000000D01*
X74500000Y27000000D02*
X74500000Y27500000D01*
X74570000Y27620000D02*
X74500000Y27500000D01*
X69000000Y32900000D02*
X69000000Y33000000D01*
X72000000Y39000000D02*
X71000000Y39000000D01*
X71000000Y39000000D02*
X71000000Y37250000D01*
X71000000Y37250000D02*
X70250000Y37250000D01*
X70250000Y37250000D02*
X70250000Y34000000D01*
X70250000Y34000000D02*
X69000000Y34000000D01*
X69000000Y34000000D02*
X69000000Y33000000D01*
X69000000Y32900000D02*
X69000000Y33000000D01*
X79000000Y35000000D02*
X79000000Y33500000D01*
X79000000Y33500000D02*
X79500000Y33500000D01*
X79500000Y33500000D02*
X79500000Y30500000D01*
X79500000Y30500000D02*
X79750000Y30500000D01*
X79750000Y30500000D02*
X79750000Y27500000D01*
X79650000Y27620000D02*
X79750000Y27500000D01*
X82000000Y35000000D02*
X79000000Y35000000D01*
X89000000Y35000000D02*
X88000000Y35000000D01*
X88000000Y35000000D02*
X88000000Y33250000D01*
X88000000Y33250000D02*
X85500000Y33250000D01*
X85500000Y33250000D02*
X85500000Y31000000D01*
X85500000Y31000000D02*
X82250000Y31000000D01*
X82250000Y31000000D02*
X82250000Y27500000D01*
X82190000Y27620000D02*
X82250000Y27500000D01*
X92000000Y35000000D02*
X89000000Y35000000D01*
X97000000Y35000000D02*
X95000000Y35000000D01*
X95000000Y35000000D02*
X95000000Y36250000D01*
X95000000Y36250000D02*
X92750000Y36250000D01*
X92750000Y36250000D02*
X92750000Y35000000D01*
X92750000Y35000000D02*
X92000000Y35000000D01*
X10000000Y32000000D02*
X10000000Y34000000D01*
X10000000Y34000000D02*
X9500000Y34000000D01*
X9500000Y34000000D02*
X9500000Y37250000D01*
X9500000Y37250000D02*
X8250000Y37250000D01*
X8250000Y37250000D02*
X8250000Y43000000D01*
X10100000Y32000000D02*
X10000000Y32000000D01*
X23000000Y37000000D02*
X10000000Y37000000D01*
X10000000Y37000000D02*
X10000000Y32000000D01*
X22900000Y37000000D02*
X23000000Y37000000D01*
X10100000Y32000000D02*
X10000000Y32000000D01*
X53000000Y36000000D02*
X28750000Y36000000D01*
X28750000Y36000000D02*
X28750000Y35500000D01*
X28750000Y35500000D02*
X23000000Y35500000D01*
X23000000Y35500000D02*
X23000000Y37000000D01*
X22900000Y37000000D02*
X23000000Y37000000D01*
X128000000Y47000000D02*
X128000000Y49000000D01*
X128000000Y49000000D02*
X128250000Y49000000D01*
X128250000Y49000000D02*
X128250000Y56500000D01*
X128250000Y56500000D02*
X129500000Y56500000D01*
X129500000Y56500000D02*
X129500000Y62750000D01*
X129500000Y62750000D02*
X130000000Y62750000D01*
X130000000Y62750000D02*
X130000000Y65000000D01*
X127900000Y47000000D02*
X128000000Y47000000D01*
X106000000Y35000000D02*
X107000000Y35000000D01*
X107000000Y35000000D02*
X107000000Y36250000D01*
X107000000Y36250000D02*
X112000000Y36250000D01*
X112000000Y36250000D02*
X112000000Y36750000D01*
X112000000Y36750000D02*
X122000000Y36750000D01*
X122000000Y36750000D02*
X122000000Y43000000D01*
X122000000Y43000000D02*
X126000000Y43000000D01*
X126000000Y43000000D02*
X126000000Y44250000D01*
X126000000Y44250000D02*
X128000000Y44250000D01*
X128000000Y44250000D02*
X128000000Y47000000D01*
X127900000Y47000000D02*
X128000000Y47000000D01*
X18000000Y32000000D02*
X20750000Y32000000D01*
X20750000Y32000000D02*
X20750000Y32250000D01*
X20750000Y32250000D02*
X21250000Y32250000D01*
X21250000Y32250000D02*
X21250000Y33250000D01*
X21250000Y33250000D02*
X51250000Y33250000D01*
X51250000Y33250000D02*
X51250000Y33500000D01*
X51250000Y33500000D02*
X57000000Y33500000D01*
X57000000Y33500000D02*
X57000000Y37250000D01*
X57000000Y37250000D02*
X65000000Y37250000D01*
X65000000Y37250000D02*
X65000000Y36000000D01*
X18100000Y32000000D02*
X18000000Y32000000D01*
X53850000Y65000000D02*
X53750000Y65000000D01*
X103250000Y41000000D02*
X100500000Y41000000D01*
X100500000Y41000000D02*
X100500000Y41250000D01*
X100500000Y41250000D02*
X99250000Y41250000D01*
X99250000Y41250000D02*
X99250000Y43500000D01*
X99250000Y43500000D02*
X97750000Y43500000D01*
X97750000Y43500000D02*
X97750000Y49500000D01*
X97750000Y49500000D02*
X95500000Y49500000D01*
X95500000Y49500000D02*
X95500000Y49750000D01*
X95500000Y49750000D02*
X87500000Y49750000D01*
X87500000Y49750000D02*
X87500000Y51750000D01*
X87500000Y51750000D02*
X83750000Y51750000D01*
X83750000Y51750000D02*
X83750000Y62250000D01*
X83750000Y62250000D02*
X83000000Y62250000D01*
X83000000Y62250000D02*
X83000000Y65000000D01*
X103200000Y41000000D02*
X103250000Y41000000D01*
X112000000Y41000000D02*
X107000000Y41000000D01*
X107000000Y41000000D02*
X107000000Y39000000D01*
X107000000Y39000000D02*
X103250000Y39000000D01*
X103250000Y39000000D02*
X103250000Y41000000D01*
X103200000Y41000000D02*
X103250000Y41000000D01*
X120750000Y41000000D02*
X115750000Y41000000D01*
X115750000Y41000000D02*
X115750000Y43000000D01*
X115750000Y43000000D02*
X112000000Y43000000D01*
X112000000Y43000000D02*
X112000000Y41000000D01*
X120800000Y41000000D02*
X120750000Y41000000D01*
X129600000Y41000000D02*
X129500000Y41000000D01*
X120800000Y41000000D02*
X120750000Y41000000D01*
X138500000Y41000000D02*
X133250000Y41000000D01*
X133250000Y41000000D02*
X133250000Y39000000D01*
X133250000Y39000000D02*
X129500000Y39000000D01*
X129500000Y39000000D02*
X129500000Y41000000D01*
X138400000Y41000000D02*
X138500000Y41000000D01*
X129600000Y41000000D02*
X129500000Y41000000D01*
X25500000Y32000000D02*
X25250000Y32000000D01*
X25250000Y32000000D02*
X25250000Y30750000D01*
X25250000Y30750000D02*
X19750000Y30750000D01*
X19750000Y30750000D02*
X19750000Y30500000D01*
X19750000Y30500000D02*
X7750000Y30500000D01*
X7750000Y30500000D02*
X7750000Y29250000D01*
X7750000Y29250000D02*
X7000000Y29250000D01*
X7000000Y29250000D02*
X7000000Y26000000D01*
X30500000Y32000000D02*
X25500000Y32000000D01*
X88000000Y6000000D02*
X87750000Y6000000D01*
X87750000Y6000000D02*
X87750000Y7250000D01*
X87750000Y7250000D02*
X87000000Y7250000D01*
X87000000Y7250000D02*
X87000000Y7750000D01*
X87000000Y7750000D02*
X85500000Y7750000D01*
X85500000Y7750000D02*
X85500000Y8750000D01*
X85500000Y8750000D02*
X84750000Y8750000D01*
X84750000Y8750000D02*
X84750000Y10000000D01*
X84750000Y10000000D02*
X83500000Y10000000D01*
X83500000Y10000000D02*
X83500000Y13000000D01*
X83500000Y13000000D02*
X83250000Y13000000D01*
X83250000Y13000000D02*
X83250000Y13500000D01*
X83250000Y13500000D02*
X82750000Y13500000D01*
X82750000Y13500000D02*
X82750000Y14000000D01*
X82750000Y14000000D02*
X81750000Y14000000D01*
X81750000Y14000000D02*
X81750000Y14500000D01*
X81750000Y14500000D02*
X81500000Y14500000D01*
X92000000Y6000000D02*
X88000000Y6000000D01*
X98000000Y6000000D02*
X95000000Y6000000D01*
X95000000Y6000000D02*
X95000000Y4750000D01*
X95000000Y4750000D02*
X92000000Y4750000D01*
X92000000Y4750000D02*
X92000000Y6000000D01*
X106000000Y6000000D02*
X105000000Y6000000D01*
X105000000Y6000000D02*
X105000000Y4750000D01*
X105000000Y4750000D02*
X98000000Y4750000D01*
X98000000Y4750000D02*
X98000000Y6000000D01*
X30750000Y44500000D02*
X29750000Y44500000D01*
X30800000Y44500000D02*
X30750000Y44500000D01*
X27000000Y42000000D02*
X28000000Y42000000D01*
X28000000Y42000000D02*
X28000000Y43750000D01*
X28000000Y43750000D02*
X29750000Y43750000D01*
X29750000Y43750000D02*
X29750000Y44500000D01*
X29750000Y44500000D02*
X30750000Y44500000D01*
X30800000Y44500000D02*
X30750000Y44500000D01*
X60750000Y44500000D02*
X59750000Y44500000D01*
X60800000Y44500000D02*
X60750000Y44500000D01*
X57000000Y42000000D02*
X58000000Y42000000D01*
X58000000Y42000000D02*
X58000000Y43750000D01*
X58000000Y43750000D02*
X59750000Y43750000D01*
X59750000Y43750000D02*
X59750000Y44500000D01*
X59750000Y44500000D02*
X60750000Y44500000D01*
X60800000Y44500000D02*
X60750000Y44500000D01*
X79750000Y41500000D02*
X77250000Y41500000D01*
X77250000Y41500000D02*
X77250000Y40750000D01*
X77250000Y40750000D02*
X76750000Y40750000D01*
X76750000Y40750000D02*
X76750000Y39250000D01*
X76750000Y39250000D02*
X76000000Y39250000D01*
X76000000Y39250000D02*
X76000000Y39000000D01*
X79800000Y41500000D02*
X79750000Y41500000D01*
X114000000Y6000000D02*
X113000000Y6000000D01*
X113000000Y6000000D02*
X113000000Y7750000D01*
X113000000Y7750000D02*
X108750000Y7750000D01*
X108750000Y7750000D02*
X108750000Y8250000D01*
X108750000Y8250000D02*
X106000000Y8250000D01*
X106000000Y8250000D02*
X106000000Y10000000D01*
X106000000Y10000000D02*
X97250000Y10000000D01*
X97250000Y10000000D02*
X97250000Y10750000D01*
X97250000Y10750000D02*
X92250000Y10750000D01*
X92250000Y10750000D02*
X92250000Y12500000D01*
X92350000Y12380000D02*
X92250000Y12500000D01*
X113000000Y36000000D02*
X113000000Y29750000D01*
X113000000Y29750000D02*
X113250000Y29750000D01*
X113250000Y29750000D02*
X113250000Y20250000D01*
X113250000Y20250000D02*
X114000000Y20250000D01*
X114000000Y20250000D02*
X114000000Y6000000D01*
X119000000Y31000000D02*
X116000000Y31000000D01*
X125000000Y31000000D02*
X123000000Y31000000D01*
X123000000Y31000000D02*
X123000000Y28250000D01*
X123000000Y28250000D02*
X122750000Y28250000D01*
X122750000Y28250000D02*
X122750000Y26250000D01*
X122750000Y26250000D02*
X119750000Y26250000D01*
X119750000Y26250000D02*
X119750000Y19500000D01*
X119750000Y19500000D02*
X119500000Y19500000D01*
X119500000Y19500000D02*
X119500000Y19000000D01*
X119500000Y19000000D02*
X119250000Y19000000D01*
X119250000Y19000000D02*
X119250000Y18750000D01*
X119250000Y18750000D02*
X118500000Y18750000D01*
X118500000Y18750000D02*
X118500000Y17500000D01*
X118380000Y17460000D02*
X118500000Y17500000D01*
X114000000Y31000000D02*
X115000000Y31000000D01*
X115000000Y31000000D02*
X115000000Y29250000D01*
X115000000Y29250000D02*
X115250000Y29250000D01*
X115250000Y29250000D02*
X115250000Y28250000D01*
X115250000Y28250000D02*
X115500000Y28250000D01*
X115500000Y28250000D02*
X115500000Y23250000D01*
X115500000Y23250000D02*
X115750000Y23250000D01*
X115750000Y23250000D02*
X115750000Y23000000D01*
X115750000Y23000000D02*
X116000000Y23000000D01*
X116000000Y23000000D02*
X116000000Y22500000D01*
X116000000Y22500000D02*
X117000000Y22500000D01*
X117000000Y22500000D02*
X117000000Y22000000D01*
X117000000Y22000000D02*
X117250000Y22000000D01*
X117250000Y22000000D02*
X117250000Y21500000D01*
X117250000Y21500000D02*
X117500000Y21500000D01*
X117500000Y21500000D02*
X117500000Y21250000D01*
X117500000Y21250000D02*
X118500000Y21250000D01*
X118500000Y21250000D02*
X118500000Y20000000D01*
X118380000Y20000000D02*
X118500000Y20000000D01*
X13900000Y32000000D02*
X14000000Y32000000D01*
X5900000Y32000000D02*
X6000000Y32000000D01*
X13900000Y32000000D02*
X14000000Y32000000D01*
X89750000Y49000000D02*
X88000000Y49000000D01*
X96800000Y41000000D02*
X96750000Y41000000D01*
X105600000Y41000000D02*
X105500000Y41000000D01*
X96800000Y41000000D02*
X96750000Y41000000D01*
X114400000Y41000000D02*
X114500000Y41000000D01*
X105600000Y41000000D02*
X105500000Y41000000D01*
X123250000Y41000000D02*
X123250000Y41750000D01*
X123200000Y41000000D02*
X123250000Y41000000D01*
X114400000Y41000000D02*
X114500000Y41000000D01*
X132000000Y41000000D02*
X131000000Y41000000D01*
X131000000Y41000000D02*
X131000000Y43000000D01*
X131000000Y43000000D02*
X126500000Y43000000D01*
X126500000Y43000000D02*
X126500000Y42500000D01*
X126500000Y42500000D02*
X125250000Y42500000D01*
X125250000Y42500000D02*
X125250000Y41750000D01*
X125250000Y41750000D02*
X123250000Y41750000D01*
X123250000Y41750000D02*
X123250000Y41000000D01*
X123200000Y41000000D02*
X123250000Y41000000D01*
X77000000Y35000000D02*
X74000000Y35000000D01*
X65000000Y33250000D02*
X66000000Y33250000D01*
X66000000Y33250000D02*
X66000000Y34250000D01*
X66000000Y34250000D02*
X66750000Y34250000D01*
X66750000Y34250000D02*
X66750000Y35000000D01*
X66750000Y35000000D02*
X67000000Y35000000D01*
X67000000Y35000000D02*
X67000000Y36000000D01*
X65000000Y33200000D02*
X65000000Y33250000D01*
X70000000Y39000000D02*
X69750000Y39000000D01*
X69750000Y39000000D02*
X69750000Y37750000D01*
X69750000Y37750000D02*
X69000000Y37750000D01*
X69000000Y37750000D02*
X69000000Y36000000D01*
X69000000Y36000000D02*
X67000000Y36000000D01*
X111000000Y36950000D02*
X111000000Y37000000D01*
X111000000Y36950000D02*
X111000000Y37000000D01*
X88800000Y39000000D02*
X88750000Y39000000D01*
X79750000Y43000000D02*
X79750000Y43250000D01*
X79800000Y43000000D02*
X79750000Y43000000D01*
X88800000Y39000000D02*
X88750000Y39000000D01*
X76000000Y43000000D02*
X77000000Y43000000D01*
X77000000Y43000000D02*
X77000000Y44250000D01*
X77000000Y44250000D02*
X79750000Y44250000D01*
X79750000Y44250000D02*
X79750000Y43000000D01*
X79800000Y43000000D02*
X79750000Y43000000D01*
X69750000Y42000000D02*
X76000000Y42000000D01*
X76000000Y42000000D02*
X76000000Y43000000D01*
X69800000Y42000000D02*
X69750000Y42000000D01*
X60750000Y46000000D02*
X60750000Y46250000D01*
X60800000Y46000000D02*
X60750000Y46000000D01*
X69800000Y42000000D02*
X69750000Y42000000D01*
X57000000Y46000000D02*
X58000000Y46000000D01*
X58000000Y46000000D02*
X58000000Y47250000D01*
X58000000Y47250000D02*
X60750000Y47250000D01*
X60750000Y47250000D02*
X60750000Y46000000D01*
X60800000Y46000000D02*
X60750000Y46000000D01*
X39750000Y42000000D02*
X49250000Y42000000D01*
X49250000Y42000000D02*
X49250000Y44000000D01*
X49250000Y44000000D02*
X57000000Y44000000D01*
X57000000Y44000000D02*
X57000000Y46000000D01*
X39800000Y42000000D02*
X39750000Y42000000D01*
X30750000Y46000000D02*
X30750000Y46250000D01*
X30800000Y46000000D02*
X30750000Y46000000D01*
X39800000Y42000000D02*
X39750000Y42000000D01*
X27000000Y46000000D02*
X28000000Y46000000D01*
X28000000Y46000000D02*
X28000000Y47250000D01*
X28000000Y47250000D02*
X30750000Y47250000D01*
X30750000Y47250000D02*
X30750000Y46000000D01*
X30800000Y46000000D02*
X30750000Y46000000D01*
X39800000Y42000000D02*
X39750000Y42000000D01*
X45000000Y26000000D02*
X45250000Y26000000D01*
X45250000Y26000000D02*
X45250000Y27500000D01*
X45250000Y27500000D02*
X45500000Y27500000D01*
X45500000Y27500000D02*
X45500000Y31000000D01*
X105000000Y12500000D02*
X105000000Y19500000D01*
X105000000Y19500000D02*
X103750000Y19500000D01*
X103750000Y19500000D02*
X103750000Y28500000D01*
X103750000Y28500000D02*
X103500000Y28500000D01*
X103500000Y28500000D02*
X103500000Y28750000D01*
X103500000Y28750000D02*
X103000000Y28750000D01*
X103000000Y28750000D02*
X103000000Y29000000D01*
X103000000Y29000000D02*
X101500000Y29000000D01*
X101500000Y29000000D02*
X101500000Y34500000D01*
X101500000Y34500000D02*
X101250000Y34500000D01*
X101250000Y34500000D02*
X101250000Y36750000D01*
X101250000Y36750000D02*
X93500000Y36750000D01*
X93500000Y36750000D02*
X93500000Y37000000D01*
X93500000Y37000000D02*
X88750000Y37000000D01*
X88750000Y37000000D02*
X88750000Y39000000D01*
X105050000Y12380000D02*
X105000000Y12500000D01*
X88800000Y39000000D02*
X88750000Y39000000D01*
X64000000Y5000000D02*
X61750000Y5000000D01*
X61750000Y5000000D02*
X61750000Y11000000D01*
X61750000Y11000000D02*
X61250000Y11000000D01*
X61250000Y11000000D02*
X61250000Y11250000D01*
X61250000Y11250000D02*
X61000000Y11250000D01*
X61000000Y11250000D02*
X61000000Y11500000D01*
X61000000Y11500000D02*
X60750000Y11500000D01*
X60750000Y11500000D02*
X60750000Y11750000D01*
X60750000Y11750000D02*
X60500000Y11750000D01*
X60500000Y11750000D02*
X60500000Y13000000D01*
X60500000Y13000000D02*
X60750000Y13000000D01*
X60750000Y13000000D02*
X60750000Y13250000D01*
X60750000Y13250000D02*
X61000000Y13250000D01*
X61000000Y13250000D02*
X61000000Y13500000D01*
X61000000Y13500000D02*
X61250000Y13500000D01*
X61250000Y13500000D02*
X61250000Y13750000D01*
X61250000Y13750000D02*
X61500000Y13750000D01*
X61500000Y13750000D02*
X61500000Y26500000D01*
X61500000Y26500000D02*
X61750000Y26500000D01*
X61750000Y26500000D02*
X61750000Y27500000D01*
X64000000Y5050000D02*
X64000000Y5000000D01*
X61870000Y27620000D02*
X61750000Y27500000D01*
X70000000Y5000000D02*
X64000000Y5000000D01*
X70000000Y5050000D02*
X70000000Y5000000D01*
X64000000Y5050000D02*
X64000000Y5000000D01*
X76000000Y5000000D02*
X70000000Y5000000D01*
X76000000Y5050000D02*
X76000000Y5000000D01*
X70000000Y5050000D02*
X70000000Y5000000D01*
X86000000Y5000000D02*
X76000000Y5000000D01*
X86000000Y5050000D02*
X86000000Y5000000D01*
X76000000Y5050000D02*
X76000000Y5000000D01*
X56000000Y8000000D02*
X57000000Y8000000D01*
X57000000Y8000000D02*
X57000000Y6750000D01*
X57000000Y6750000D02*
X60750000Y6750000D01*
X60750000Y6750000D02*
X60750000Y6250000D01*
X60750000Y6250000D02*
X64000000Y6250000D01*
X64000000Y6250000D02*
X64000000Y5000000D01*
X64000000Y5050000D02*
X64000000Y5000000D01*
X112000000Y6000000D02*
X107000000Y6000000D01*
X107000000Y6000000D02*
X107000000Y4750000D01*
X107000000Y4750000D02*
X105500000Y4750000D01*
X105500000Y4750000D02*
X105500000Y4250000D01*
X105500000Y4250000D02*
X86000000Y4250000D01*
X86000000Y4250000D02*
X86000000Y5000000D01*
X86000000Y5050000D02*
X86000000Y5000000D01*
X112000000Y6750000D02*
X112000000Y6000000D01*
X105000000Y27500000D02*
X105000000Y20000000D01*
X105000000Y20000000D02*
X105500000Y20000000D01*
X105500000Y20000000D02*
X105500000Y14500000D01*
X105500000Y14500000D02*
X105750000Y14500000D01*
X105750000Y14500000D02*
X105750000Y14250000D01*
X105750000Y14250000D02*
X106750000Y14250000D01*
X106750000Y14250000D02*
X106750000Y14000000D01*
X106750000Y14000000D02*
X108250000Y14000000D01*
X108250000Y14000000D02*
X108250000Y13750000D01*
X108250000Y13750000D02*
X108500000Y13750000D01*
X108500000Y13750000D02*
X108500000Y13250000D01*
X108500000Y13250000D02*
X110250000Y13250000D01*
X110250000Y13250000D02*
X110250000Y12500000D01*
X105050000Y27620000D02*
X105000000Y27500000D01*
X110130000Y12380000D02*
X110250000Y12500000D01*
X29000000Y42000000D02*
X28500000Y42000000D01*
X28500000Y42000000D02*
X28500000Y41500000D01*
X28500000Y41500000D02*
X28000000Y41500000D01*
X28000000Y41500000D02*
X28000000Y40750000D01*
X28000000Y40750000D02*
X21750000Y40750000D01*
X21750000Y40750000D02*
X21750000Y41000000D01*
X21750000Y41000000D02*
X19500000Y41000000D01*
X19500000Y41000000D02*
X19500000Y42500000D01*
X19500000Y42500000D02*
X15750000Y42500000D01*
X15750000Y42500000D02*
X15750000Y43000000D01*
X30750000Y44000000D02*
X30500000Y44000000D01*
X30500000Y44000000D02*
X30500000Y43750000D01*
X30500000Y43750000D02*
X30250000Y43750000D01*
X30250000Y43750000D02*
X30250000Y43250000D01*
X30250000Y43250000D02*
X29000000Y43250000D01*
X29000000Y43250000D02*
X29000000Y42000000D01*
X30800000Y44000000D02*
X30750000Y44000000D01*
X30750000Y45000000D02*
X31750000Y45000000D01*
X31750000Y45000000D02*
X31750000Y44000000D01*
X31750000Y44000000D02*
X30750000Y44000000D01*
X30800000Y45000000D02*
X30750000Y45000000D01*
X30800000Y44000000D02*
X30750000Y44000000D01*
X30750000Y45500000D02*
X30750000Y45000000D01*
X30800000Y45500000D02*
X30750000Y45500000D01*
X30800000Y45000000D02*
X30750000Y45000000D01*
X33000000Y45000000D02*
X30750000Y45000000D01*
X30800000Y45000000D02*
X30750000Y45000000D01*
X29000000Y46000000D02*
X29250000Y46000000D01*
X29250000Y46000000D02*
X29250000Y45750000D01*
X29250000Y45750000D02*
X29750000Y45750000D01*
X29750000Y45750000D02*
X29750000Y45500000D01*
X29750000Y45500000D02*
X30750000Y45500000D01*
X30800000Y45500000D02*
X30750000Y45500000D01*
X27000000Y37000000D02*
X27000000Y39000000D01*
X27000000Y39000000D02*
X27500000Y39000000D01*
X27500000Y39000000D02*
X27500000Y39750000D01*
X27500000Y39750000D02*
X28750000Y39750000D01*
X28750000Y39750000D02*
X28750000Y42000000D01*
X28750000Y42000000D02*
X29000000Y42000000D01*
X27100000Y37000000D02*
X27000000Y37000000D01*
X35100000Y39000000D02*
X35000000Y39000000D01*
X35100000Y39000000D02*
X35000000Y39000000D01*
X48500000Y31000000D02*
X46750000Y31000000D01*
X46750000Y31000000D02*
X46750000Y32250000D01*
X46750000Y32250000D02*
X36250000Y32250000D01*
X36250000Y32250000D02*
X36250000Y32000000D01*
X36250000Y32000000D02*
X33500000Y32000000D01*
X55000000Y32000000D02*
X54000000Y32000000D01*
X54000000Y32000000D02*
X54000000Y30750000D01*
X54000000Y30750000D02*
X48500000Y30750000D01*
X48500000Y30750000D02*
X48500000Y31000000D01*
X60000000Y33250000D02*
X60500000Y33250000D01*
X60000000Y33200000D02*
X60000000Y33250000D01*
X62500000Y33250000D02*
X60000000Y33250000D01*
X67000000Y33200000D02*
X67000000Y33250000D01*
X60000000Y33200000D02*
X60000000Y33250000D01*
X71000000Y33000000D02*
X71000000Y33750000D01*
X71000000Y32900000D02*
X71000000Y33000000D01*
X67000000Y33200000D02*
X67000000Y33250000D01*
X65100000Y39000000D02*
X65000000Y39000000D01*
X67000000Y33200000D02*
X67000000Y33250000D01*
X65100000Y39000000D02*
X65000000Y39000000D01*
X60750000Y45000000D02*
X63000000Y45000000D01*
X60800000Y45000000D02*
X60750000Y45000000D01*
X60750000Y45500000D02*
X60750000Y45000000D01*
X60800000Y45500000D02*
X60750000Y45500000D01*
X60800000Y45000000D02*
X60750000Y45000000D01*
X60750000Y44000000D02*
X61750000Y44000000D01*
X61750000Y44000000D02*
X61750000Y45000000D01*
X61750000Y45000000D02*
X60750000Y45000000D01*
X60800000Y44000000D02*
X60750000Y44000000D01*
X60800000Y45000000D02*
X60750000Y45000000D01*
X59000000Y46000000D02*
X59250000Y46000000D01*
X59250000Y46000000D02*
X59250000Y45750000D01*
X59250000Y45750000D02*
X59750000Y45750000D01*
X59750000Y45750000D02*
X59750000Y45500000D01*
X59750000Y45500000D02*
X60750000Y45500000D01*
X60800000Y45500000D02*
X60750000Y45500000D01*
X59000000Y42000000D02*
X59250000Y42000000D01*
X59250000Y42000000D02*
X59250000Y42750000D01*
X59250000Y42750000D02*
X59500000Y42750000D01*
X59500000Y42750000D02*
X59500000Y43250000D01*
X59500000Y43250000D02*
X60500000Y43250000D01*
X60500000Y43250000D02*
X60500000Y43500000D01*
X60500000Y43500000D02*
X60750000Y43500000D01*
X60750000Y43500000D02*
X60750000Y44000000D01*
X60800000Y44000000D02*
X60750000Y44000000D01*
X78000000Y39000000D02*
X78000000Y33750000D01*
X78000000Y33750000D02*
X77250000Y33750000D01*
X77250000Y33750000D02*
X77250000Y33500000D01*
X77250000Y33500000D02*
X74750000Y33500000D01*
X74750000Y33500000D02*
X74750000Y33250000D01*
X74750000Y33250000D02*
X74500000Y33250000D01*
X74500000Y33250000D02*
X74500000Y33000000D01*
X74500000Y33000000D02*
X71000000Y33000000D01*
X71000000Y32900000D02*
X71000000Y33000000D01*
X79750000Y41000000D02*
X78000000Y41000000D01*
X78000000Y41000000D02*
X78000000Y39000000D01*
X79800000Y41000000D02*
X79750000Y41000000D01*
X79750000Y42000000D02*
X80750000Y42000000D01*
X80750000Y42000000D02*
X80750000Y41000000D01*
X80750000Y41000000D02*
X79750000Y41000000D01*
X79800000Y42000000D02*
X79750000Y42000000D01*
X79800000Y41000000D02*
X79750000Y41000000D01*
X79750000Y42500000D02*
X79750000Y42000000D01*
X79800000Y42500000D02*
X79750000Y42500000D01*
X79800000Y42000000D02*
X79750000Y42000000D01*
X82000000Y42000000D02*
X79750000Y42000000D01*
X79800000Y42000000D02*
X79750000Y42000000D01*
X78000000Y43000000D02*
X78250000Y43000000D01*
X78250000Y43000000D02*
X78250000Y42750000D01*
X78250000Y42750000D02*
X78750000Y42750000D01*
X78750000Y42750000D02*
X78750000Y42500000D01*
X78750000Y42500000D02*
X79750000Y42500000D01*
X79800000Y42500000D02*
X79750000Y42500000D01*
X84000000Y35000000D02*
X83750000Y35000000D01*
X83750000Y35000000D02*
X83750000Y35250000D01*
X83750000Y35250000D02*
X83000000Y35250000D01*
X83000000Y35250000D02*
X83000000Y36250000D01*
X83000000Y36250000D02*
X81750000Y36250000D01*
X81750000Y36250000D02*
X81750000Y36750000D01*
X81750000Y36750000D02*
X79500000Y36750000D01*
X79500000Y36750000D02*
X79500000Y37250000D01*
X79500000Y37250000D02*
X78000000Y37250000D01*
X78000000Y37250000D02*
X78000000Y39000000D01*
X99000000Y35000000D02*
X98000000Y35000000D01*
X98000000Y35000000D02*
X98000000Y33750000D01*
X98000000Y33750000D02*
X94000000Y33750000D01*
X94000000Y33750000D02*
X94000000Y35000000D01*
X111000000Y35050000D02*
X111000000Y35000000D01*
X110250000Y27500000D02*
X110250000Y29000000D01*
X110250000Y29000000D02*
X110500000Y29000000D01*
X110500000Y29000000D02*
X110500000Y33250000D01*
X110500000Y33250000D02*
X111000000Y33250000D01*
X111000000Y33250000D02*
X111000000Y35000000D01*
X110130000Y27620000D02*
X110250000Y27500000D01*
X111000000Y35050000D02*
X111000000Y35000000D01*
X109000000Y46000000D02*
X109000000Y44000000D01*
X109000000Y44000000D02*
X109250000Y44000000D01*
X109250000Y44000000D02*
X109250000Y41750000D01*
X111000000Y35050000D02*
X111000000Y35000000D01*
X121000000Y31000000D02*
X120500000Y31000000D01*
X120500000Y31000000D02*
X120500000Y30500000D01*
X120500000Y30500000D02*
X120000000Y30500000D01*
X120000000Y30500000D02*
X120000000Y29750000D01*
X120000000Y29750000D02*
X119750000Y29750000D01*
X119750000Y29750000D02*
X119750000Y29250000D01*
X119750000Y29250000D02*
X118750000Y29250000D01*
X118750000Y29250000D02*
X118750000Y29000000D01*
X118750000Y29000000D02*
X118500000Y29000000D01*
X118500000Y29000000D02*
X118500000Y26500000D01*
X118500000Y26500000D02*
X118000000Y26500000D01*
X118000000Y26500000D02*
X118000000Y26250000D01*
X118000000Y26250000D02*
X117500000Y26250000D01*
X117500000Y26250000D02*
X117500000Y26000000D01*
X117500000Y26000000D02*
X117250000Y26000000D01*
X117250000Y26000000D02*
X117250000Y25750000D01*
X117250000Y25750000D02*
X117000000Y25750000D01*
X117000000Y25750000D02*
X117000000Y24500000D01*
X117000000Y24500000D02*
X117250000Y24500000D01*
X117250000Y24500000D02*
X117250000Y24000000D01*
X117250000Y24000000D02*
X117750000Y24000000D01*
X117750000Y24000000D02*
X117750000Y23750000D01*
X117750000Y23750000D02*
X118500000Y23750000D01*
X118500000Y23750000D02*
X118500000Y22500000D01*
X118380000Y22540000D02*
X118500000Y22500000D01*
X96100000Y48000000D02*
X96000000Y48000000D01*
X96100000Y48000000D02*
X96000000Y48000000D01*
X94000000Y6000000D02*
X94500000Y6000000D01*
X94500000Y6000000D02*
X94500000Y6500000D01*
X94500000Y6500000D02*
X97000000Y6500000D01*
X97000000Y6500000D02*
X97000000Y7250000D01*
X97000000Y7250000D02*
X100000000Y7250000D01*
X100000000Y7250000D02*
X100000000Y6000000D01*
X86000000Y6950000D02*
X86000000Y7000000D01*
X76000000Y6950000D02*
X76000000Y7000000D01*
X86000000Y6950000D02*
X86000000Y7000000D01*
X70000000Y7000000D02*
X76000000Y7000000D01*
X70000000Y6950000D02*
X70000000Y7000000D01*
X76000000Y6950000D02*
X76000000Y7000000D01*
X64000000Y7000000D02*
X70000000Y7000000D01*
X64000000Y6950000D02*
X64000000Y7000000D01*
X70000000Y6950000D02*
X70000000Y7000000D01*
X64000000Y6950000D02*
X64000000Y7000000D01*
X45000000Y10000000D02*
X58000000Y10000000D01*
X58000000Y10000000D02*
X58000000Y8000000D01*
X121000000Y31750000D02*
X121000000Y31000000D01*
X132100000Y47000000D02*
X132000000Y47000000D01*
X27100000Y37000000D02*
X27000000Y37000000D01*
M02*
