M48
;PROVISIONAL - CHECK MODULE FOOTPRINTS BEFORE FABRICATION
;TYPE=PLATED
;VIA DRILLS 0.30/0.40 MM: FILLED AND COPPER CAPPED IPC-4761 TYPE VII
METRIC,TZ
T01C0.300
T02C0.400
T03C1.000
T04C1.100
T05C1.300
T06C4.300
T07C8.500
%
G90
G05
T01
X37.0000Y47.5000
X38.0000Y45.0000
X35.2500Y43.2500
X67.0000Y47.5000
X68.0000Y45.0000
X65.2500Y43.2500
X86.0000Y44.5000
X87.0000Y42.0000
X84.2500Y40.2500
X89.0000Y53.0000
X92.0000Y48.0000
X27.0000Y55.0000
X31.7500Y60.7500
X38.0000Y55.0000
X34.2500Y69.2500
X57.0000Y55.0000
X61.7500Y60.7500
X68.0000Y55.0000
X64.2500Y69.2500
X35.0000Y49.5000
X36.2500Y42.0000
X65.0000Y49.5000
X66.2500Y42.0000
X86.0000Y50.0000
X87.0000Y53.0000
X85.2500Y39.0000
X69.0000Y33.0000
X72.0000Y6.0000
X66.0000Y6.0000
X65.0000Y36.0000
X106.0000Y35.0000
X83.0000Y49.0000
X53.7500Y65.0000
X129.5000Y41.0000
X120.7500Y41.0000
X87.0000Y35.0000
X81.5000Y14.5000
X29.7500Y44.5000
X59.7500Y44.5000
X76.0000Y39.0000
X116.0000Y31.0000
X104.0000Y6.0000
X14.0000Y32.0000
X6.0000Y32.0000
X22.5000Y32.0000
X96.7500Y41.0000
X89.7500Y49.0000
X105.5000Y41.0000
X114.5000Y41.0000
X123.2500Y41.7500
X74.0000Y35.0000
X72.0000Y58.0000
X58.0000Y36.0000
X55.0000Y36.0000
X53.0000Y32.0000
X111.0000Y37.0000
X108.0000Y35.0000
X107.0000Y46.0000
X88.7500Y39.0000
X79.7500Y43.2500
X60.7500Y46.2500
X69.7500Y42.0000
X30.7500Y46.2500
X39.7500Y42.0000
X45.5000Y31.0000
X72.0000Y35.0000
X112.0000Y6.7500
X127.0000Y31.0000
X35.0000Y39.0000
X33.0000Y45.0000
X33.5000Y32.0000
X60.5000Y33.2500
X55.0000Y32.0000
X67.0000Y33.2500
X62.5000Y33.2500
X71.0000Y33.7500
X65.0000Y39.0000
X63.0000Y45.0000
X94.0000Y35.0000
X84.0000Y35.0000
X111.0000Y35.0000
X99.0000Y35.0000
X109.2500Y41.7500
X96.0000Y48.0000
X109.0000Y46.0000
X100.0000Y6.0000
X86.0000Y7.0000
X94.0000Y6.0000
X76.0000Y7.0000
X58.0000Y8.0000
X64.0000Y7.0000
X74.0000Y58.0000
X78.0000Y43.0000
X132.0000Y47.0000
X121.0000Y31.7500
X27.0000Y37.0000
T02
X3.0000Y80.0000
X4.5000Y80.0000
X6.0000Y80.0000
X7.5000Y80.0000
X9.0000Y80.0000
X10.5000Y80.0000
X12.0000Y80.0000
X13.5000Y80.0000
X15.0000Y80.0000
X16.5000Y80.0000
X18.0000Y80.0000
X19.5000Y80.0000
X21.0000Y80.0000
X22.5000Y80.0000
X24.0000Y80.0000
X25.5000Y80.0000
X27.0000Y80.0000
X3.0000Y78.5000
X4.5000Y78.5000
X6.0000Y78.5000
X7.5000Y78.5000
X9.0000Y78.5000
X10.5000Y78.5000
X12.0000Y78.5000
X13.5000Y78.5000
X15.0000Y78.5000
X16.5000Y78.5000
X18.0000Y78.5000
X19.5000Y78.5000
X21.0000Y78.5000
X22.5000Y78.5000
X24.0000Y78.5000
X25.5000Y78.5000
X27.0000Y78.5000
X3.0000Y77.0000
X4.5000Y77.0000
X6.0000Y77.0000
X7.5000Y77.0000
X9.0000Y77.0000
X10.5000Y77.0000
X12.0000Y77.0000
X13.5000Y77.0000
X15.0000Y77.0000
X16.5000Y77.0000
X18.0000Y77.0000
X19.5000Y77.0000
X21.0000Y77.0000
X22.5000Y77.0000
X24.0000Y77.0000
X25.5000Y77.0000
X27.0000Y77.0000
X3.0000Y75.5000
X4.5000Y75.5000
X6.0000Y75.5000
X7.5000Y75.5000
X9.0000Y75.5000
X10.5000Y75.5000
X12.0000Y75.5000
X13.5000Y75.5000
X15.0000Y75.5000
X16.5000Y75.5000
X18.0000Y75.5000
X19.5000Y75.5000
X21.0000Y75.5000
X22.5000Y75.5000
X24.0000Y75.5000
X25.5000Y75.5000
X27.0000Y75.5000
X3.0000Y74.0000
X4.5000Y74.0000
X6.0000Y74.0000
X13.5000Y74.0000
X15.0000Y74.0000
X16.5000Y74.0000
X18.0000Y74.0000
X19.5000Y74.0000
X21.0000Y74.0000
X22.5000Y74.0000
X24.0000Y74.0000
X25.5000Y74.0000
X27.0000Y74.0000
X3.0000Y72.5000
X16.5000Y72.5000
X18.0000Y72.5000
X19.5000Y72.5000
X21.0000Y72.5000
X22.5000Y72.5000
X24.0000Y72.5000
X25.5000Y72.5000
X27.0000Y72.5000
X18.0000Y71.0000
X19.5000Y71.0000
X21.0000Y71.0000
X22.5000Y71.0000
X24.0000Y71.0000
X25.5000Y71.0000
X27.0000Y71.0000
X19.5000Y69.5000
X21.0000Y69.5000
X22.5000Y69.5000
X24.0000Y69.5000
X25.5000Y69.5000
X27.0000Y69.5000
X19.5000Y68.0000
X21.0000Y68.0000
X22.5000Y68.0000
X24.0000Y68.0000
X25.5000Y68.0000
X27.0000Y68.0000
X19.5000Y66.5000
X21.0000Y66.5000
X22.5000Y66.5000
X24.0000Y66.5000
X25.5000Y66.5000
X27.0000Y66.5000
X21.0000Y65.0000
X22.5000Y65.0000
X24.0000Y65.0000
X25.5000Y65.0000
X27.0000Y65.0000
X19.5000Y63.5000
X21.0000Y63.5000
X22.5000Y63.5000
X24.0000Y63.5000
X25.5000Y63.5000
X27.0000Y63.5000
X19.5000Y62.0000
X21.0000Y62.0000
X22.5000Y62.0000
X24.0000Y62.0000
X25.5000Y62.0000
X27.0000Y62.0000
X19.5000Y60.5000
X21.0000Y60.5000
X22.5000Y60.5000
X24.0000Y60.5000
X25.5000Y60.5000
X27.0000Y60.5000
X18.0000Y59.0000
X19.5000Y59.0000
X21.0000Y59.0000
X22.5000Y59.0000
X24.0000Y59.0000
X25.5000Y59.0000
X27.0000Y59.0000
X3.0000Y57.5000
X16.5000Y57.5000
X18.0000Y57.5000
X19.5000Y57.5000
X21.0000Y57.5000
X22.5000Y57.5000
X24.0000Y57.5000
X25.5000Y57.5000
X27.0000Y57.5000
X3.0000Y56.0000
X4.5000Y56.0000
X6.0000Y56.0000
X13.5000Y56.0000
X15.0000Y56.0000
X16.5000Y56.0000
X18.0000Y56.0000
X19.5000Y56.0000
X21.0000Y56.0000
X22.5000Y56.0000
X24.0000Y56.0000
X25.5000Y56.0000
X3.0000Y54.5000
X4.5000Y54.5000
X6.0000Y54.5000
X7.5000Y54.5000
X9.0000Y54.5000
X10.5000Y54.5000
X12.0000Y54.5000
X13.5000Y54.5000
X15.0000Y54.5000
X16.5000Y54.5000
X18.0000Y54.5000
X19.5000Y54.5000
X21.0000Y54.5000
X22.5000Y54.5000
X24.0000Y54.5000
X25.5000Y54.5000
X3.0000Y53.0000
X4.5000Y53.0000
X6.0000Y53.0000
X7.5000Y53.0000
X9.0000Y53.0000
X10.5000Y53.0000
X12.0000Y53.0000
X13.5000Y53.0000
X15.0000Y53.0000
X16.5000Y53.0000
X18.0000Y53.0000
X19.5000Y53.0000
X21.0000Y53.0000
X22.5000Y53.0000
X24.0000Y53.0000
X25.5000Y53.0000
X27.0000Y53.0000
X31.5000Y80.0000
X33.0000Y80.0000
X34.5000Y80.0000
X31.5000Y78.5000
X33.0000Y78.5000
X34.5000Y78.5000
X31.5000Y77.0000
X33.0000Y77.0000
X34.5000Y77.0000
X31.5000Y75.5000
X33.0000Y75.5000
X34.5000Y75.5000
X31.5000Y74.0000
X33.0000Y74.0000
X34.5000Y74.0000
X31.5000Y72.5000
X33.0000Y72.5000
X34.5000Y72.5000
X31.5000Y71.0000
X33.0000Y71.0000
X34.5000Y71.0000
X31.5000Y69.5000
X31.5000Y68.0000
X33.0000Y68.0000
X34.5000Y68.0000
X31.5000Y66.5000
X33.0000Y66.5000
X34.5000Y66.5000
X31.5000Y65.0000
X33.0000Y65.0000
X34.5000Y65.0000
X31.5000Y63.5000
X33.0000Y63.5000
X34.5000Y63.5000
X31.5000Y62.0000
X33.0000Y62.0000
X34.5000Y62.0000
X34.5000Y60.5000
X31.5000Y59.0000
X33.0000Y59.0000
X34.5000Y59.0000
X31.5000Y57.5000
X33.0000Y57.5000
X34.5000Y57.5000
X31.5000Y56.0000
X33.0000Y56.0000
X34.5000Y56.0000
X31.5000Y54.5000
X33.0000Y54.5000
X34.5000Y54.5000
X31.5000Y53.0000
X33.0000Y53.0000
X34.5000Y53.0000
X39.0000Y80.0000
X40.5000Y80.0000
X42.0000Y80.0000
X43.5000Y80.0000
X45.0000Y80.0000
X46.5000Y80.0000
X48.0000Y80.0000
X49.5000Y80.0000
X51.0000Y80.0000
X52.5000Y80.0000
X54.0000Y80.0000
X55.5000Y80.0000
X57.0000Y80.0000
X39.0000Y78.5000
X40.5000Y78.5000
X42.0000Y78.5000
X43.5000Y78.5000
X45.0000Y78.5000
X46.5000Y78.5000
X48.0000Y78.5000
X49.5000Y78.5000
X51.0000Y78.5000
X52.5000Y78.5000
X54.0000Y78.5000
X55.5000Y78.5000
X57.0000Y78.5000
X39.0000Y77.0000
X40.5000Y77.0000
X42.0000Y77.0000
X43.5000Y77.0000
X45.0000Y77.0000
X46.5000Y77.0000
X48.0000Y77.0000
X49.5000Y77.0000
X51.0000Y77.0000
X52.5000Y77.0000
X54.0000Y77.0000
X55.5000Y77.0000
X57.0000Y77.0000
X39.0000Y75.5000
X40.5000Y75.5000
X42.0000Y75.5000
X43.5000Y75.5000
X45.0000Y75.5000
X46.5000Y75.5000
X48.0000Y75.5000
X49.5000Y75.5000
X51.0000Y75.5000
X52.5000Y75.5000
X54.0000Y75.5000
X55.5000Y75.5000
X57.0000Y75.5000
X39.0000Y74.0000
X40.5000Y74.0000
X42.0000Y74.0000
X43.5000Y74.0000
X45.0000Y74.0000
X46.5000Y74.0000
X48.0000Y74.0000
X49.5000Y74.0000
X51.0000Y74.0000
X52.5000Y74.0000
X54.0000Y74.0000
X55.5000Y74.0000
X57.0000Y74.0000
X39.0000Y72.5000
X40.5000Y72.5000
X42.0000Y72.5000
X43.5000Y72.5000
X45.0000Y72.5000
X46.5000Y72.5000
X48.0000Y72.5000
X49.5000Y72.5000
X51.0000Y72.5000
X52.5000Y72.5000
X54.0000Y72.5000
X55.5000Y72.5000
X57.0000Y72.5000
X39.0000Y71.0000
X40.5000Y71.0000
X42.0000Y71.0000
X43.5000Y71.0000
X45.0000Y71.0000
X46.5000Y71.0000
X48.0000Y71.0000
X49.5000Y71.0000
X51.0000Y71.0000
X52.5000Y71.0000
X54.0000Y71.0000
X55.5000Y71.0000
X57.0000Y71.0000
X39.0000Y69.5000
X40.5000Y69.5000
X42.0000Y69.5000
X43.5000Y69.5000
X45.0000Y69.5000
X46.5000Y69.5000
X48.0000Y69.5000
X49.5000Y69.5000
X51.0000Y69.5000
X52.5000Y69.5000
X54.0000Y69.5000
X55.5000Y69.5000
X57.0000Y69.5000
X39.0000Y68.0000
X40.5000Y68.0000
X42.0000Y68.0000
X43.5000Y68.0000
X45.0000Y68.0000
X46.5000Y68.0000
X48.0000Y68.0000
X49.5000Y68.0000
X51.0000Y68.0000
X52.5000Y68.0000
X54.0000Y68.0000
X55.5000Y68.0000
X57.0000Y68.0000
X39.0000Y66.5000
X40.5000Y66.5000
X42.0000Y66.5000
X43.5000Y66.5000
X45.0000Y66.5000
X46.5000Y66.5000
X48.0000Y66.5000
X49.5000Y66.5000
X51.0000Y66.5000
X52.5000Y66.5000
X54.0000Y66.5000
X55.5000Y66.5000
X57.0000Y66.5000
X39.0000Y65.0000
X40.5000Y65.0000
X42.0000Y65.0000
X43.5000Y65.0000
X45.0000Y65.0000
X46.5000Y65.0000
X48.0000Y65.0000
X49.5000Y65.0000
X51.0000Y65.0000
X52.5000Y65.0000
X54.0000Y65.0000
X55.5000Y65.0000
X57.0000Y65.0000
X39.0000Y63.5000
X40.5000Y63.5000
X42.0000Y63.5000
X43.5000Y63.5000
X45.0000Y63.5000
X46.5000Y63.5000
X48.0000Y63.5000
X49.5000Y63.5000
X51.0000Y63.5000
X52.5000Y63.5000
X54.0000Y63.5000
X55.5000Y63.5000
X57.0000Y63.5000
X39.0000Y62.0000
X40.5000Y62.0000
X42.0000Y62.0000
X43.5000Y62.0000
X45.0000Y62.0000
X46.5000Y62.0000
X48.0000Y62.0000
X49.5000Y62.0000
X51.0000Y62.0000
X52.5000Y62.0000
X54.0000Y62.0000
X55.5000Y62.0000
X57.0000Y62.0000
X39.0000Y60.5000
X40.5000Y60.5000
X42.0000Y60.5000
X43.5000Y60.5000
X45.0000Y60.5000
X46.5000Y60.5000
X48.0000Y60.5000
X49.5000Y60.5000
X51.0000Y60.5000
X52.5000Y60.5000
X54.0000Y60.5000
X55.5000Y60.5000
X57.0000Y60.5000
X39.0000Y59.0000
X40.5000Y59.0000
X42.0000Y59.0000
X43.5000Y59.0000
X45.0000Y59.0000
X46.5000Y59.0000
X48.0000Y59.0000
X49.5000Y59.0000
X51.0000Y59.0000
X52.5000Y59.0000
X54.0000Y59.0000
X55.5000Y59.0000
X57.0000Y59.0000
X39.0000Y57.5000
X40.5000Y57.5000
X42.0000Y57.5000
X43.5000Y57.5000
X45.0000Y57.5000
X46.5000Y57.5000
X48.0000Y57.5000
X49.5000Y57.5000
X51.0000Y57.5000
X52.5000Y57.5000
X54.0000Y57.5000
X55.5000Y57.5000
X57.0000Y57.5000
X42.0000Y56.0000
X43.5000Y56.0000
X45.0000Y56.0000
X46.5000Y56.0000
X48.0000Y56.0000
X49.5000Y56.0000
X51.0000Y56.0000
X52.5000Y56.0000
X54.0000Y56.0000
X55.5000Y56.0000
X42.0000Y54.5000
X43.5000Y54.5000
X45.0000Y54.5000
X46.5000Y54.5000
X48.0000Y54.5000
X49.5000Y54.5000
X51.0000Y54.5000
X52.5000Y54.5000
X54.0000Y54.5000
X55.5000Y54.5000
X39.0000Y53.0000
X40.5000Y53.0000
X42.0000Y53.0000
X43.5000Y53.0000
X45.0000Y53.0000
X46.5000Y53.0000
X48.0000Y53.0000
X49.5000Y53.0000
X51.0000Y53.0000
X52.5000Y53.0000
X54.0000Y53.0000
X55.5000Y53.0000
X57.0000Y53.0000
X61.5000Y80.0000
X63.0000Y80.0000
X64.5000Y80.0000
X61.5000Y78.5000
X63.0000Y78.5000
X64.5000Y78.5000
X61.5000Y77.0000
X63.0000Y77.0000
X64.5000Y77.0000
X61.5000Y75.5000
X63.0000Y75.5000
X64.5000Y75.5000
X61.5000Y74.0000
X63.0000Y74.0000
X64.5000Y74.0000
X61.5000Y72.5000
X63.0000Y72.5000
X64.5000Y72.5000
X61.5000Y71.0000
X63.0000Y71.0000
X64.5000Y71.0000
X61.5000Y69.5000
X61.5000Y68.0000
X63.0000Y68.0000
X64.5000Y68.0000
X61.5000Y66.5000
X63.0000Y66.5000
X64.5000Y66.5000
X61.5000Y65.0000
X63.0000Y65.0000
X64.5000Y65.0000
X61.5000Y63.5000
X63.0000Y63.5000
X64.5000Y63.5000
X61.5000Y62.0000
X63.0000Y62.0000
X64.5000Y62.0000
X64.5000Y60.5000
X61.5000Y59.0000
X63.0000Y59.0000
X64.5000Y59.0000
X61.5000Y57.5000
X63.0000Y57.5000
X64.5000Y57.5000
X61.5000Y56.0000
X63.0000Y56.0000
X64.5000Y56.0000
X61.5000Y54.5000
X63.0000Y54.5000
X64.5000Y54.5000
X61.5000Y53.0000
X63.0000Y53.0000
X64.5000Y53.0000
X69.0000Y80.0000
X70.5000Y80.0000
X72.0000Y80.0000
X73.5000Y80.0000
X75.0000Y80.0000
X76.5000Y80.0000
X78.0000Y80.0000
X79.5000Y80.0000
X81.0000Y80.0000
X82.5000Y80.0000
X84.0000Y80.0000
X85.5000Y80.0000
X87.0000Y80.0000
X88.5000Y80.0000
X90.0000Y80.0000
X91.5000Y80.0000
X93.0000Y80.0000
X94.5000Y80.0000
X96.0000Y80.0000
X97.5000Y80.0000
X69.0000Y78.5000
X70.5000Y78.5000
X72.0000Y78.5000
X73.5000Y78.5000
X75.0000Y78.5000
X76.5000Y78.5000
X78.0000Y78.5000
X79.5000Y78.5000
X81.0000Y78.5000
X82.5000Y78.5000
X84.0000Y78.5000
X85.5000Y78.5000
X87.0000Y78.5000
X88.5000Y78.5000
X90.0000Y78.5000
X91.5000Y78.5000
X93.0000Y78.5000
X94.5000Y78.5000
X96.0000Y78.5000
X97.5000Y78.5000
X69.0000Y77.0000
X70.5000Y77.0000
X72.0000Y77.0000
X73.5000Y77.0000
X75.0000Y77.0000
X76.5000Y77.0000
X78.0000Y77.0000
X79.5000Y77.0000
X81.0000Y77.0000
X82.5000Y77.0000
X84.0000Y77.0000
X85.5000Y77.0000
X87.0000Y77.0000
X88.5000Y77.0000
X90.0000Y77.0000
X91.5000Y77.0000
X93.0000Y77.0000
X94.5000Y77.0000
X96.0000Y77.0000
X97.5000Y77.0000
X69.0000Y75.5000
X70.5000Y75.5000
X72.0000Y75.5000
X73.5000Y75.5000
X75.0000Y75.5000
X76.5000Y75.5000
X78.0000Y75.5000
X79.5000Y75.5000
X81.0000Y75.5000
X82.5000Y75.5000
X84.0000Y75.5000
X85.5000Y75.5000
X87.0000Y75.5000
X88.5000Y75.5000
X90.0000Y75.5000
X91.5000Y75.5000
X93.0000Y75.5000
X94.5000Y75.5000
X96.0000Y75.5000
X97.5000Y75.5000
X69.0000Y74.0000
X70.5000Y74.0000
X72.0000Y74.0000
X73.5000Y74.0000
X75.0000Y74.0000
X76.5000Y74.0000
X78.0000Y74.0000
X79.5000Y74.0000
X81.0000Y74.0000
X82.5000Y74.0000
X84.0000Y74.0000
X85.5000Y74.0000
X87.0000Y74.0000
X88.5000Y74.0000
X90.0000Y74.0000
X91.5000Y74.0000
X93.0000Y74.0000
X94.5000Y74.0000
X96.0000Y74.0000
X97.5000Y74.0000
X69.0000Y72.5000
X70.5000Y72.5000
X72.0000Y72.5000
X73.5000Y72.5000
X75.0000Y72.5000
X76.5000Y72.5000
X78.0000Y72.5000
X79.5000Y72.5000
X81.0000Y72.5000
X82.5000Y72.5000
X84.0000Y72.5000
X85.5000Y72.5000
X87.0000Y72.5000
X88.5000Y72.5000
X90.0000Y72.5000
X91.5000Y72.5000
X93.0000Y72.5000
X94.5000Y72.5000
X96.0000Y72.5000
X97.5000Y72.5000
X69.0000Y71.0000
X70.5000Y71.0000
X72.0000Y71.0000
X73.5000Y71.0000
X75.0000Y71.0000
X76.5000Y71.0000
X78.0000Y71.0000
X79.5000Y71.0000
X81.0000Y71.0000
X82.5000Y71.0000
X84.0000Y71.0000
X85.5000Y71.0000
X87.0000Y71.0000
X88.5000Y71.0000
X90.0000Y71.0000
X91.5000Y71.0000
X93.0000Y71.0000
X94.5000Y71.0000
X96.0000Y71.0000
X97.5000Y71.0000
X69.0000Y69.5000
X70.5000Y69.5000
X72.0000Y69.5000
X73.5000Y69.5000
X75.0000Y69.5000
X76.5000Y69.5000
X78.0000Y69.5000
X79.5000Y69.5000
X87.0000Y69.5000
X88.5000Y69.5000
X90.0000Y69.5000
X91.5000Y69.5000
X93.0000Y69.5000
X94.5000Y69.5000
X96.0000Y69.5000
X97.5000Y69.5000
X69.0000Y68.0000
X70.5000Y68.0000
X72.0000Y68.0000
X73.5000Y68.0000
X75.0000Y68.0000
X76.5000Y68.0000
X78.0000Y68.0000
X88.5000Y68.0000
X90.0000Y68.0000
X91.5000Y68.0000
X93.0000Y68.0000
X94.5000Y68.0000
X96.0000Y68.0000
X97.5000Y68.0000
X69.0000Y66.5000
X70.5000Y66.5000
X72.0000Y66.5000
X73.5000Y66.5000
X75.0000Y66.5000
X76.5000Y66.5000
X88.5000Y66.5000
X90.0000Y66.5000
X91.5000Y66.5000
X93.0000Y66.5000
X94.5000Y66.5000
X96.0000Y66.5000
X97.5000Y66.5000
X69.0000Y65.0000
X70.5000Y65.0000
X72.0000Y65.0000
X73.5000Y65.0000
X75.0000Y65.0000
X76.5000Y65.0000
X90.0000Y65.0000
X91.5000Y65.0000
X93.0000Y65.0000
X94.5000Y65.0000
X96.0000Y65.0000
X97.5000Y65.0000
X69.0000Y63.5000
X70.5000Y63.5000
X72.0000Y63.5000
X73.5000Y63.5000
X75.0000Y63.5000
X76.5000Y63.5000
X88.5000Y63.5000
X90.0000Y63.5000
X91.5000Y63.5000
X93.0000Y63.5000
X94.5000Y63.5000
X96.0000Y63.5000
X97.5000Y63.5000
X69.0000Y62.0000
X70.5000Y62.0000
X72.0000Y62.0000
X73.5000Y62.0000
X75.0000Y62.0000
X76.5000Y62.0000
X78.0000Y62.0000
X88.5000Y62.0000
X90.0000Y62.0000
X91.5000Y62.0000
X93.0000Y62.0000
X94.5000Y62.0000
X96.0000Y62.0000
X97.5000Y62.0000
X69.0000Y60.5000
X70.5000Y60.5000
X72.0000Y60.5000
X73.5000Y60.5000
X75.0000Y60.5000
X76.5000Y60.5000
X78.0000Y60.5000
X79.5000Y60.5000
X87.0000Y60.5000
X88.5000Y60.5000
X90.0000Y60.5000
X91.5000Y60.5000
X93.0000Y60.5000
X94.5000Y60.5000
X96.0000Y60.5000
X97.5000Y60.5000
X69.0000Y59.0000
X70.5000Y59.0000
X76.5000Y59.0000
X78.0000Y59.0000
X79.5000Y59.0000
X81.0000Y59.0000
X82.5000Y59.0000
X84.0000Y59.0000
X85.5000Y59.0000
X87.0000Y59.0000
X88.5000Y59.0000
X90.0000Y59.0000
X91.5000Y59.0000
X93.0000Y59.0000
X94.5000Y59.0000
X96.0000Y59.0000
X97.5000Y59.0000
X69.0000Y57.5000
X70.5000Y57.5000
X76.5000Y57.5000
X78.0000Y57.5000
X79.5000Y57.5000
X81.0000Y57.5000
X82.5000Y57.5000
X84.0000Y57.5000
X85.5000Y57.5000
X87.0000Y57.5000
X88.5000Y57.5000
X90.0000Y57.5000
X91.5000Y57.5000
X72.0000Y56.0000
X73.5000Y56.0000
X75.0000Y56.0000
X76.5000Y56.0000
X78.0000Y56.0000
X79.5000Y56.0000
X81.0000Y56.0000
X82.5000Y56.0000
X84.0000Y56.0000
X85.5000Y56.0000
X87.0000Y56.0000
X88.5000Y56.0000
X90.0000Y56.0000
X91.5000Y56.0000
X72.0000Y54.5000
X73.5000Y54.5000
X75.0000Y54.5000
X76.5000Y54.5000
X78.0000Y54.5000
X79.5000Y54.5000
X81.0000Y54.5000
X82.5000Y54.5000
X84.0000Y54.5000
X85.5000Y54.5000
X87.0000Y54.5000
X88.5000Y54.5000
X90.0000Y54.5000
X91.5000Y54.5000
X93.0000Y54.5000
X94.5000Y54.5000
X96.0000Y54.5000
X97.5000Y54.5000
X69.0000Y53.0000
X70.5000Y53.0000
X72.0000Y53.0000
X73.5000Y53.0000
X75.0000Y53.0000
X76.5000Y53.0000
X78.0000Y53.0000
X79.5000Y53.0000
X81.0000Y53.0000
X82.5000Y53.0000
X84.0000Y53.0000
X85.5000Y53.0000
X91.5000Y53.0000
X93.0000Y53.0000
X94.5000Y53.0000
X96.0000Y53.0000
X97.5000Y53.0000
X102.0000Y80.0000
X103.5000Y80.0000
X105.0000Y80.0000
X106.5000Y80.0000
X108.0000Y80.0000
X109.5000Y80.0000
X111.0000Y80.0000
X112.5000Y80.0000
X114.0000Y80.0000
X115.5000Y80.0000
X117.0000Y80.0000
X118.5000Y80.0000
X120.0000Y80.0000
X121.5000Y80.0000
X123.0000Y80.0000
X124.5000Y80.0000
X126.0000Y80.0000
X127.5000Y80.0000
X129.0000Y80.0000
X130.5000Y80.0000
X132.0000Y80.0000
X133.5000Y80.0000
X135.0000Y80.0000
X136.5000Y80.0000
X138.0000Y80.0000
X102.0000Y78.5000
X103.5000Y78.5000
X105.0000Y78.5000
X106.5000Y78.5000
X108.0000Y78.5000
X109.5000Y78.5000
X111.0000Y78.5000
X112.5000Y78.5000
X114.0000Y78.5000
X115.5000Y78.5000
X117.0000Y78.5000
X118.5000Y78.5000
X120.0000Y78.5000
X121.5000Y78.5000
X123.0000Y78.5000
X124.5000Y78.5000
X126.0000Y78.5000
X127.5000Y78.5000
X129.0000Y78.5000
X130.5000Y78.5000
X132.0000Y78.5000
X133.5000Y78.5000
X135.0000Y78.5000
X136.5000Y78.5000
X138.0000Y78.5000
X102.0000Y77.0000
X103.5000Y77.0000
X105.0000Y77.0000
X106.5000Y77.0000
X108.0000Y77.0000
X109.5000Y77.0000
X111.0000Y77.0000
X112.5000Y77.0000
X114.0000Y77.0000
X115.5000Y77.0000
X117.0000Y77.0000
X118.5000Y77.0000
X120.0000Y77.0000
X121.5000Y77.0000
X123.0000Y77.0000
X124.5000Y77.0000
X126.0000Y77.0000
X127.5000Y77.0000
X129.0000Y77.0000
X130.5000Y77.0000
X132.0000Y77.0000
X133.5000Y77.0000
X135.0000Y77.0000
X136.5000Y77.0000
X138.0000Y77.0000
X102.0000Y75.5000
X103.5000Y75.5000
X105.0000Y75.5000
X106.5000Y75.5000
X108.0000Y75.5000
X109.5000Y75.5000
X111.0000Y75.5000
X112.5000Y75.5000
X114.0000Y75.5000
X115.5000Y75.5000
X117.0000Y75.5000
X118.5000Y75.5000
X120.0000Y75.5000
X121.5000Y75.5000
X123.0000Y75.5000
X124.5000Y75.5000
X126.0000Y75.5000
X127.5000Y75.5000
X129.0000Y75.5000
X130.5000Y75.5000
X132.0000Y75.5000
X133.5000Y75.5000
X135.0000Y75.5000
X136.5000Y75.5000
X138.0000Y75.5000
X102.0000Y74.0000
X103.5000Y74.0000
X105.0000Y74.0000
X106.5000Y74.0000
X108.0000Y74.0000
X109.5000Y74.0000
X111.0000Y74.0000
X112.5000Y74.0000
X114.0000Y74.0000
X115.5000Y74.0000
X117.0000Y74.0000
X118.5000Y74.0000
X120.0000Y74.0000
X121.5000Y74.0000
X123.0000Y74.0000
X124.5000Y74.0000
X126.0000Y74.0000
X133.5000Y74.0000
X135.0000Y74.0000
X136.5000Y74.0000
X138.0000Y74.0000
X102.0000Y72.5000
X103.5000Y72.5000
X105.0000Y72.5000
X106.5000Y72.5000
X108.0000Y72.5000
X109.5000Y72.5000
X111.0000Y72.5000
X112.5000Y72.5000
X114.0000Y72.5000
X115.5000Y72.5000
X117.0000Y72.5000
X118.5000Y72.5000
X120.0000Y72.5000
X121.5000Y72.5000
X123.0000Y72.5000
X136.5000Y72.5000
X138.0000Y72.5000
X102.0000Y71.0000
X103.5000Y71.0000
X105.0000Y71.0000
X106.5000Y71.0000
X108.0000Y71.0000
X109.5000Y71.0000
X111.0000Y71.0000
X112.5000Y71.0000
X114.0000Y71.0000
X115.5000Y71.0000
X117.0000Y71.0000
X118.5000Y71.0000
X120.0000Y71.0000
X121.5000Y71.0000
X138.0000Y71.0000
X102.0000Y69.5000
X103.5000Y69.5000
X105.0000Y69.5000
X106.5000Y69.5000
X108.0000Y69.5000
X109.5000Y69.5000
X117.0000Y69.5000
X118.5000Y69.5000
X120.0000Y69.5000
X121.5000Y69.5000
X102.0000Y68.0000
X103.5000Y68.0000
X105.0000Y68.0000
X106.5000Y68.0000
X108.0000Y68.0000
X118.5000Y68.0000
X120.0000Y68.0000
X102.0000Y66.5000
X103.5000Y66.5000
X105.0000Y66.5000
X106.5000Y66.5000
X118.5000Y66.5000
X120.0000Y66.5000
X102.0000Y65.0000
X103.5000Y65.0000
X105.0000Y65.0000
X106.5000Y65.0000
X120.0000Y65.0000
X102.0000Y63.5000
X103.5000Y63.5000
X105.0000Y63.5000
X106.5000Y63.5000
X118.5000Y63.5000
X120.0000Y63.5000
X102.0000Y62.0000
X103.5000Y62.0000
X105.0000Y62.0000
X106.5000Y62.0000
X108.0000Y62.0000
X118.5000Y62.0000
X120.0000Y62.0000
X102.0000Y60.5000
X103.5000Y60.5000
X105.0000Y60.5000
X106.5000Y60.5000
X108.0000Y60.5000
X109.5000Y60.5000
X117.0000Y60.5000
X118.5000Y60.5000
X120.0000Y60.5000
X121.5000Y60.5000
X102.0000Y59.0000
X103.5000Y59.0000
X105.0000Y59.0000
X106.5000Y59.0000
X108.0000Y59.0000
X109.5000Y59.0000
X111.0000Y59.0000
X112.5000Y59.0000
X114.0000Y59.0000
X115.5000Y59.0000
X117.0000Y59.0000
X118.5000Y59.0000
X120.0000Y59.0000
X121.5000Y59.0000
X138.0000Y59.0000
X103.5000Y57.5000
X105.0000Y57.5000
X106.5000Y57.5000
X108.0000Y57.5000
X109.5000Y57.5000
X111.0000Y57.5000
X112.5000Y57.5000
X114.0000Y57.5000
X115.5000Y57.5000
X117.0000Y57.5000
X118.5000Y57.5000
X120.0000Y57.5000
X121.5000Y57.5000
X123.0000Y57.5000
X136.5000Y57.5000
X138.0000Y57.5000
X103.5000Y56.0000
X105.0000Y56.0000
X106.5000Y56.0000
X108.0000Y56.0000
X109.5000Y56.0000
X111.0000Y56.0000
X112.5000Y56.0000
X114.0000Y56.0000
X115.5000Y56.0000
X117.0000Y56.0000
X118.5000Y56.0000
X120.0000Y56.0000
X121.5000Y56.0000
X123.0000Y56.0000
X124.5000Y56.0000
X126.0000Y56.0000
X133.5000Y56.0000
X135.0000Y56.0000
X136.5000Y56.0000
X138.0000Y56.0000
X102.0000Y54.5000
X103.5000Y54.5000
X105.0000Y54.5000
X106.5000Y54.5000
X108.0000Y54.5000
X109.5000Y54.5000
X111.0000Y54.5000
X112.5000Y54.5000
X114.0000Y54.5000
X115.5000Y54.5000
X117.0000Y54.5000
X118.5000Y54.5000
X120.0000Y54.5000
X121.5000Y54.5000
X123.0000Y54.5000
X124.5000Y54.5000
X126.0000Y54.5000
X127.5000Y54.5000
X129.0000Y54.5000
X130.5000Y54.5000
X132.0000Y54.5000
X133.5000Y54.5000
X135.0000Y54.5000
X136.5000Y54.5000
X138.0000Y54.5000
X102.0000Y53.0000
X103.5000Y53.0000
X105.0000Y53.0000
X106.5000Y53.0000
X108.0000Y53.0000
X109.5000Y53.0000
X111.0000Y53.0000
X112.5000Y53.0000
X114.0000Y53.0000
X115.5000Y53.0000
X117.0000Y53.0000
X118.5000Y53.0000
X120.0000Y53.0000
X121.5000Y53.0000
X123.0000Y53.0000
X124.5000Y53.0000
X126.0000Y53.0000
X127.5000Y53.0000
X129.0000Y53.0000
X130.5000Y53.0000
X132.0000Y53.0000
X133.5000Y53.0000
X135.0000Y53.0000
X136.5000Y53.0000
X138.0000Y53.0000
T03
X94.1900Y57.0000
X96.7300Y57.0000
X99.2700Y57.0000
X101.8100Y57.0000
X61.8700Y27.6200
X64.4100Y27.6200
X66.9500Y27.6200
X69.4900Y27.6200
X72.0300Y27.6200
X74.5700Y27.6200
X77.1100Y27.6200
X79.6500Y27.6200
X82.1900Y27.6200
X84.7300Y27.6200
X87.2700Y27.6200
X89.8100Y27.6200
X92.3500Y27.6200
X94.8900Y27.6200
X97.4300Y27.6200
X99.9700Y27.6200
X102.5100Y27.6200
X105.0500Y27.6200
X107.5900Y27.6200
X110.1300Y27.6200
X61.8700Y12.3800
X64.4100Y12.3800
X66.9500Y12.3800
X69.4900Y12.3800
X72.0300Y12.3800
X74.5700Y12.3800
X77.1100Y12.3800
X79.6500Y12.3800
X82.1900Y12.3800
X84.7300Y12.3800
X87.2700Y12.3800
X89.8100Y12.3800
X92.3500Y12.3800
X94.8900Y12.3800
X97.4300Y12.3800
X99.9700Y12.3800
X102.5100Y12.3800
X105.0500Y12.3800
X107.5900Y12.3800
X110.1300Y12.3800
X118.3800Y25.0800
X118.3800Y22.5400
X118.3800Y20.0000
X118.3800Y17.4600
X133.6200Y22.5400
X133.6200Y20.0000
X133.6200Y17.4600
T04
X8.2500Y43.0000
X15.7500Y43.0000
T05
X7.0000Y26.0000
X7.0000Y10.0000
X45.0000Y26.0000
X45.0000Y10.0000
X118.3800Y5.0000
X123.4600Y5.0000
X128.5400Y5.0000
X133.6200Y5.0000
T06
X83.0000Y65.0000
X113.0000Y65.0000
T07
X10.0000Y65.0000
X130.0000Y65.0000
M30
