G04 PROVISIONAL - MODULE FOOTPRINTS ESTIMATED - NOT RELEASED FOR FABRICATION*
%TF.GenerationSoftware,OpenAI,ELC-Native-Writer,1.0*%
%TF.FileFunction,Soldermask,Top*%
%TF.FilePolarity,Positive*%
%FSLAX46Y46*%
%MOMM*%
%LPD*%
%ADD10C,18.0600*%
%ADD11R,2.0600X1.0600*%
%ADD12R,2.0600X1.0600*%
%ADD13R,7.3600X10.0600*%
%ADD14R,7.3600X10.0600*%
%ADD15C,3.3600*%
%ADD16R,2.5600X2.2600*%
%ADD17C,10.0600*%
%ADD18C,1.8600*%
%ADD19C,3.0600*%
%ADD20C,2.5600*%
%ADD21R,2.5600X2.2600*%
%ADD22R,2.5600X2.2600*%
%ADD23R,1.5600X1.8600*%
%ADD24R,1.2600X1.4600*%
%ADD25R,1.2600X1.4600*%
%ADD26R,1.0100X0.3400*%
%ADD27R,1.9400X1.7400*%
%ADD28R,1.1600X1.2600*%
%ADD29R,1.0100X0.3400*%
%ADD30R,1.2600X1.4600*%
%ADD31R,1.2600X1.4600*%
%ADD32R,1.0600X0.7100*%
%ADD33R,1.2600X1.4600*%
%ADD34R,1.7600X3.2600*%
G01*
D10*
X10000000Y65000000D03*
X130000000Y65000000D03*
D11*
X31650000Y60800000D03*
X31650000Y62000000D03*
X31650000Y63200000D03*
X31650000Y64400000D03*
X31650000Y65600000D03*
X31650000Y66800000D03*
X31650000Y68000000D03*
D12*
X31650000Y69200000D03*
D13*
X23850000Y65000000D03*
D12*
X34350000Y69200000D03*
D11*
X34350000Y68000000D03*
X34350000Y66800000D03*
X34350000Y65600000D03*
X34350000Y64400000D03*
X34350000Y63200000D03*
X34350000Y62000000D03*
X34350000Y60800000D03*
D13*
X42150000Y65000000D03*
D11*
X61650000Y60800000D03*
X61650000Y62000000D03*
X61650000Y63200000D03*
X61650000Y64400000D03*
X61650000Y65600000D03*
X61650000Y66800000D03*
X61650000Y68000000D03*
D12*
X61650000Y69200000D03*
D13*
X53850000Y65000000D03*
D12*
X64350000Y69200000D03*
D11*
X64350000Y68000000D03*
X64350000Y66800000D03*
X64350000Y65600000D03*
X64350000Y64400000D03*
X64350000Y63200000D03*
X64350000Y62000000D03*
X64350000Y60800000D03*
D14*
X72150000Y65000000D03*
D15*
X8250000Y43000000D03*
X15750000Y43000000D03*
D16*
X22900000Y37000000D03*
X27100000Y37000000D03*
X127900000Y47000000D03*
X132100000Y47000000D03*
D17*
X83000000Y65000000D03*
X113000000Y65000000D03*
D18*
X94190000Y57000000D03*
X96730000Y57000000D03*
X99270000Y57000000D03*
X101810000Y57000000D03*
D19*
X7000000Y26000000D03*
X7000000Y10000000D03*
X45000000Y26000000D03*
X45000000Y10000000D03*
D18*
X61870000Y27620000D03*
X64410000Y27620000D03*
X66950000Y27620000D03*
X69490000Y27620000D03*
X72030000Y27620000D03*
X74570000Y27620000D03*
X77110000Y27620000D03*
X79650000Y27620000D03*
X82190000Y27620000D03*
X84730000Y27620000D03*
X87270000Y27620000D03*
X89810000Y27620000D03*
X92350000Y27620000D03*
X94890000Y27620000D03*
X97430000Y27620000D03*
X99970000Y27620000D03*
X102510000Y27620000D03*
X105050000Y27620000D03*
X107590000Y27620000D03*
X110130000Y27620000D03*
X61870000Y12380000D03*
X64410000Y12380000D03*
X66950000Y12380000D03*
X69490000Y12380000D03*
X72030000Y12380000D03*
X74570000Y12380000D03*
X77110000Y12380000D03*
X79650000Y12380000D03*
X82190000Y12380000D03*
X84730000Y12380000D03*
X87270000Y12380000D03*
X89810000Y12380000D03*
X92350000Y12380000D03*
X94890000Y12380000D03*
X97430000Y12380000D03*
X99970000Y12380000D03*
X102510000Y12380000D03*
X105050000Y12380000D03*
X107590000Y12380000D03*
X110130000Y12380000D03*
X118380000Y25080000D03*
X118380000Y22540000D03*
X118380000Y20000000D03*
X118380000Y17460000D03*
X133620000Y22540000D03*
X133620000Y20000000D03*
X133620000Y17460000D03*
D20*
X118380000Y5000000D03*
X123460000Y5000000D03*
X128540000Y5000000D03*
X133620000Y5000000D03*
D21*
X5900000Y32000000D03*
D22*
X10100000Y32000000D03*
X13900000Y32000000D03*
D16*
X18100000Y32000000D03*
D23*
X22500000Y32000000D03*
X25500000Y32000000D03*
X30500000Y32000000D03*
X33500000Y32000000D03*
X45500000Y31000000D03*
X48500000Y31000000D03*
D24*
X56000000Y8000000D03*
X58000000Y8000000D03*
D25*
X114000000Y31000000D03*
X116000000Y31000000D03*
X119000000Y31000000D03*
X121000000Y31000000D03*
X125000000Y31000000D03*
X127000000Y31000000D03*
D26*
X30800000Y46000000D03*
X30800000Y45500000D03*
X30800000Y45000000D03*
X30800000Y44500000D03*
X30800000Y44000000D03*
X35200000Y44000000D03*
X35200000Y44500000D03*
X35200000Y45000000D03*
X35200000Y45500000D03*
X35200000Y46000000D03*
D27*
X33000000Y45000000D03*
D24*
X37000000Y47500000D03*
X39000000Y47500000D03*
X27000000Y46000000D03*
X29000000Y46000000D03*
D28*
X36200000Y42000000D03*
X39800000Y42000000D03*
D16*
X30900000Y39000000D03*
X35100000Y39000000D03*
D24*
X27000000Y42000000D03*
X29000000Y42000000D03*
D26*
X60800000Y46000000D03*
X60800000Y45500000D03*
X60800000Y45000000D03*
X60800000Y44500000D03*
X60800000Y44000000D03*
D29*
X65200000Y44000000D03*
X65200000Y44500000D03*
X65200000Y45000000D03*
X65200000Y45500000D03*
X65200000Y46000000D03*
D27*
X63000000Y45000000D03*
D25*
X67000000Y47500000D03*
X69000000Y47500000D03*
D24*
X57000000Y46000000D03*
X59000000Y46000000D03*
D28*
X66200000Y42000000D03*
X69800000Y42000000D03*
D16*
X60900000Y39000000D03*
X65100000Y39000000D03*
D24*
X57000000Y42000000D03*
X59000000Y42000000D03*
D29*
X79800000Y43000000D03*
X79800000Y42500000D03*
X79800000Y42000000D03*
X79800000Y41500000D03*
X79800000Y41000000D03*
X84200000Y41000000D03*
X84200000Y41500000D03*
X84200000Y42000000D03*
X84200000Y42500000D03*
X84200000Y43000000D03*
D27*
X82000000Y42000000D03*
D25*
X86000000Y44500000D03*
X88000000Y44500000D03*
X76000000Y43000000D03*
X78000000Y43000000D03*
D28*
X85200000Y39000000D03*
X88800000Y39000000D03*
D16*
X91900000Y48000000D03*
X96100000Y48000000D03*
D25*
X76000000Y39000000D03*
X78000000Y39000000D03*
D24*
X29000000Y49500000D03*
X31000000Y49500000D03*
D30*
X27000000Y55000000D03*
X29000000Y55000000D03*
D24*
X35000000Y49500000D03*
X37000000Y49500000D03*
D30*
X38000000Y55000000D03*
X40000000Y55000000D03*
D24*
X59000000Y49500000D03*
X61000000Y49500000D03*
D30*
X57000000Y55000000D03*
X59000000Y55000000D03*
D25*
X65000000Y49500000D03*
X67000000Y49500000D03*
D31*
X68000000Y55000000D03*
X70000000Y55000000D03*
D32*
X81000000Y49950000D03*
X81000000Y48050000D03*
X83000000Y49000000D03*
X86000000Y49950000D03*
X86000000Y48050000D03*
X88000000Y49000000D03*
D33*
X87000000Y53000000D03*
X89000000Y53000000D03*
D34*
X96800000Y41000000D03*
X103200000Y41000000D03*
X105600000Y41000000D03*
X112000000Y41000000D03*
X114400000Y41000000D03*
X120800000Y41000000D03*
X123200000Y41000000D03*
X129600000Y41000000D03*
X132000000Y41000000D03*
X138400000Y41000000D03*
D31*
X72000000Y58000000D03*
X74000000Y58000000D03*
D25*
X72000000Y35000000D03*
X74000000Y35000000D03*
X77000000Y35000000D03*
X79000000Y35000000D03*
X82000000Y35000000D03*
X84000000Y35000000D03*
D24*
X53000000Y36000000D03*
X55000000Y36000000D03*
X53000000Y32000000D03*
X55000000Y32000000D03*
X58000000Y36000000D03*
X60000000Y36000000D03*
X58000000Y33200000D03*
X60000000Y33200000D03*
D25*
X65000000Y36000000D03*
X67000000Y36000000D03*
X65000000Y33200000D03*
X67000000Y33200000D03*
X70000000Y39000000D03*
X72000000Y39000000D03*
X69000000Y32900000D03*
X71000000Y32900000D03*
X87000000Y35000000D03*
X89000000Y35000000D03*
X92000000Y35000000D03*
X94000000Y35000000D03*
X97000000Y35000000D03*
X99000000Y35000000D03*
X104000000Y6000000D03*
X106000000Y6000000D03*
X98000000Y6000000D03*
X100000000Y6000000D03*
X92000000Y6000000D03*
X94000000Y6000000D03*
D32*
X86000000Y6950000D03*
X86000000Y5050000D03*
X88000000Y6000000D03*
D25*
X106000000Y35000000D03*
X108000000Y35000000D03*
X107000000Y46000000D03*
X109000000Y46000000D03*
D32*
X111000000Y36950000D03*
X111000000Y35050000D03*
X113000000Y36000000D03*
D25*
X112000000Y6000000D03*
X114000000Y6000000D03*
D32*
X76000000Y6950000D03*
X76000000Y5050000D03*
X78000000Y6000000D03*
X70000000Y6950000D03*
X70000000Y5050000D03*
X72000000Y6000000D03*
X64000000Y6950000D03*
X64000000Y5050000D03*
X66000000Y6000000D03*
M02*
