G04 PROVISIONAL - MODULE FOOTPRINTS ESTIMATED - NOT RELEASED FOR FABRICATION*
%TF.GenerationSoftware,OpenAI,ELC-Native-Writer,1.0*%
%TF.FileFunction,Copper,2,Inr*%
%TF.FilePolarity,Positive*%
%FSLAX46Y46*%
%MOMM*%
%LPD*%
%ADD10R,6.8000X5.6000*%
%ADD11R,28.9000X0.4000*%
%ADD12R,29.2000X0.4000*%
%ADD13R,5.2000X5.1000*%
%ADD14R,11.2000X0.1000*%
%ADD15R,0.4000X2.7000*%
%ADD16R,49.6000X0.9000*%
%ADD17R,11.1000X0.2000*%
%ADD18R,11.0000X0.4000*%
%ADD19R,26.1000X0.1000*%
%ADD20R,2.4000X0.1000*%
%ADD21R,26.4000X0.1000*%
%ADD22R,2.4000X0.1000*%
%ADD23R,25.9000X0.1000*%
%ADD24R,2.2000X0.1000*%
%ADD25R,26.2000X0.1000*%
%ADD26R,2.2000X0.1000*%
%ADD27R,25.8000X0.2000*%
%ADD28R,2.1000X0.2000*%
%ADD29R,26.1000X0.2000*%
%ADD30R,2.1000X0.2000*%
%ADD31R,25.7000X0.4000*%
%ADD32R,2.0000X0.4000*%
%ADD33R,26.0000X0.4000*%
%ADD34R,0.1000X0.1000*%
%ADD35R,8.4000X0.1000*%
%ADD36R,0.9000X4.7000*%
%ADD37R,0.2000X0.1000*%
%ADD38R,49.1000X0.1000*%
%ADD39R,8.2000X0.1000*%
%ADD40R,48.9000X0.1000*%
%ADD41R,8.1000X0.2000*%
%ADD42R,42.0000X0.1000*%
%ADD43R,41.9000X0.2000*%
%ADD44R,8.0000X0.4000*%
%ADD45R,25.9000X2.3000*%
%ADD46R,2.2000X1.0000*%
%ADD47R,26.2000X2.3000*%
%ADD48R,2.2000X1.0000*%
%ADD49R,41.8000X2.5000*%
%ADD50R,4.1000X0.1000*%
%ADD51R,3.9000X0.1000*%
%ADD52R,11.2000X2.7000*%
%ADD53R,3.8000X0.2000*%
%ADD54R,3.7000X0.4000*%
%ADD55R,1.4000X0.1000*%
%ADD56R,0.4000X0.1000*%
%ADD57R,1.4000X0.1000*%
%ADD58R,0.4000X0.1000*%
%ADD59R,1.2000X0.1000*%
%ADD60R,0.2000X0.1000*%
%ADD61R,1.2000X0.1000*%
%ADD62R,0.6000X0.1000*%
%ADD63R,0.1000X0.2000*%
%ADD64R,0.6000X0.1000*%
%ADD65R,0.1000X0.2000*%
%ADD66R,0.5000X0.2000*%
%ADD67R,0.5000X0.1000*%
%ADD68R,0.4000X3.8000*%
%ADD69R,0.4000X3.8000*%
%ADD70R,3.4000X0.1000*%
%ADD71R,3.6000X0.1000*%
%ADD72R,8.1000X6.0000*%
%ADD73R,0.9000X1.5000*%
%ADD74R,0.9000X1.5000*%
%ADD75R,21.8000X0.1000*%
%ADD76R,3.6000X0.1000*%
%ADD77R,22.1000X0.1000*%
%ADD78R,3.6000X0.1000*%
%ADD79R,21.6000X0.2000*%
%ADD80R,3.4000X0.2000*%
%ADD81R,21.9000X0.2000*%
%ADD82R,3.4000X0.2000*%
%ADD83R,9.6000X0.1000*%
%ADD84R,31.8000X0.1000*%
%ADD85R,21.5000X0.5000*%
%ADD86R,3.3000X0.5000*%
%ADD87R,21.8000X0.5000*%
%ADD88R,3.3000X0.5000*%
%ADD89R,9.4000X0.1000*%
%ADD90R,31.6000X0.1000*%
%ADD91R,9.3000X0.2000*%
%ADD92R,31.5000X0.2000*%
%ADD93R,9.2000X0.4000*%
%ADD94R,31.4000X0.4000*%
%ADD95R,25.9000X0.6000*%
%ADD96R,26.2000X0.3000*%
%ADD97R,11.0000X0.1000*%
%ADD98R,10.8000X0.1000*%
%ADD99R,9.4000X4.0000*%
%ADD100R,31.6000X3.3000*%
%ADD101R,10.7000X0.1000*%
%ADD102R,0.8000X0.2000*%
%ADD103R,26.1000X0.2000*%
%ADD104R,5.1000X0.2000*%
%ADD105R,10.6000X0.1000*%
%ADD106R,10.5000X0.2000*%
%ADD107R,0.7000X0.4000*%
%ADD108R,26.0000X0.1000*%
%ADD109R,0.7000X0.4000*%
%ADD110R,5.0000X0.4000*%
%ADD111R,20.9000X0.1000*%
%ADD112R,4.7000X0.1000*%
%ADD113R,21.0000X0.1000*%
%ADD114R,4.7000X0.1000*%
%ADD115R,10.4000X1.3000*%
%ADD116R,20.7000X0.1000*%
%ADD117R,4.5000X0.1000*%
%ADD118R,20.8000X0.1000*%
%ADD119R,4.5000X0.1000*%
%ADD120R,6.7000X0.1000*%
%ADD121R,20.5000X0.1000*%
%ADD122R,4.4000X0.1000*%
%ADD123R,20.7000X0.1000*%
%ADD124R,4.4000X0.1000*%
%ADD125R,6.4000X0.1000*%
%ADD126R,20.1000X0.1000*%
%ADD127R,4.3000X0.6000*%
%ADD128R,20.7000X0.2000*%
%ADD129R,4.3000X0.6000*%
%ADD130R,6.2000X0.1000*%
%ADD131R,19.9000X0.1000*%
%ADD132R,6.1000X0.1000*%
%ADD133R,19.8000X0.1000*%
%ADD134R,0.9000X0.1000*%
%ADD135R,20.8000X0.1000*%
%ADD136R,0.9000X0.1000*%
%ADD137R,5.2000X0.1000*%
%ADD138R,6.0000X0.1000*%
%ADD139R,19.7000X0.1000*%
%ADD140R,1.1000X0.1000*%
%ADD141R,5.4000X0.1000*%
%ADD142R,5.9000X0.1000*%
%ADD143R,19.6000X0.1000*%
%ADD144R,22.5000X0.2000*%
%ADD145R,6.9000X1.8000*%
%ADD146R,5.8000X0.1000*%
%ADD147R,19.5000X0.1000*%
%ADD148R,5.7000X0.1000*%
%ADD149R,19.5000X0.1000*%
%ADD150R,4.4000X1.2000*%
%ADD151R,22.6000X1.6000*%
%ADD152R,4.4000X1.2000*%
%ADD153R,5.6000X0.2000*%
%ADD154R,19.4000X0.2000*%
%ADD155R,1.1000X1.4000*%
%ADD156R,5.5000X0.2000*%
%ADD157R,19.3000X0.2000*%
%ADD158R,0.3000X0.1000*%
%ADD159R,5.1000X0.1000*%
%ADD160R,4.8000X0.1000*%
%ADD161R,5.4000X0.4000*%
%ADD162R,19.2000X0.4000*%
%ADD163R,0.1000X0.2000*%
%ADD164R,4.9000X0.2000*%
%ADD165R,4.6000X0.2000*%
%ADD166R,4.8000X0.5000*%
%ADD167R,4.5000X0.5000*%
%ADD168R,5.3000X0.6000*%
%ADD169R,19.1000X0.6000*%
%ADD170R,4.5000X0.1000*%
%ADD171R,4.6000X0.1000*%
%ADD172R,4.6000X0.1000*%
%ADD173R,4.8000X0.1000*%
%ADD174R,5.6000X0.4000*%
%ADD175R,5.6000X0.4000*%
%ADD176R,10.4000X1.9000*%
%ADD177R,2.9000X0.1000*%
%ADD178R,19.4000X0.1000*%
%ADD179R,2.9000X0.1000*%
%ADD180R,3.7000X0.1000*%
%ADD181R,2.7000X0.1000*%
%ADD182R,19.2000X0.1000*%
%ADD183R,2.7000X0.1000*%
%ADD184R,3.5000X0.1000*%
%ADD185R,2.6000X0.1000*%
%ADD186R,13.6000X0.1000*%
%ADD187R,0.3000X0.2000*%
%ADD188R,5.5000X0.6000*%
%ADD189R,2.4000X0.6000*%
%ADD190R,13.5000X0.1000*%
%ADD191R,5.5000X0.6000*%
%ADD192R,3.3000X0.6000*%
%ADD193R,15.6000X0.1000*%
%ADD194R,15.5000X0.1000*%
%ADD195R,13.4000X5.6000*%
%ADD196R,0.2000X0.4000*%
%ADD197R,15.4000X0.2000*%
%ADD198R,15.3000X0.2000*%
%ADD199R,15.3000X0.4000*%
%ADD200R,15.2000X0.4000*%
%ADD201R,19.6000X0.1000*%
%ADD202R,19.7000X0.1000*%
%ADD203R,5.6000X0.1000*%
%ADD204R,5.6000X0.1000*%
%ADD205R,19.8000X0.1000*%
%ADD206R,5.7000X0.1000*%
%ADD207R,2.8000X0.1000*%
%ADD208R,5.0000X0.1000*%
%ADD209R,5.7000X0.1000*%
%ADD210R,2.8000X0.1000*%
%ADD211R,0.4000X1.9000*%
%ADD212R,8.1000X0.1000*%
%ADD213R,6.9000X0.1000*%
%ADD214R,5.9000X0.1000*%
%ADD215R,1.8000X0.1000*%
%ADD216R,5.5000X0.1000*%
%ADD217R,9.3000X0.1000*%
%ADD218R,5.9000X0.1000*%
%ADD219R,3.2000X0.1000*%
%ADD220R,5.2000X0.1000*%
%ADD221R,3.2000X0.1000*%
%ADD222R,7.9000X0.1000*%
%ADD223R,0.7000X0.1000*%
%ADD224R,6.7000X0.1000*%
%ADD225R,5.5000X0.1000*%
%ADD226R,1.7000X0.1000*%
%ADD227R,9.1000X0.1000*%
%ADD228R,20.0000X0.1000*%
%ADD229R,14.9000X10.0000*%
%ADD230R,13.4000X4.8000*%
%ADD231R,8.2000X0.1000*%
%ADD232R,7.8000X0.1000*%
%ADD233R,0.6000X0.2000*%
%ADD234R,6.6000X0.2000*%
%ADD235R,5.3000X0.1000*%
%ADD236R,1.6000X0.1000*%
%ADD237R,9.0000X0.2000*%
%ADD238R,20.2000X0.1000*%
%ADD239R,8.1000X0.1000*%
%ADD240R,7.7000X0.1000*%
%ADD241R,5.2000X0.1000*%
%ADD242R,1.7000X0.1000*%
%ADD243R,5.5000X0.1000*%
%ADD244R,7.6000X0.4000*%
%ADD245R,0.5000X0.4000*%
%ADD246R,6.5000X0.4000*%
%ADD247R,5.1000X0.4000*%
%ADD248R,8.9000X0.4000*%
%ADD249R,28.3000X8.5000*%
%ADD250R,8.3000X0.1000*%
%ADD251R,8.4000X0.1000*%
%ADD252R,8.6000X0.1000*%
%ADD253R,9.6000X0.1000*%
%ADD254R,8.8000X0.1000*%
%ADD255R,9.4000X0.2000*%
%ADD256R,8.9000X0.1000*%
%ADD257R,9.0000X0.1000*%
%ADD258R,8.0000X0.1000*%
%ADD259R,9.3000X0.5000*%
%ADD260R,9.2000X0.1000*%
%ADD261R,19.2000X0.8000*%
%ADD262R,31.6000X2.8000*%
%ADD263R,10.4000X0.1000*%
%ADD264R,0.5000X0.2000*%
%ADD265R,8.6000X0.1000*%
%ADD266R,17.7000X0.1000*%
%ADD267R,1.0000X0.1000*%
%ADD268R,17.5000X0.1000*%
%ADD269R,1.1000X0.2000*%
%ADD270R,0.8000X0.7000*%
%ADD271R,17.4000X0.1000*%
%ADD272R,8.2000X0.1000*%
%ADD273R,0.8000X0.6000*%
%ADD274R,17.3000X0.6000*%
%ADD275R,1.0000X0.4000*%
%ADD276R,8.1000X0.4000*%
%ADD277R,1.2000X3.2000*%
%ADD278R,8.5000X0.1000*%
%ADD279R,8.7000X0.1000*%
%ADD280R,10.2000X3.0000*%
%ADD281R,19.2000X1.6000*%
%ADD282R,27.8000X0.1000*%
%ADD283R,27.6000X0.1000*%
%ADD284R,27.5000X0.2000*%
%ADD285R,27.4000X0.4000*%
%ADD286R,19.3000X0.1000*%
%ADD287R,19.4000X0.1000*%
%ADD288R,8.9000X0.1000*%
%ADD289R,23.2000X0.1000*%
%ADD290R,8.7000X0.1000*%
%ADD291R,23.4000X0.1000*%
%ADD292R,6.9000X0.1000*%
%ADD293R,2.0000X0.2000*%
%ADD294R,4.3000X0.2000*%
%ADD295R,51.6000X0.8000*%
%ADD296R,6.8000X0.1000*%
%ADD297R,6.7000X3.8000*%
%ADD298R,1.8000X0.4000*%
%ADD299R,4.2000X0.4000*%
%ADD300R,6.4000X0.1000*%
%ADD301R,18.4000X0.1000*%
%ADD302R,30.8000X0.1000*%
%ADD303R,18.2000X0.1000*%
%ADD304R,30.6000X0.1000*%
%ADD305R,5.9000X3.0000*%
%ADD306R,11.3000X0.2000*%
%ADD307R,1.0000X0.2000*%
%ADD308R,10.1000X0.2000*%
%ADD309R,18.0000X0.2000*%
%ADD310R,30.5000X0.2000*%
%ADD311R,11.2000X0.4000*%
%ADD312R,0.8000X0.4000*%
%ADD313R,10.0000X0.4000*%
%ADD314R,17.8000X0.4000*%
%ADD315R,30.4000X0.4000*%
%ADD316R,11.4000X0.1000*%
%ADD317R,10.2000X0.1000*%
%ADD318R,11.6000X0.1000*%
%ADD319R,18.6000X0.1000*%
%ADD320R,15.4000X0.8000*%
%ADD321R,62.6000X2.8000*%
%ADD322R,6.2000X0.1000*%
%ADD323R,8.3000X0.2000*%
%ADD324R,6.1000X0.2000*%
%ADD325R,8.2000X0.4000*%
%ADD326R,6.0000X0.4000*%
%ADD327R,4.8000X0.1000*%
%ADD328R,7.6000X0.1000*%
%ADD329R,8.1000X0.1000*%
%ADD330R,6.6000X0.1000*%
%ADD331R,4.6000X0.1000*%
%ADD332R,7.2000X0.1000*%
%ADD333R,7.7000X0.1000*%
%ADD334R,6.4000X0.1000*%
%ADD335R,4.5000X0.2000*%
%ADD336R,7.0000X0.2000*%
%ADD337R,7.5000X0.2000*%
%ADD338R,6.3000X0.2000*%
%ADD339R,6.6000X0.2000*%
%ADD340R,5.8000X0.2000*%
%ADD341R,15.4000X3.0000*%
%ADD342R,4.4000X0.4000*%
%ADD343R,6.8000X0.4000*%
%ADD344R,7.3000X0.4000*%
%ADD345R,6.2000X0.4000*%
%ADD346R,5.7000X0.4000*%
%ADD347R,6.7000X0.1000*%
%ADD348R,5.9000X0.1000*%
%ADD349R,39.4000X0.1000*%
%ADD350R,11.8000X0.1000*%
%ADD351R,6.1000X0.1000*%
%ADD352R,39.2000X0.1000*%
%ADD353R,28.3000X3.6000*%
%ADD354R,14.8000X0.2000*%
%ADD355R,13.3000X0.2000*%
%ADD356R,39.1000X0.2000*%
%ADD357R,10.0000X0.2000*%
%ADD358R,11.5000X0.2000*%
%ADD359R,14.7000X0.4000*%
%ADD360R,13.2000X0.4000*%
%ADD361R,39.0000X0.4000*%
%ADD362R,9.8000X0.4000*%
%ADD363R,11.4000X0.4000*%
%ADD364R,14.9000X0.1000*%
%ADD365R,13.4000X0.1000*%
%ADD366R,39.2000X1.8000*%
%ADD367R,15.1000X0.1000*%
%ADD368R,29.1000X2.6000*%
%ADD369R,22.6000X4.1000*%
%ADD370R,11.1000X0.1000*%
%ADD371R,11.0000X0.1000*%
%ADD372R,10.7000X0.1000*%
%ADD373R,10.5000X0.1000*%
%ADD374R,10.3000X0.1000*%
%ADD375R,1.3000X0.1000*%
%ADD376R,1.9000X0.1000*%
%ADD377R,1.9000X0.1000*%
%ADD378R,0.6000X0.1000*%
%ADD379R,1.8000X0.1000*%
%ADD380R,1.8000X0.1000*%
%ADD381R,10.2000X0.1000*%
%ADD382R,1.4000X0.1000*%
%ADD383R,0.3000X0.1000*%
%ADD384R,0.3000X0.1000*%
%ADD385R,10.0000X0.1000*%
%ADD386R,1.1000X0.1000*%
%ADD387R,1.1000X0.1000*%
%ADD388R,9.8000X0.1000*%
%ADD389R,0.8000X0.1000*%
%ADD390R,0.9000X0.1000*%
%ADD391R,0.8000X0.1000*%
%ADD392R,9.7000X0.1000*%
%ADD393R,0.7000X0.2000*%
%ADD394R,0.7000X0.1000*%
%ADD395R,9.6000X0.2000*%
%ADD396R,0.6000X0.1000*%
%ADD397R,0.6000X0.2000*%
%ADD398R,0.4000X0.2000*%
%ADD399R,0.4000X0.2000*%
%ADD400R,9.5000X0.2000*%
%ADD401R,0.3000X0.3000*%
%ADD402R,0.3000X0.2000*%
%ADD403R,0.3000X0.3000*%
%ADD404R,0.5000X0.8000*%
%ADD405R,0.2000X0.8000*%
%ADD406R,0.2000X0.8000*%
%ADD407R,9.4000X0.8000*%
%ADD408R,0.2000X0.6000*%
%ADD409R,5.7000X0.1000*%
%ADD410R,22.0000X0.1000*%
%ADD411R,14.5000X0.1000*%
%ADD412R,14.0000X0.1000*%
%ADD413R,0.2000X0.4000*%
%ADD414R,0.2000X0.4000*%
%ADD415R,5.3000X0.1000*%
%ADD416R,21.6000X0.1000*%
%ADD417R,14.1000X0.1000*%
%ADD418R,5.1000X0.1000*%
%ADD419R,21.4000X0.1000*%
%ADD420R,13.9000X0.1000*%
%ADD421R,21.3000X0.1000*%
%ADD422R,13.8000X0.1000*%
%ADD423R,13.3000X0.1000*%
%ADD424R,21.1000X0.1000*%
%ADD425R,13.6000X0.1000*%
%ADD426R,13.1000X0.1000*%
%ADD427R,0.3000X0.3000*%
%ADD428R,0.3000X0.3000*%
%ADD429R,4.7000X0.1000*%
%ADD430R,21.0000X0.1000*%
%ADD431R,13.5000X0.1000*%
%ADD432R,13.0000X0.1000*%
%ADD433R,0.3000X0.1000*%
%ADD434R,4.6000X0.2000*%
%ADD435R,20.9000X0.2000*%
%ADD436R,13.4000X0.2000*%
%ADD437R,12.9000X0.2000*%
%ADD438R,0.4000X0.1000*%
%ADD439R,0.5000X0.1000*%
%ADD440R,20.8000X0.1000*%
%ADD441R,13.3000X0.1000*%
%ADD442R,12.8000X0.1000*%
%ADD443R,0.7000X0.1000*%
%ADD444R,0.6000X0.1000*%
%ADD445R,4.4000X0.2000*%
%ADD446R,13.2000X0.2000*%
%ADD447R,12.7000X0.2000*%
%ADD448R,0.9000X0.1000*%
%ADD449R,1.0000X0.1000*%
%ADD450R,0.1000X0.1000*%
%ADD451R,0.9000X0.1000*%
%ADD452R,0.9000X0.1000*%
%ADD453R,9.8000X0.1000*%
%ADD454R,4.3000X0.4000*%
%ADD455R,20.6000X0.4000*%
%ADD456R,13.1000X0.4000*%
%ADD457R,12.6000X0.4000*%
%ADD458R,9.9000X0.1000*%
%ADD459R,1.2000X0.1000*%
%ADD460R,1.5000X0.1000*%
%ADD461R,1.6000X0.1000*%
%ADD462R,10.1000X0.1000*%
%ADD463R,2.3000X0.1000*%
%ADD464R,2.3000X0.1000*%
%ADD465R,10.1000X12.2000*%
%ADD466R,39.7000X0.1000*%
%ADD467R,4.2000X0.6000*%
%ADD468R,20.5000X0.6000*%
%ADD469R,13.0000X0.6000*%
%ADD470R,12.5000X0.6000*%
%ADD471R,1.6000X12.6000*%
%ADD472R,39.8000X0.1000*%
%ADD473R,20.5000X0.1000*%
%ADD474R,39.9000X0.1000*%
%ADD475R,20.1000X0.1000*%
%ADD476R,40.0000X0.1000*%
%ADD477R,1.3000X0.1000*%
%ADD478R,19.9000X0.1000*%
%ADD479R,40.1000X0.1000*%
%ADD480R,40.3000X0.1000*%
%ADD481R,41.9000X10.7000*%
%ADD482R,19.6000X0.2000*%
%ADD483R,0.9000X0.3000*%
%ADD484R,19.5000X0.4000*%
%ADD485R,19.4000X0.3000*%
%ADD486R,19.5000X0.3000*%
%ADD487R,0.9000X0.2000*%
%ADD488R,19.6000X0.2000*%
%ADD489R,19.8000X0.1000*%
%ADD490R,28.3000X11.8000*%
%ADD491R,29.1000X10.5000*%
%ADD492R,20.3000X0.1000*%
%ADD493R,22.6000X0.2000*%
%ADD494R,16.8000X0.1000*%
%ADD495R,16.6000X0.1000*%
%ADD496R,4.8000X0.1000*%
%ADD497R,16.5000X0.1000*%
%ADD498R,16.4000X0.1000*%
%ADD499R,16.3000X0.1000*%
%ADD500R,4.4000X0.2000*%
%ADD501R,16.2000X0.2000*%
%ADD502R,4.3000X0.2000*%
%ADD503R,16.1000X0.1000*%
%ADD504R,3.1000X0.1000*%
%ADD505R,4.2000X0.7000*%
%ADD506R,3.0000X0.2000*%
%ADD507R,2.9000X1.4000*%
%ADD508R,12.3000X0.1000*%
%ADD509R,12.4000X0.1000*%
%ADD510R,4.4000X0.2000*%
%ADD511R,12.5000X0.2000*%
%ADD512R,4.5000X0.1000*%
%ADD513R,12.6000X0.1000*%
%ADD514R,4.7000X0.1000*%
%ADD515R,13.0000X0.1000*%
%ADD516R,4.9000X0.1000*%
%ADD517R,18.8000X0.2000*%
%ADD518R,1.7000X0.1000*%
%ADD519R,13.2000X0.1000*%
%ADD520R,5.1000X0.1000*%
%ADD521R,12.9000X0.1000*%
%ADD522R,0.2000X0.1000*%
%ADD523R,12.7000X0.1000*%
%ADD524R,4.7000X0.1000*%
%ADD525R,1.2000X0.1000*%
%ADD526R,0.1000X0.1000*%
%ADD527R,12.6000X0.1000*%
%ADD528R,4.6000X0.1000*%
%ADD529R,1.1000X0.1000*%
%ADD530R,12.5000X0.1000*%
%ADD531R,1.0000X0.1000*%
%ADD532R,12.4000X0.2000*%
%ADD533R,4.4000X0.1000*%
%ADD534R,0.9000X0.3000*%
%ADD535R,4.3000X0.3000*%
%ADD536R,12.3000X0.1000*%
%ADD537R,3.1000X0.1000*%
%ADD538R,3.0000X0.1000*%
%ADD539R,4.2000X0.6000*%
%ADD540R,2.9000X3.5000*%
%ADD541R,8.6000X0.1000*%
%ADD542R,8.7000X0.2000*%
%ADD543R,8.8000X0.1000*%
%ADD544R,8.9000X0.1000*%
%ADD545R,9.0000X0.1000*%
%ADD546R,1.4000X0.1000*%
%ADD547R,0.4000X0.1000*%
%ADD548R,9.2000X0.1000*%
%ADD549R,4.8000X0.1000*%
%ADD550R,1.7000X0.1000*%
%ADD551R,0.7000X0.1000*%
%ADD552R,9.5000X0.1000*%
%ADD553R,5.1000X0.1000*%
%ADD554R,2.9000X0.2000*%
%ADD555R,15.1000X12.3000*%
%ADD556R,1.5000X0.1000*%
%ADD557R,1.0000X0.2000*%
%ADD558R,0.8000X0.7000*%
%ADD559R,0.9000X0.2000*%
%ADD560R,1.1000X0.1000*%
%ADD561R,3.0000X0.2000*%
%ADD562R,1.2000X0.1000*%
%ADD563R,3.1000X0.1000*%
%ADD564R,1.6000X0.1000*%
%ADD565R,3.2000X0.1000*%
%ADD566R,3.3000X0.1000*%
%ADD567R,1.7000X2.7000*%
%ADD568R,3.4000X0.1000*%
%ADD569R,3.5000X0.1000*%
%ADD570R,3.8000X0.1000*%
%ADD571R,4.0000X0.1000*%
%ADD572R,4.1000X0.1000*%
%ADD573R,4.2000X9.1000*%
%ADD574R,7.6000X0.1000*%
%ADD575R,33.9000X0.1000*%
%ADD576R,7.4000X0.1000*%
%ADD577R,33.7000X0.1000*%
%ADD578R,7.3000X0.2000*%
%ADD579R,33.6000X0.2000*%
%ADD580R,7.2000X0.4000*%
%ADD581R,33.5000X0.4000*%
%ADD582R,33.6000X0.1000*%
%ADD583R,6.1000X0.1000*%
%ADD584R,19.9000X0.1000*%
%ADD585R,5.7000X0.1000*%
%ADD586R,5.5000X0.1000*%
%ADD587R,19.9000X0.1000*%
%ADD588R,5.3000X0.1000*%
%ADD589R,27.6000X0.1000*%
%ADD590R,5.1000X0.1000*%
%ADD591R,27.5000X0.1000*%
%ADD592R,29.2000X0.2000*%
%ADD593R,5.0000X0.1000*%
%ADD594R,1.7000X0.1000*%
%ADD595R,27.4000X0.1000*%
%ADD596R,2.2000X0.1000*%
%ADD597R,0.8000X0.1000*%
%ADD598R,0.7000X0.1000*%
%ADD599R,2.3000X0.1000*%
%ADD600R,2.2000X0.1000*%
%ADD601R,29.3000X0.1000*%
%ADD602R,1.6000X0.1000*%
%ADD603R,1.6000X0.1000*%
%ADD604R,0.4000X0.1000*%
%ADD605R,29.5000X0.1000*%
%ADD606R,0.2000X0.1000*%
%ADD607R,1.2000X0.1000*%
%ADD608R,0.3000X0.1000*%
%ADD609R,0.6000X0.1000*%
%ADD610R,2.0000X0.1000*%
%ADD611R,30.9000X0.1000*%
%ADD612R,7.2000X0.1000*%
%ADD613R,30.8000X0.1000*%
%ADD614R,0.8000X0.1000*%
%ADD615R,0.7000X0.1000*%
%ADD616R,0.8000X0.1000*%
%ADD617R,3.3000X0.1000*%
%ADD618R,7.1000X0.1000*%
%ADD619R,30.7000X0.1000*%
%ADD620R,3.2000X0.1000*%
%ADD621R,7.0000X0.1000*%
%ADD622R,30.6000X0.1000*%
%ADD623R,6.9000X0.2000*%
%ADD624R,0.4000X0.1000*%
%ADD625R,0.3000X0.3000*%
%ADD626R,0.3000X0.3000*%
%ADD627R,0.4000X0.1000*%
%ADD628R,2.9000X0.1000*%
%ADD629R,2.8000X0.8000*%
%ADD630R,6.8000X0.8000*%
%ADD631R,0.2000X0.6000*%
%ADD632R,0.2000X0.4000*%
%ADD633R,0.2000X0.4000*%
%ADD634R,28.4000X0.2000*%
%ADD635R,28.5000X0.1000*%
%ADD636R,59.7000X0.1000*%
%ADD637R,0.3000X0.2000*%
%ADD638R,0.3000X0.2000*%
%ADD639R,59.8000X0.2000*%
%ADD640R,2.9000X0.1000*%
%ADD641R,3.0000X0.1000*%
%ADD642R,59.9000X0.2000*%
%ADD643R,7.0000X0.2000*%
%ADD644R,3.2000X0.1000*%
%ADD645R,60.0000X0.1000*%
%ADD646R,0.8000X0.1000*%
%ADD647R,3.4000X0.1000*%
%ADD648R,7.1000X0.1000*%
%ADD649R,60.1000X0.1000*%
%ADD650R,1.1000X0.1000*%
%ADD651R,1.1000X0.1000*%
%ADD652R,3.6000X0.1000*%
%ADD653R,60.3000X0.1000*%
%ADD654R,1.4000X0.1000*%
%ADD655R,1.4000X0.1000*%
%ADD656R,1.4000X0.1000*%
%ADD657R,4.0000X0.1000*%
%ADD658R,7.4000X4.1000*%
%ADD659R,60.5000X0.1000*%
%ADD660R,4.4000X0.1000*%
%ADD661R,70.6000X4.6000*%
%ADD662R,36.3000X0.1000*%
%ADD663R,36.4000X0.1000*%
%ADD664R,36.5000X0.1000*%
%ADD665R,36.7000X0.2000*%
%ADD666R,36.8000X0.1000*%
%ADD667R,37.4000X3.9000*%
%ADD668R,5.8000X0.1000*%
%ADD669R,5.7000X0.1000*%
%ADD670R,5.6000X0.2000*%
%ADD671R,5.5000X0.3000*%
%ADD672R,37.5000X0.1000*%
%ADD673R,64.8000X0.1000*%
%ADD674R,5.4000X0.1000*%
%ADD675R,31.4000X0.1000*%
%ADD676R,5.6000X0.1000*%
%ADD677R,64.6000X0.1000*%
%ADD678R,5.2000X0.1000*%
%ADD679R,31.2000X0.1000*%
%ADD680R,5.4000X0.1000*%
%ADD681R,4.1000X0.1000*%
%ADD682R,4.9000X0.1000*%
%ADD683R,64.5000X0.2000*%
%ADD684R,5.0000X0.2000*%
%ADD685R,31.0000X0.2000*%
%ADD686R,5.7000X0.1000*%
%ADD687R,3.6000X0.1000*%
%ADD688R,8.7000X0.1000*%
%ADD689R,4.7000X0.1000*%
%ADD690R,7.2000X0.1000*%
%ADD691R,8.4000X0.1000*%
%ADD692R,64.4000X0.4000*%
%ADD693R,4.8000X0.4000*%
%ADD694R,30.8000X0.4000*%
%ADD695R,12.8000X0.1000*%
%ADD696R,8.1000X0.1000*%
%ADD697R,2.8000X0.1000*%
%ADD698R,7.9000X0.1000*%
%ADD699R,4.3000X0.1000*%
%ADD700R,12.6000X0.1000*%
%ADD701R,2.7000X0.1000*%
%ADD702R,4.2000X0.1000*%
%ADD703R,12.5000X0.1000*%
%ADD704R,2.5000X0.1000*%
%ADD705R,7.6000X0.1000*%
%ADD706R,12.5000X0.2000*%
%ADD707R,2.4000X0.1000*%
%ADD708R,7.5000X0.1000*%
%ADD709R,4.0000X0.3000*%
%ADD710R,2.3000X0.1000*%
%ADD711R,7.4000X0.1000*%
%ADD712R,12.6000X0.1000*%
%ADD713R,2.2000X0.2000*%
%ADD714R,7.3000X0.2000*%
%ADD715R,31.6000X0.1000*%
%ADD716R,3.9000X1.0000*%
%ADD717R,115.9000X0.9000*%
%ADD718R,2.1000X0.2000*%
%ADD719R,7.2000X0.1000*%
%ADD720R,7.1000X0.6000*%
%ADD721R,116.0000X0.3000*%
%ADD722R,116.1000X0.1000*%
%ADD723R,116.2000X0.1000*%
%ADD724R,116.3000X0.1000*%
%ADD725R,116.4000X0.1000*%
%ADD726R,116.5000X0.1000*%
%ADD727R,116.7000X0.1000*%
%ADD728R,116.9000X0.1000*%
%ADD729R,138.0000X2.5000*%
%ADD730C,18.0000*%
%ADD731C,3.3000*%
%ADD732C,10.0000*%
%ADD733C,1.8000*%
%ADD734C,3.0000*%
%ADD735C,2.5000*%
%ADD736C,0.8000*%
%ADD737C,0.6000*%
%ADD738C,0.2500*%
G01*
D10*
X4400000Y47700000D03*
D11*
X23150000Y50300000D03*
D12*
X53000000Y50300000D03*
D13*
X71000000Y47950000D03*
D14*
X80000000Y50450000D03*
D15*
X88400000Y49150000D03*
D16*
X114200000Y50050000D03*
D17*
X79950000Y50300000D03*
D18*
X79900000Y50000000D03*
D19*
X21750000Y50050000D03*
D20*
X36400000Y50050000D03*
D21*
X51600000Y50050000D03*
D22*
X66400000Y50050000D03*
D23*
X21650000Y49950000D03*
D24*
X36500000Y49950000D03*
D25*
X51500000Y49950000D03*
D26*
X66500000Y49950000D03*
D27*
X21600000Y49800000D03*
D28*
X36550000Y49800000D03*
D29*
X51450000Y49800000D03*
D30*
X66550000Y49800000D03*
D17*
X79950000Y49700000D03*
D31*
X21550000Y49500000D03*
D32*
X36600000Y49500000D03*
D33*
X51400000Y49500000D03*
D32*
X66600000Y49500000D03*
D34*
X87250000Y49650000D03*
D35*
X78600000Y49550000D03*
D22*
X84400000Y49550000D03*
D36*
X86850000Y47250000D03*
D37*
X89500000Y49550000D03*
D38*
X114450000Y49550000D03*
D39*
X78500000Y49450000D03*
D26*
X84500000Y49450000D03*
D40*
X114550000Y49450000D03*
D41*
X78450000Y49300000D03*
D30*
X84550000Y49300000D03*
D42*
X118000000Y49350000D03*
D27*
X21600000Y49200000D03*
D28*
X36550000Y49200000D03*
D29*
X51450000Y49200000D03*
D30*
X66550000Y49200000D03*
D43*
X118050000Y49200000D03*
D44*
X78400000Y49000000D03*
D32*
X84600000Y49000000D03*
D45*
X21650000Y47950000D03*
D46*
X36500000Y48600000D03*
D47*
X51500000Y47950000D03*
D48*
X66500000Y48600000D03*
D49*
X118100000Y47850000D03*
D41*
X78450000Y48700000D03*
D30*
X84550000Y48700000D03*
D39*
X78500000Y48550000D03*
D26*
X84500000Y48550000D03*
D50*
X94250000Y48550000D03*
D35*
X78600000Y48450000D03*
D22*
X84400000Y48450000D03*
D51*
X94350000Y48450000D03*
D52*
X80000000Y47050000D03*
D53*
X94400000Y48300000D03*
D54*
X94450000Y48000000D03*
D55*
X36100000Y48050000D03*
D56*
X37400000Y48050000D03*
D57*
X66100000Y48050000D03*
D58*
X67400000Y48050000D03*
D59*
X36000000Y47950000D03*
D60*
X37500000Y47950000D03*
D61*
X66000000Y47950000D03*
D37*
X67500000Y47950000D03*
D62*
X35700000Y47850000D03*
D63*
X37550000Y47800000D03*
D64*
X65700000Y47850000D03*
D65*
X67550000Y47800000D03*
D66*
X35650000Y47700000D03*
X65650000Y47700000D03*
D67*
X88450000Y47750000D03*
D53*
X94400000Y47700000D03*
D64*
X88500000Y47650000D03*
D68*
X35600000Y45700000D03*
D69*
X65600000Y45700000D03*
D70*
X89900000Y47550000D03*
D51*
X94350000Y47550000D03*
D71*
X90000000Y47450000D03*
D50*
X94250000Y47450000D03*
D72*
X92250000Y44400000D03*
D63*
X37550000Y47200000D03*
D65*
X67550000Y47200000D03*
D60*
X37500000Y47050000D03*
D37*
X67500000Y47050000D03*
D34*
X36750000Y46950000D03*
D56*
X37400000Y46950000D03*
D34*
X66750000Y46950000D03*
D58*
X67400000Y46950000D03*
D73*
X37150000Y46150000D03*
D74*
X67150000Y46150000D03*
D75*
X19600000Y46750000D03*
D76*
X32800000Y46750000D03*
D77*
X49450000Y46750000D03*
D78*
X62800000Y46750000D03*
D79*
X19500000Y46600000D03*
D80*
X32900000Y46600000D03*
D81*
X49350000Y46600000D03*
D82*
X62900000Y46600000D03*
D83*
X102000000Y46550000D03*
D84*
X123100000Y46550000D03*
D85*
X19450000Y46250000D03*
D86*
X32950000Y46250000D03*
D87*
X49300000Y46250000D03*
D88*
X62950000Y46250000D03*
D89*
X101900000Y46450000D03*
D90*
X123200000Y46450000D03*
D91*
X101850000Y46300000D03*
D92*
X123250000Y46300000D03*
D93*
X101800000Y46000000D03*
D94*
X123300000Y46000000D03*
D79*
X19500000Y45900000D03*
D80*
X32900000Y45900000D03*
D81*
X49350000Y45900000D03*
D82*
X62900000Y45900000D03*
D75*
X19600000Y45750000D03*
D76*
X32800000Y45750000D03*
D77*
X49450000Y45750000D03*
D78*
X62800000Y45750000D03*
D91*
X101850000Y45700000D03*
D92*
X123250000Y45700000D03*
D95*
X21650000Y45400000D03*
D96*
X51500000Y45550000D03*
D97*
X79900000Y45650000D03*
D98*
X79800000Y45550000D03*
D99*
X101900000Y43600000D03*
D100*
X123200000Y43950000D03*
D101*
X79750000Y45450000D03*
D102*
X37100000Y45300000D03*
D103*
X51550000Y45300000D03*
D102*
X67100000Y45300000D03*
D104*
X71050000Y45300000D03*
D105*
X79700000Y45350000D03*
D106*
X79650000Y45200000D03*
D107*
X37050000Y45000000D03*
D108*
X51600000Y45150000D03*
D109*
X67050000Y45000000D03*
D110*
X71100000Y45000000D03*
D111*
X19150000Y45050000D03*
D112*
X32250000Y45050000D03*
D113*
X49100000Y45050000D03*
D114*
X62250000Y45050000D03*
D115*
X79600000Y44450000D03*
D116*
X19050000Y44950000D03*
D117*
X32350000Y44950000D03*
D118*
X49000000Y44950000D03*
D119*
X62350000Y44950000D03*
D120*
X4350000Y44850000D03*
D121*
X19050000Y44850000D03*
D122*
X32400000Y44850000D03*
D123*
X48950000Y44850000D03*
D124*
X62400000Y44850000D03*
D102*
X86900000Y44800000D03*
D125*
X4200000Y44750000D03*
D126*
X19150000Y44750000D03*
D127*
X32450000Y44500000D03*
D102*
X37100000Y44700000D03*
D128*
X48850000Y44700000D03*
D129*
X62450000Y44500000D03*
D102*
X67100000Y44700000D03*
D104*
X71050000Y44700000D03*
D130*
X4100000Y44650000D03*
D131*
X19250000Y44650000D03*
D109*
X86950000Y44500000D03*
D132*
X4050000Y44550000D03*
D133*
X19300000Y44550000D03*
D134*
X37150000Y44550000D03*
D135*
X48800000Y44550000D03*
D136*
X67150000Y44550000D03*
D137*
X71000000Y44550000D03*
D138*
X4000000Y44450000D03*
D139*
X19350000Y44450000D03*
D140*
X37250000Y44450000D03*
D113*
X48700000Y44450000D03*
D140*
X67250000Y44450000D03*
D141*
X70900000Y44450000D03*
D142*
X3950000Y44350000D03*
D143*
X19400000Y44350000D03*
D144*
X47950000Y44300000D03*
D145*
X70150000Y43500000D03*
D146*
X3900000Y44250000D03*
D147*
X19450000Y44250000D03*
D102*
X86900000Y44200000D03*
D148*
X3850000Y44150000D03*
D149*
X19550000Y44150000D03*
D150*
X32400000Y43600000D03*
D151*
X48000000Y43400000D03*
D152*
X62400000Y43600000D03*
D153*
X3800000Y44000000D03*
D154*
X19600000Y44000000D03*
D136*
X86850000Y44050000D03*
D155*
X86750000Y43300000D03*
D156*
X3750000Y43800000D03*
D157*
X19650000Y43800000D03*
D158*
X35650000Y43750000D03*
X65650000Y43750000D03*
D159*
X76950000Y43750000D03*
D160*
X82400000Y43750000D03*
D161*
X3700000Y43500000D03*
D162*
X19700000Y43500000D03*
D163*
X35750000Y43600000D03*
X65750000Y43600000D03*
D164*
X76850000Y43600000D03*
D165*
X82500000Y43600000D03*
D166*
X76800000Y43250000D03*
D167*
X82550000Y43250000D03*
D168*
X3650000Y43000000D03*
D169*
X19750000Y43000000D03*
D170*
X32450000Y42950000D03*
D163*
X35750000Y42900000D03*
D117*
X62450000Y42950000D03*
D163*
X65750000Y42900000D03*
D164*
X76850000Y42900000D03*
D165*
X82500000Y42900000D03*
D171*
X32500000Y42850000D03*
D172*
X62500000Y42850000D03*
D173*
X32600000Y42750000D03*
D158*
X35650000Y42750000D03*
D160*
X62600000Y42750000D03*
D158*
X65650000Y42750000D03*
D159*
X76950000Y42750000D03*
D160*
X82400000Y42750000D03*
D161*
X3700000Y42500000D03*
D162*
X19700000Y42500000D03*
D174*
X33000000Y42500000D03*
D175*
X63000000Y42500000D03*
D176*
X79600000Y41750000D03*
D177*
X38150000Y42550000D03*
D178*
X49600000Y42550000D03*
D179*
X68150000Y42550000D03*
D180*
X71750000Y42550000D03*
D64*
X86500000Y42550000D03*
D34*
X87250000Y42550000D03*
D181*
X38050000Y42450000D03*
D182*
X49700000Y42450000D03*
D183*
X68050000Y42450000D03*
D184*
X71850000Y42450000D03*
D58*
X86400000Y42450000D03*
D185*
X38000000Y42350000D03*
D186*
X52500000Y42350000D03*
D185*
X68000000Y42350000D03*
D70*
X71900000Y42350000D03*
D187*
X86350000Y42300000D03*
D156*
X3750000Y42200000D03*
D157*
X19650000Y42200000D03*
D188*
X32950000Y42000000D03*
D189*
X38000000Y42000000D03*
D190*
X52550000Y42250000D03*
D191*
X62950000Y42000000D03*
D189*
X68000000Y42000000D03*
D192*
X71950000Y42000000D03*
D193*
X115200000Y42250000D03*
D194*
X131250000Y42250000D03*
D195*
X52600000Y39400000D03*
D196*
X86300000Y42000000D03*
D197*
X115100000Y42100000D03*
D198*
X131350000Y42100000D03*
D153*
X3800000Y42000000D03*
D154*
X19600000Y42000000D03*
D199*
X115050000Y41800000D03*
D200*
X131400000Y41800000D03*
D148*
X3850000Y41850000D03*
D149*
X19550000Y41850000D03*
D146*
X3900000Y41750000D03*
D201*
X19500000Y41750000D03*
D187*
X86350000Y41700000D03*
D142*
X3950000Y41650000D03*
D202*
X19450000Y41650000D03*
D203*
X33000000Y41650000D03*
D185*
X38000000Y41650000D03*
D204*
X63000000Y41650000D03*
D185*
X68000000Y41650000D03*
D70*
X71900000Y41650000D03*
D138*
X4000000Y41550000D03*
D205*
X19400000Y41550000D03*
D206*
X33050000Y41550000D03*
D207*
X38000000Y41550000D03*
D208*
X42600000Y41550000D03*
D209*
X63050000Y41550000D03*
D210*
X68000000Y41550000D03*
D184*
X71850000Y41550000D03*
D211*
X86400000Y40650000D03*
D212*
X101250000Y41550000D03*
D136*
X106150000Y41550000D03*
D213*
X110850000Y41550000D03*
D214*
X117650000Y41550000D03*
D215*
X121800000Y41550000D03*
D216*
X126550000Y41550000D03*
D217*
X134350000Y41550000D03*
D132*
X4050000Y41450000D03*
D131*
X19350000Y41450000D03*
D218*
X33150000Y41450000D03*
D219*
X38000000Y41450000D03*
D220*
X42500000Y41450000D03*
D214*
X63150000Y41450000D03*
D221*
X68000000Y41450000D03*
D180*
X71750000Y41450000D03*
D222*
X101150000Y41450000D03*
D223*
X106250000Y41450000D03*
D224*
X110750000Y41450000D03*
D225*
X117650000Y41450000D03*
D226*
X121950000Y41450000D03*
D141*
X126400000Y41450000D03*
D227*
X134450000Y41450000D03*
D130*
X4100000Y41350000D03*
D228*
X19300000Y41350000D03*
D229*
X37650000Y36400000D03*
D230*
X66900000Y39000000D03*
D231*
X92200000Y41350000D03*
D232*
X101100000Y41350000D03*
D233*
X106300000Y41300000D03*
D234*
X110700000Y41300000D03*
D235*
X117650000Y41350000D03*
D236*
X122000000Y41350000D03*
D235*
X126350000Y41350000D03*
D237*
X134500000Y41300000D03*
D125*
X4200000Y41250000D03*
D238*
X19200000Y41250000D03*
D239*
X92150000Y41250000D03*
D240*
X101150000Y41250000D03*
D241*
X117600000Y41250000D03*
D242*
X122150000Y41250000D03*
D243*
X126250000Y41250000D03*
D120*
X4350000Y41150000D03*
D121*
X19050000Y41150000D03*
D231*
X92100000Y41150000D03*
D244*
X101100000Y41000000D03*
D245*
X106350000Y41000000D03*
D246*
X110650000Y41000000D03*
D247*
X117650000Y41000000D03*
D244*
X125100000Y41000000D03*
D248*
X134550000Y41000000D03*
D249*
X15150000Y36850000D03*
D250*
X92050000Y41050000D03*
D251*
X92000000Y40950000D03*
D252*
X91900000Y40850000D03*
D253*
X79200000Y40750000D03*
D158*
X84650000Y40750000D03*
D254*
X91800000Y40750000D03*
D240*
X101150000Y40750000D03*
D233*
X106300000Y40700000D03*
D234*
X110700000Y40700000D03*
D241*
X117600000Y40750000D03*
D240*
X125150000Y40750000D03*
D237*
X134500000Y40700000D03*
D255*
X79100000Y40600000D03*
D256*
X91850000Y40650000D03*
D232*
X101100000Y40650000D03*
D235*
X117650000Y40650000D03*
D232*
X125100000Y40650000D03*
D257*
X91900000Y40550000D03*
D258*
X101100000Y40550000D03*
D223*
X106250000Y40550000D03*
D224*
X110750000Y40550000D03*
D225*
X117650000Y40550000D03*
D258*
X125100000Y40550000D03*
D227*
X134450000Y40550000D03*
D259*
X79050000Y40250000D03*
D260*
X92000000Y40450000D03*
D35*
X101100000Y40450000D03*
D136*
X106150000Y40450000D03*
D213*
X110850000Y40450000D03*
D214*
X117650000Y40450000D03*
D251*
X125100000Y40450000D03*
D217*
X134350000Y40450000D03*
D261*
X97000000Y40000000D03*
D262*
X123200000Y39000000D03*
D255*
X79100000Y39900000D03*
D253*
X79200000Y39750000D03*
D158*
X84650000Y39750000D03*
D263*
X79600000Y39650000D03*
D264*
X86350000Y39600000D03*
D57*
X75100000Y39550000D03*
D265*
X80500000Y39550000D03*
D61*
X88000000Y39550000D03*
D266*
X97750000Y39550000D03*
D61*
X75000000Y39450000D03*
D35*
X80600000Y39450000D03*
D64*
X86300000Y39450000D03*
D267*
X87900000Y39450000D03*
D268*
X97850000Y39450000D03*
D269*
X74950000Y39300000D03*
D250*
X80650000Y39350000D03*
D270*
X86200000Y39050000D03*
D136*
X87850000Y39350000D03*
D271*
X97900000Y39350000D03*
D272*
X80600000Y39250000D03*
D273*
X87800000Y39000000D03*
D274*
X97950000Y39000000D03*
D275*
X74900000Y39000000D03*
D276*
X80650000Y39000000D03*
D269*
X74950000Y38700000D03*
D272*
X80600000Y38750000D03*
D250*
X80650000Y38650000D03*
D136*
X86150000Y38650000D03*
X87850000Y38650000D03*
D271*
X97900000Y38650000D03*
D277*
X75000000Y37000000D03*
D278*
X80650000Y38550000D03*
D267*
X86100000Y38550000D03*
X87900000Y38550000D03*
D268*
X97850000Y38550000D03*
D279*
X80750000Y38450000D03*
D61*
X86000000Y38450000D03*
X88000000Y38450000D03*
D266*
X97750000Y38450000D03*
D280*
X81500000Y36900000D03*
D281*
X97000000Y37600000D03*
D70*
X109100000Y37550000D03*
D282*
X125100000Y37550000D03*
D221*
X109000000Y37450000D03*
D283*
X125200000Y37450000D03*
D284*
X125250000Y37300000D03*
D285*
X125300000Y37000000D03*
D286*
X97050000Y36750000D03*
D284*
X125250000Y36700000D03*
D287*
X97100000Y36650000D03*
D288*
X50350000Y36550000D03*
D185*
X56500000Y36550000D03*
D140*
X58750000Y36550000D03*
D172*
X62500000Y36550000D03*
D35*
X69400000Y36550000D03*
D289*
X99000000Y36550000D03*
D283*
X125200000Y36550000D03*
D290*
X50250000Y36450000D03*
D24*
X56500000Y36450000D03*
D134*
X58850000Y36450000D03*
D124*
X62400000Y36450000D03*
D39*
X69500000Y36450000D03*
D291*
X99100000Y36450000D03*
D282*
X125100000Y36450000D03*
D292*
X49350000Y36350000D03*
D293*
X56500000Y36300000D03*
D102*
X58900000Y36300000D03*
D294*
X62350000Y36300000D03*
D41*
X69550000Y36300000D03*
D295*
X113200000Y36000000D03*
D296*
X49300000Y36250000D03*
D297*
X49250000Y34300000D03*
D298*
X56500000Y36000000D03*
D107*
X58950000Y36000000D03*
D299*
X62300000Y36000000D03*
D44*
X69600000Y36000000D03*
D293*
X56500000Y35700000D03*
D102*
X58900000Y35700000D03*
D294*
X62350000Y35700000D03*
D41*
X69550000Y35700000D03*
D59*
X54000000Y35550000D03*
D24*
X56500000Y35550000D03*
D134*
X58850000Y35550000D03*
D124*
X62400000Y35550000D03*
D300*
X68600000Y35550000D03*
D57*
X72900000Y35550000D03*
D301*
X96600000Y35550000D03*
D236*
X107000000Y35550000D03*
D302*
X123600000Y35550000D03*
D55*
X54100000Y35450000D03*
D185*
X56500000Y35450000D03*
D140*
X58750000Y35450000D03*
D172*
X62500000Y35450000D03*
D300*
X68400000Y35450000D03*
D61*
X73000000Y35450000D03*
D303*
X96500000Y35450000D03*
D61*
X107000000Y35450000D03*
D304*
X123700000Y35450000D03*
D305*
X56350000Y33900000D03*
D306*
X65850000Y35300000D03*
D307*
X73000000Y35300000D03*
D269*
X75050000Y35300000D03*
D308*
X81450000Y35300000D03*
D309*
X96500000Y35300000D03*
D307*
X107000000Y35300000D03*
D310*
X123750000Y35300000D03*
D311*
X65800000Y35000000D03*
D312*
X73000000Y35000000D03*
D275*
X75100000Y35000000D03*
D313*
X81400000Y35000000D03*
D314*
X96500000Y35000000D03*
D312*
X107000000Y35000000D03*
D315*
X123800000Y35000000D03*
D306*
X65850000Y34700000D03*
D307*
X73000000Y34700000D03*
D269*
X75050000Y34700000D03*
D308*
X81450000Y34700000D03*
D309*
X96500000Y34700000D03*
D307*
X107000000Y34700000D03*
D310*
X123750000Y34700000D03*
D316*
X65900000Y34550000D03*
D61*
X73000000Y34550000D03*
X75000000Y34550000D03*
D317*
X81500000Y34550000D03*
D303*
X96500000Y34550000D03*
D61*
X107000000Y34550000D03*
D304*
X123700000Y34550000D03*
D318*
X66000000Y34450000D03*
D236*
X73000000Y34450000D03*
D57*
X74900000Y34450000D03*
D263*
X81600000Y34450000D03*
D319*
X96500000Y34450000D03*
D236*
X107000000Y34450000D03*
D302*
X123600000Y34450000D03*
D320*
X67900000Y34000000D03*
D321*
X107700000Y33000000D03*
D265*
X64500000Y33550000D03*
D300*
X72400000Y33550000D03*
D35*
X64400000Y33450000D03*
D322*
X72500000Y33450000D03*
D323*
X64350000Y33300000D03*
D324*
X72550000Y33300000D03*
D325*
X64300000Y33000000D03*
D326*
X72600000Y33000000D03*
D323*
X64350000Y32700000D03*
D324*
X72550000Y32700000D03*
D327*
X3400000Y32550000D03*
D328*
X10000000Y32550000D03*
D329*
X18250000Y32550000D03*
D330*
X26000000Y32550000D03*
D35*
X64400000Y32550000D03*
D322*
X72500000Y32550000D03*
D331*
X3300000Y32450000D03*
D332*
X10000000Y32450000D03*
D333*
X18250000Y32450000D03*
D334*
X26100000Y32450000D03*
D265*
X64500000Y32450000D03*
D300*
X72400000Y32450000D03*
D335*
X3250000Y32300000D03*
D336*
X10000000Y32300000D03*
D337*
X18250000Y32300000D03*
D338*
X26150000Y32300000D03*
D339*
X49200000Y32300000D03*
D340*
X56400000Y32300000D03*
D341*
X67900000Y30900000D03*
D342*
X3200000Y32000000D03*
D343*
X10000000Y32000000D03*
D344*
X18250000Y32000000D03*
D345*
X26200000Y32000000D03*
D246*
X49150000Y32000000D03*
D346*
X56450000Y32000000D03*
D335*
X3250000Y31700000D03*
D336*
X10000000Y31700000D03*
D337*
X18250000Y31700000D03*
D338*
X26150000Y31700000D03*
D339*
X49200000Y31700000D03*
D340*
X56400000Y31700000D03*
D331*
X3300000Y31550000D03*
D332*
X10000000Y31550000D03*
D333*
X18250000Y31550000D03*
D334*
X26100000Y31550000D03*
D347*
X49250000Y31550000D03*
D348*
X56350000Y31550000D03*
D349*
X96100000Y31550000D03*
D105*
X121500000Y31550000D03*
D350*
X133100000Y31550000D03*
D327*
X3400000Y31450000D03*
D328*
X10000000Y31450000D03*
D329*
X18250000Y31450000D03*
D330*
X26000000Y31450000D03*
D292*
X49350000Y31450000D03*
D351*
X56250000Y31450000D03*
D352*
X96000000Y31450000D03*
D317*
X121500000Y31450000D03*
D318*
X133200000Y31450000D03*
D353*
X15150000Y29600000D03*
D354*
X37600000Y31300000D03*
D355*
X52650000Y31300000D03*
D356*
X95950000Y31300000D03*
D357*
X121500000Y31300000D03*
D358*
X133250000Y31300000D03*
D359*
X37550000Y31000000D03*
D360*
X52700000Y31000000D03*
D361*
X95900000Y31000000D03*
D362*
X121500000Y31000000D03*
D363*
X133300000Y31000000D03*
D354*
X37600000Y30700000D03*
D355*
X52650000Y30700000D03*
D356*
X95950000Y30700000D03*
D357*
X121500000Y30700000D03*
D358*
X133250000Y30700000D03*
D364*
X37650000Y30550000D03*
D365*
X52600000Y30550000D03*
D366*
X96000000Y29700000D03*
D317*
X121500000Y30550000D03*
D318*
X133200000Y30550000D03*
D367*
X37750000Y30450000D03*
D186*
X52500000Y30450000D03*
D263*
X121600000Y30450000D03*
D350*
X133100000Y30450000D03*
D368*
X44750000Y29100000D03*
D369*
X127700000Y28350000D03*
D370*
X65750000Y29350000D03*
D371*
X65700000Y29250000D03*
D372*
X65550000Y29150000D03*
D373*
X65450000Y29050000D03*
D263*
X65400000Y28950000D03*
D374*
X65350000Y28850000D03*
D375*
X60850000Y28750000D03*
D376*
X63150000Y28750000D03*
X65650000Y28750000D03*
D377*
X68250000Y28750000D03*
D378*
X70100000Y28750000D03*
D67*
X76550000Y28750000D03*
D376*
X78350000Y28750000D03*
D377*
X80950000Y28750000D03*
X83450000Y28750000D03*
D379*
X86000000Y28750000D03*
D377*
X88550000Y28750000D03*
X91050000Y28750000D03*
D376*
X93650000Y28750000D03*
X96150000Y28750000D03*
D380*
X98700000Y28750000D03*
D377*
X101250000Y28750000D03*
X103750000Y28750000D03*
D381*
X110500000Y28750000D03*
D140*
X60750000Y28650000D03*
D55*
X63100000Y28650000D03*
D382*
X65700000Y28650000D03*
X68200000Y28650000D03*
D383*
X70250000Y28650000D03*
D384*
X76350000Y28650000D03*
D57*
X78400000Y28650000D03*
X80900000Y28650000D03*
D382*
X83500000Y28650000D03*
X86000000Y28650000D03*
X88500000Y28650000D03*
D57*
X91100000Y28650000D03*
X93600000Y28650000D03*
D382*
X96200000Y28650000D03*
X98700000Y28650000D03*
X101200000Y28650000D03*
X103800000Y28650000D03*
D385*
X110600000Y28650000D03*
D134*
X60650000Y28550000D03*
D386*
X63150000Y28550000D03*
D387*
X65650000Y28550000D03*
D140*
X68250000Y28550000D03*
D34*
X70250000Y28550000D03*
D267*
X73300000Y28550000D03*
D387*
X75850000Y28550000D03*
X78350000Y28550000D03*
D140*
X80950000Y28550000D03*
X83450000Y28550000D03*
D267*
X86000000Y28550000D03*
D140*
X88550000Y28550000D03*
X91050000Y28550000D03*
D387*
X93650000Y28550000D03*
X96150000Y28550000D03*
D267*
X98700000Y28550000D03*
D140*
X101250000Y28550000D03*
X103750000Y28550000D03*
D388*
X110700000Y28550000D03*
D389*
X60600000Y28450000D03*
D134*
X63150000Y28450000D03*
D136*
X65650000Y28450000D03*
D390*
X68250000Y28450000D03*
D389*
X73300000Y28450000D03*
D136*
X75850000Y28450000D03*
X78350000Y28450000D03*
D390*
X80950000Y28450000D03*
X83450000Y28450000D03*
D391*
X86000000Y28450000D03*
D390*
X88550000Y28450000D03*
X91050000Y28450000D03*
D136*
X93650000Y28450000D03*
X96150000Y28450000D03*
D389*
X98700000Y28450000D03*
D390*
X101250000Y28450000D03*
X103750000Y28450000D03*
D392*
X110750000Y28450000D03*
D393*
X60550000Y28300000D03*
D394*
X63150000Y28350000D03*
X65650000Y28350000D03*
D223*
X68250000Y28350000D03*
D233*
X73300000Y28300000D03*
D394*
X75850000Y28350000D03*
X78350000Y28350000D03*
X80950000Y28350000D03*
X83450000Y28350000D03*
D233*
X86000000Y28300000D03*
D394*
X88550000Y28350000D03*
X91050000Y28350000D03*
X93650000Y28350000D03*
X96150000Y28350000D03*
D233*
X98700000Y28300000D03*
D223*
X101250000Y28350000D03*
X103750000Y28350000D03*
D395*
X110800000Y28300000D03*
D66*
X63150000Y28200000D03*
D396*
X65700000Y28250000D03*
X68200000Y28250000D03*
D66*
X75850000Y28200000D03*
D378*
X78400000Y28250000D03*
X80900000Y28250000D03*
D66*
X83450000Y28200000D03*
X88550000Y28200000D03*
D378*
X91100000Y28250000D03*
X93600000Y28250000D03*
D66*
X96150000Y28200000D03*
X101250000Y28200000D03*
D396*
X103800000Y28250000D03*
D397*
X60500000Y28100000D03*
D398*
X65700000Y28100000D03*
X68200000Y28100000D03*
X73300000Y28100000D03*
D399*
X78400000Y28100000D03*
X80900000Y28100000D03*
D398*
X86000000Y28100000D03*
D399*
X91100000Y28100000D03*
X93600000Y28100000D03*
D398*
X98700000Y28100000D03*
X103800000Y28100000D03*
D400*
X110850000Y28100000D03*
D401*
X63150000Y27950000D03*
D402*
X75850000Y28000000D03*
D401*
X83450000Y27950000D03*
X88550000Y27950000D03*
X96150000Y27950000D03*
D403*
X101250000Y27950000D03*
D404*
X60450000Y27600000D03*
D384*
X65650000Y27950000D03*
D383*
X68250000Y27950000D03*
D405*
X73300000Y27600000D03*
D384*
X78350000Y27950000D03*
X80950000Y27950000D03*
D406*
X86000000Y27600000D03*
D384*
X91050000Y27950000D03*
X93650000Y27950000D03*
D405*
X98700000Y27600000D03*
D383*
X103750000Y27950000D03*
D407*
X110900000Y27600000D03*
D408*
X65700000Y27600000D03*
X68200000Y27600000D03*
D34*
X75750000Y27850000D03*
D408*
X78400000Y27600000D03*
X80900000Y27600000D03*
X91100000Y27600000D03*
X93600000Y27600000D03*
X103800000Y27600000D03*
D409*
X3850000Y27750000D03*
D410*
X18300000Y27750000D03*
D411*
X37450000Y27750000D03*
D412*
X52300000Y27750000D03*
D413*
X63100000Y27600000D03*
D414*
X83500000Y27600000D03*
X88500000Y27600000D03*
D413*
X96200000Y27600000D03*
X101200000Y27600000D03*
D415*
X3650000Y27650000D03*
D416*
X18500000Y27650000D03*
D417*
X37250000Y27650000D03*
D186*
X52500000Y27650000D03*
D418*
X3550000Y27550000D03*
D419*
X18600000Y27550000D03*
D420*
X37150000Y27550000D03*
D365*
X52600000Y27550000D03*
D208*
X3500000Y27450000D03*
D421*
X18650000Y27450000D03*
D422*
X37100000Y27450000D03*
D423*
X52650000Y27450000D03*
D327*
X3400000Y27350000D03*
D424*
X18750000Y27350000D03*
D425*
X37000000Y27350000D03*
D426*
X52750000Y27350000D03*
D427*
X63150000Y27250000D03*
X83450000Y27250000D03*
X88550000Y27250000D03*
X96150000Y27250000D03*
D428*
X101250000Y27250000D03*
D429*
X3350000Y27250000D03*
D430*
X18800000Y27250000D03*
D431*
X36950000Y27250000D03*
D432*
X52800000Y27250000D03*
D158*
X65650000Y27250000D03*
D433*
X68250000Y27250000D03*
D158*
X78350000Y27250000D03*
X80950000Y27250000D03*
X91050000Y27250000D03*
X93650000Y27250000D03*
D433*
X103750000Y27250000D03*
D434*
X3300000Y27100000D03*
D435*
X18850000Y27100000D03*
D436*
X36900000Y27100000D03*
D437*
X52850000Y27100000D03*
D397*
X60500000Y27100000D03*
D438*
X65700000Y27150000D03*
X68200000Y27150000D03*
D398*
X73300000Y27100000D03*
D58*
X78400000Y27150000D03*
X80900000Y27150000D03*
D398*
X86000000Y27100000D03*
D58*
X91100000Y27150000D03*
X93600000Y27150000D03*
D398*
X98700000Y27100000D03*
D438*
X103800000Y27150000D03*
D400*
X110850000Y27100000D03*
D439*
X63150000Y27050000D03*
X65650000Y27050000D03*
X68250000Y27050000D03*
X78350000Y27050000D03*
X80950000Y27050000D03*
X83450000Y27050000D03*
X88550000Y27050000D03*
X91050000Y27050000D03*
X93650000Y27050000D03*
X96150000Y27050000D03*
X101250000Y27050000D03*
X103750000Y27050000D03*
D117*
X3250000Y26950000D03*
D440*
X18900000Y26950000D03*
D441*
X36850000Y26950000D03*
D442*
X52900000Y26950000D03*
D443*
X60550000Y26950000D03*
D62*
X63100000Y26950000D03*
D64*
X65700000Y26950000D03*
X68200000Y26950000D03*
X73300000Y26950000D03*
D444*
X78400000Y26950000D03*
X80900000Y26950000D03*
D64*
X83500000Y26950000D03*
X86000000Y26950000D03*
X88500000Y26950000D03*
D444*
X91100000Y26950000D03*
X93600000Y26950000D03*
D64*
X96200000Y26950000D03*
X98700000Y26950000D03*
X101200000Y26950000D03*
X103800000Y26950000D03*
D83*
X110800000Y26950000D03*
D445*
X3200000Y26800000D03*
D128*
X18950000Y26800000D03*
D446*
X36800000Y26800000D03*
D447*
X52950000Y26800000D03*
D389*
X60600000Y26850000D03*
D394*
X63150000Y26850000D03*
D389*
X65700000Y26850000D03*
X68200000Y26850000D03*
X73300000Y26850000D03*
X78400000Y26850000D03*
X80900000Y26850000D03*
D394*
X83450000Y26850000D03*
D391*
X86000000Y26850000D03*
D394*
X88550000Y26850000D03*
D389*
X91100000Y26850000D03*
X93600000Y26850000D03*
D394*
X96150000Y26850000D03*
D389*
X98700000Y26850000D03*
D223*
X101250000Y26850000D03*
D389*
X103800000Y26850000D03*
D392*
X110750000Y26850000D03*
D448*
X60650000Y26750000D03*
X63150000Y26750000D03*
D449*
X65700000Y26750000D03*
X68200000Y26750000D03*
X73300000Y26750000D03*
D450*
X76250000Y26750000D03*
D449*
X78400000Y26750000D03*
X80900000Y26750000D03*
D451*
X83450000Y26750000D03*
D449*
X86000000Y26750000D03*
D451*
X88550000Y26750000D03*
D449*
X91100000Y26750000D03*
X93600000Y26750000D03*
D452*
X96150000Y26750000D03*
D449*
X98700000Y26750000D03*
D451*
X101250000Y26750000D03*
D449*
X103800000Y26750000D03*
D453*
X110700000Y26750000D03*
D454*
X3150000Y26500000D03*
D455*
X19000000Y26500000D03*
D456*
X36750000Y26500000D03*
D457*
X53000000Y26500000D03*
D267*
X60700000Y26650000D03*
D59*
X63100000Y26650000D03*
X65700000Y26650000D03*
X68200000Y26650000D03*
D34*
X70250000Y26650000D03*
D60*
X71300000Y26650000D03*
D439*
X72950000Y26650000D03*
D383*
X76250000Y26650000D03*
D59*
X78400000Y26650000D03*
X80900000Y26650000D03*
D61*
X83500000Y26650000D03*
X86000000Y26650000D03*
X88500000Y26650000D03*
D59*
X91100000Y26650000D03*
X93600000Y26650000D03*
X96200000Y26650000D03*
X98700000Y26650000D03*
X101200000Y26650000D03*
X103800000Y26650000D03*
D458*
X110650000Y26650000D03*
D459*
X60800000Y26550000D03*
D460*
X63150000Y26550000D03*
D236*
X65700000Y26550000D03*
X68200000Y26550000D03*
D384*
X70150000Y26550000D03*
X71350000Y26550000D03*
D439*
X72750000Y26550000D03*
X76350000Y26550000D03*
D461*
X78400000Y26550000D03*
X80900000Y26550000D03*
D460*
X83450000Y26550000D03*
D236*
X86000000Y26550000D03*
D460*
X88550000Y26550000D03*
D461*
X91100000Y26550000D03*
X93600000Y26550000D03*
D460*
X96150000Y26550000D03*
D236*
X98700000Y26550000D03*
D460*
X101250000Y26550000D03*
D236*
X103800000Y26550000D03*
D462*
X110550000Y26550000D03*
D460*
X60950000Y26450000D03*
D463*
X63150000Y26450000D03*
D24*
X65700000Y26450000D03*
X68200000Y26450000D03*
D394*
X69950000Y26450000D03*
X71550000Y26450000D03*
X72550000Y26450000D03*
D267*
X76500000Y26450000D03*
D24*
X78400000Y26450000D03*
X80900000Y26450000D03*
D463*
X83450000Y26450000D03*
D26*
X86000000Y26450000D03*
D463*
X88550000Y26450000D03*
D24*
X91100000Y26450000D03*
X93600000Y26450000D03*
D463*
X96150000Y26450000D03*
D24*
X98700000Y26450000D03*
D464*
X101250000Y26450000D03*
D24*
X103800000Y26450000D03*
D263*
X110400000Y26450000D03*
D465*
X65250000Y20300000D03*
D226*
X72050000Y26350000D03*
D466*
X95750000Y26350000D03*
D467*
X3100000Y26000000D03*
D468*
X19050000Y26000000D03*
D469*
X36700000Y26000000D03*
D470*
X53050000Y26000000D03*
D471*
X72000000Y20000000D03*
D472*
X95700000Y26250000D03*
D380*
X117300000Y26250000D03*
D473*
X128750000Y26250000D03*
D474*
X95650000Y26150000D03*
D460*
X117150000Y26150000D03*
D475*
X128950000Y26150000D03*
D476*
X95600000Y26050000D03*
D477*
X117050000Y26050000D03*
D478*
X129050000Y26050000D03*
D479*
X95550000Y25950000D03*
D61*
X117000000Y25950000D03*
D133*
X129100000Y25950000D03*
D480*
X95450000Y25850000D03*
D140*
X116950000Y25850000D03*
D202*
X129150000Y25850000D03*
D481*
X94650000Y20450000D03*
D449*
X116900000Y25750000D03*
D482*
X129200000Y25700000D03*
D454*
X3150000Y25500000D03*
D455*
X19000000Y25500000D03*
D456*
X36750000Y25500000D03*
D457*
X53000000Y25500000D03*
D483*
X116850000Y25550000D03*
D484*
X129250000Y25400000D03*
D270*
X116800000Y25050000D03*
D445*
X3200000Y25200000D03*
D128*
X18950000Y25200000D03*
D446*
X36800000Y25200000D03*
D447*
X52950000Y25200000D03*
D485*
X129300000Y25050000D03*
D117*
X3250000Y25050000D03*
D440*
X18900000Y25050000D03*
D441*
X36850000Y25050000D03*
D442*
X52900000Y25050000D03*
D434*
X3300000Y24900000D03*
D435*
X18850000Y24900000D03*
D436*
X36900000Y24900000D03*
D437*
X52850000Y24900000D03*
D486*
X129250000Y24750000D03*
D429*
X3350000Y24750000D03*
D430*
X18800000Y24750000D03*
D431*
X36950000Y24750000D03*
D432*
X52800000Y24750000D03*
D327*
X3400000Y24650000D03*
D424*
X18750000Y24650000D03*
D425*
X37000000Y24650000D03*
D426*
X52750000Y24650000D03*
D487*
X116850000Y24600000D03*
D208*
X3500000Y24550000D03*
D421*
X18650000Y24550000D03*
D422*
X37100000Y24550000D03*
D423*
X52650000Y24550000D03*
D488*
X129200000Y24500000D03*
D418*
X3550000Y24450000D03*
D419*
X18600000Y24450000D03*
D420*
X37150000Y24450000D03*
D365*
X52600000Y24450000D03*
D267*
X116900000Y24450000D03*
D415*
X3650000Y24350000D03*
D416*
X18500000Y24350000D03*
D417*
X37250000Y24350000D03*
D186*
X52500000Y24350000D03*
D269*
X116950000Y24300000D03*
D202*
X129150000Y24350000D03*
D409*
X3850000Y24250000D03*
D410*
X18300000Y24250000D03*
D411*
X37450000Y24250000D03*
D412*
X52300000Y24250000D03*
D489*
X129100000Y24250000D03*
D490*
X15150000Y18300000D03*
D491*
X44750000Y18950000D03*
D477*
X117050000Y24150000D03*
D478*
X129050000Y24150000D03*
D57*
X117100000Y24050000D03*
D228*
X129000000Y24050000D03*
D236*
X117200000Y23950000D03*
D492*
X128850000Y23950000D03*
D493*
X127700000Y23800000D03*
D494*
X124800000Y23650000D03*
D208*
X136500000Y23650000D03*
D495*
X124700000Y23550000D03*
D496*
X136600000Y23550000D03*
D497*
X124650000Y23450000D03*
D172*
X136700000Y23450000D03*
D498*
X124600000Y23350000D03*
D117*
X136750000Y23350000D03*
D499*
X124550000Y23250000D03*
D500*
X136800000Y23200000D03*
D501*
X124500000Y23100000D03*
D502*
X136850000Y23000000D03*
D503*
X124450000Y22950000D03*
D504*
X117950000Y22850000D03*
D505*
X136900000Y22550000D03*
D506*
X117900000Y22700000D03*
D507*
X117850000Y21900000D03*
D502*
X136850000Y22100000D03*
D508*
X126350000Y22050000D03*
D509*
X126400000Y21950000D03*
D510*
X136800000Y21900000D03*
D511*
X126450000Y21800000D03*
D512*
X136750000Y21750000D03*
D513*
X126500000Y21650000D03*
D172*
X136700000Y21650000D03*
D442*
X126600000Y21550000D03*
D514*
X136650000Y21550000D03*
D515*
X126700000Y21450000D03*
D516*
X136550000Y21450000D03*
D517*
X129600000Y21300000D03*
D518*
X117250000Y21150000D03*
D394*
X118950000Y21150000D03*
D519*
X126800000Y21150000D03*
D520*
X136450000Y21150000D03*
D57*
X117100000Y21050000D03*
D58*
X119100000Y21050000D03*
D521*
X126650000Y21050000D03*
D496*
X136600000Y21050000D03*
D375*
X117050000Y20950000D03*
D522*
X119200000Y20950000D03*
D523*
X126550000Y20950000D03*
D524*
X136650000Y20950000D03*
D525*
X117000000Y20850000D03*
D526*
X119250000Y20850000D03*
D527*
X126500000Y20850000D03*
D528*
X136700000Y20850000D03*
D529*
X116950000Y20750000D03*
D530*
X126450000Y20750000D03*
D512*
X136750000Y20750000D03*
D531*
X116900000Y20650000D03*
D532*
X126400000Y20600000D03*
D533*
X136800000Y20650000D03*
D534*
X116850000Y20450000D03*
D535*
X136850000Y20450000D03*
D536*
X126350000Y20450000D03*
D537*
X121750000Y20350000D03*
D273*
X116800000Y20000000D03*
D538*
X121700000Y20250000D03*
D539*
X136900000Y20000000D03*
D540*
X121650000Y18450000D03*
D534*
X116850000Y19550000D03*
D535*
X136850000Y19550000D03*
D541*
X128200000Y19550000D03*
D542*
X128250000Y19400000D03*
D531*
X116900000Y19350000D03*
D533*
X136800000Y19350000D03*
D529*
X116950000Y19250000D03*
D543*
X128300000Y19250000D03*
D512*
X136750000Y19250000D03*
D525*
X117000000Y19150000D03*
D526*
X119250000Y19150000D03*
D544*
X128350000Y19150000D03*
D528*
X136700000Y19150000D03*
D375*
X117050000Y19050000D03*
D522*
X119200000Y19050000D03*
D545*
X128400000Y19050000D03*
D524*
X136650000Y19050000D03*
D546*
X117100000Y18950000D03*
D547*
X119100000Y18950000D03*
D548*
X128500000Y18950000D03*
D549*
X136600000Y18950000D03*
D550*
X117250000Y18850000D03*
D551*
X118950000Y18850000D03*
D552*
X128650000Y18850000D03*
D553*
X136450000Y18850000D03*
D554*
X117850000Y18700000D03*
D555*
X131450000Y12650000D03*
D556*
X117150000Y18550000D03*
D67*
X119050000Y18550000D03*
D375*
X117050000Y18450000D03*
D158*
X119150000Y18450000D03*
D525*
X117000000Y18350000D03*
D526*
X119250000Y18350000D03*
D529*
X116950000Y18250000D03*
D557*
X116900000Y18100000D03*
D487*
X116850000Y17900000D03*
D558*
X116800000Y17450000D03*
D559*
X116850000Y17000000D03*
D557*
X116900000Y16800000D03*
D560*
X116950000Y16650000D03*
D561*
X121600000Y16600000D03*
D562*
X117000000Y16550000D03*
D546*
X117100000Y16450000D03*
D563*
X121550000Y16450000D03*
D564*
X117200000Y16350000D03*
D565*
X121500000Y16350000D03*
D380*
X117300000Y16250000D03*
D566*
X121450000Y16250000D03*
D567*
X117250000Y14850000D03*
D568*
X121400000Y16150000D03*
D569*
X121350000Y16050000D03*
D78*
X121300000Y15950000D03*
D570*
X121200000Y15850000D03*
D571*
X121100000Y15750000D03*
D572*
X121050000Y15650000D03*
D573*
X121000000Y11050000D03*
D574*
X77500000Y15050000D03*
D575*
X98650000Y15050000D03*
D576*
X77400000Y14950000D03*
D577*
X98750000Y14950000D03*
D578*
X77350000Y14800000D03*
D579*
X98800000Y14800000D03*
D580*
X77300000Y14500000D03*
D581*
X98850000Y14500000D03*
D578*
X77350000Y14200000D03*
D582*
X98800000Y14250000D03*
D583*
X65650000Y14150000D03*
D584*
X91950000Y14150000D03*
D585*
X65650000Y14050000D03*
D576*
X77400000Y14050000D03*
D489*
X91800000Y14050000D03*
D586*
X65650000Y13950000D03*
D574*
X77500000Y13950000D03*
D587*
X91650000Y13950000D03*
D588*
X65650000Y13850000D03*
D589*
X87500000Y13850000D03*
D590*
X65650000Y13750000D03*
D591*
X87450000Y13750000D03*
D592*
X44800000Y13600000D03*
D593*
X65600000Y13650000D03*
D594*
X71950000Y13650000D03*
D595*
X87400000Y13650000D03*
D449*
X63800000Y13550000D03*
D596*
X65700000Y13550000D03*
D451*
X67550000Y13550000D03*
D597*
X71500000Y13550000D03*
D396*
X72500000Y13550000D03*
D598*
X74050000Y13550000D03*
D599*
X75850000Y13550000D03*
D596*
X78400000Y13550000D03*
X80900000Y13550000D03*
D599*
X83450000Y13550000D03*
D600*
X86000000Y13550000D03*
D599*
X88550000Y13550000D03*
D596*
X91100000Y13550000D03*
X93600000Y13550000D03*
D599*
X96150000Y13550000D03*
D596*
X98700000Y13550000D03*
D451*
X100550000Y13550000D03*
D601*
X44850000Y13450000D03*
D67*
X63650000Y13450000D03*
D602*
X65700000Y13450000D03*
D67*
X67650000Y13450000D03*
X71250000Y13450000D03*
D158*
X72650000Y13450000D03*
D547*
X73900000Y13450000D03*
D556*
X75850000Y13450000D03*
D603*
X78400000Y13450000D03*
X80900000Y13450000D03*
D556*
X83450000Y13450000D03*
D602*
X86000000Y13450000D03*
D556*
X88550000Y13450000D03*
D603*
X91100000Y13450000D03*
X93600000Y13450000D03*
D556*
X96150000Y13450000D03*
D602*
X98700000Y13450000D03*
D604*
X100700000Y13450000D03*
D380*
X117200000Y13450000D03*
D605*
X44950000Y13350000D03*
D606*
X63600000Y13350000D03*
D607*
X65700000Y13350000D03*
D608*
X67750000Y13350000D03*
D609*
X71100000Y13350000D03*
D526*
X72750000Y13350000D03*
D606*
X73800000Y13350000D03*
D607*
X75800000Y13350000D03*
X78400000Y13350000D03*
X80900000Y13350000D03*
D525*
X83500000Y13350000D03*
X86000000Y13350000D03*
X88500000Y13350000D03*
D607*
X91100000Y13350000D03*
X93600000Y13350000D03*
X96200000Y13350000D03*
X98700000Y13350000D03*
D608*
X100750000Y13350000D03*
D610*
X117100000Y13350000D03*
D611*
X45650000Y13250000D03*
D449*
X65700000Y13250000D03*
D450*
X67750000Y13250000D03*
D451*
X70750000Y13250000D03*
D450*
X73750000Y13250000D03*
D452*
X75850000Y13250000D03*
D449*
X78400000Y13250000D03*
X80900000Y13250000D03*
D451*
X83450000Y13250000D03*
D449*
X86000000Y13250000D03*
D451*
X88550000Y13250000D03*
D449*
X91100000Y13250000D03*
X93600000Y13250000D03*
D452*
X96150000Y13250000D03*
D449*
X98700000Y13250000D03*
X103800000Y13250000D03*
D569*
X107550000Y13250000D03*
D612*
X114500000Y13250000D03*
D613*
X45600000Y13150000D03*
D614*
X65700000Y13150000D03*
D615*
X70750000Y13150000D03*
D551*
X75850000Y13150000D03*
D614*
X78400000Y13150000D03*
X80900000Y13150000D03*
D551*
X83450000Y13150000D03*
D616*
X86000000Y13150000D03*
D551*
X88550000Y13150000D03*
D614*
X91100000Y13150000D03*
X93600000Y13150000D03*
D551*
X96150000Y13150000D03*
D614*
X98700000Y13150000D03*
X103800000Y13150000D03*
D617*
X107550000Y13150000D03*
D618*
X114550000Y13150000D03*
D619*
X45550000Y13050000D03*
D396*
X65700000Y13050000D03*
X70800000Y13050000D03*
X75800000Y13050000D03*
D378*
X78400000Y13050000D03*
X80900000Y13050000D03*
D396*
X83500000Y13050000D03*
X86000000Y13050000D03*
X88500000Y13050000D03*
D378*
X91100000Y13050000D03*
X93600000Y13050000D03*
D396*
X96200000Y13050000D03*
X98700000Y13050000D03*
X103800000Y13050000D03*
D620*
X107600000Y13050000D03*
D621*
X114600000Y13050000D03*
D622*
X45500000Y12950000D03*
D67*
X65650000Y12950000D03*
X70750000Y12950000D03*
X75850000Y12950000D03*
X78350000Y12950000D03*
X80950000Y12950000D03*
X83450000Y12950000D03*
D398*
X86000000Y12900000D03*
D67*
X88550000Y12950000D03*
X91050000Y12950000D03*
X93650000Y12950000D03*
X96150000Y12950000D03*
D398*
X98700000Y12900000D03*
D67*
X103750000Y12950000D03*
D538*
X107600000Y12950000D03*
D623*
X114650000Y12900000D03*
D624*
X65700000Y12850000D03*
D625*
X70750000Y12750000D03*
D626*
X75850000Y12750000D03*
D627*
X78400000Y12850000D03*
X80900000Y12850000D03*
D626*
X83450000Y12750000D03*
X88550000Y12750000D03*
D627*
X91100000Y12850000D03*
X93600000Y12850000D03*
D626*
X96150000Y12750000D03*
D624*
X103800000Y12850000D03*
D628*
X107550000Y12850000D03*
D158*
X65650000Y12750000D03*
X78350000Y12750000D03*
X80950000Y12750000D03*
D406*
X86000000Y12400000D03*
D158*
X91050000Y12750000D03*
X93650000Y12750000D03*
D405*
X98700000Y12400000D03*
D433*
X103750000Y12750000D03*
D629*
X107600000Y12400000D03*
D630*
X114700000Y12400000D03*
D631*
X65700000Y12400000D03*
X78400000Y12400000D03*
X80900000Y12400000D03*
X91100000Y12400000D03*
X93600000Y12400000D03*
X103800000Y12400000D03*
D632*
X70800000Y12400000D03*
X75800000Y12400000D03*
D633*
X83500000Y12400000D03*
X88500000Y12400000D03*
D632*
X96200000Y12400000D03*
D634*
X15200000Y12300000D03*
D635*
X15250000Y12150000D03*
D428*
X70750000Y12050000D03*
D427*
X75850000Y12050000D03*
X83450000Y12050000D03*
X88550000Y12050000D03*
X96150000Y12050000D03*
D636*
X30850000Y12050000D03*
D637*
X63150000Y12000000D03*
D158*
X65650000Y12050000D03*
D433*
X68250000Y12050000D03*
D158*
X78350000Y12050000D03*
X80950000Y12050000D03*
X91050000Y12050000D03*
X93650000Y12050000D03*
D638*
X101250000Y12000000D03*
D433*
X103750000Y12050000D03*
D639*
X30900000Y11900000D03*
D398*
X65700000Y11900000D03*
X68200000Y11900000D03*
D399*
X78400000Y11900000D03*
X80900000Y11900000D03*
D398*
X86000000Y11900000D03*
D399*
X91100000Y11900000D03*
X93600000Y11900000D03*
D398*
X98700000Y11900000D03*
X103800000Y11900000D03*
D640*
X107550000Y11950000D03*
D623*
X114650000Y11900000D03*
D264*
X63150000Y11800000D03*
X70750000Y11800000D03*
X75850000Y11800000D03*
X83450000Y11800000D03*
X88550000Y11800000D03*
X96150000Y11800000D03*
X101250000Y11800000D03*
D641*
X107600000Y11850000D03*
D642*
X30950000Y11700000D03*
D396*
X65700000Y11750000D03*
X68200000Y11750000D03*
D378*
X78400000Y11750000D03*
X80900000Y11750000D03*
D397*
X86000000Y11700000D03*
D378*
X91100000Y11750000D03*
X93600000Y11750000D03*
D397*
X98700000Y11700000D03*
D396*
X103800000Y11750000D03*
D563*
X107550000Y11750000D03*
D643*
X114600000Y11700000D03*
D551*
X63150000Y11650000D03*
X65650000Y11650000D03*
D615*
X68250000Y11650000D03*
X70750000Y11650000D03*
D551*
X75850000Y11650000D03*
X78350000Y11650000D03*
X80950000Y11650000D03*
X83450000Y11650000D03*
X88550000Y11650000D03*
X91050000Y11650000D03*
X93650000Y11650000D03*
X96150000Y11650000D03*
D615*
X101250000Y11650000D03*
X103750000Y11650000D03*
D644*
X107600000Y11650000D03*
D645*
X31000000Y11550000D03*
D448*
X63150000Y11550000D03*
D452*
X65650000Y11550000D03*
D451*
X68250000Y11550000D03*
X70750000Y11550000D03*
D452*
X75850000Y11550000D03*
X78350000Y11550000D03*
D451*
X80950000Y11550000D03*
X83450000Y11550000D03*
D597*
X86000000Y11550000D03*
D451*
X88550000Y11550000D03*
X91050000Y11550000D03*
D452*
X93650000Y11550000D03*
X96150000Y11550000D03*
D646*
X98700000Y11550000D03*
D451*
X101250000Y11550000D03*
X103750000Y11550000D03*
D647*
X107600000Y11550000D03*
D648*
X114550000Y11550000D03*
D649*
X31050000Y11450000D03*
D650*
X63150000Y11450000D03*
D651*
X65650000Y11450000D03*
D529*
X68250000Y11450000D03*
X70750000Y11450000D03*
D450*
X73750000Y11450000D03*
D651*
X75850000Y11450000D03*
X78350000Y11450000D03*
D529*
X80950000Y11450000D03*
X83450000Y11450000D03*
D449*
X86000000Y11450000D03*
D529*
X88550000Y11450000D03*
X91050000Y11450000D03*
D651*
X93650000Y11450000D03*
X96150000Y11450000D03*
D449*
X98700000Y11450000D03*
D529*
X101250000Y11450000D03*
X103750000Y11450000D03*
D652*
X107600000Y11450000D03*
D612*
X114500000Y11450000D03*
D653*
X31150000Y11350000D03*
D654*
X63100000Y11350000D03*
D655*
X65700000Y11350000D03*
X68200000Y11350000D03*
X70800000Y11350000D03*
D624*
X73800000Y11350000D03*
D655*
X75800000Y11350000D03*
D656*
X78400000Y11350000D03*
X80900000Y11350000D03*
D655*
X83500000Y11350000D03*
X86000000Y11350000D03*
X88500000Y11350000D03*
D656*
X91100000Y11350000D03*
X93600000Y11350000D03*
D655*
X96200000Y11350000D03*
X98700000Y11350000D03*
X101200000Y11350000D03*
X103800000Y11350000D03*
D657*
X107600000Y11350000D03*
D658*
X114400000Y9350000D03*
D659*
X31250000Y11250000D03*
D376*
X63150000Y11250000D03*
X65650000Y11250000D03*
D377*
X68250000Y11250000D03*
X70750000Y11250000D03*
D378*
X73900000Y11250000D03*
D376*
X75850000Y11250000D03*
X78350000Y11250000D03*
D377*
X80950000Y11250000D03*
X83450000Y11250000D03*
D379*
X86000000Y11250000D03*
D377*
X88550000Y11250000D03*
X91050000Y11250000D03*
D376*
X93650000Y11250000D03*
X96150000Y11250000D03*
D380*
X98700000Y11250000D03*
D377*
X101250000Y11250000D03*
X103750000Y11250000D03*
D660*
X107600000Y11250000D03*
D661*
X36300000Y8900000D03*
D662*
X91650000Y11150000D03*
D663*
X91600000Y11050000D03*
D664*
X91550000Y10950000D03*
D665*
X91450000Y10800000D03*
D666*
X91400000Y10650000D03*
D667*
X91100000Y8650000D03*
D449*
X111200000Y7250000D03*
D668*
X115200000Y7250000D03*
D669*
X115250000Y7150000D03*
D670*
X115300000Y7000000D03*
D671*
X115350000Y6750000D03*
D672*
X91150000Y6650000D03*
D673*
X33400000Y6550000D03*
D674*
X68900000Y6550000D03*
D675*
X88100000Y6550000D03*
D585*
X107050000Y6550000D03*
D676*
X115300000Y6550000D03*
D677*
X33300000Y6450000D03*
D678*
X69000000Y6450000D03*
D679*
X88000000Y6450000D03*
D676*
X107200000Y6450000D03*
D680*
X115200000Y6450000D03*
D681*
X120950000Y6450000D03*
D548*
X128500000Y6450000D03*
D682*
X136550000Y6450000D03*
D683*
X33250000Y6300000D03*
D684*
X69000000Y6300000D03*
D685*
X88000000Y6300000D03*
D686*
X107350000Y6350000D03*
D588*
X115050000Y6350000D03*
D687*
X120900000Y6350000D03*
D688*
X128550000Y6350000D03*
D689*
X136650000Y6350000D03*
D690*
X108100000Y6250000D03*
D241*
X114900000Y6250000D03*
D566*
X120950000Y6250000D03*
D691*
X128500000Y6250000D03*
D512*
X136750000Y6250000D03*
D692*
X33200000Y6000000D03*
D693*
X69000000Y6000000D03*
D694*
X88000000Y6000000D03*
D695*
X111000000Y6150000D03*
D537*
X120950000Y6150000D03*
D696*
X128550000Y6150000D03*
D533*
X136800000Y6150000D03*
D523*
X110950000Y6050000D03*
D697*
X120900000Y6050000D03*
D698*
X128550000Y6050000D03*
D699*
X136850000Y6050000D03*
D700*
X110900000Y5950000D03*
D701*
X120950000Y5950000D03*
D240*
X128550000Y5950000D03*
D702*
X136900000Y5950000D03*
D703*
X110850000Y5850000D03*
D704*
X120950000Y5850000D03*
D705*
X128500000Y5850000D03*
D572*
X136950000Y5850000D03*
D683*
X33250000Y5700000D03*
D684*
X69000000Y5700000D03*
D685*
X88000000Y5700000D03*
D706*
X110750000Y5700000D03*
D707*
X120900000Y5750000D03*
D708*
X128550000Y5750000D03*
D709*
X137000000Y5650000D03*
D710*
X120950000Y5650000D03*
D711*
X128500000Y5650000D03*
D677*
X33300000Y5550000D03*
D678*
X69000000Y5550000D03*
D679*
X88000000Y5550000D03*
D712*
X110700000Y5550000D03*
D713*
X120900000Y5500000D03*
D714*
X128550000Y5500000D03*
D673*
X33400000Y5450000D03*
D676*
X69000000Y5450000D03*
D715*
X88000000Y5450000D03*
D523*
X110550000Y5450000D03*
D716*
X137050000Y5000000D03*
D717*
X58950000Y4950000D03*
D718*
X120950000Y5300000D03*
D719*
X128500000Y5350000D03*
D720*
X128550000Y5000000D03*
D32*
X120900000Y5000000D03*
D718*
X120950000Y4700000D03*
D719*
X128500000Y4650000D03*
D713*
X120900000Y4500000D03*
D714*
X128550000Y4500000D03*
D721*
X59000000Y4350000D03*
D709*
X137000000Y4350000D03*
D710*
X120950000Y4350000D03*
D711*
X128500000Y4350000D03*
D707*
X120900000Y4250000D03*
D708*
X128550000Y4250000D03*
D722*
X59050000Y4150000D03*
D704*
X120950000Y4150000D03*
D705*
X128500000Y4150000D03*
D572*
X136950000Y4150000D03*
D723*
X59100000Y4050000D03*
D701*
X120950000Y4050000D03*
D240*
X128550000Y4050000D03*
D702*
X136900000Y4050000D03*
D724*
X59150000Y3950000D03*
D697*
X120900000Y3950000D03*
D698*
X128550000Y3950000D03*
D699*
X136850000Y3950000D03*
D725*
X59200000Y3850000D03*
D537*
X120950000Y3850000D03*
D696*
X128550000Y3850000D03*
D533*
X136800000Y3850000D03*
D726*
X59250000Y3750000D03*
D566*
X120950000Y3750000D03*
D691*
X128500000Y3750000D03*
D512*
X136750000Y3750000D03*
D727*
X59350000Y3650000D03*
D687*
X120900000Y3650000D03*
D688*
X128550000Y3650000D03*
D689*
X136650000Y3650000D03*
D728*
X59450000Y3550000D03*
D681*
X120950000Y3550000D03*
D548*
X128500000Y3550000D03*
D682*
X136550000Y3550000D03*
D729*
X70000000Y2250000D03*
D730*
X10000000Y65000000D03*
X130000000Y65000000D03*
D731*
X8250000Y43000000D03*
X15750000Y43000000D03*
D732*
X83000000Y65000000D03*
X113000000Y65000000D03*
D733*
X94190000Y57000000D03*
X96730000Y57000000D03*
X99270000Y57000000D03*
X101810000Y57000000D03*
D734*
X7000000Y26000000D03*
X7000000Y10000000D03*
X45000000Y26000000D03*
X45000000Y10000000D03*
D733*
X61870000Y27620000D03*
X64410000Y27620000D03*
X66950000Y27620000D03*
X69490000Y27620000D03*
X72030000Y27620000D03*
X74570000Y27620000D03*
X77110000Y27620000D03*
X79650000Y27620000D03*
X82190000Y27620000D03*
X84730000Y27620000D03*
X87270000Y27620000D03*
X89810000Y27620000D03*
X92350000Y27620000D03*
X94890000Y27620000D03*
X97430000Y27620000D03*
X99970000Y27620000D03*
X102510000Y27620000D03*
X105050000Y27620000D03*
X107590000Y27620000D03*
X110130000Y27620000D03*
X61870000Y12380000D03*
X64410000Y12380000D03*
X66950000Y12380000D03*
X69490000Y12380000D03*
X72030000Y12380000D03*
X74570000Y12380000D03*
X77110000Y12380000D03*
X79650000Y12380000D03*
X82190000Y12380000D03*
X84730000Y12380000D03*
X87270000Y12380000D03*
X89810000Y12380000D03*
X92350000Y12380000D03*
X94890000Y12380000D03*
X97430000Y12380000D03*
X99970000Y12380000D03*
X102510000Y12380000D03*
X105050000Y12380000D03*
X107590000Y12380000D03*
X110130000Y12380000D03*
X118380000Y25080000D03*
X118380000Y22540000D03*
X118380000Y20000000D03*
X118380000Y17460000D03*
X133620000Y22540000D03*
X133620000Y20000000D03*
X133620000Y17460000D03*
D735*
X118380000Y5000000D03*
X123460000Y5000000D03*
X128540000Y5000000D03*
X133620000Y5000000D03*
D736*
X3000000Y80000000D03*
X4500000Y80000000D03*
X6000000Y80000000D03*
X7500000Y80000000D03*
X9000000Y80000000D03*
X10500000Y80000000D03*
X12000000Y80000000D03*
X13500000Y80000000D03*
X15000000Y80000000D03*
X16500000Y80000000D03*
X18000000Y80000000D03*
X19500000Y80000000D03*
X21000000Y80000000D03*
X22500000Y80000000D03*
X24000000Y80000000D03*
X25500000Y80000000D03*
X27000000Y80000000D03*
X3000000Y78500000D03*
X4500000Y78500000D03*
X6000000Y78500000D03*
X7500000Y78500000D03*
X9000000Y78500000D03*
X10500000Y78500000D03*
X12000000Y78500000D03*
X13500000Y78500000D03*
X15000000Y78500000D03*
X16500000Y78500000D03*
X18000000Y78500000D03*
X19500000Y78500000D03*
X21000000Y78500000D03*
X22500000Y78500000D03*
X24000000Y78500000D03*
X25500000Y78500000D03*
X27000000Y78500000D03*
X3000000Y77000000D03*
X4500000Y77000000D03*
X6000000Y77000000D03*
X7500000Y77000000D03*
X9000000Y77000000D03*
X10500000Y77000000D03*
X12000000Y77000000D03*
X13500000Y77000000D03*
X15000000Y77000000D03*
X16500000Y77000000D03*
X18000000Y77000000D03*
X19500000Y77000000D03*
X21000000Y77000000D03*
X22500000Y77000000D03*
X24000000Y77000000D03*
X25500000Y77000000D03*
X27000000Y77000000D03*
X3000000Y75500000D03*
X4500000Y75500000D03*
X6000000Y75500000D03*
X7500000Y75500000D03*
X9000000Y75500000D03*
X10500000Y75500000D03*
X12000000Y75500000D03*
X13500000Y75500000D03*
X15000000Y75500000D03*
X16500000Y75500000D03*
X18000000Y75500000D03*
X19500000Y75500000D03*
X21000000Y75500000D03*
X22500000Y75500000D03*
X24000000Y75500000D03*
X25500000Y75500000D03*
X27000000Y75500000D03*
X3000000Y74000000D03*
X4500000Y74000000D03*
X6000000Y74000000D03*
X13500000Y74000000D03*
X15000000Y74000000D03*
X16500000Y74000000D03*
X18000000Y74000000D03*
X19500000Y74000000D03*
X21000000Y74000000D03*
X22500000Y74000000D03*
X24000000Y74000000D03*
X25500000Y74000000D03*
X27000000Y74000000D03*
X3000000Y72500000D03*
X16500000Y72500000D03*
X18000000Y72500000D03*
X19500000Y72500000D03*
X21000000Y72500000D03*
X22500000Y72500000D03*
X24000000Y72500000D03*
X25500000Y72500000D03*
X27000000Y72500000D03*
X18000000Y71000000D03*
X19500000Y71000000D03*
X21000000Y71000000D03*
X22500000Y71000000D03*
X24000000Y71000000D03*
X25500000Y71000000D03*
X27000000Y71000000D03*
X19500000Y69500000D03*
X21000000Y69500000D03*
X22500000Y69500000D03*
X24000000Y69500000D03*
X25500000Y69500000D03*
X27000000Y69500000D03*
X19500000Y68000000D03*
X21000000Y68000000D03*
X22500000Y68000000D03*
X24000000Y68000000D03*
X25500000Y68000000D03*
X27000000Y68000000D03*
X19500000Y66500000D03*
X21000000Y66500000D03*
X22500000Y66500000D03*
X24000000Y66500000D03*
X25500000Y66500000D03*
X27000000Y66500000D03*
X21000000Y65000000D03*
X22500000Y65000000D03*
X24000000Y65000000D03*
X25500000Y65000000D03*
X27000000Y65000000D03*
X19500000Y63500000D03*
X21000000Y63500000D03*
X22500000Y63500000D03*
X24000000Y63500000D03*
X25500000Y63500000D03*
X27000000Y63500000D03*
X19500000Y62000000D03*
X21000000Y62000000D03*
X22500000Y62000000D03*
X24000000Y62000000D03*
X25500000Y62000000D03*
X27000000Y62000000D03*
X19500000Y60500000D03*
X21000000Y60500000D03*
X22500000Y60500000D03*
X24000000Y60500000D03*
X25500000Y60500000D03*
X27000000Y60500000D03*
X18000000Y59000000D03*
X19500000Y59000000D03*
X21000000Y59000000D03*
X22500000Y59000000D03*
X24000000Y59000000D03*
X25500000Y59000000D03*
X27000000Y59000000D03*
X3000000Y57500000D03*
X16500000Y57500000D03*
X18000000Y57500000D03*
X19500000Y57500000D03*
X21000000Y57500000D03*
X22500000Y57500000D03*
X24000000Y57500000D03*
X25500000Y57500000D03*
X27000000Y57500000D03*
X3000000Y56000000D03*
X4500000Y56000000D03*
X6000000Y56000000D03*
X13500000Y56000000D03*
X15000000Y56000000D03*
X16500000Y56000000D03*
X18000000Y56000000D03*
X19500000Y56000000D03*
X21000000Y56000000D03*
X22500000Y56000000D03*
X24000000Y56000000D03*
X25500000Y56000000D03*
X3000000Y54500000D03*
X4500000Y54500000D03*
X6000000Y54500000D03*
X7500000Y54500000D03*
X9000000Y54500000D03*
X10500000Y54500000D03*
X12000000Y54500000D03*
X13500000Y54500000D03*
X15000000Y54500000D03*
X16500000Y54500000D03*
X18000000Y54500000D03*
X19500000Y54500000D03*
X21000000Y54500000D03*
X22500000Y54500000D03*
X24000000Y54500000D03*
X25500000Y54500000D03*
X3000000Y53000000D03*
X4500000Y53000000D03*
X6000000Y53000000D03*
X7500000Y53000000D03*
X9000000Y53000000D03*
X10500000Y53000000D03*
X12000000Y53000000D03*
X13500000Y53000000D03*
X15000000Y53000000D03*
X16500000Y53000000D03*
X18000000Y53000000D03*
X19500000Y53000000D03*
X21000000Y53000000D03*
X22500000Y53000000D03*
X24000000Y53000000D03*
X25500000Y53000000D03*
X27000000Y53000000D03*
X31500000Y80000000D03*
X33000000Y80000000D03*
X34500000Y80000000D03*
X31500000Y78500000D03*
X33000000Y78500000D03*
X34500000Y78500000D03*
X31500000Y77000000D03*
X33000000Y77000000D03*
X34500000Y77000000D03*
X31500000Y75500000D03*
X33000000Y75500000D03*
X34500000Y75500000D03*
X31500000Y74000000D03*
X33000000Y74000000D03*
X34500000Y74000000D03*
X31500000Y72500000D03*
X33000000Y72500000D03*
X34500000Y72500000D03*
X31500000Y71000000D03*
X33000000Y71000000D03*
X34500000Y71000000D03*
X31500000Y69500000D03*
X31500000Y68000000D03*
X33000000Y68000000D03*
X34500000Y68000000D03*
X31500000Y66500000D03*
X33000000Y66500000D03*
X34500000Y66500000D03*
X31500000Y65000000D03*
X33000000Y65000000D03*
X34500000Y65000000D03*
X31500000Y63500000D03*
X33000000Y63500000D03*
X34500000Y63500000D03*
X31500000Y62000000D03*
X33000000Y62000000D03*
X34500000Y62000000D03*
X34500000Y60500000D03*
X31500000Y59000000D03*
X33000000Y59000000D03*
X34500000Y59000000D03*
X31500000Y57500000D03*
X33000000Y57500000D03*
X34500000Y57500000D03*
X31500000Y56000000D03*
X33000000Y56000000D03*
X34500000Y56000000D03*
X31500000Y54500000D03*
X33000000Y54500000D03*
X34500000Y54500000D03*
X31500000Y53000000D03*
X33000000Y53000000D03*
X34500000Y53000000D03*
X39000000Y80000000D03*
X40500000Y80000000D03*
X42000000Y80000000D03*
X43500000Y80000000D03*
X45000000Y80000000D03*
X46500000Y80000000D03*
X48000000Y80000000D03*
X49500000Y80000000D03*
X51000000Y80000000D03*
X52500000Y80000000D03*
X54000000Y80000000D03*
X55500000Y80000000D03*
X57000000Y80000000D03*
X39000000Y78500000D03*
X40500000Y78500000D03*
X42000000Y78500000D03*
X43500000Y78500000D03*
X45000000Y78500000D03*
X46500000Y78500000D03*
X48000000Y78500000D03*
X49500000Y78500000D03*
X51000000Y78500000D03*
X52500000Y78500000D03*
X54000000Y78500000D03*
X55500000Y78500000D03*
X57000000Y78500000D03*
X39000000Y77000000D03*
X40500000Y77000000D03*
X42000000Y77000000D03*
X43500000Y77000000D03*
X45000000Y77000000D03*
X46500000Y77000000D03*
X48000000Y77000000D03*
X49500000Y77000000D03*
X51000000Y77000000D03*
X52500000Y77000000D03*
X54000000Y77000000D03*
X55500000Y77000000D03*
X57000000Y77000000D03*
X39000000Y75500000D03*
X40500000Y75500000D03*
X42000000Y75500000D03*
X43500000Y75500000D03*
X45000000Y75500000D03*
X46500000Y75500000D03*
X48000000Y75500000D03*
X49500000Y75500000D03*
X51000000Y75500000D03*
X52500000Y75500000D03*
X54000000Y75500000D03*
X55500000Y75500000D03*
X57000000Y75500000D03*
X39000000Y74000000D03*
X40500000Y74000000D03*
X42000000Y74000000D03*
X43500000Y74000000D03*
X45000000Y74000000D03*
X46500000Y74000000D03*
X48000000Y74000000D03*
X49500000Y74000000D03*
X51000000Y74000000D03*
X52500000Y74000000D03*
X54000000Y74000000D03*
X55500000Y74000000D03*
X57000000Y74000000D03*
X39000000Y72500000D03*
X40500000Y72500000D03*
X42000000Y72500000D03*
X43500000Y72500000D03*
X45000000Y72500000D03*
X46500000Y72500000D03*
X48000000Y72500000D03*
X49500000Y72500000D03*
X51000000Y72500000D03*
X52500000Y72500000D03*
X54000000Y72500000D03*
X55500000Y72500000D03*
X57000000Y72500000D03*
X39000000Y71000000D03*
X40500000Y71000000D03*
X42000000Y71000000D03*
X43500000Y71000000D03*
X45000000Y71000000D03*
X46500000Y71000000D03*
X48000000Y71000000D03*
X49500000Y71000000D03*
X51000000Y71000000D03*
X52500000Y71000000D03*
X54000000Y71000000D03*
X55500000Y71000000D03*
X57000000Y71000000D03*
X39000000Y69500000D03*
X40500000Y69500000D03*
X42000000Y69500000D03*
X43500000Y69500000D03*
X45000000Y69500000D03*
X46500000Y69500000D03*
X48000000Y69500000D03*
X49500000Y69500000D03*
X51000000Y69500000D03*
X52500000Y69500000D03*
X54000000Y69500000D03*
X55500000Y69500000D03*
X57000000Y69500000D03*
X39000000Y68000000D03*
X40500000Y68000000D03*
X42000000Y68000000D03*
X43500000Y68000000D03*
X45000000Y68000000D03*
X46500000Y68000000D03*
X48000000Y68000000D03*
X49500000Y68000000D03*
X51000000Y68000000D03*
X52500000Y68000000D03*
X54000000Y68000000D03*
X55500000Y68000000D03*
X57000000Y68000000D03*
X39000000Y66500000D03*
X40500000Y66500000D03*
X42000000Y66500000D03*
X43500000Y66500000D03*
X45000000Y66500000D03*
X46500000Y66500000D03*
X48000000Y66500000D03*
X49500000Y66500000D03*
X51000000Y66500000D03*
X52500000Y66500000D03*
X54000000Y66500000D03*
X55500000Y66500000D03*
X57000000Y66500000D03*
X39000000Y65000000D03*
X40500000Y65000000D03*
X42000000Y65000000D03*
X43500000Y65000000D03*
X45000000Y65000000D03*
X46500000Y65000000D03*
X48000000Y65000000D03*
X49500000Y65000000D03*
X51000000Y65000000D03*
X52500000Y65000000D03*
X54000000Y65000000D03*
X55500000Y65000000D03*
X57000000Y65000000D03*
X39000000Y63500000D03*
X40500000Y63500000D03*
X42000000Y63500000D03*
X43500000Y63500000D03*
X45000000Y63500000D03*
X46500000Y63500000D03*
X48000000Y63500000D03*
X49500000Y63500000D03*
X51000000Y63500000D03*
X52500000Y63500000D03*
X54000000Y63500000D03*
X55500000Y63500000D03*
X57000000Y63500000D03*
X39000000Y62000000D03*
X40500000Y62000000D03*
X42000000Y62000000D03*
X43500000Y62000000D03*
X45000000Y62000000D03*
X46500000Y62000000D03*
X48000000Y62000000D03*
X49500000Y62000000D03*
X51000000Y62000000D03*
X52500000Y62000000D03*
X54000000Y62000000D03*
X55500000Y62000000D03*
X57000000Y62000000D03*
X39000000Y60500000D03*
X40500000Y60500000D03*
X42000000Y60500000D03*
X43500000Y60500000D03*
X45000000Y60500000D03*
X46500000Y60500000D03*
X48000000Y60500000D03*
X49500000Y60500000D03*
X51000000Y60500000D03*
X52500000Y60500000D03*
X54000000Y60500000D03*
X55500000Y60500000D03*
X57000000Y60500000D03*
X39000000Y59000000D03*
X40500000Y59000000D03*
X42000000Y59000000D03*
X43500000Y59000000D03*
X45000000Y59000000D03*
X46500000Y59000000D03*
X48000000Y59000000D03*
X49500000Y59000000D03*
X51000000Y59000000D03*
X52500000Y59000000D03*
X54000000Y59000000D03*
X55500000Y59000000D03*
X57000000Y59000000D03*
X39000000Y57500000D03*
X40500000Y57500000D03*
X42000000Y57500000D03*
X43500000Y57500000D03*
X45000000Y57500000D03*
X46500000Y57500000D03*
X48000000Y57500000D03*
X49500000Y57500000D03*
X51000000Y57500000D03*
X52500000Y57500000D03*
X54000000Y57500000D03*
X55500000Y57500000D03*
X57000000Y57500000D03*
X42000000Y56000000D03*
X43500000Y56000000D03*
X45000000Y56000000D03*
X46500000Y56000000D03*
X48000000Y56000000D03*
X49500000Y56000000D03*
X51000000Y56000000D03*
X52500000Y56000000D03*
X54000000Y56000000D03*
X55500000Y56000000D03*
X42000000Y54500000D03*
X43500000Y54500000D03*
X45000000Y54500000D03*
X46500000Y54500000D03*
X48000000Y54500000D03*
X49500000Y54500000D03*
X51000000Y54500000D03*
X52500000Y54500000D03*
X54000000Y54500000D03*
X55500000Y54500000D03*
X39000000Y53000000D03*
X40500000Y53000000D03*
X42000000Y53000000D03*
X43500000Y53000000D03*
X45000000Y53000000D03*
X46500000Y53000000D03*
X48000000Y53000000D03*
X49500000Y53000000D03*
X51000000Y53000000D03*
X52500000Y53000000D03*
X54000000Y53000000D03*
X55500000Y53000000D03*
X57000000Y53000000D03*
X61500000Y80000000D03*
X63000000Y80000000D03*
X64500000Y80000000D03*
X61500000Y78500000D03*
X63000000Y78500000D03*
X64500000Y78500000D03*
X61500000Y77000000D03*
X63000000Y77000000D03*
X64500000Y77000000D03*
X61500000Y75500000D03*
X63000000Y75500000D03*
X64500000Y75500000D03*
X61500000Y74000000D03*
X63000000Y74000000D03*
X64500000Y74000000D03*
X61500000Y72500000D03*
X63000000Y72500000D03*
X64500000Y72500000D03*
X61500000Y71000000D03*
X63000000Y71000000D03*
X64500000Y71000000D03*
X61500000Y69500000D03*
X61500000Y68000000D03*
X63000000Y68000000D03*
X64500000Y68000000D03*
X61500000Y66500000D03*
X63000000Y66500000D03*
X64500000Y66500000D03*
X61500000Y65000000D03*
X63000000Y65000000D03*
X64500000Y65000000D03*
X61500000Y63500000D03*
X63000000Y63500000D03*
X64500000Y63500000D03*
X61500000Y62000000D03*
X63000000Y62000000D03*
X64500000Y62000000D03*
X64500000Y60500000D03*
X61500000Y59000000D03*
X63000000Y59000000D03*
X64500000Y59000000D03*
X61500000Y57500000D03*
X63000000Y57500000D03*
X64500000Y57500000D03*
X61500000Y56000000D03*
X63000000Y56000000D03*
X64500000Y56000000D03*
X61500000Y54500000D03*
X63000000Y54500000D03*
X64500000Y54500000D03*
X61500000Y53000000D03*
X63000000Y53000000D03*
X64500000Y53000000D03*
X69000000Y80000000D03*
X70500000Y80000000D03*
X72000000Y80000000D03*
X73500000Y80000000D03*
X75000000Y80000000D03*
X76500000Y80000000D03*
X78000000Y80000000D03*
X79500000Y80000000D03*
X81000000Y80000000D03*
X82500000Y80000000D03*
X84000000Y80000000D03*
X85500000Y80000000D03*
X87000000Y80000000D03*
X88500000Y80000000D03*
X90000000Y80000000D03*
X91500000Y80000000D03*
X93000000Y80000000D03*
X94500000Y80000000D03*
X96000000Y80000000D03*
X97500000Y80000000D03*
X69000000Y78500000D03*
X70500000Y78500000D03*
X72000000Y78500000D03*
X73500000Y78500000D03*
X75000000Y78500000D03*
X76500000Y78500000D03*
X78000000Y78500000D03*
X79500000Y78500000D03*
X81000000Y78500000D03*
X82500000Y78500000D03*
X84000000Y78500000D03*
X85500000Y78500000D03*
X87000000Y78500000D03*
X88500000Y78500000D03*
X90000000Y78500000D03*
X91500000Y78500000D03*
X93000000Y78500000D03*
X94500000Y78500000D03*
X96000000Y78500000D03*
X97500000Y78500000D03*
X69000000Y77000000D03*
X70500000Y77000000D03*
X72000000Y77000000D03*
X73500000Y77000000D03*
X75000000Y77000000D03*
X76500000Y77000000D03*
X78000000Y77000000D03*
X79500000Y77000000D03*
X81000000Y77000000D03*
X82500000Y77000000D03*
X84000000Y77000000D03*
X85500000Y77000000D03*
X87000000Y77000000D03*
X88500000Y77000000D03*
X90000000Y77000000D03*
X91500000Y77000000D03*
X93000000Y77000000D03*
X94500000Y77000000D03*
X96000000Y77000000D03*
X97500000Y77000000D03*
X69000000Y75500000D03*
X70500000Y75500000D03*
X72000000Y75500000D03*
X73500000Y75500000D03*
X75000000Y75500000D03*
X76500000Y75500000D03*
X78000000Y75500000D03*
X79500000Y75500000D03*
X81000000Y75500000D03*
X82500000Y75500000D03*
X84000000Y75500000D03*
X85500000Y75500000D03*
X87000000Y75500000D03*
X88500000Y75500000D03*
X90000000Y75500000D03*
X91500000Y75500000D03*
X93000000Y75500000D03*
X94500000Y75500000D03*
X96000000Y75500000D03*
X97500000Y75500000D03*
X69000000Y74000000D03*
X70500000Y74000000D03*
X72000000Y74000000D03*
X73500000Y74000000D03*
X75000000Y74000000D03*
X76500000Y74000000D03*
X78000000Y74000000D03*
X79500000Y74000000D03*
X81000000Y74000000D03*
X82500000Y74000000D03*
X84000000Y74000000D03*
X85500000Y74000000D03*
X87000000Y74000000D03*
X88500000Y74000000D03*
X90000000Y74000000D03*
X91500000Y74000000D03*
X93000000Y74000000D03*
X94500000Y74000000D03*
X96000000Y74000000D03*
X97500000Y74000000D03*
X69000000Y72500000D03*
X70500000Y72500000D03*
X72000000Y72500000D03*
X73500000Y72500000D03*
X75000000Y72500000D03*
X76500000Y72500000D03*
X78000000Y72500000D03*
X79500000Y72500000D03*
X81000000Y72500000D03*
X82500000Y72500000D03*
X84000000Y72500000D03*
X85500000Y72500000D03*
X87000000Y72500000D03*
X88500000Y72500000D03*
X90000000Y72500000D03*
X91500000Y72500000D03*
X93000000Y72500000D03*
X94500000Y72500000D03*
X96000000Y72500000D03*
X97500000Y72500000D03*
X69000000Y71000000D03*
X70500000Y71000000D03*
X72000000Y71000000D03*
X73500000Y71000000D03*
X75000000Y71000000D03*
X76500000Y71000000D03*
X78000000Y71000000D03*
X79500000Y71000000D03*
X81000000Y71000000D03*
X82500000Y71000000D03*
X84000000Y71000000D03*
X85500000Y71000000D03*
X87000000Y71000000D03*
X88500000Y71000000D03*
X90000000Y71000000D03*
X91500000Y71000000D03*
X93000000Y71000000D03*
X94500000Y71000000D03*
X96000000Y71000000D03*
X97500000Y71000000D03*
X69000000Y69500000D03*
X70500000Y69500000D03*
X72000000Y69500000D03*
X73500000Y69500000D03*
X75000000Y69500000D03*
X76500000Y69500000D03*
X78000000Y69500000D03*
X79500000Y69500000D03*
X87000000Y69500000D03*
X88500000Y69500000D03*
X90000000Y69500000D03*
X91500000Y69500000D03*
X93000000Y69500000D03*
X94500000Y69500000D03*
X96000000Y69500000D03*
X97500000Y69500000D03*
X69000000Y68000000D03*
X70500000Y68000000D03*
X72000000Y68000000D03*
X73500000Y68000000D03*
X75000000Y68000000D03*
X76500000Y68000000D03*
X78000000Y68000000D03*
X88500000Y68000000D03*
X90000000Y68000000D03*
X91500000Y68000000D03*
X93000000Y68000000D03*
X94500000Y68000000D03*
X96000000Y68000000D03*
X97500000Y68000000D03*
X69000000Y66500000D03*
X70500000Y66500000D03*
X72000000Y66500000D03*
X73500000Y66500000D03*
X75000000Y66500000D03*
X76500000Y66500000D03*
X88500000Y66500000D03*
X90000000Y66500000D03*
X91500000Y66500000D03*
X93000000Y66500000D03*
X94500000Y66500000D03*
X96000000Y66500000D03*
X97500000Y66500000D03*
X69000000Y65000000D03*
X70500000Y65000000D03*
X72000000Y65000000D03*
X73500000Y65000000D03*
X75000000Y65000000D03*
X76500000Y65000000D03*
X90000000Y65000000D03*
X91500000Y65000000D03*
X93000000Y65000000D03*
X94500000Y65000000D03*
X96000000Y65000000D03*
X97500000Y65000000D03*
X69000000Y63500000D03*
X70500000Y63500000D03*
X72000000Y63500000D03*
X73500000Y63500000D03*
X75000000Y63500000D03*
X76500000Y63500000D03*
X88500000Y63500000D03*
X90000000Y63500000D03*
X91500000Y63500000D03*
X93000000Y63500000D03*
X94500000Y63500000D03*
X96000000Y63500000D03*
X97500000Y63500000D03*
X69000000Y62000000D03*
X70500000Y62000000D03*
X72000000Y62000000D03*
X73500000Y62000000D03*
X75000000Y62000000D03*
X76500000Y62000000D03*
X78000000Y62000000D03*
X88500000Y62000000D03*
X90000000Y62000000D03*
X91500000Y62000000D03*
X93000000Y62000000D03*
X94500000Y62000000D03*
X96000000Y62000000D03*
X97500000Y62000000D03*
X69000000Y60500000D03*
X70500000Y60500000D03*
X72000000Y60500000D03*
X73500000Y60500000D03*
X75000000Y60500000D03*
X76500000Y60500000D03*
X78000000Y60500000D03*
X79500000Y60500000D03*
X87000000Y60500000D03*
X88500000Y60500000D03*
X90000000Y60500000D03*
X91500000Y60500000D03*
X93000000Y60500000D03*
X94500000Y60500000D03*
X96000000Y60500000D03*
X97500000Y60500000D03*
X69000000Y59000000D03*
X70500000Y59000000D03*
X76500000Y59000000D03*
X78000000Y59000000D03*
X79500000Y59000000D03*
X81000000Y59000000D03*
X82500000Y59000000D03*
X84000000Y59000000D03*
X85500000Y59000000D03*
X87000000Y59000000D03*
X88500000Y59000000D03*
X90000000Y59000000D03*
X91500000Y59000000D03*
X93000000Y59000000D03*
X94500000Y59000000D03*
X96000000Y59000000D03*
X97500000Y59000000D03*
X69000000Y57500000D03*
X70500000Y57500000D03*
X76500000Y57500000D03*
X78000000Y57500000D03*
X79500000Y57500000D03*
X81000000Y57500000D03*
X82500000Y57500000D03*
X84000000Y57500000D03*
X85500000Y57500000D03*
X87000000Y57500000D03*
X88500000Y57500000D03*
X90000000Y57500000D03*
X91500000Y57500000D03*
X72000000Y56000000D03*
X73500000Y56000000D03*
X75000000Y56000000D03*
X76500000Y56000000D03*
X78000000Y56000000D03*
X79500000Y56000000D03*
X81000000Y56000000D03*
X82500000Y56000000D03*
X84000000Y56000000D03*
X85500000Y56000000D03*
X87000000Y56000000D03*
X88500000Y56000000D03*
X90000000Y56000000D03*
X91500000Y56000000D03*
X72000000Y54500000D03*
X73500000Y54500000D03*
X75000000Y54500000D03*
X76500000Y54500000D03*
X78000000Y54500000D03*
X79500000Y54500000D03*
X81000000Y54500000D03*
X82500000Y54500000D03*
X84000000Y54500000D03*
X85500000Y54500000D03*
X87000000Y54500000D03*
X88500000Y54500000D03*
X90000000Y54500000D03*
X91500000Y54500000D03*
X93000000Y54500000D03*
X94500000Y54500000D03*
X96000000Y54500000D03*
X97500000Y54500000D03*
X69000000Y53000000D03*
X70500000Y53000000D03*
X72000000Y53000000D03*
X73500000Y53000000D03*
X75000000Y53000000D03*
X76500000Y53000000D03*
X78000000Y53000000D03*
X79500000Y53000000D03*
X81000000Y53000000D03*
X82500000Y53000000D03*
X84000000Y53000000D03*
X85500000Y53000000D03*
X91500000Y53000000D03*
X93000000Y53000000D03*
X94500000Y53000000D03*
X96000000Y53000000D03*
X97500000Y53000000D03*
X102000000Y80000000D03*
X103500000Y80000000D03*
X105000000Y80000000D03*
X106500000Y80000000D03*
X108000000Y80000000D03*
X109500000Y80000000D03*
X111000000Y80000000D03*
X112500000Y80000000D03*
X114000000Y80000000D03*
X115500000Y80000000D03*
X117000000Y80000000D03*
X118500000Y80000000D03*
X120000000Y80000000D03*
X121500000Y80000000D03*
X123000000Y80000000D03*
X124500000Y80000000D03*
X126000000Y80000000D03*
X127500000Y80000000D03*
X129000000Y80000000D03*
X130500000Y80000000D03*
X132000000Y80000000D03*
X133500000Y80000000D03*
X135000000Y80000000D03*
X136500000Y80000000D03*
X138000000Y80000000D03*
X102000000Y78500000D03*
X103500000Y78500000D03*
X105000000Y78500000D03*
X106500000Y78500000D03*
X108000000Y78500000D03*
X109500000Y78500000D03*
X111000000Y78500000D03*
X112500000Y78500000D03*
X114000000Y78500000D03*
X115500000Y78500000D03*
X117000000Y78500000D03*
X118500000Y78500000D03*
X120000000Y78500000D03*
X121500000Y78500000D03*
X123000000Y78500000D03*
X124500000Y78500000D03*
X126000000Y78500000D03*
X127500000Y78500000D03*
X129000000Y78500000D03*
X130500000Y78500000D03*
X132000000Y78500000D03*
X133500000Y78500000D03*
X135000000Y78500000D03*
X136500000Y78500000D03*
X138000000Y78500000D03*
X102000000Y77000000D03*
X103500000Y77000000D03*
X105000000Y77000000D03*
X106500000Y77000000D03*
X108000000Y77000000D03*
X109500000Y77000000D03*
X111000000Y77000000D03*
X112500000Y77000000D03*
X114000000Y77000000D03*
X115500000Y77000000D03*
X117000000Y77000000D03*
X118500000Y77000000D03*
X120000000Y77000000D03*
X121500000Y77000000D03*
X123000000Y77000000D03*
X124500000Y77000000D03*
X126000000Y77000000D03*
X127500000Y77000000D03*
X129000000Y77000000D03*
X130500000Y77000000D03*
X132000000Y77000000D03*
X133500000Y77000000D03*
X135000000Y77000000D03*
X136500000Y77000000D03*
X138000000Y77000000D03*
X102000000Y75500000D03*
X103500000Y75500000D03*
X105000000Y75500000D03*
X106500000Y75500000D03*
X108000000Y75500000D03*
X109500000Y75500000D03*
X111000000Y75500000D03*
X112500000Y75500000D03*
X114000000Y75500000D03*
X115500000Y75500000D03*
X117000000Y75500000D03*
X118500000Y75500000D03*
X120000000Y75500000D03*
X121500000Y75500000D03*
X123000000Y75500000D03*
X124500000Y75500000D03*
X126000000Y75500000D03*
X127500000Y75500000D03*
X129000000Y75500000D03*
X130500000Y75500000D03*
X132000000Y75500000D03*
X133500000Y75500000D03*
X135000000Y75500000D03*
X136500000Y75500000D03*
X138000000Y75500000D03*
X102000000Y74000000D03*
X103500000Y74000000D03*
X105000000Y74000000D03*
X106500000Y74000000D03*
X108000000Y74000000D03*
X109500000Y74000000D03*
X111000000Y74000000D03*
X112500000Y74000000D03*
X114000000Y74000000D03*
X115500000Y74000000D03*
X117000000Y74000000D03*
X118500000Y74000000D03*
X120000000Y74000000D03*
X121500000Y74000000D03*
X123000000Y74000000D03*
X124500000Y74000000D03*
X126000000Y74000000D03*
X133500000Y74000000D03*
X135000000Y74000000D03*
X136500000Y74000000D03*
X138000000Y74000000D03*
X102000000Y72500000D03*
X103500000Y72500000D03*
X105000000Y72500000D03*
X106500000Y72500000D03*
X108000000Y72500000D03*
X109500000Y72500000D03*
X111000000Y72500000D03*
X112500000Y72500000D03*
X114000000Y72500000D03*
X115500000Y72500000D03*
X117000000Y72500000D03*
X118500000Y72500000D03*
X120000000Y72500000D03*
X121500000Y72500000D03*
X123000000Y72500000D03*
X136500000Y72500000D03*
X138000000Y72500000D03*
X102000000Y71000000D03*
X103500000Y71000000D03*
X105000000Y71000000D03*
X106500000Y71000000D03*
X108000000Y71000000D03*
X109500000Y71000000D03*
X111000000Y71000000D03*
X112500000Y71000000D03*
X114000000Y71000000D03*
X115500000Y71000000D03*
X117000000Y71000000D03*
X118500000Y71000000D03*
X120000000Y71000000D03*
X121500000Y71000000D03*
X138000000Y71000000D03*
X102000000Y69500000D03*
X103500000Y69500000D03*
X105000000Y69500000D03*
X106500000Y69500000D03*
X108000000Y69500000D03*
X109500000Y69500000D03*
X117000000Y69500000D03*
X118500000Y69500000D03*
X120000000Y69500000D03*
X121500000Y69500000D03*
X102000000Y68000000D03*
X103500000Y68000000D03*
X105000000Y68000000D03*
X106500000Y68000000D03*
X108000000Y68000000D03*
X118500000Y68000000D03*
X120000000Y68000000D03*
X102000000Y66500000D03*
X103500000Y66500000D03*
X105000000Y66500000D03*
X106500000Y66500000D03*
X118500000Y66500000D03*
X120000000Y66500000D03*
X102000000Y65000000D03*
X103500000Y65000000D03*
X105000000Y65000000D03*
X106500000Y65000000D03*
X120000000Y65000000D03*
X102000000Y63500000D03*
X103500000Y63500000D03*
X105000000Y63500000D03*
X106500000Y63500000D03*
X118500000Y63500000D03*
X120000000Y63500000D03*
X102000000Y62000000D03*
X103500000Y62000000D03*
X105000000Y62000000D03*
X106500000Y62000000D03*
X108000000Y62000000D03*
X118500000Y62000000D03*
X120000000Y62000000D03*
X102000000Y60500000D03*
X103500000Y60500000D03*
X105000000Y60500000D03*
X106500000Y60500000D03*
X108000000Y60500000D03*
X109500000Y60500000D03*
X117000000Y60500000D03*
X118500000Y60500000D03*
X120000000Y60500000D03*
X121500000Y60500000D03*
X102000000Y59000000D03*
X103500000Y59000000D03*
X105000000Y59000000D03*
X106500000Y59000000D03*
X108000000Y59000000D03*
X109500000Y59000000D03*
X111000000Y59000000D03*
X112500000Y59000000D03*
X114000000Y59000000D03*
X115500000Y59000000D03*
X117000000Y59000000D03*
X118500000Y59000000D03*
X120000000Y59000000D03*
X121500000Y59000000D03*
X138000000Y59000000D03*
X103500000Y57500000D03*
X105000000Y57500000D03*
X106500000Y57500000D03*
X108000000Y57500000D03*
X109500000Y57500000D03*
X111000000Y57500000D03*
X112500000Y57500000D03*
X114000000Y57500000D03*
X115500000Y57500000D03*
X117000000Y57500000D03*
X118500000Y57500000D03*
X120000000Y57500000D03*
X121500000Y57500000D03*
X123000000Y57500000D03*
X136500000Y57500000D03*
X138000000Y57500000D03*
X103500000Y56000000D03*
X105000000Y56000000D03*
X106500000Y56000000D03*
X108000000Y56000000D03*
X109500000Y56000000D03*
X111000000Y56000000D03*
X112500000Y56000000D03*
X114000000Y56000000D03*
X115500000Y56000000D03*
X117000000Y56000000D03*
X118500000Y56000000D03*
X120000000Y56000000D03*
X121500000Y56000000D03*
X123000000Y56000000D03*
X124500000Y56000000D03*
X126000000Y56000000D03*
X133500000Y56000000D03*
X135000000Y56000000D03*
X136500000Y56000000D03*
X138000000Y56000000D03*
X102000000Y54500000D03*
X103500000Y54500000D03*
X105000000Y54500000D03*
X106500000Y54500000D03*
X108000000Y54500000D03*
X109500000Y54500000D03*
X111000000Y54500000D03*
X112500000Y54500000D03*
X114000000Y54500000D03*
X115500000Y54500000D03*
X117000000Y54500000D03*
X118500000Y54500000D03*
X120000000Y54500000D03*
X121500000Y54500000D03*
X123000000Y54500000D03*
X124500000Y54500000D03*
X126000000Y54500000D03*
X127500000Y54500000D03*
X129000000Y54500000D03*
X130500000Y54500000D03*
X132000000Y54500000D03*
X133500000Y54500000D03*
X135000000Y54500000D03*
X136500000Y54500000D03*
X138000000Y54500000D03*
X102000000Y53000000D03*
X103500000Y53000000D03*
X105000000Y53000000D03*
X106500000Y53000000D03*
X108000000Y53000000D03*
X109500000Y53000000D03*
X111000000Y53000000D03*
X112500000Y53000000D03*
X114000000Y53000000D03*
X115500000Y53000000D03*
X117000000Y53000000D03*
X118500000Y53000000D03*
X120000000Y53000000D03*
X121500000Y53000000D03*
X123000000Y53000000D03*
X124500000Y53000000D03*
X126000000Y53000000D03*
X127500000Y53000000D03*
X129000000Y53000000D03*
X130500000Y53000000D03*
X132000000Y53000000D03*
X133500000Y53000000D03*
X135000000Y53000000D03*
X136500000Y53000000D03*
X138000000Y53000000D03*
D737*
X37000000Y47500000D03*
X38000000Y45000000D03*
X35250000Y43250000D03*
X67000000Y47500000D03*
X68000000Y45000000D03*
X65250000Y43250000D03*
X86000000Y44500000D03*
X87000000Y42000000D03*
X84250000Y40250000D03*
X89000000Y53000000D03*
X92000000Y48000000D03*
X27000000Y55000000D03*
X31750000Y60750000D03*
X38000000Y55000000D03*
X34250000Y69250000D03*
X57000000Y55000000D03*
X61750000Y60750000D03*
X68000000Y55000000D03*
X64250000Y69250000D03*
X35000000Y49500000D03*
X36250000Y42000000D03*
X65000000Y49500000D03*
X66250000Y42000000D03*
X86000000Y50000000D03*
X87000000Y53000000D03*
X85250000Y39000000D03*
X69000000Y33000000D03*
X72000000Y6000000D03*
X66000000Y6000000D03*
X65000000Y36000000D03*
X106000000Y35000000D03*
X83000000Y49000000D03*
X53750000Y65000000D03*
X129500000Y41000000D03*
X120750000Y41000000D03*
X87000000Y35000000D03*
X81500000Y14500000D03*
X29750000Y44500000D03*
X59750000Y44500000D03*
X76000000Y39000000D03*
X116000000Y31000000D03*
X104000000Y6000000D03*
X14000000Y32000000D03*
X6000000Y32000000D03*
X22500000Y32000000D03*
X96750000Y41000000D03*
X89750000Y49000000D03*
X105500000Y41000000D03*
X114500000Y41000000D03*
X123250000Y41750000D03*
X74000000Y35000000D03*
X72000000Y58000000D03*
X58000000Y36000000D03*
X55000000Y36000000D03*
X53000000Y32000000D03*
X111000000Y37000000D03*
X108000000Y35000000D03*
X107000000Y46000000D03*
X88750000Y39000000D03*
X79750000Y43250000D03*
X60750000Y46250000D03*
X69750000Y42000000D03*
X30750000Y46250000D03*
X39750000Y42000000D03*
X45500000Y31000000D03*
X72000000Y35000000D03*
X112000000Y6750000D03*
X127000000Y31000000D03*
X35000000Y39000000D03*
X33000000Y45000000D03*
X33500000Y32000000D03*
X60500000Y33250000D03*
X55000000Y32000000D03*
X67000000Y33250000D03*
X62500000Y33250000D03*
X71000000Y33750000D03*
X65000000Y39000000D03*
X63000000Y45000000D03*
X94000000Y35000000D03*
X84000000Y35000000D03*
X111000000Y35000000D03*
X99000000Y35000000D03*
X109250000Y41750000D03*
X96000000Y48000000D03*
X109000000Y46000000D03*
X100000000Y6000000D03*
X86000000Y7000000D03*
X94000000Y6000000D03*
X76000000Y7000000D03*
X58000000Y8000000D03*
X64000000Y7000000D03*
X74000000Y58000000D03*
X78000000Y43000000D03*
X132000000Y47000000D03*
X121000000Y31750000D03*
X27000000Y37000000D03*
D738*
X38000000Y45000000D02*
X38000000Y53000000D01*
X38000000Y53000000D02*
X34500000Y53000000D01*
X68000000Y45000000D02*
X68000000Y53000000D01*
X68000000Y53000000D02*
X64500000Y53000000D01*
X89000000Y53000000D02*
X89000000Y48000000D01*
X89000000Y48000000D02*
X92000000Y48000000D01*
X27000000Y55000000D02*
X27000000Y56750000D01*
X27000000Y56750000D02*
X27750000Y56750000D01*
X27750000Y56750000D02*
X27750000Y60750000D01*
X27750000Y60750000D02*
X31750000Y60750000D01*
X38000000Y55000000D02*
X38000000Y69250000D01*
X38000000Y69250000D02*
X34250000Y69250000D01*
X57000000Y55000000D02*
X57000000Y56750000D01*
X57000000Y56750000D02*
X57750000Y56750000D01*
X57750000Y56750000D02*
X57750000Y60750000D01*
X57750000Y60750000D02*
X61750000Y60750000D01*
X68000000Y55000000D02*
X68000000Y69250000D01*
X68000000Y69250000D02*
X64250000Y69250000D01*
X35000000Y49500000D02*
X35000000Y43250000D01*
X35000000Y43250000D02*
X35250000Y43250000D01*
X36250000Y42000000D02*
X36250000Y47500000D01*
X36250000Y47500000D02*
X37000000Y47500000D01*
X65000000Y49500000D02*
X65000000Y43250000D01*
X65000000Y43250000D02*
X65250000Y43250000D01*
X66250000Y42000000D02*
X66250000Y47500000D01*
X66250000Y47500000D02*
X67000000Y47500000D01*
X86000000Y50000000D02*
X86000000Y45250000D01*
X86000000Y45250000D02*
X85500000Y45250000D01*
X85500000Y45250000D02*
X85500000Y45000000D01*
X85500000Y45000000D02*
X85250000Y45000000D01*
X85250000Y45000000D02*
X85250000Y40250000D01*
X85250000Y40250000D02*
X84250000Y40250000D01*
X87000000Y53000000D02*
X87000000Y50000000D01*
X87000000Y50000000D02*
X86000000Y50000000D01*
X85250000Y39000000D02*
X85250000Y39750000D01*
X85250000Y39750000D02*
X85750000Y39750000D01*
X85750000Y39750000D02*
X85750000Y44500000D01*
X85750000Y44500000D02*
X86000000Y44500000D01*
X72000000Y6000000D02*
X72000000Y11000000D01*
X72000000Y11000000D02*
X72750000Y11000000D01*
X72750000Y11000000D02*
X72750000Y11250000D01*
X72750000Y11250000D02*
X73000000Y11250000D01*
X73000000Y11250000D02*
X73000000Y11500000D01*
X73000000Y11500000D02*
X73250000Y11500000D01*
X73250000Y11500000D02*
X73250000Y26250000D01*
X73250000Y26250000D02*
X75250000Y26250000D01*
X75250000Y26250000D02*
X75250000Y26500000D01*
X75250000Y26500000D02*
X75500000Y26500000D01*
X75500000Y26500000D02*
X75500000Y26750000D01*
X75500000Y26750000D02*
X75750000Y26750000D01*
X75750000Y26750000D02*
X75750000Y27250000D01*
X75750000Y27250000D02*
X76000000Y27250000D01*
X76000000Y27250000D02*
X76000000Y27500000D01*
X76000000Y27500000D02*
X77000000Y27500000D01*
X77110000Y27620000D02*
X77000000Y27500000D01*
X8250000Y43000000D02*
X8250000Y65000000D01*
X8250000Y65000000D02*
X10000000Y65000000D01*
X87000000Y35000000D02*
X87000000Y41250000D01*
X87000000Y41250000D02*
X87500000Y41250000D01*
X87500000Y41250000D02*
X87500000Y41500000D01*
X87500000Y41500000D02*
X87750000Y41500000D01*
X87750000Y41500000D02*
X87750000Y55250000D01*
X87750000Y55250000D02*
X92250000Y55250000D01*
X92250000Y55250000D02*
X92250000Y55750000D01*
X92250000Y55750000D02*
X97500000Y55750000D01*
X97500000Y55750000D02*
X97500000Y56000000D01*
X97500000Y56000000D02*
X97750000Y56000000D01*
X97750000Y56000000D02*
X97750000Y56250000D01*
X97750000Y56250000D02*
X98000000Y56250000D01*
X98000000Y56250000D02*
X98000000Y57000000D01*
X98000000Y57000000D02*
X99250000Y57000000D01*
X99270000Y57000000D02*
X99250000Y57000000D01*
X29750000Y44500000D02*
X29750000Y12500000D01*
X29750000Y12500000D02*
X61750000Y12500000D01*
X61870000Y12380000D02*
X61750000Y12500000D01*
X59750000Y44500000D02*
X59750000Y13750000D01*
X59750000Y13750000D02*
X62500000Y13750000D01*
X62500000Y13750000D02*
X62500000Y13500000D01*
X62500000Y13500000D02*
X62750000Y13500000D01*
X62750000Y13500000D02*
X62750000Y13250000D01*
X62750000Y13250000D02*
X63000000Y13250000D01*
X63000000Y13250000D02*
X63000000Y13000000D01*
X63000000Y13000000D02*
X63250000Y13000000D01*
X63250000Y13000000D02*
X63250000Y12500000D01*
X63250000Y12500000D02*
X64500000Y12500000D01*
X64410000Y12380000D02*
X64500000Y12500000D01*
X76000000Y39000000D02*
X76000000Y29000000D01*
X76000000Y29000000D02*
X71500000Y29000000D01*
X71500000Y29000000D02*
X71500000Y28750000D01*
X71500000Y28750000D02*
X71000000Y28750000D01*
X71000000Y28750000D02*
X71000000Y28500000D01*
X71000000Y28500000D02*
X70750000Y28500000D01*
X70750000Y28500000D02*
X70750000Y13750000D01*
X70750000Y13750000D02*
X68750000Y13750000D01*
X68750000Y13750000D02*
X68750000Y13500000D01*
X68750000Y13500000D02*
X68500000Y13500000D01*
X68500000Y13500000D02*
X68500000Y13250000D01*
X68500000Y13250000D02*
X68250000Y13250000D01*
X68250000Y13250000D02*
X68250000Y12500000D01*
X68250000Y12500000D02*
X67000000Y12500000D01*
X66950000Y12380000D02*
X67000000Y12500000D01*
X116000000Y31000000D02*
X116000000Y13750000D01*
X116000000Y13750000D02*
X102000000Y13750000D01*
X102000000Y13750000D02*
X102000000Y13500000D01*
X102000000Y13500000D02*
X101500000Y13500000D01*
X101500000Y13500000D02*
X101500000Y13250000D01*
X101500000Y13250000D02*
X101250000Y13250000D01*
X101250000Y13250000D02*
X101250000Y12500000D01*
X101250000Y12500000D02*
X100000000Y12500000D01*
X99970000Y12380000D02*
X100000000Y12500000D01*
X118500000Y5000000D02*
X118500000Y16000000D01*
X118500000Y16000000D02*
X118750000Y16000000D01*
X118750000Y16000000D02*
X118750000Y16250000D01*
X118750000Y16250000D02*
X119250000Y16250000D01*
X119250000Y16250000D02*
X119250000Y16500000D01*
X119250000Y16500000D02*
X119500000Y16500000D01*
X119500000Y16500000D02*
X119500000Y16750000D01*
X119500000Y16750000D02*
X119750000Y16750000D01*
X119750000Y16750000D02*
X119750000Y22500000D01*
X119750000Y22500000D02*
X133500000Y22500000D01*
X118380000Y5000000D02*
X118500000Y5000000D01*
X133620000Y22540000D02*
X133500000Y22500000D01*
X123500000Y5000000D02*
X123500000Y20000000D01*
X123500000Y20000000D02*
X133500000Y20000000D01*
X123460000Y5000000D02*
X123500000Y5000000D01*
X133620000Y20000000D02*
X133500000Y20000000D01*
X96750000Y41000000D02*
X96750000Y49000000D01*
X96750000Y49000000D02*
X89750000Y49000000D01*
X74000000Y35000000D02*
X74000000Y52250000D01*
X74000000Y52250000D02*
X72750000Y52250000D01*
X72750000Y52250000D02*
X72750000Y58000000D01*
X72750000Y58000000D02*
X72000000Y58000000D01*
X53000000Y32000000D02*
X53000000Y36000000D01*
X53000000Y36000000D02*
X55000000Y36000000D01*
X107000000Y46000000D02*
X107000000Y37000000D01*
X107000000Y37000000D02*
X111000000Y37000000D01*
X45500000Y31000000D02*
X45500000Y42000000D01*
X45500000Y42000000D02*
X39750000Y42000000D01*
X110250000Y12500000D02*
X110250000Y6750000D01*
X110250000Y6750000D02*
X112000000Y6750000D01*
X110130000Y12380000D02*
X110250000Y12500000D01*
X35000000Y39000000D02*
X35000000Y42500000D01*
X35000000Y42500000D02*
X34750000Y42500000D01*
X34750000Y42500000D02*
X34750000Y42750000D01*
X34750000Y42750000D02*
X34500000Y42750000D01*
X34500000Y42750000D02*
X34500000Y45000000D01*
X34500000Y45000000D02*
X33000000Y45000000D01*
X33500000Y32000000D02*
X33500000Y39000000D01*
X33500000Y39000000D02*
X35000000Y39000000D01*
X65000000Y39000000D02*
X65000000Y36750000D01*
X65000000Y36750000D02*
X65500000Y36750000D01*
X65500000Y36750000D02*
X65500000Y36500000D01*
X65500000Y36500000D02*
X65750000Y36500000D01*
X65750000Y36500000D02*
X65750000Y33250000D01*
X65750000Y33250000D02*
X67000000Y33250000D01*
X63000000Y45000000D02*
X63000000Y39000000D01*
X63000000Y39000000D02*
X65000000Y39000000D01*
X74000000Y58000000D02*
X74000000Y56750000D01*
X74000000Y56750000D02*
X74250000Y56750000D01*
X74250000Y56750000D02*
X74250000Y53750000D01*
X74250000Y53750000D02*
X75750000Y53750000D01*
X75750000Y53750000D02*
X75750000Y43000000D01*
X75750000Y43000000D02*
X78000000Y43000000D01*
X128500000Y5000000D02*
X128500000Y17500000D01*
X128500000Y17500000D02*
X133500000Y17500000D01*
X128540000Y5000000D02*
X128500000Y5000000D01*
X133620000Y17460000D02*
X133500000Y17500000D01*
X132000000Y47000000D02*
X132000000Y31750000D01*
X132000000Y31750000D02*
X121000000Y31750000D01*
X7000000Y10000000D02*
X7000000Y24000000D01*
X7000000Y24000000D02*
X7750000Y24000000D01*
X7750000Y24000000D02*
X7750000Y24250000D01*
X7750000Y24250000D02*
X8250000Y24250000D01*
X8250000Y24250000D02*
X8250000Y24500000D01*
X8250000Y24500000D02*
X8500000Y24500000D01*
X8500000Y24500000D02*
X8500000Y24750000D01*
X8500000Y24750000D02*
X8750000Y24750000D01*
X8750000Y24750000D02*
X8750000Y25250000D01*
X8750000Y25250000D02*
X9000000Y25250000D01*
X9000000Y25250000D02*
X9000000Y37000000D01*
X9000000Y37000000D02*
X27000000Y37000000D01*
M02*
