G04 PROVISIONAL - MODULE FOOTPRINTS ESTIMATED - NOT RELEASED FOR FABRICATION*
%TF.GenerationSoftware,OpenAI,ELC-Native-Writer,1.0*%
%TF.FileFunction,Copper,3,Inr*%
%TF.FilePolarity,Positive*%
%FSLAX46Y46*%
%MOMM*%
%LPD*%
%ADD10R,52.3000X0.3000*%
%ADD11R,19.7000X0.1000*%
%ADD12R,6.9000X0.1000*%
%ADD13R,44.8000X3.9000*%
%ADD14R,19.5000X0.1000*%
%ADD15R,6.8000X0.2000*%
%ADD16R,19.4000X0.1000*%
%ADD17R,52.4000X0.1000*%
%ADD18R,19.3000X0.1000*%
%ADD19R,6.7000X0.4000*%
%ADD20R,33.8000X0.1000*%
%ADD21R,18.2000X0.1000*%
%ADD22R,19.2000X0.3000*%
%ADD23R,33.6000X0.1000*%
%ADD24R,18.1000X0.1000*%
%ADD25R,33.5000X0.2000*%
%ADD26R,18.2000X0.1000*%
%ADD27R,29.0000X0.1000*%
%ADD28R,19.3000X0.2000*%
%ADD29R,33.4000X0.4000*%
%ADD30R,28.8000X0.4000*%
%ADD31R,16.6000X0.1000*%
%ADD32R,2.4000X0.1000*%
%ADD33R,3.2000X0.1000*%
%ADD34R,3.4000X0.1000*%
%ADD35R,16.4000X0.1000*%
%ADD36R,3.2000X0.1000*%
%ADD37R,5.8000X0.1000*%
%ADD38R,3.1000X0.1000*%
%ADD39R,29.0000X0.2000*%
%ADD40R,5.7000X0.1000*%
%ADD41R,3.0000X0.6000*%
%ADD42R,5.6000X0.4000*%
%ADD43R,29.2000X0.1000*%
%ADD44R,29.6000X0.1000*%
%ADD45R,0.1000X0.1000*%
%ADD46R,64.4000X0.2000*%
%ADD47R,64.5000X0.1000*%
%ADD48R,81.6000X0.1000*%
%ADD49R,6.0000X0.1000*%
%ADD50R,1.7000X0.1000*%
%ADD51R,1.1000X0.1000*%
%ADD52R,81.8000X0.1000*%
%ADD53R,6.4000X0.1000*%
%ADD54R,1.7000X0.1000*%
%ADD55R,0.9000X0.1000*%
%ADD56R,90.5000X0.2000*%
%ADD57R,0.8000X0.2000*%
%ADD58R,90.4000X0.1000*%
%ADD59R,0.7000X0.4000*%
%ADD60R,35.8000X0.1000*%
%ADD61R,24.2000X0.1000*%
%ADD62R,35.6000X0.1000*%
%ADD63R,24.0000X0.1000*%
%ADD64R,35.5000X0.2000*%
%ADD65R,23.9000X0.1000*%
%ADD66R,24.0000X0.1000*%
%ADD67R,35.4000X0.4000*%
%ADD68R,25.7000X0.1000*%
%ADD69R,25.8000X0.2000*%
%ADD70R,25.9000X0.1000*%
%ADD71R,26.1000X0.1000*%
%ADD72R,92.3000X0.1000*%
%ADD73R,29.5000X0.1000*%
%ADD74R,32.3000X0.1000*%
%ADD75R,29.3000X0.2000*%
%ADD76R,20.5000X0.1000*%
%ADD77R,23.5000X0.1000*%
%ADD78R,20.3000X0.1000*%
%ADD79R,23.3000X0.1000*%
%ADD80R,12.6000X0.1000*%
%ADD81R,31.8000X0.1000*%
%ADD82R,29.2000X0.5000*%
%ADD83R,20.1000X0.2000*%
%ADD84R,23.2000X0.2000*%
%ADD85R,12.4000X0.1000*%
%ADD86R,31.6000X0.1000*%
%ADD87R,12.3000X0.2000*%
%ADD88R,31.5000X0.2000*%
%ADD89R,20.0000X0.3000*%
%ADD90R,23.1000X1.2000*%
%ADD91R,12.2000X0.4000*%
%ADD92R,31.4000X0.4000*%
%ADD93R,20.1000X0.2000*%
%ADD94R,8.3000X0.1000*%
%ADD95R,20.3000X0.1000*%
%ADD96R,38.3000X0.1000*%
%ADD97R,29.1000X0.1000*%
%ADD98R,36.8000X0.1000*%
%ADD99R,27.6000X0.1000*%
%ADD100R,36.6000X0.1000*%
%ADD101R,0.9000X0.1000*%
%ADD102R,27.4000X0.1000*%
%ADD103R,36.5000X0.2000*%
%ADD104R,27.3000X0.2000*%
%ADD105R,44.8000X3.1000*%
%ADD106R,36.4000X0.1000*%
%ADD107R,0.7000X0.4000*%
%ADD108R,27.2000X0.1000*%
%ADD109R,28.6000X0.1000*%
%ADD110R,7.5000X0.1000*%
%ADD111R,19.4000X0.1000*%
%ADD112R,7.5000X0.1000*%
%ADD113R,15.6000X0.1000*%
%ADD114R,7.1000X0.1000*%
%ADD115R,28.4000X0.1000*%
%ADD116R,7.3000X0.1000*%
%ADD117R,19.2000X0.1000*%
%ADD118R,7.3000X0.1000*%
%ADD119R,15.4000X0.1000*%
%ADD120R,6.7000X0.1000*%
%ADD121R,7.2000X0.1000*%
%ADD122R,19.1000X0.1000*%
%ADD123R,7.2000X0.1000*%
%ADD124R,15.3000X0.2000*%
%ADD125R,6.4000X0.1000*%
%ADD126R,20.1000X0.1000*%
%ADD127R,7.2000X0.2000*%
%ADD128R,19.0000X0.6000*%
%ADD129R,7.2000X0.2000*%
%ADD130R,6.2000X0.1000*%
%ADD131R,19.9000X0.1000*%
%ADD132R,15.2000X0.4000*%
%ADD133R,6.1000X0.1000*%
%ADD134R,19.8000X0.1000*%
%ADD135R,7.3000X0.1000*%
%ADD136R,19.7000X0.1000*%
%ADD137R,7.5000X0.1000*%
%ADD138R,5.9000X0.1000*%
%ADD139R,19.6000X0.1000*%
%ADD140R,9.0000X0.2000*%
%ADD141R,9.0000X0.2000*%
%ADD142R,5.8000X0.1000*%
%ADD143R,19.5000X0.1000*%
%ADD144R,5.7000X0.1000*%
%ADD145R,9.1000X0.1000*%
%ADD146R,9.1000X0.1000*%
%ADD147R,5.6000X0.2000*%
%ADD148R,9.2000X0.1000*%
%ADD149R,19.7000X0.1000*%
%ADD150R,9.4000X0.1000*%
%ADD151R,5.5000X0.2000*%
%ADD152R,29.3000X0.1000*%
%ADD153R,23.1000X0.1000*%
%ADD154R,25.0000X0.1000*%
%ADD155R,3.8000X0.1000*%
%ADD156R,24.8000X0.1000*%
%ADD157R,9.3000X0.1000*%
%ADD158R,13.3000X0.1000*%
%ADD159R,5.4000X0.4000*%
%ADD160R,24.7000X0.2000*%
%ADD161R,3.6000X0.2000*%
%ADD162R,24.6000X0.2000*%
%ADD163R,9.1000X0.2000*%
%ADD164R,4.5000X0.1000*%
%ADD165R,4.3000X0.1000*%
%ADD166R,24.6000X0.2000*%
%ADD167R,3.5000X0.5000*%
%ADD168R,24.5000X0.5000*%
%ADD169R,9.0000X0.5000*%
%ADD170R,4.2000X0.2000*%
%ADD171R,5.3000X0.6000*%
%ADD172R,24.5000X0.3000*%
%ADD173R,4.1000X3.9000*%
%ADD174R,24.6000X0.2000*%
%ADD175R,24.8000X0.1000*%
%ADD176R,18.1000X0.1000*%
%ADD177R,26.0000X0.1000*%
%ADD178R,2.9000X0.1000*%
%ADD179R,2.9000X0.1000*%
%ADD180R,25.8000X0.1000*%
%ADD181R,2.7000X0.1000*%
%ADD182R,2.7000X0.1000*%
%ADD183R,25.7000X0.1000*%
%ADD184R,2.6000X0.1000*%
%ADD185R,25.6000X0.1000*%
%ADD186R,16.3000X0.1000*%
%ADD187R,25.7000X0.2000*%
%ADD188R,2.4000X0.6000*%
%ADD189R,25.4000X0.6000*%
%ADD190R,16.2000X0.1000*%
%ADD191R,28.8000X0.1000*%
%ADD192R,15.5000X0.1000*%
%ADD193R,16.1000X0.4000*%
%ADD194R,20.2000X0.1000*%
%ADD195R,15.3000X0.2000*%
%ADD196R,25.8000X0.2000*%
%ADD197R,20.0000X0.1000*%
%ADD198R,19.9000X0.4000*%
%ADD199R,15.2000X0.4000*%
%ADD200R,25.9000X0.1000*%
%ADD201R,26.0000X0.1000*%
%ADD202R,26.2000X0.1000*%
%ADD203R,26.4000X0.1000*%
%ADD204R,2.8000X0.1000*%
%ADD205R,25.8000X0.1000*%
%ADD206R,2.8000X0.1000*%
%ADD207R,16.5000X0.1000*%
%ADD208R,8.4000X0.1000*%
%ADD209R,5.5000X0.1000*%
%ADD210R,9.3000X0.1000*%
%ADD211R,26.7000X0.1000*%
%ADD212R,16.9000X0.1000*%
%ADD213R,2.2000X0.1000*%
%ADD214R,8.0000X0.1000*%
%ADD215R,8.2000X0.1000*%
%ADD216R,5.4000X0.1000*%
%ADD217R,79.0000X0.1000*%
%ADD218R,2.1000X0.1000*%
%ADD219R,79.2000X0.1000*%
%ADD220R,2.0000X0.6000*%
%ADD221R,5.2000X0.1000*%
%ADD222R,79.5000X0.1000*%
%ADD223R,5.1000X0.4000*%
%ADD224R,8.9000X0.4000*%
%ADD225R,87.3000X0.3000*%
%ADD226R,83.0000X0.1000*%
%ADD227R,82.8000X0.2000*%
%ADD228R,5.3000X0.1000*%
%ADD229R,5.5000X0.1000*%
%ADD230R,82.7000X0.5000*%
%ADD231R,8.6000X0.1000*%
%ADD232R,5.9000X0.1000*%
%ADD233R,8.4000X0.1000*%
%ADD234R,44.8000X1.5000*%
%ADD235R,87.3000X0.1000*%
%ADD236R,74.8000X0.1000*%
%ADD237R,8.9000X0.1000*%
%ADD238R,74.6000X0.1000*%
%ADD239R,8.5000X0.1000*%
%ADD240R,74.5000X0.2000*%
%ADD241R,8.3000X0.1000*%
%ADD242R,8.2000X0.1000*%
%ADD243R,74.4000X0.4000*%
%ADD244R,8.1000X0.4000*%
%ADD245R,44.9000X0.2000*%
%ADD246R,45.0000X0.1000*%
%ADD247R,49.9000X0.1000*%
%ADD248R,50.1000X0.1000*%
%ADD249R,138.0000X0.8000*%
%ADD250R,109.8000X0.1000*%
%ADD251R,27.8000X0.1000*%
%ADD252R,109.6000X0.1000*%
%ADD253R,106.8000X0.1000*%
%ADD254R,27.5000X0.2000*%
%ADD255R,106.7000X0.1000*%
%ADD256R,106.6000X0.6000*%
%ADD257R,27.4000X0.4000*%
%ADD258R,53.8000X0.1000*%
%ADD259R,6.6000X0.1000*%
%ADD260R,42.4000X0.1000*%
%ADD261R,2.2000X0.1000*%
%ADD262R,53.6000X0.1000*%
%ADD263R,6.2000X0.1000*%
%ADD264R,42.2000X0.1000*%
%ADD265R,53.5000X0.2000*%
%ADD266R,6.0000X0.2000*%
%ADD267R,1.4000X0.1000*%
%ADD268R,30.6000X1.0000*%
%ADD269R,1.3000X0.1000*%
%ADD270R,53.4000X0.4000*%
%ADD271R,5.8000X0.4000*%
%ADD272R,1.2000X0.8000*%
%ADD273R,1.6000X0.1000*%
%ADD274R,18.4000X0.1000*%
%ADD275R,1.2000X0.1000*%
%ADD276R,12.2000X0.1000*%
%ADD277R,18.2000X0.1000*%
%ADD278R,60.5000X0.1000*%
%ADD279R,1.0000X0.2000*%
%ADD280R,12.0000X0.2000*%
%ADD281R,18.0000X0.2000*%
%ADD282R,30.5000X0.2000*%
%ADD283R,60.4000X0.2000*%
%ADD284R,0.8000X0.4000*%
%ADD285R,11.8000X0.4000*%
%ADD286R,17.8000X0.4000*%
%ADD287R,30.4000X0.4000*%
%ADD288R,60.3000X2.5000*%
%ADD289R,9.4000X0.1000*%
%ADD290R,30.6000X0.1000*%
%ADD291R,9.6000X0.1000*%
%ADD292R,18.6000X0.1000*%
%ADD293R,30.8000X0.1000*%
%ADD294R,76.8000X0.8000*%
%ADD295R,69.8000X0.1000*%
%ADD296R,69.6000X0.1000*%
%ADD297R,6.3000X0.2000*%
%ADD298R,61.8000X0.1000*%
%ADD299R,61.7000X0.1000*%
%ADD300R,6.2000X0.4000*%
%ADD301R,61.6000X1.6000*%
%ADD302R,4.8000X0.1000*%
%ADD303R,7.6000X0.1000*%
%ADD304R,8.1000X0.1000*%
%ADD305R,30.1000X0.1000*%
%ADD306R,8.1000X0.1000*%
%ADD307R,7.2000X0.1000*%
%ADD308R,4.6000X0.1000*%
%ADD309R,7.7000X0.1000*%
%ADD310R,29.7000X0.1000*%
%ADD311R,7.9000X0.1000*%
%ADD312R,7.4000X0.1000*%
%ADD313R,4.5000X0.2000*%
%ADD314R,29.5000X0.2000*%
%ADD315R,7.8000X0.2000*%
%ADD316R,14.4000X3.6000*%
%ADD317R,4.4000X0.4000*%
%ADD318R,29.3000X0.4000*%
%ADD319R,7.7000X0.4000*%
%ADD320R,22.4000X0.1000*%
%ADD321R,6.9000X0.1000*%
%ADD322R,38.4000X0.1000*%
%ADD323R,10.6000X0.1000*%
%ADD324R,11.8000X0.1000*%
%ADD325R,22.4000X0.1000*%
%ADD326R,38.2000X0.1000*%
%ADD327R,10.2000X0.1000*%
%ADD328R,11.6000X0.1000*%
%ADD329R,44.0000X0.2000*%
%ADD330R,38.1000X0.2000*%
%ADD331R,11.5000X0.2000*%
%ADD332R,43.9000X0.4000*%
%ADD333R,15.2000X0.4000*%
%ADD334R,38.0000X0.4000*%
%ADD335R,11.4000X0.4000*%
%ADD336R,38.1000X0.1000*%
%ADD337R,27.5000X0.1000*%
%ADD338R,44.1000X0.1000*%
%ADD339R,15.4000X0.1000*%
%ADD340R,27.3000X0.1000*%
%ADD341R,44.3000X0.1000*%
%ADD342R,27.2000X1.7000*%
%ADD343R,60.3000X1.8000*%
%ADD344R,21.9000X0.2000*%
%ADD345R,22.0000X0.1000*%
%ADD346R,22.1000X0.1000*%
%ADD347R,22.2000X0.1000*%
%ADD348R,22.4000X0.1000*%
%ADD349R,33.6000X1.1000*%
%ADD350R,1.9000X0.1000*%
%ADD351R,1.9000X0.1000*%
%ADD352R,1.8000X0.1000*%
%ADD353R,1.7000X0.1000*%
%ADD354R,1.8000X0.1000*%
%ADD355R,1.4000X0.1000*%
%ADD356R,1.4000X0.1000*%
%ADD357R,33.4000X0.1000*%
%ADD358R,60.1000X0.1000*%
%ADD359R,1.1000X0.1000*%
%ADD360R,1.1000X0.1000*%
%ADD361R,1.0000X0.1000*%
%ADD362R,33.2000X0.1000*%
%ADD363R,60.0000X0.1000*%
%ADD364R,0.9000X0.1000*%
%ADD365R,0.8000X0.1000*%
%ADD366R,0.8000X0.1000*%
%ADD367R,33.1000X0.1000*%
%ADD368R,59.9000X0.2000*%
%ADD369R,0.7000X0.1000*%
%ADD370R,0.7000X0.1000*%
%ADD371R,0.6000X0.2000*%
%ADD372R,33.0000X0.2000*%
%ADD373R,0.5000X0.2000*%
%ADD374R,0.6000X0.1000*%
%ADD375R,0.6000X0.1000*%
%ADD376R,59.8000X0.2000*%
%ADD377R,0.4000X0.2000*%
%ADD378R,0.4000X0.2000*%
%ADD379R,32.9000X0.2000*%
%ADD380R,0.3000X0.3000*%
%ADD381R,0.3000X0.3000*%
%ADD382R,59.7000X0.2000*%
%ADD383R,0.3000X0.1000*%
%ADD384R,0.3000X0.1000*%
%ADD385R,0.2000X0.8000*%
%ADD386R,0.2000X0.8000*%
%ADD387R,32.8000X0.8000*%
%ADD388R,0.2000X0.6000*%
%ADD389R,5.7000X0.1000*%
%ADD390R,37.4000X0.1000*%
%ADD391R,15.4000X0.1000*%
%ADD392R,0.2000X0.4000*%
%ADD393R,0.2000X0.4000*%
%ADD394R,5.3000X0.1000*%
%ADD395R,36.6000X0.1000*%
%ADD396R,15.0000X0.1000*%
%ADD397R,5.1000X0.1000*%
%ADD398R,36.2000X0.1000*%
%ADD399R,14.8000X0.1000*%
%ADD400R,5.0000X0.1000*%
%ADD401R,36.0000X0.1000*%
%ADD402R,14.7000X0.1000*%
%ADD403R,35.6000X0.1000*%
%ADD404R,14.5000X0.1000*%
%ADD405R,0.3000X0.3000*%
%ADD406R,0.3000X0.3000*%
%ADD407R,4.7000X0.1000*%
%ADD408R,35.4000X0.1000*%
%ADD409R,14.4000X0.1000*%
%ADD410R,0.3000X0.1000*%
%ADD411R,0.3000X0.1000*%
%ADD412R,4.6000X0.2000*%
%ADD413R,35.2000X0.2000*%
%ADD414R,14.4000X0.2000*%
%ADD415R,0.4000X0.1000*%
%ADD416R,0.4000X0.1000*%
%ADD417R,0.5000X0.1000*%
%ADD418R,35.0000X0.1000*%
%ADD419R,14.4000X0.1000*%
%ADD420R,0.6000X0.1000*%
%ADD421R,0.6000X0.1000*%
%ADD422R,0.6000X0.1000*%
%ADD423R,33.0000X0.1000*%
%ADD424R,4.4000X0.2000*%
%ADD425R,34.8000X0.2000*%
%ADD426R,14.5000X0.1000*%
%ADD427R,0.9000X0.1000*%
%ADD428R,1.0000X0.1000*%
%ADD429R,0.9000X0.1000*%
%ADD430R,0.9000X0.1000*%
%ADD431R,33.2000X0.1000*%
%ADD432R,4.3000X0.4000*%
%ADD433R,34.6000X0.4000*%
%ADD434R,1.2000X0.1000*%
%ADD435R,33.3000X0.1000*%
%ADD436R,14.7000X0.1000*%
%ADD437R,1.5000X0.1000*%
%ADD438R,1.6000X0.1000*%
%ADD439R,33.5000X0.1000*%
%ADD440R,2.3000X0.1000*%
%ADD441R,2.0000X0.1000*%
%ADD442R,1.9000X0.1000*%
%ADD443R,2.3000X0.1000*%
%ADD444R,24.9000X0.1000*%
%ADD445R,9.4000X11.3000*%
%ADD446R,56.3000X0.1000*%
%ADD447R,4.2000X0.6000*%
%ADD448R,34.4000X0.6000*%
%ADD449R,24.8000X0.6000*%
%ADD450R,35.5000X0.1000*%
%ADD451R,20.5000X0.1000*%
%ADD452R,35.2000X0.1000*%
%ADD453R,20.1000X0.1000*%
%ADD454R,19.9000X0.1000*%
%ADD455R,34.9000X0.1000*%
%ADD456R,34.8000X0.1000*%
%ADD457R,34.7000X0.1000*%
%ADD458R,19.6000X0.2000*%
%ADD459R,24.9000X0.4000*%
%ADD460R,34.6000X0.3000*%
%ADD461R,19.5000X0.4000*%
%ADD462R,34.5000X0.7000*%
%ADD463R,25.0000X0.2000*%
%ADD464R,19.4000X0.3000*%
%ADD465R,25.1000X0.1000*%
%ADD466R,25.2000X0.2000*%
%ADD467R,19.5000X0.3000*%
%ADD468R,25.3000X0.1000*%
%ADD469R,25.4000X0.1000*%
%ADD470R,34.6000X0.2000*%
%ADD471R,19.6000X0.2000*%
%ADD472R,34.7000X0.1000*%
%ADD473R,26.3000X0.1000*%
%ADD474R,19.8000X0.1000*%
%ADD475R,70.6000X9.9000*%
%ADD476R,35.1000X0.1000*%
%ADD477R,35.3000X0.1000*%
%ADD478R,56.3000X0.2000*%
%ADD479R,50.5000X0.1000*%
%ADD480R,50.3000X0.1000*%
%ADD481R,4.8000X0.1000*%
%ADD482R,50.2000X0.1000*%
%ADD483R,4.6000X0.1000*%
%ADD484R,50.1000X0.1000*%
%ADD485R,50.0000X0.1000*%
%ADD486R,4.4000X0.2000*%
%ADD487R,49.9000X0.2000*%
%ADD488R,4.3000X0.2000*%
%ADD489R,49.8000X0.3000*%
%ADD490R,4.2000X0.7000*%
%ADD491R,49.7000X0.3000*%
%ADD492R,49.8000X0.4000*%
%ADD493R,49.9000X0.1000*%
%ADD494R,4.4000X0.2000*%
%ADD495R,50.0000X0.2000*%
%ADD496R,4.5000X0.1000*%
%ADD497R,4.7000X0.1000*%
%ADD498R,4.9000X0.1000*%
%ADD499R,35.4000X0.1000*%
%ADD500R,14.8000X0.1000*%
%ADD501R,5.1000X0.1000*%
%ADD502R,14.2000X0.1000*%
%ADD503R,35.0000X0.1000*%
%ADD504R,13.8000X0.1000*%
%ADD505R,4.7000X0.1000*%
%ADD506R,34.9000X0.1000*%
%ADD507R,13.6000X0.1000*%
%ADD508R,4.6000X0.1000*%
%ADD509R,34.8000X0.1000*%
%ADD510R,13.4000X0.1000*%
%ADD511R,34.7000X0.1000*%
%ADD512R,13.2000X0.2000*%
%ADD513R,4.4000X0.1000*%
%ADD514R,34.6000X0.3000*%
%ADD515R,4.3000X0.3000*%
%ADD516R,13.0000X0.3000*%
%ADD517R,34.5000X0.6000*%
%ADD518R,4.2000X0.6000*%
%ADD519R,12.8000X0.4000*%
%ADD520R,35.1000X0.1000*%
%ADD521R,14.2000X0.1000*%
%ADD522R,4.8000X0.1000*%
%ADD523R,35.4000X0.1000*%
%ADD524R,14.8000X0.1000*%
%ADD525R,5.1000X0.1000*%
%ADD526R,56.3000X0.2000*%
%ADD527R,35.2000X0.1000*%
%ADD528R,20.2000X0.1000*%
%ADD529R,20.0000X0.1000*%
%ADD530R,19.8000X0.1000*%
%ADD531R,19.7000X0.2000*%
%ADD532R,34.7000X0.2000*%
%ADD533R,19.6000X0.1000*%
%ADD534R,34.6000X0.1000*%
%ADD535R,19.5000X0.4000*%
%ADD536R,19.6000X0.1000*%
%ADD537R,19.4000X4.0000*%
%ADD538R,19.4000X0.3000*%
%ADD539R,14.4000X0.2000*%
%ADD540R,14.5000X0.2000*%
%ADD541R,19.7000X0.1000*%
%ADD542R,14.6000X0.1000*%
%ADD543R,14.7000X0.1000*%
%ADD544R,19.9000X0.1000*%
%ADD545R,14.9000X0.1000*%
%ADD546R,15.1000X0.1000*%
%ADD547R,20.2000X0.1000*%
%ADD548R,36.1000X2.7000*%
%ADD549R,8.9000X0.1000*%
%ADD550R,0.1000X0.1000*%
%ADD551R,8.7000X0.1000*%
%ADD552R,70.7000X0.1000*%
%ADD553R,70.8000X0.1000*%
%ADD554R,72.7000X0.1000*%
%ADD555R,72.6000X0.1000*%
%ADD556R,72.3000X0.1000*%
%ADD557R,72.2000X0.1000*%
%ADD558R,72.1000X0.1000*%
%ADD559R,19.5000X0.1000*%
%ADD560R,60.7000X0.1000*%
%ADD561R,2.3000X0.1000*%
%ADD562R,2.2000X0.1000*%
%ADD563R,2.3000X0.1000*%
%ADD564R,2.0000X0.1000*%
%ADD565R,2.2000X0.1000*%
%ADD566R,4.8000X0.1000*%
%ADD567R,28.7000X0.1000*%
%ADD568R,60.4000X0.1000*%
%ADD569R,1.5000X0.1000*%
%ADD570R,1.6000X0.1000*%
%ADD571R,1.6000X0.1000*%
%ADD572R,4.1000X0.1000*%
%ADD573R,28.4000X0.1000*%
%ADD574R,60.2000X0.1000*%
%ADD575R,1.2000X0.1000*%
%ADD576R,0.3000X0.1000*%
%ADD577R,1.2000X0.1000*%
%ADD578R,3.8000X0.1000*%
%ADD579R,28.2000X0.1000*%
%ADD580R,60.1000X0.1000*%
%ADD581R,0.1000X0.1000*%
%ADD582R,3.5000X0.1000*%
%ADD583R,28.1000X0.1000*%
%ADD584R,60.0000X0.1000*%
%ADD585R,0.7000X0.1000*%
%ADD586R,0.8000X0.1000*%
%ADD587R,0.7000X0.1000*%
%ADD588R,0.8000X0.1000*%
%ADD589R,3.3000X0.1000*%
%ADD590R,28.0000X0.1000*%
%ADD591R,59.9000X0.1000*%
%ADD592R,0.6000X0.1000*%
%ADD593R,3.2000X0.1000*%
%ADD594R,27.9000X0.1000*%
%ADD595R,0.5000X0.1000*%
%ADD596R,3.0000X0.1000*%
%ADD597R,27.8000X0.2000*%
%ADD598R,0.3000X0.3000*%
%ADD599R,0.4000X0.1000*%
%ADD600R,0.3000X0.3000*%
%ADD601R,0.4000X0.1000*%
%ADD602R,2.9000X0.1000*%
%ADD603R,59.7000X0.8000*%
%ADD604R,2.8000X0.8000*%
%ADD605R,27.7000X0.8000*%
%ADD606R,0.2000X0.6000*%
%ADD607R,0.2000X0.4000*%
%ADD608R,0.2000X0.4000*%
%ADD609R,2.9000X0.1000*%
%ADD610R,0.5000X0.2000*%
%ADD611R,3.0000X0.1000*%
%ADD612R,59.9000X0.2000*%
%ADD613R,0.6000X0.2000*%
%ADD614R,3.1000X0.1000*%
%ADD615R,27.9000X0.2000*%
%ADD616R,3.2000X0.1000*%
%ADD617R,60.0000X0.1000*%
%ADD618R,0.8000X0.1000*%
%ADD619R,0.8000X0.1000*%
%ADD620R,3.4000X0.1000*%
%ADD621R,28.0000X0.1000*%
%ADD622R,1.1000X0.1000*%
%ADD623R,1.1000X0.1000*%
%ADD624R,1.1000X0.1000*%
%ADD625R,3.6000X0.1000*%
%ADD626R,60.3000X0.1000*%
%ADD627R,1.4000X0.1000*%
%ADD628R,1.4000X0.1000*%
%ADD629R,0.2000X0.1000*%
%ADD630R,1.4000X0.1000*%
%ADD631R,4.0000X0.1000*%
%ADD632R,28.3000X0.1000*%
%ADD633R,60.5000X0.1000*%
%ADD634R,0.4000X0.1000*%
%ADD635R,4.4000X0.1000*%
%ADD636R,28.5000X0.1000*%
%ADD637R,71.8000X4.0000*%
%ADD638R,65.3000X3.9000*%
%ADD639R,38.0000X0.1000*%
%ADD640R,26.7000X0.1000*%
%ADD641R,70.4000X0.1000*%
%ADD642R,37.9000X0.1000*%
%ADD643R,5.3000X0.1000*%
%ADD644R,5.4000X0.1000*%
%ADD645R,70.2000X0.1000*%
%ADD646R,37.8000X0.2000*%
%ADD647R,5.0000X0.1000*%
%ADD648R,5.2000X0.1000*%
%ADD649R,70.1000X0.1000*%
%ADD650R,4.9000X0.1000*%
%ADD651R,5.1000X0.5000*%
%ADD652R,70.0000X0.1000*%
%ADD653R,37.7000X0.2000*%
%ADD654R,69.9000X0.2000*%
%ADD655R,37.8000X0.1000*%
%ADD656R,64.8000X0.1000*%
%ADD657R,4.6000X0.1000*%
%ADD658R,30.2000X0.1000*%
%ADD659R,7.3000X0.1000*%
%ADD660R,4.2000X0.1000*%
%ADD661R,64.6000X0.1000*%
%ADD662R,30.1000X0.1000*%
%ADD663R,7.1000X0.1000*%
%ADD664R,64.5000X0.2000*%
%ADD665R,30.2000X0.1000*%
%ADD666R,4.7000X0.1000*%
%ADD667R,31.0000X0.1000*%
%ADD668R,3.3000X0.1000*%
%ADD669R,8.4000X0.1000*%
%ADD670R,64.4000X0.4000*%
%ADD671R,30.8000X0.4000*%
%ADD672R,3.1000X0.1000*%
%ADD673R,8.1000X0.1000*%
%ADD674R,2.8000X0.1000*%
%ADD675R,7.9000X0.1000*%
%ADD676R,4.3000X0.1000*%
%ADD677R,2.7000X0.1000*%
%ADD678R,7.7000X0.1000*%
%ADD679R,4.2000X0.1000*%
%ADD680R,2.5000X0.1000*%
%ADD681R,7.6000X0.1000*%
%ADD682R,4.1000X0.1000*%
%ADD683R,31.0000X0.2000*%
%ADD684R,2.4000X0.1000*%
%ADD685R,7.5000X0.1000*%
%ADD686R,4.0000X0.3000*%
%ADD687R,2.3000X0.1000*%
%ADD688R,7.4000X0.1000*%
%ADD689R,31.2000X0.1000*%
%ADD690R,12.6000X0.1000*%
%ADD691R,2.2000X0.2000*%
%ADD692R,7.3000X0.2000*%
%ADD693R,5.6000X0.1000*%
%ADD694R,31.6000X0.1000*%
%ADD695R,12.7000X0.1000*%
%ADD696R,3.9000X1.0000*%
%ADD697R,115.9000X0.9000*%
%ADD698R,2.1000X0.2000*%
%ADD699R,7.2000X0.1000*%
%ADD700R,7.1000X0.6000*%
%ADD701R,2.0000X0.4000*%
%ADD702R,116.0000X0.3000*%
%ADD703R,116.1000X0.1000*%
%ADD704R,116.2000X0.1000*%
%ADD705R,116.3000X0.1000*%
%ADD706R,116.4000X0.1000*%
%ADD707R,116.5000X0.1000*%
%ADD708R,116.7000X0.1000*%
%ADD709R,3.6000X0.1000*%
%ADD710R,8.7000X0.1000*%
%ADD711R,116.9000X0.1000*%
%ADD712R,9.2000X0.1000*%
%ADD713R,138.0000X2.5000*%
%ADD714C,18.0000*%
%ADD715C,3.3000*%
%ADD716C,10.0000*%
%ADD717C,1.8000*%
%ADD718C,3.0000*%
%ADD719C,2.5000*%
%ADD720C,0.8000*%
%ADD721C,0.6000*%
%ADD722C,0.2500*%
G01*
D10*
X27150000Y50350000D03*
D11*
X75750000Y50450000D03*
D12*
X89850000Y50450000D03*
D13*
X116600000Y48550000D03*
D14*
X75750000Y50350000D03*
D15*
X89900000Y50300000D03*
D16*
X75800000Y50250000D03*
D17*
X27200000Y50150000D03*
D18*
X75750000Y50150000D03*
D19*
X89950000Y50000000D03*
D20*
X17900000Y50050000D03*
D21*
X44300000Y50050000D03*
D22*
X75800000Y49950000D03*
D23*
X17800000Y49950000D03*
D24*
X44450000Y49950000D03*
D25*
X17750000Y49800000D03*
D26*
X44600000Y49850000D03*
D27*
X50000000Y49750000D03*
D28*
X75850000Y49700000D03*
D15*
X89900000Y49700000D03*
D29*
X17700000Y49500000D03*
D30*
X50000000Y49500000D03*
D31*
X74500000Y49550000D03*
D32*
X84400000Y49550000D03*
D33*
X88000000Y49550000D03*
D34*
X91600000Y49550000D03*
D35*
X74400000Y49450000D03*
D32*
X84600000Y49450000D03*
D36*
X87800000Y49450000D03*
X91700000Y49450000D03*
D37*
X86400000Y49350000D03*
D38*
X91750000Y49350000D03*
D25*
X17750000Y49200000D03*
D39*
X50000000Y49200000D03*
D40*
X86350000Y49250000D03*
D41*
X91800000Y49000000D03*
D42*
X86400000Y49000000D03*
D23*
X17800000Y49050000D03*
D43*
X50000000Y49050000D03*
D20*
X17900000Y48950000D03*
D44*
X50000000Y48950000D03*
D45*
X65250000Y48950000D03*
D46*
X33200000Y48800000D03*
D40*
X86350000Y48750000D03*
D47*
X33250000Y48650000D03*
D37*
X86400000Y48650000D03*
D38*
X91750000Y48650000D03*
D48*
X41800000Y48550000D03*
D49*
X86400000Y48550000D03*
D50*
X90950000Y48550000D03*
D51*
X92750000Y48550000D03*
D52*
X41900000Y48450000D03*
D53*
X86400000Y48450000D03*
D54*
X90750000Y48450000D03*
D55*
X92850000Y48450000D03*
D56*
X46250000Y48300000D03*
D57*
X92900000Y48300000D03*
D58*
X46200000Y48150000D03*
D59*
X92950000Y48000000D03*
D60*
X18900000Y48050000D03*
D44*
X52000000Y48050000D03*
D61*
X79300000Y48050000D03*
D62*
X18800000Y47950000D03*
D43*
X52000000Y47950000D03*
D63*
X79400000Y47950000D03*
D64*
X18750000Y47800000D03*
D39*
X52000000Y47800000D03*
D65*
X79450000Y47850000D03*
D66*
X79500000Y47750000D03*
D57*
X92900000Y47700000D03*
D67*
X18700000Y47500000D03*
D30*
X52000000Y47500000D03*
D65*
X79550000Y47650000D03*
D63*
X79600000Y47550000D03*
D55*
X92850000Y47550000D03*
D61*
X79700000Y47450000D03*
D51*
X92750000Y47450000D03*
D68*
X80450000Y47350000D03*
D64*
X18750000Y47200000D03*
D39*
X52000000Y47200000D03*
D69*
X80400000Y47200000D03*
D62*
X18800000Y47050000D03*
D43*
X52000000Y47050000D03*
D70*
X80350000Y47050000D03*
D60*
X18900000Y46950000D03*
D44*
X52000000Y46950000D03*
D71*
X80250000Y46950000D03*
D72*
X47150000Y46850000D03*
D73*
X15750000Y46750000D03*
X45750000Y46750000D03*
D74*
X77150000Y46750000D03*
D75*
X15650000Y46600000D03*
D76*
X50050000Y46650000D03*
D77*
X81550000Y46650000D03*
D78*
X50150000Y46550000D03*
D79*
X81650000Y46550000D03*
D80*
X100500000Y46550000D03*
D81*
X123100000Y46550000D03*
D82*
X15600000Y46250000D03*
D83*
X50150000Y46400000D03*
D84*
X81700000Y46400000D03*
D85*
X100400000Y46450000D03*
D86*
X123200000Y46450000D03*
D87*
X100350000Y46300000D03*
D88*
X123250000Y46300000D03*
D89*
X50200000Y46150000D03*
D90*
X81750000Y45700000D03*
D91*
X100300000Y46000000D03*
D92*
X123300000Y46000000D03*
D75*
X15650000Y45900000D03*
D93*
X50250000Y45900000D03*
D73*
X15750000Y45750000D03*
D94*
X35150000Y45750000D03*
D95*
X50350000Y45750000D03*
D94*
X65150000Y45750000D03*
D87*
X100350000Y45700000D03*
D88*
X123250000Y45700000D03*
D96*
X20150000Y45650000D03*
D97*
X54750000Y45650000D03*
D98*
X19400000Y45550000D03*
D51*
X38750000Y45550000D03*
D99*
X54000000Y45550000D03*
D51*
X68750000Y45550000D03*
D85*
X100400000Y45550000D03*
D86*
X123200000Y45550000D03*
D100*
X19300000Y45450000D03*
D101*
X38850000Y45450000D03*
D102*
X53900000Y45450000D03*
D55*
X68850000Y45450000D03*
D80*
X100500000Y45450000D03*
D81*
X123100000Y45450000D03*
D103*
X19250000Y45300000D03*
D57*
X38900000Y45300000D03*
D104*
X53850000Y45300000D03*
D57*
X68900000Y45300000D03*
D105*
X116600000Y43850000D03*
D106*
X19200000Y45150000D03*
D107*
X38950000Y45000000D03*
D108*
X53800000Y45150000D03*
D59*
X68950000Y45000000D03*
D109*
X15300000Y45050000D03*
D110*
X33650000Y45050000D03*
D111*
X49900000Y45050000D03*
D112*
X63650000Y45050000D03*
D113*
X78000000Y45050000D03*
D114*
X89750000Y45050000D03*
D115*
X15200000Y44950000D03*
D116*
X33750000Y44950000D03*
D117*
X49800000Y44950000D03*
D118*
X63750000Y44950000D03*
D119*
X77900000Y44950000D03*
D12*
X89850000Y44950000D03*
D120*
X4350000Y44850000D03*
D76*
X19050000Y44850000D03*
D121*
X33800000Y44850000D03*
D122*
X49750000Y44850000D03*
D123*
X63800000Y44850000D03*
D124*
X77850000Y44800000D03*
D15*
X89900000Y44800000D03*
D125*
X4200000Y44750000D03*
D126*
X19150000Y44750000D03*
D127*
X33900000Y44700000D03*
D57*
X38900000Y44700000D03*
D128*
X49700000Y44500000D03*
D129*
X63900000Y44700000D03*
D57*
X68900000Y44700000D03*
D130*
X4100000Y44650000D03*
D131*
X19250000Y44650000D03*
D132*
X77800000Y44500000D03*
D19*
X89950000Y44500000D03*
D133*
X4050000Y44550000D03*
D134*
X19300000Y44550000D03*
D135*
X33950000Y44550000D03*
D101*
X38850000Y44550000D03*
D116*
X63950000Y44550000D03*
D55*
X68850000Y44550000D03*
D49*
X4000000Y44450000D03*
D136*
X19350000Y44450000D03*
D137*
X34050000Y44450000D03*
D51*
X38750000Y44450000D03*
D110*
X64050000Y44450000D03*
D51*
X68750000Y44450000D03*
D138*
X3950000Y44350000D03*
D139*
X19400000Y44350000D03*
D140*
X34800000Y44300000D03*
D141*
X64800000Y44300000D03*
D142*
X3900000Y44250000D03*
D143*
X19450000Y44250000D03*
D124*
X77850000Y44200000D03*
D15*
X89900000Y44200000D03*
D144*
X3850000Y44150000D03*
D14*
X19550000Y44150000D03*
D145*
X34750000Y44150000D03*
D122*
X49750000Y44150000D03*
D146*
X64750000Y44150000D03*
D147*
X3800000Y44000000D03*
D14*
X19650000Y44050000D03*
D148*
X34700000Y44050000D03*
D117*
X49800000Y44050000D03*
D148*
X64700000Y44050000D03*
D119*
X77900000Y44050000D03*
D12*
X89850000Y44050000D03*
D149*
X19750000Y43950000D03*
D150*
X34600000Y43950000D03*
D111*
X49900000Y43950000D03*
D150*
X64600000Y43950000D03*
D113*
X78000000Y43950000D03*
D114*
X89750000Y43950000D03*
D151*
X3750000Y43800000D03*
D152*
X24650000Y43850000D03*
D97*
X54750000Y43850000D03*
D153*
X81750000Y43850000D03*
D154*
X22500000Y43750000D03*
D155*
X37400000Y43750000D03*
D156*
X52600000Y43750000D03*
D155*
X67400000Y43750000D03*
D157*
X74850000Y43750000D03*
D158*
X86650000Y43750000D03*
D159*
X3700000Y43500000D03*
D160*
X22450000Y43600000D03*
D161*
X37500000Y43600000D03*
D162*
X52500000Y43600000D03*
D161*
X67500000Y43600000D03*
D163*
X74750000Y43600000D03*
D164*
X91050000Y43650000D03*
D165*
X91150000Y43550000D03*
D166*
X22400000Y43400000D03*
D167*
X37550000Y43250000D03*
D168*
X52450000Y43250000D03*
D167*
X67550000Y43250000D03*
D169*
X74700000Y43250000D03*
D170*
X91200000Y43400000D03*
D171*
X3650000Y43000000D03*
D172*
X22450000Y43150000D03*
D173*
X91250000Y41350000D03*
D174*
X22500000Y42900000D03*
D161*
X37500000Y42900000D03*
D162*
X52500000Y42900000D03*
D161*
X67500000Y42900000D03*
D163*
X74750000Y42900000D03*
D175*
X22600000Y42750000D03*
D155*
X37400000Y42750000D03*
D156*
X52600000Y42750000D03*
D155*
X67400000Y42750000D03*
D157*
X74850000Y42750000D03*
D94*
X84150000Y42750000D03*
D159*
X3700000Y42500000D03*
D43*
X24700000Y42650000D03*
D97*
X54750000Y42650000D03*
D176*
X79250000Y42650000D03*
D177*
X23100000Y42550000D03*
D178*
X37850000Y42550000D03*
D70*
X53150000Y42550000D03*
D179*
X67850000Y42550000D03*
D31*
X78500000Y42550000D03*
D51*
X87750000Y42550000D03*
D180*
X23000000Y42450000D03*
D181*
X37950000Y42450000D03*
D68*
X53050000Y42450000D03*
D182*
X67950000Y42450000D03*
D35*
X78400000Y42450000D03*
D55*
X87850000Y42450000D03*
D183*
X22950000Y42350000D03*
D184*
X38000000Y42350000D03*
D185*
X53000000Y42350000D03*
D184*
X68000000Y42350000D03*
D186*
X78350000Y42350000D03*
D57*
X87900000Y42300000D03*
D151*
X3750000Y42200000D03*
D187*
X22850000Y42200000D03*
D188*
X38000000Y42000000D03*
D189*
X53000000Y42000000D03*
D188*
X68000000Y42000000D03*
D190*
X78400000Y42250000D03*
D191*
X108600000Y42250000D03*
D192*
X131250000Y42250000D03*
D193*
X78350000Y42000000D03*
D59*
X87950000Y42000000D03*
D194*
X104300000Y42150000D03*
D195*
X131350000Y42100000D03*
D147*
X3800000Y42000000D03*
D196*
X22800000Y42000000D03*
D197*
X104200000Y42050000D03*
D198*
X104150000Y41800000D03*
D199*
X131400000Y41800000D03*
D144*
X3850000Y41850000D03*
D200*
X22750000Y41850000D03*
D142*
X3900000Y41750000D03*
D201*
X22700000Y41750000D03*
D190*
X78400000Y41750000D03*
D57*
X87900000Y41700000D03*
D138*
X3950000Y41650000D03*
D202*
X22700000Y41650000D03*
D184*
X38000000Y41650000D03*
D185*
X53000000Y41650000D03*
D184*
X68000000Y41650000D03*
D186*
X78350000Y41650000D03*
D49*
X4000000Y41550000D03*
D203*
X22700000Y41550000D03*
D204*
X38000000Y41550000D03*
D205*
X53000000Y41550000D03*
D206*
X68000000Y41550000D03*
D207*
X78350000Y41550000D03*
D55*
X87850000Y41550000D03*
D32*
X95400000Y41550000D03*
D208*
X101100000Y41550000D03*
X109900000Y41550000D03*
D209*
X126550000Y41550000D03*
D210*
X134350000Y41550000D03*
D133*
X4050000Y41450000D03*
D211*
X22750000Y41450000D03*
D36*
X38000000Y41450000D03*
D202*
X53000000Y41450000D03*
D33*
X68000000Y41450000D03*
D212*
X78350000Y41450000D03*
D51*
X87750000Y41450000D03*
D213*
X95300000Y41450000D03*
D214*
X101100000Y41450000D03*
D215*
X110000000Y41450000D03*
D216*
X126400000Y41450000D03*
D146*
X134450000Y41450000D03*
D130*
X4100000Y41350000D03*
D217*
X48800000Y41350000D03*
D218*
X95250000Y41350000D03*
D141*
X134500000Y41300000D03*
D125*
X4200000Y41250000D03*
D219*
X48700000Y41250000D03*
D220*
X95200000Y41000000D03*
D221*
X117600000Y41250000D03*
D120*
X4350000Y41150000D03*
D222*
X48550000Y41150000D03*
D223*
X117650000Y41000000D03*
D224*
X134550000Y41000000D03*
D225*
X44650000Y40950000D03*
D226*
X42500000Y40750000D03*
D155*
X86400000Y40750000D03*
D221*
X117600000Y40750000D03*
D141*
X134500000Y40700000D03*
D227*
X42400000Y40600000D03*
D161*
X86500000Y40600000D03*
D218*
X95250000Y40650000D03*
D228*
X117650000Y40650000D03*
D213*
X95300000Y40550000D03*
D214*
X101100000Y40550000D03*
D215*
X110000000Y40550000D03*
D229*
X117650000Y40550000D03*
D214*
X125100000Y40550000D03*
D146*
X134450000Y40550000D03*
D230*
X42350000Y40250000D03*
D167*
X86550000Y40250000D03*
D32*
X95400000Y40450000D03*
D208*
X101100000Y40450000D03*
D231*
X110000000Y40450000D03*
D232*
X117650000Y40450000D03*
D233*
X125100000Y40450000D03*
D210*
X134350000Y40450000D03*
D234*
X116600000Y39650000D03*
D227*
X42400000Y39900000D03*
D161*
X86500000Y39900000D03*
D226*
X42500000Y39750000D03*
D155*
X86400000Y39750000D03*
D235*
X44650000Y39650000D03*
D236*
X38400000Y39550000D03*
D237*
X80650000Y39550000D03*
D179*
X86850000Y39550000D03*
D238*
X38300000Y39450000D03*
D239*
X80650000Y39450000D03*
D182*
X86950000Y39450000D03*
D240*
X38250000Y39300000D03*
D241*
X80650000Y39350000D03*
D184*
X87000000Y39350000D03*
D242*
X80600000Y39250000D03*
D188*
X87000000Y39000000D03*
D243*
X38200000Y39000000D03*
D244*
X80650000Y39000000D03*
D245*
X116550000Y38800000D03*
D240*
X38250000Y38700000D03*
D242*
X80600000Y38750000D03*
D241*
X80650000Y38650000D03*
D184*
X87000000Y38650000D03*
D246*
X116500000Y38650000D03*
D238*
X38300000Y38550000D03*
D239*
X80650000Y38550000D03*
D206*
X87000000Y38550000D03*
D247*
X114050000Y38550000D03*
D236*
X38400000Y38450000D03*
D237*
X80650000Y38450000D03*
D33*
X87000000Y38450000D03*
D248*
X113950000Y38450000D03*
D249*
X70000000Y38000000D03*
D250*
X55900000Y37550000D03*
D251*
X125100000Y37550000D03*
D252*
X55800000Y37450000D03*
D99*
X125200000Y37450000D03*
D253*
X54400000Y37350000D03*
D254*
X125250000Y37300000D03*
D255*
X54350000Y37250000D03*
D256*
X54300000Y36900000D03*
D257*
X125300000Y37000000D03*
D254*
X125250000Y36700000D03*
D258*
X27900000Y36550000D03*
D184*
X56500000Y36550000D03*
D259*
X61500000Y36550000D03*
D260*
X86400000Y36550000D03*
D261*
X109500000Y36550000D03*
D99*
X125200000Y36550000D03*
D262*
X27800000Y36450000D03*
D213*
X56500000Y36450000D03*
D263*
X61500000Y36450000D03*
D264*
X86500000Y36450000D03*
D32*
X109600000Y36450000D03*
D251*
X125100000Y36450000D03*
D265*
X27750000Y36300000D03*
D266*
X61500000Y36300000D03*
D267*
X106900000Y36350000D03*
D268*
X123700000Y35900000D03*
D269*
X106950000Y36250000D03*
D270*
X27700000Y36000000D03*
D271*
X61500000Y36000000D03*
D272*
X107000000Y35800000D03*
D265*
X27750000Y35700000D03*
D266*
X61500000Y35700000D03*
D262*
X27800000Y35550000D03*
D213*
X56500000Y35550000D03*
D263*
X61500000Y35550000D03*
D273*
X73000000Y35550000D03*
D80*
X80500000Y35550000D03*
D274*
X96400000Y35550000D03*
D258*
X27900000Y35450000D03*
D184*
X56500000Y35450000D03*
D259*
X61500000Y35450000D03*
D275*
X73000000Y35450000D03*
D276*
X80500000Y35450000D03*
D277*
X96500000Y35450000D03*
D278*
X31250000Y35350000D03*
D279*
X73000000Y35300000D03*
D280*
X80500000Y35300000D03*
D281*
X96500000Y35300000D03*
D279*
X107000000Y35300000D03*
D282*
X123750000Y35300000D03*
D283*
X31200000Y35200000D03*
D284*
X73000000Y35000000D03*
D285*
X80500000Y35000000D03*
D286*
X96500000Y35000000D03*
D284*
X107000000Y35000000D03*
D287*
X123800000Y35000000D03*
D288*
X31150000Y33850000D03*
D279*
X73000000Y34700000D03*
D280*
X80500000Y34700000D03*
D281*
X96500000Y34700000D03*
D279*
X107000000Y34700000D03*
D282*
X123750000Y34700000D03*
D289*
X66900000Y34550000D03*
D275*
X73000000Y34550000D03*
D276*
X80500000Y34550000D03*
D277*
X96500000Y34550000D03*
D275*
X107000000Y34550000D03*
D290*
X123700000Y34550000D03*
D291*
X67000000Y34450000D03*
D273*
X73000000Y34450000D03*
D80*
X80500000Y34450000D03*
D292*
X96500000Y34450000D03*
D273*
X107000000Y34450000D03*
D293*
X123600000Y34450000D03*
D294*
X100600000Y34000000D03*
D259*
X65500000Y33550000D03*
D295*
X104100000Y33550000D03*
D53*
X65400000Y33450000D03*
D296*
X104200000Y33450000D03*
D297*
X65350000Y33300000D03*
D298*
X108100000Y33350000D03*
D299*
X108150000Y33250000D03*
D300*
X65300000Y33000000D03*
D301*
X108200000Y32400000D03*
D297*
X65350000Y32700000D03*
D302*
X3400000Y32550000D03*
D303*
X10000000Y32550000D03*
D304*
X18250000Y32550000D03*
D305*
X37750000Y32550000D03*
D306*
X57250000Y32550000D03*
D53*
X65400000Y32550000D03*
D307*
X73000000Y32550000D03*
D308*
X3300000Y32450000D03*
D121*
X10000000Y32450000D03*
D309*
X18250000Y32450000D03*
D310*
X37750000Y32450000D03*
D311*
X57350000Y32450000D03*
D259*
X65500000Y32450000D03*
D312*
X72900000Y32450000D03*
D313*
X3250000Y32300000D03*
D314*
X37750000Y32300000D03*
D315*
X57400000Y32300000D03*
D316*
X69400000Y30600000D03*
D317*
X3200000Y32000000D03*
D318*
X37750000Y32000000D03*
D319*
X57450000Y32000000D03*
D313*
X3250000Y31700000D03*
D314*
X37750000Y31700000D03*
D315*
X57400000Y31700000D03*
D308*
X3300000Y31550000D03*
D121*
X10000000Y31550000D03*
D309*
X18250000Y31550000D03*
D320*
X34100000Y31550000D03*
D321*
X49150000Y31550000D03*
D311*
X57350000Y31550000D03*
D322*
X96600000Y31550000D03*
D323*
X121500000Y31550000D03*
D324*
X133100000Y31550000D03*
D302*
X3400000Y31450000D03*
D303*
X10000000Y31450000D03*
D304*
X18250000Y31450000D03*
D325*
X33900000Y31450000D03*
D321*
X49350000Y31450000D03*
D306*
X57250000Y31450000D03*
D326*
X96500000Y31450000D03*
D327*
X121500000Y31450000D03*
D328*
X133200000Y31450000D03*
D329*
X23000000Y31300000D03*
D124*
X53650000Y31300000D03*
D330*
X96450000Y31300000D03*
D331*
X133250000Y31300000D03*
D332*
X22950000Y31000000D03*
D333*
X53700000Y31000000D03*
D334*
X96400000Y31000000D03*
D335*
X133300000Y31000000D03*
D329*
X23000000Y30700000D03*
D124*
X53650000Y30700000D03*
D336*
X96450000Y30750000D03*
D331*
X133250000Y30700000D03*
D337*
X91150000Y30650000D03*
D338*
X23050000Y30550000D03*
D339*
X53600000Y30550000D03*
D340*
X91050000Y30550000D03*
D289*
X121900000Y30550000D03*
D328*
X133200000Y30550000D03*
D341*
X23150000Y30450000D03*
D113*
X53500000Y30450000D03*
D342*
X91000000Y29650000D03*
D291*
X122000000Y30450000D03*
D324*
X133100000Y30450000D03*
D343*
X31150000Y29500000D03*
D344*
X128050000Y30300000D03*
D345*
X128000000Y30150000D03*
D346*
X127950000Y30050000D03*
D347*
X127900000Y29950000D03*
D348*
X127800000Y29850000D03*
D349*
X122200000Y29250000D03*
D350*
X63150000Y28750000D03*
X65650000Y28750000D03*
D351*
X68250000Y28750000D03*
X70750000Y28750000D03*
D352*
X73300000Y28750000D03*
D353*
X75750000Y28750000D03*
D350*
X78350000Y28750000D03*
D351*
X80950000Y28750000D03*
X83450000Y28750000D03*
D354*
X86000000Y28750000D03*
D351*
X88550000Y28750000D03*
X91050000Y28750000D03*
D350*
X93650000Y28750000D03*
X96150000Y28750000D03*
D352*
X98700000Y28750000D03*
D351*
X101250000Y28750000D03*
D352*
X103700000Y28750000D03*
D355*
X63100000Y28650000D03*
D356*
X65700000Y28650000D03*
X68200000Y28650000D03*
X70800000Y28650000D03*
X73300000Y28650000D03*
X75800000Y28650000D03*
D267*
X78400000Y28650000D03*
X80900000Y28650000D03*
D356*
X83500000Y28650000D03*
X86000000Y28650000D03*
X88500000Y28650000D03*
D267*
X91100000Y28650000D03*
X93600000Y28650000D03*
D356*
X96200000Y28650000D03*
X98700000Y28650000D03*
X101200000Y28650000D03*
X103800000Y28650000D03*
D357*
X122300000Y28650000D03*
D358*
X31050000Y28550000D03*
D359*
X63150000Y28550000D03*
D360*
X65650000Y28550000D03*
D51*
X68250000Y28550000D03*
X70750000Y28550000D03*
D361*
X73300000Y28550000D03*
D360*
X75850000Y28550000D03*
X78350000Y28550000D03*
D51*
X80950000Y28550000D03*
X83450000Y28550000D03*
D361*
X86000000Y28550000D03*
D51*
X88550000Y28550000D03*
X91050000Y28550000D03*
D360*
X93650000Y28550000D03*
X96150000Y28550000D03*
D361*
X98700000Y28550000D03*
D51*
X101250000Y28550000D03*
X103750000Y28550000D03*
D362*
X122400000Y28550000D03*
D363*
X31000000Y28450000D03*
D101*
X63150000Y28450000D03*
D55*
X65650000Y28450000D03*
D364*
X68250000Y28450000D03*
X70750000Y28450000D03*
D365*
X73300000Y28450000D03*
D55*
X75850000Y28450000D03*
X78350000Y28450000D03*
D364*
X80950000Y28450000D03*
X83450000Y28450000D03*
D366*
X86000000Y28450000D03*
D364*
X88550000Y28450000D03*
X91050000Y28450000D03*
D55*
X93650000Y28450000D03*
X96150000Y28450000D03*
D365*
X98700000Y28450000D03*
D364*
X101250000Y28450000D03*
X103750000Y28450000D03*
D367*
X122450000Y28450000D03*
D368*
X30950000Y28300000D03*
D369*
X63150000Y28350000D03*
X65650000Y28350000D03*
D370*
X68250000Y28350000D03*
X70750000Y28350000D03*
D371*
X73300000Y28300000D03*
D369*
X75850000Y28350000D03*
X78350000Y28350000D03*
X80950000Y28350000D03*
X83450000Y28350000D03*
D371*
X86000000Y28300000D03*
D369*
X88550000Y28350000D03*
X91050000Y28350000D03*
X93650000Y28350000D03*
X96150000Y28350000D03*
D371*
X98700000Y28300000D03*
D370*
X101250000Y28350000D03*
X103750000Y28350000D03*
D372*
X122500000Y28300000D03*
D373*
X63150000Y28200000D03*
D374*
X65700000Y28250000D03*
X68200000Y28250000D03*
D373*
X70750000Y28200000D03*
X75850000Y28200000D03*
D375*
X78400000Y28250000D03*
X80900000Y28250000D03*
D373*
X83450000Y28200000D03*
X88550000Y28200000D03*
D375*
X91100000Y28250000D03*
X93600000Y28250000D03*
D373*
X96150000Y28200000D03*
X101250000Y28200000D03*
D374*
X103800000Y28250000D03*
D376*
X30900000Y28100000D03*
D377*
X65700000Y28100000D03*
X68200000Y28100000D03*
X73300000Y28100000D03*
D378*
X78400000Y28100000D03*
X80900000Y28100000D03*
D377*
X86000000Y28100000D03*
D378*
X91100000Y28100000D03*
X93600000Y28100000D03*
D377*
X98700000Y28100000D03*
X103800000Y28100000D03*
D379*
X122550000Y28100000D03*
D380*
X63150000Y27950000D03*
D381*
X70750000Y27950000D03*
D380*
X75850000Y27950000D03*
X83450000Y27950000D03*
X88550000Y27950000D03*
X96150000Y27950000D03*
D381*
X101250000Y27950000D03*
D382*
X30850000Y27900000D03*
D383*
X65650000Y27950000D03*
D384*
X68250000Y27950000D03*
D385*
X73300000Y27600000D03*
D383*
X78350000Y27950000D03*
X80950000Y27950000D03*
D386*
X86000000Y27600000D03*
D383*
X91050000Y27950000D03*
X93650000Y27950000D03*
D385*
X98700000Y27600000D03*
D384*
X103750000Y27950000D03*
D387*
X122600000Y27600000D03*
D388*
X65700000Y27600000D03*
X68200000Y27600000D03*
X78400000Y27600000D03*
X80900000Y27600000D03*
X91100000Y27600000D03*
X93600000Y27600000D03*
X103800000Y27600000D03*
D389*
X3850000Y27750000D03*
D390*
X26000000Y27750000D03*
D391*
X53000000Y27750000D03*
D392*
X63100000Y27600000D03*
X70800000Y27600000D03*
X75800000Y27600000D03*
D393*
X83500000Y27600000D03*
X88500000Y27600000D03*
D392*
X96200000Y27600000D03*
X101200000Y27600000D03*
D394*
X3650000Y27650000D03*
D395*
X26000000Y27650000D03*
D396*
X53200000Y27650000D03*
D397*
X3550000Y27550000D03*
D398*
X26000000Y27550000D03*
D399*
X53300000Y27550000D03*
D400*
X3500000Y27450000D03*
D401*
X26000000Y27450000D03*
D402*
X53350000Y27450000D03*
D302*
X3400000Y27350000D03*
D403*
X26000000Y27350000D03*
D404*
X53450000Y27350000D03*
D405*
X63150000Y27250000D03*
D406*
X70750000Y27250000D03*
D405*
X75850000Y27250000D03*
X83450000Y27250000D03*
X88550000Y27250000D03*
X96150000Y27250000D03*
D406*
X101250000Y27250000D03*
D407*
X3350000Y27250000D03*
D408*
X26000000Y27250000D03*
D409*
X53500000Y27250000D03*
D410*
X65650000Y27250000D03*
D411*
X68250000Y27250000D03*
D410*
X78350000Y27250000D03*
X80950000Y27250000D03*
X91050000Y27250000D03*
X93650000Y27250000D03*
D411*
X103750000Y27250000D03*
D412*
X3300000Y27100000D03*
D413*
X26000000Y27100000D03*
D414*
X53600000Y27100000D03*
D415*
X65700000Y27150000D03*
X68200000Y27150000D03*
D377*
X73300000Y27100000D03*
D416*
X78400000Y27150000D03*
X80900000Y27150000D03*
D377*
X86000000Y27100000D03*
D416*
X91100000Y27150000D03*
X93600000Y27150000D03*
D377*
X98700000Y27100000D03*
D415*
X103800000Y27150000D03*
D379*
X122550000Y27100000D03*
D417*
X63150000Y27050000D03*
X65650000Y27050000D03*
X68250000Y27050000D03*
X70750000Y27050000D03*
X75850000Y27050000D03*
X78350000Y27050000D03*
X80950000Y27050000D03*
X83450000Y27050000D03*
X88550000Y27050000D03*
X91050000Y27050000D03*
X93650000Y27050000D03*
X96150000Y27050000D03*
X101250000Y27050000D03*
X103750000Y27050000D03*
D164*
X3250000Y26950000D03*
D418*
X26000000Y26950000D03*
D419*
X53700000Y26950000D03*
D420*
X63100000Y26950000D03*
D421*
X65700000Y26950000D03*
X68200000Y26950000D03*
X70800000Y26950000D03*
X73300000Y26950000D03*
X75800000Y26950000D03*
D422*
X78400000Y26950000D03*
X80900000Y26950000D03*
D421*
X83500000Y26950000D03*
X86000000Y26950000D03*
X88500000Y26950000D03*
D422*
X91100000Y26950000D03*
X93600000Y26950000D03*
D421*
X96200000Y26950000D03*
X98700000Y26950000D03*
X101200000Y26950000D03*
X103800000Y26950000D03*
D423*
X122500000Y26950000D03*
D424*
X3200000Y26800000D03*
D425*
X26000000Y26800000D03*
D419*
X53800000Y26850000D03*
D369*
X63150000Y26850000D03*
D365*
X65700000Y26850000D03*
X68200000Y26850000D03*
D370*
X70750000Y26850000D03*
D365*
X73300000Y26850000D03*
D369*
X75850000Y26850000D03*
D365*
X78400000Y26850000D03*
X80900000Y26850000D03*
D369*
X83450000Y26850000D03*
D366*
X86000000Y26850000D03*
D369*
X88550000Y26850000D03*
D365*
X91100000Y26850000D03*
X93600000Y26850000D03*
D369*
X96150000Y26850000D03*
D365*
X98700000Y26850000D03*
D370*
X101250000Y26850000D03*
D365*
X103800000Y26850000D03*
D367*
X122450000Y26850000D03*
D426*
X53850000Y26750000D03*
D427*
X63150000Y26750000D03*
D428*
X65700000Y26750000D03*
X68200000Y26750000D03*
D429*
X70750000Y26750000D03*
D428*
X73300000Y26750000D03*
D430*
X75850000Y26750000D03*
D428*
X78400000Y26750000D03*
X80900000Y26750000D03*
D429*
X83450000Y26750000D03*
D428*
X86000000Y26750000D03*
D429*
X88550000Y26750000D03*
D428*
X91100000Y26750000D03*
X93600000Y26750000D03*
D430*
X96150000Y26750000D03*
D428*
X98700000Y26750000D03*
D429*
X101250000Y26750000D03*
D428*
X103800000Y26750000D03*
D431*
X122400000Y26750000D03*
D432*
X3150000Y26500000D03*
D433*
X26000000Y26500000D03*
D404*
X53950000Y26650000D03*
D434*
X63100000Y26650000D03*
X65700000Y26650000D03*
X68200000Y26650000D03*
X70800000Y26650000D03*
X73300000Y26650000D03*
X75800000Y26650000D03*
X78400000Y26650000D03*
X80900000Y26650000D03*
D275*
X83500000Y26650000D03*
X86000000Y26650000D03*
X88500000Y26650000D03*
D434*
X91100000Y26650000D03*
X93600000Y26650000D03*
X96200000Y26650000D03*
X98700000Y26650000D03*
X101200000Y26650000D03*
X103800000Y26650000D03*
D435*
X122350000Y26650000D03*
D436*
X54050000Y26550000D03*
D437*
X63150000Y26550000D03*
D273*
X65700000Y26550000D03*
X68200000Y26550000D03*
D437*
X70750000Y26550000D03*
D273*
X73300000Y26550000D03*
D437*
X75850000Y26550000D03*
D438*
X78400000Y26550000D03*
X80900000Y26550000D03*
D437*
X83450000Y26550000D03*
D273*
X86000000Y26550000D03*
D437*
X88550000Y26550000D03*
D438*
X91100000Y26550000D03*
X93600000Y26550000D03*
D437*
X96150000Y26550000D03*
D273*
X98700000Y26550000D03*
D437*
X101250000Y26550000D03*
D273*
X103800000Y26550000D03*
D439*
X122250000Y26550000D03*
D396*
X54200000Y26450000D03*
D440*
X63150000Y26450000D03*
D213*
X65700000Y26450000D03*
X68200000Y26450000D03*
D441*
X70600000Y26450000D03*
X73400000Y26450000D03*
D440*
X75850000Y26450000D03*
D213*
X78400000Y26450000D03*
D441*
X80800000Y26450000D03*
D442*
X83650000Y26450000D03*
D261*
X86000000Y26450000D03*
D440*
X88550000Y26450000D03*
D213*
X91100000Y26450000D03*
X93600000Y26450000D03*
D440*
X96150000Y26450000D03*
D213*
X98700000Y26450000D03*
D443*
X101250000Y26450000D03*
D213*
X103800000Y26450000D03*
D20*
X122100000Y26450000D03*
D444*
X59150000Y26350000D03*
D445*
X77100000Y20750000D03*
D446*
X110850000Y26350000D03*
D447*
X3100000Y26000000D03*
D448*
X26000000Y26000000D03*
D449*
X59200000Y26000000D03*
D450*
X100450000Y26250000D03*
D451*
X128750000Y26250000D03*
D452*
X100300000Y26150000D03*
D453*
X128950000Y26150000D03*
D418*
X100200000Y26050000D03*
D454*
X129050000Y26050000D03*
D455*
X100150000Y25950000D03*
D134*
X129100000Y25950000D03*
D456*
X100100000Y25850000D03*
D149*
X129150000Y25850000D03*
D457*
X100050000Y25750000D03*
D458*
X129200000Y25700000D03*
D432*
X3150000Y25500000D03*
D433*
X26000000Y25500000D03*
D459*
X59150000Y25500000D03*
D460*
X100000000Y25550000D03*
D461*
X129250000Y25400000D03*
D462*
X99950000Y25050000D03*
D424*
X3200000Y25200000D03*
D425*
X26000000Y25200000D03*
D463*
X59100000Y25200000D03*
D464*
X129300000Y25050000D03*
D164*
X3250000Y25050000D03*
D418*
X26000000Y25050000D03*
D465*
X59050000Y25050000D03*
D412*
X3300000Y24900000D03*
D413*
X26000000Y24900000D03*
D466*
X59000000Y24900000D03*
D467*
X129250000Y24750000D03*
D407*
X3350000Y24750000D03*
D408*
X26000000Y24750000D03*
D468*
X58950000Y24750000D03*
D302*
X3400000Y24650000D03*
D403*
X26000000Y24650000D03*
D469*
X58900000Y24650000D03*
D470*
X100000000Y24600000D03*
D400*
X3500000Y24550000D03*
D401*
X26000000Y24550000D03*
D185*
X58800000Y24550000D03*
D471*
X129200000Y24500000D03*
D397*
X3550000Y24450000D03*
D398*
X26000000Y24450000D03*
D183*
X58750000Y24450000D03*
D472*
X100050000Y24450000D03*
D394*
X3650000Y24350000D03*
D395*
X26000000Y24350000D03*
D70*
X58650000Y24350000D03*
D425*
X100100000Y24300000D03*
D149*
X129150000Y24350000D03*
D389*
X3850000Y24250000D03*
D390*
X26000000Y24250000D03*
D473*
X58450000Y24250000D03*
D474*
X129100000Y24250000D03*
D475*
X36300000Y19250000D03*
D418*
X100200000Y24150000D03*
D454*
X129050000Y24150000D03*
D476*
X100250000Y24050000D03*
D197*
X129000000Y24050000D03*
D477*
X100350000Y23950000D03*
D78*
X128850000Y23950000D03*
D478*
X110850000Y23800000D03*
D479*
X107950000Y23650000D03*
D400*
X136500000Y23650000D03*
D480*
X107850000Y23550000D03*
D481*
X136600000Y23550000D03*
D482*
X107800000Y23450000D03*
D483*
X136700000Y23450000D03*
D484*
X107750000Y23350000D03*
D164*
X136750000Y23350000D03*
D485*
X107700000Y23250000D03*
D486*
X136800000Y23200000D03*
D487*
X107650000Y23100000D03*
D488*
X136850000Y23000000D03*
D489*
X107600000Y22850000D03*
D490*
X136900000Y22550000D03*
D491*
X107550000Y22550000D03*
D492*
X107600000Y22200000D03*
D488*
X136850000Y22100000D03*
D493*
X107650000Y21950000D03*
D494*
X136800000Y21900000D03*
D495*
X107700000Y21800000D03*
D496*
X136750000Y21750000D03*
D484*
X107750000Y21650000D03*
D483*
X136700000Y21650000D03*
D480*
X107850000Y21550000D03*
D497*
X136650000Y21550000D03*
D479*
X107950000Y21450000D03*
D498*
X136550000Y21450000D03*
D478*
X110850000Y21300000D03*
D499*
X100400000Y21150000D03*
D500*
X126000000Y21150000D03*
D501*
X136450000Y21150000D03*
D476*
X100250000Y21050000D03*
D502*
X126000000Y21050000D03*
D481*
X136600000Y21050000D03*
D503*
X100200000Y20950000D03*
D504*
X126000000Y20950000D03*
D505*
X136650000Y20950000D03*
D506*
X100150000Y20850000D03*
D507*
X126000000Y20850000D03*
D508*
X136700000Y20850000D03*
D509*
X100100000Y20750000D03*
D510*
X126000000Y20750000D03*
D496*
X136750000Y20750000D03*
D511*
X100050000Y20650000D03*
D512*
X126000000Y20600000D03*
D513*
X136800000Y20650000D03*
D514*
X100000000Y20450000D03*
D515*
X136850000Y20450000D03*
D516*
X126000000Y20350000D03*
D517*
X99950000Y20000000D03*
D518*
X136900000Y20000000D03*
D519*
X126000000Y20000000D03*
D516*
X126000000Y19650000D03*
D514*
X100000000Y19550000D03*
D515*
X136850000Y19550000D03*
D512*
X126000000Y19400000D03*
D511*
X100050000Y19350000D03*
D513*
X136800000Y19350000D03*
D509*
X100100000Y19250000D03*
D510*
X126000000Y19250000D03*
D496*
X136750000Y19250000D03*
D506*
X100150000Y19150000D03*
D507*
X126000000Y19150000D03*
D508*
X136700000Y19150000D03*
D503*
X100200000Y19050000D03*
D504*
X126000000Y19050000D03*
D505*
X136650000Y19050000D03*
D520*
X100250000Y18950000D03*
D521*
X126000000Y18950000D03*
D522*
X136600000Y18950000D03*
D523*
X100400000Y18850000D03*
D524*
X126000000Y18850000D03*
D525*
X136450000Y18850000D03*
D526*
X110850000Y18700000D03*
D527*
X100300000Y18550000D03*
D528*
X128900000Y18550000D03*
D503*
X100200000Y18450000D03*
D529*
X129000000Y18450000D03*
D506*
X100150000Y18350000D03*
D530*
X129100000Y18350000D03*
D509*
X100100000Y18250000D03*
D531*
X129150000Y18200000D03*
D532*
X100050000Y18100000D03*
D533*
X129200000Y18050000D03*
D534*
X100000000Y17950000D03*
D535*
X129250000Y17800000D03*
D536*
X92500000Y17850000D03*
D143*
X92450000Y17750000D03*
D537*
X92400000Y15700000D03*
D538*
X129300000Y17450000D03*
D467*
X129250000Y17150000D03*
D539*
X110100000Y17000000D03*
D471*
X129200000Y16900000D03*
D540*
X110150000Y16800000D03*
D541*
X129150000Y16750000D03*
D542*
X110200000Y16650000D03*
D530*
X129100000Y16650000D03*
D543*
X110250000Y16550000D03*
D544*
X129050000Y16550000D03*
D545*
X110350000Y16450000D03*
D529*
X129000000Y16450000D03*
D546*
X110450000Y16350000D03*
D547*
X128900000Y16350000D03*
D548*
X120950000Y14950000D03*
D549*
X76850000Y15050000D03*
D550*
X81750000Y15050000D03*
D551*
X76750000Y14950000D03*
D552*
X36350000Y14250000D03*
D553*
X36400000Y14150000D03*
D554*
X37350000Y14050000D03*
D555*
X37300000Y13950000D03*
D556*
X37150000Y13850000D03*
D557*
X37100000Y13750000D03*
D558*
X37050000Y13650000D03*
D559*
X92350000Y13650000D03*
D560*
X31350000Y13550000D03*
D561*
X63150000Y13550000D03*
D562*
X65700000Y13550000D03*
X68200000Y13550000D03*
D563*
X70750000Y13550000D03*
D430*
X72650000Y13550000D03*
D564*
X83600000Y13550000D03*
D565*
X86000000Y13550000D03*
D561*
X88550000Y13550000D03*
D562*
X91100000Y13550000D03*
X93600000Y13550000D03*
D561*
X96150000Y13550000D03*
D562*
X98700000Y13550000D03*
D564*
X101100000Y13550000D03*
X103900000Y13550000D03*
D566*
X107600000Y13550000D03*
D567*
X124650000Y13550000D03*
D568*
X31200000Y13450000D03*
D569*
X63150000Y13450000D03*
D570*
X65700000Y13450000D03*
X68200000Y13450000D03*
D569*
X70750000Y13450000D03*
D374*
X72800000Y13450000D03*
D569*
X83450000Y13450000D03*
D570*
X86000000Y13450000D03*
D569*
X88550000Y13450000D03*
D571*
X91100000Y13450000D03*
X93600000Y13450000D03*
D569*
X96150000Y13450000D03*
D570*
X98700000Y13450000D03*
D569*
X101250000Y13450000D03*
D570*
X103800000Y13450000D03*
D572*
X107550000Y13450000D03*
D573*
X124800000Y13450000D03*
D574*
X31100000Y13350000D03*
D575*
X63100000Y13350000D03*
X65700000Y13350000D03*
X68200000Y13350000D03*
X70800000Y13350000D03*
D576*
X72850000Y13350000D03*
D577*
X83500000Y13350000D03*
X86000000Y13350000D03*
X88500000Y13350000D03*
D575*
X91100000Y13350000D03*
X93600000Y13350000D03*
X96200000Y13350000D03*
X98700000Y13350000D03*
X101200000Y13350000D03*
X103800000Y13350000D03*
D578*
X107600000Y13350000D03*
D579*
X124900000Y13350000D03*
D580*
X31050000Y13250000D03*
D427*
X63150000Y13250000D03*
D428*
X65700000Y13250000D03*
X68200000Y13250000D03*
D429*
X70750000Y13250000D03*
D581*
X72850000Y13250000D03*
D430*
X75850000Y13250000D03*
D428*
X78400000Y13250000D03*
X80900000Y13250000D03*
D429*
X83450000Y13250000D03*
D428*
X86000000Y13250000D03*
D429*
X88550000Y13250000D03*
D428*
X91100000Y13250000D03*
X93600000Y13250000D03*
D430*
X96150000Y13250000D03*
D428*
X98700000Y13250000D03*
D429*
X101250000Y13250000D03*
D428*
X103800000Y13250000D03*
D582*
X107550000Y13250000D03*
D583*
X124950000Y13250000D03*
D584*
X31000000Y13150000D03*
D585*
X63150000Y13150000D03*
D586*
X65700000Y13150000D03*
X68200000Y13150000D03*
D587*
X70750000Y13150000D03*
D585*
X75850000Y13150000D03*
D586*
X78400000Y13150000D03*
X80900000Y13150000D03*
D585*
X83450000Y13150000D03*
D588*
X86000000Y13150000D03*
D585*
X88550000Y13150000D03*
D586*
X91100000Y13150000D03*
X93600000Y13150000D03*
D585*
X96150000Y13150000D03*
D586*
X98700000Y13150000D03*
D587*
X101250000Y13150000D03*
D586*
X103800000Y13150000D03*
D589*
X107550000Y13150000D03*
D590*
X125000000Y13150000D03*
D591*
X30950000Y13050000D03*
D592*
X63100000Y13050000D03*
D374*
X65700000Y13050000D03*
X68200000Y13050000D03*
X70800000Y13050000D03*
X75800000Y13050000D03*
D375*
X78400000Y13050000D03*
X80900000Y13050000D03*
D374*
X83500000Y13050000D03*
X86000000Y13050000D03*
X88500000Y13050000D03*
D375*
X91100000Y13050000D03*
X93600000Y13050000D03*
D374*
X96200000Y13050000D03*
X98700000Y13050000D03*
X101200000Y13050000D03*
X103800000Y13050000D03*
D593*
X107600000Y13050000D03*
D594*
X125050000Y13050000D03*
D376*
X30900000Y12900000D03*
D595*
X63150000Y12950000D03*
X65650000Y12950000D03*
X68250000Y12950000D03*
X70750000Y12950000D03*
X75850000Y12950000D03*
X78350000Y12950000D03*
X80950000Y12950000D03*
X83450000Y12950000D03*
D377*
X86000000Y12900000D03*
D595*
X88550000Y12950000D03*
X91050000Y12950000D03*
X93650000Y12950000D03*
X96150000Y12950000D03*
D377*
X98700000Y12900000D03*
D595*
X101250000Y12950000D03*
X103750000Y12950000D03*
D596*
X107600000Y12950000D03*
D597*
X125100000Y12900000D03*
D598*
X63150000Y12750000D03*
D599*
X65700000Y12850000D03*
X68200000Y12850000D03*
D600*
X70750000Y12750000D03*
D598*
X75850000Y12750000D03*
D601*
X78400000Y12850000D03*
X80900000Y12850000D03*
D598*
X83450000Y12750000D03*
X88550000Y12750000D03*
D601*
X91100000Y12850000D03*
X93600000Y12850000D03*
D598*
X96150000Y12750000D03*
D600*
X101250000Y12750000D03*
D599*
X103800000Y12850000D03*
D602*
X107550000Y12850000D03*
D603*
X30850000Y12400000D03*
D410*
X65650000Y12750000D03*
D411*
X68250000Y12750000D03*
D410*
X78350000Y12750000D03*
X80950000Y12750000D03*
D386*
X86000000Y12400000D03*
D410*
X91050000Y12750000D03*
X93650000Y12750000D03*
D385*
X98700000Y12400000D03*
D411*
X103750000Y12750000D03*
D604*
X107600000Y12400000D03*
D605*
X125150000Y12400000D03*
D606*
X65700000Y12400000D03*
X68200000Y12400000D03*
X78400000Y12400000D03*
X80900000Y12400000D03*
X91100000Y12400000D03*
X93600000Y12400000D03*
X103800000Y12400000D03*
D607*
X63100000Y12400000D03*
X70800000Y12400000D03*
X75800000Y12400000D03*
D608*
X83500000Y12400000D03*
X88500000Y12400000D03*
D607*
X96200000Y12400000D03*
X101200000Y12400000D03*
D405*
X63150000Y12050000D03*
D406*
X70750000Y12050000D03*
D405*
X75850000Y12050000D03*
X83450000Y12050000D03*
X88550000Y12050000D03*
X96150000Y12050000D03*
D406*
X101250000Y12050000D03*
D410*
X65650000Y12050000D03*
D411*
X68250000Y12050000D03*
D410*
X78350000Y12050000D03*
X80950000Y12050000D03*
X91050000Y12050000D03*
X93650000Y12050000D03*
D411*
X103750000Y12050000D03*
D376*
X30900000Y11900000D03*
D377*
X65700000Y11900000D03*
X68200000Y11900000D03*
D378*
X78400000Y11900000D03*
X80900000Y11900000D03*
D377*
X86000000Y11900000D03*
D378*
X91100000Y11900000D03*
X93600000Y11900000D03*
D377*
X98700000Y11900000D03*
X103800000Y11900000D03*
D609*
X107550000Y11950000D03*
D597*
X125100000Y11900000D03*
D610*
X63150000Y11800000D03*
X70750000Y11800000D03*
X75850000Y11800000D03*
X83450000Y11800000D03*
X88550000Y11800000D03*
X96150000Y11800000D03*
X101250000Y11800000D03*
D611*
X107600000Y11850000D03*
D612*
X30950000Y11700000D03*
D374*
X65700000Y11750000D03*
X68200000Y11750000D03*
D375*
X78400000Y11750000D03*
X80900000Y11750000D03*
D613*
X86000000Y11700000D03*
D375*
X91100000Y11750000D03*
X93600000Y11750000D03*
D613*
X98700000Y11700000D03*
D374*
X103800000Y11750000D03*
D614*
X107550000Y11750000D03*
D615*
X125050000Y11700000D03*
D585*
X63150000Y11650000D03*
X65650000Y11650000D03*
D587*
X68250000Y11650000D03*
X70750000Y11650000D03*
D585*
X75850000Y11650000D03*
X78350000Y11650000D03*
X80950000Y11650000D03*
X83450000Y11650000D03*
X88550000Y11650000D03*
X91050000Y11650000D03*
X93650000Y11650000D03*
X96150000Y11650000D03*
D587*
X101250000Y11650000D03*
X103750000Y11650000D03*
D616*
X107600000Y11650000D03*
D617*
X31000000Y11550000D03*
D427*
X63150000Y11550000D03*
D430*
X65650000Y11550000D03*
D429*
X68250000Y11550000D03*
X70750000Y11550000D03*
D430*
X75850000Y11550000D03*
X78350000Y11550000D03*
D429*
X80950000Y11550000D03*
X83450000Y11550000D03*
D618*
X86000000Y11550000D03*
D429*
X88550000Y11550000D03*
X91050000Y11550000D03*
D430*
X93650000Y11550000D03*
X96150000Y11550000D03*
D619*
X98700000Y11550000D03*
D429*
X101250000Y11550000D03*
X103750000Y11550000D03*
D620*
X107600000Y11550000D03*
D621*
X125000000Y11550000D03*
D580*
X31050000Y11450000D03*
D622*
X63150000Y11450000D03*
D623*
X65650000Y11450000D03*
D624*
X68250000Y11450000D03*
X70750000Y11450000D03*
D550*
X73750000Y11450000D03*
D623*
X75850000Y11450000D03*
X78350000Y11450000D03*
D624*
X80950000Y11450000D03*
X83450000Y11450000D03*
D428*
X86000000Y11450000D03*
D624*
X88550000Y11450000D03*
X91050000Y11450000D03*
D623*
X93650000Y11450000D03*
X96150000Y11450000D03*
D428*
X98700000Y11450000D03*
D624*
X101250000Y11450000D03*
X103750000Y11450000D03*
D625*
X107600000Y11450000D03*
D583*
X124950000Y11450000D03*
D626*
X31150000Y11350000D03*
D627*
X63100000Y11350000D03*
D628*
X65700000Y11350000D03*
X68200000Y11350000D03*
X70800000Y11350000D03*
D629*
X72700000Y11350000D03*
D576*
X73850000Y11350000D03*
D628*
X75800000Y11350000D03*
D630*
X78400000Y11350000D03*
X80900000Y11350000D03*
D628*
X83500000Y11350000D03*
X86000000Y11350000D03*
X88500000Y11350000D03*
D630*
X91100000Y11350000D03*
X93600000Y11350000D03*
D628*
X96200000Y11350000D03*
X98700000Y11350000D03*
X101200000Y11350000D03*
X103800000Y11350000D03*
D631*
X107600000Y11350000D03*
D632*
X124850000Y11350000D03*
D633*
X31250000Y11250000D03*
D350*
X63150000Y11250000D03*
X65650000Y11250000D03*
D351*
X68250000Y11250000D03*
X70750000Y11250000D03*
D634*
X72600000Y11250000D03*
D595*
X73950000Y11250000D03*
D350*
X75850000Y11250000D03*
X78350000Y11250000D03*
D351*
X80950000Y11250000D03*
X83450000Y11250000D03*
D354*
X86000000Y11250000D03*
D351*
X88550000Y11250000D03*
X91050000Y11250000D03*
D350*
X93650000Y11250000D03*
X96150000Y11250000D03*
D352*
X98700000Y11250000D03*
D351*
X101250000Y11250000D03*
X103750000Y11250000D03*
D635*
X107600000Y11250000D03*
D636*
X124750000Y11250000D03*
D637*
X36900000Y9200000D03*
D638*
X106350000Y9250000D03*
D639*
X92700000Y7250000D03*
D640*
X125650000Y7250000D03*
D641*
X36200000Y7150000D03*
D642*
X92650000Y7150000D03*
D643*
X115050000Y7150000D03*
D644*
X136300000Y7150000D03*
D645*
X36100000Y7050000D03*
D646*
X92600000Y7000000D03*
D647*
X115000000Y7050000D03*
D648*
X136400000Y7050000D03*
D649*
X36050000Y6950000D03*
D650*
X114950000Y6950000D03*
D651*
X136450000Y6750000D03*
D652*
X36000000Y6850000D03*
D653*
X92550000Y6800000D03*
D513*
X114800000Y6850000D03*
D654*
X35950000Y6700000D03*
D488*
X114750000Y6700000D03*
D655*
X92500000Y6650000D03*
D656*
X33400000Y6550000D03*
D657*
X68500000Y6550000D03*
D658*
X88700000Y6550000D03*
D659*
X107850000Y6550000D03*
D660*
X114600000Y6550000D03*
D661*
X33300000Y6450000D03*
D635*
X68600000Y6450000D03*
D662*
X88550000Y6450000D03*
D663*
X107950000Y6450000D03*
D572*
X114550000Y6450000D03*
D650*
X136550000Y6450000D03*
D664*
X33250000Y6300000D03*
D665*
X88400000Y6350000D03*
D666*
X136650000Y6350000D03*
D667*
X88000000Y6250000D03*
D668*
X120950000Y6250000D03*
D669*
X128500000Y6250000D03*
D496*
X136750000Y6250000D03*
D670*
X33200000Y6000000D03*
D671*
X88000000Y6000000D03*
D672*
X120950000Y6150000D03*
D673*
X128550000Y6150000D03*
D513*
X136800000Y6150000D03*
D674*
X120900000Y6050000D03*
D675*
X128550000Y6050000D03*
D676*
X136850000Y6050000D03*
D677*
X120950000Y5950000D03*
D678*
X128550000Y5950000D03*
D679*
X136900000Y5950000D03*
D680*
X120950000Y5850000D03*
D681*
X128500000Y5850000D03*
D682*
X136950000Y5850000D03*
D664*
X33250000Y5700000D03*
D683*
X88000000Y5700000D03*
D684*
X120900000Y5750000D03*
D685*
X128550000Y5750000D03*
D686*
X137000000Y5650000D03*
D687*
X120950000Y5650000D03*
D688*
X128500000Y5650000D03*
D661*
X33300000Y5550000D03*
D648*
X69000000Y5550000D03*
D689*
X88000000Y5550000D03*
D690*
X110700000Y5550000D03*
D691*
X120900000Y5500000D03*
D692*
X128550000Y5500000D03*
D656*
X33400000Y5450000D03*
D693*
X69000000Y5450000D03*
D694*
X88000000Y5450000D03*
D695*
X110550000Y5450000D03*
D696*
X137050000Y5000000D03*
D697*
X58950000Y4950000D03*
D698*
X120950000Y5300000D03*
D699*
X128500000Y5350000D03*
D700*
X128550000Y5000000D03*
D701*
X120900000Y5000000D03*
D698*
X120950000Y4700000D03*
D699*
X128500000Y4650000D03*
D691*
X120900000Y4500000D03*
D692*
X128550000Y4500000D03*
D702*
X59000000Y4350000D03*
D686*
X137000000Y4350000D03*
D687*
X120950000Y4350000D03*
D688*
X128500000Y4350000D03*
D684*
X120900000Y4250000D03*
D685*
X128550000Y4250000D03*
D703*
X59050000Y4150000D03*
D680*
X120950000Y4150000D03*
D681*
X128500000Y4150000D03*
D682*
X136950000Y4150000D03*
D704*
X59100000Y4050000D03*
D677*
X120950000Y4050000D03*
D678*
X128550000Y4050000D03*
D679*
X136900000Y4050000D03*
D705*
X59150000Y3950000D03*
D674*
X120900000Y3950000D03*
D675*
X128550000Y3950000D03*
D676*
X136850000Y3950000D03*
D706*
X59200000Y3850000D03*
D672*
X120950000Y3850000D03*
D673*
X128550000Y3850000D03*
D513*
X136800000Y3850000D03*
D707*
X59250000Y3750000D03*
D668*
X120950000Y3750000D03*
D669*
X128500000Y3750000D03*
D496*
X136750000Y3750000D03*
D708*
X59350000Y3650000D03*
D709*
X120900000Y3650000D03*
D710*
X128550000Y3650000D03*
D666*
X136650000Y3650000D03*
D711*
X59450000Y3550000D03*
D572*
X120950000Y3550000D03*
D712*
X128500000Y3550000D03*
D650*
X136550000Y3550000D03*
D713*
X70000000Y2250000D03*
D714*
X10000000Y65000000D03*
X130000000Y65000000D03*
D715*
X8250000Y43000000D03*
X15750000Y43000000D03*
D716*
X83000000Y65000000D03*
X113000000Y65000000D03*
D717*
X94190000Y57000000D03*
X96730000Y57000000D03*
X99270000Y57000000D03*
X101810000Y57000000D03*
D718*
X7000000Y26000000D03*
X7000000Y10000000D03*
X45000000Y26000000D03*
X45000000Y10000000D03*
D717*
X61870000Y27620000D03*
X64410000Y27620000D03*
X66950000Y27620000D03*
X69490000Y27620000D03*
X72030000Y27620000D03*
X74570000Y27620000D03*
X77110000Y27620000D03*
X79650000Y27620000D03*
X82190000Y27620000D03*
X84730000Y27620000D03*
X87270000Y27620000D03*
X89810000Y27620000D03*
X92350000Y27620000D03*
X94890000Y27620000D03*
X97430000Y27620000D03*
X99970000Y27620000D03*
X102510000Y27620000D03*
X105050000Y27620000D03*
X107590000Y27620000D03*
X110130000Y27620000D03*
X61870000Y12380000D03*
X64410000Y12380000D03*
X66950000Y12380000D03*
X69490000Y12380000D03*
X72030000Y12380000D03*
X74570000Y12380000D03*
X77110000Y12380000D03*
X79650000Y12380000D03*
X82190000Y12380000D03*
X84730000Y12380000D03*
X87270000Y12380000D03*
X89810000Y12380000D03*
X92350000Y12380000D03*
X94890000Y12380000D03*
X97430000Y12380000D03*
X99970000Y12380000D03*
X102510000Y12380000D03*
X105050000Y12380000D03*
X107590000Y12380000D03*
X110130000Y12380000D03*
X118380000Y25080000D03*
X118380000Y22540000D03*
X118380000Y20000000D03*
X118380000Y17460000D03*
X133620000Y22540000D03*
X133620000Y20000000D03*
X133620000Y17460000D03*
D719*
X118380000Y5000000D03*
X123460000Y5000000D03*
X128540000Y5000000D03*
X133620000Y5000000D03*
D720*
X3000000Y80000000D03*
X4500000Y80000000D03*
X6000000Y80000000D03*
X7500000Y80000000D03*
X9000000Y80000000D03*
X10500000Y80000000D03*
X12000000Y80000000D03*
X13500000Y80000000D03*
X15000000Y80000000D03*
X16500000Y80000000D03*
X18000000Y80000000D03*
X19500000Y80000000D03*
X21000000Y80000000D03*
X22500000Y80000000D03*
X24000000Y80000000D03*
X25500000Y80000000D03*
X27000000Y80000000D03*
X3000000Y78500000D03*
X4500000Y78500000D03*
X6000000Y78500000D03*
X7500000Y78500000D03*
X9000000Y78500000D03*
X10500000Y78500000D03*
X12000000Y78500000D03*
X13500000Y78500000D03*
X15000000Y78500000D03*
X16500000Y78500000D03*
X18000000Y78500000D03*
X19500000Y78500000D03*
X21000000Y78500000D03*
X22500000Y78500000D03*
X24000000Y78500000D03*
X25500000Y78500000D03*
X27000000Y78500000D03*
X3000000Y77000000D03*
X4500000Y77000000D03*
X6000000Y77000000D03*
X7500000Y77000000D03*
X9000000Y77000000D03*
X10500000Y77000000D03*
X12000000Y77000000D03*
X13500000Y77000000D03*
X15000000Y77000000D03*
X16500000Y77000000D03*
X18000000Y77000000D03*
X19500000Y77000000D03*
X21000000Y77000000D03*
X22500000Y77000000D03*
X24000000Y77000000D03*
X25500000Y77000000D03*
X27000000Y77000000D03*
X3000000Y75500000D03*
X4500000Y75500000D03*
X6000000Y75500000D03*
X7500000Y75500000D03*
X9000000Y75500000D03*
X10500000Y75500000D03*
X12000000Y75500000D03*
X13500000Y75500000D03*
X15000000Y75500000D03*
X16500000Y75500000D03*
X18000000Y75500000D03*
X19500000Y75500000D03*
X21000000Y75500000D03*
X22500000Y75500000D03*
X24000000Y75500000D03*
X25500000Y75500000D03*
X27000000Y75500000D03*
X3000000Y74000000D03*
X4500000Y74000000D03*
X6000000Y74000000D03*
X13500000Y74000000D03*
X15000000Y74000000D03*
X16500000Y74000000D03*
X18000000Y74000000D03*
X19500000Y74000000D03*
X21000000Y74000000D03*
X22500000Y74000000D03*
X24000000Y74000000D03*
X25500000Y74000000D03*
X27000000Y74000000D03*
X3000000Y72500000D03*
X16500000Y72500000D03*
X18000000Y72500000D03*
X19500000Y72500000D03*
X21000000Y72500000D03*
X22500000Y72500000D03*
X24000000Y72500000D03*
X25500000Y72500000D03*
X27000000Y72500000D03*
X18000000Y71000000D03*
X19500000Y71000000D03*
X21000000Y71000000D03*
X22500000Y71000000D03*
X24000000Y71000000D03*
X25500000Y71000000D03*
X27000000Y71000000D03*
X19500000Y69500000D03*
X21000000Y69500000D03*
X22500000Y69500000D03*
X24000000Y69500000D03*
X25500000Y69500000D03*
X27000000Y69500000D03*
X19500000Y68000000D03*
X21000000Y68000000D03*
X22500000Y68000000D03*
X24000000Y68000000D03*
X25500000Y68000000D03*
X27000000Y68000000D03*
X19500000Y66500000D03*
X21000000Y66500000D03*
X22500000Y66500000D03*
X24000000Y66500000D03*
X25500000Y66500000D03*
X27000000Y66500000D03*
X21000000Y65000000D03*
X22500000Y65000000D03*
X24000000Y65000000D03*
X25500000Y65000000D03*
X27000000Y65000000D03*
X19500000Y63500000D03*
X21000000Y63500000D03*
X22500000Y63500000D03*
X24000000Y63500000D03*
X25500000Y63500000D03*
X27000000Y63500000D03*
X19500000Y62000000D03*
X21000000Y62000000D03*
X22500000Y62000000D03*
X24000000Y62000000D03*
X25500000Y62000000D03*
X27000000Y62000000D03*
X19500000Y60500000D03*
X21000000Y60500000D03*
X22500000Y60500000D03*
X24000000Y60500000D03*
X25500000Y60500000D03*
X27000000Y60500000D03*
X18000000Y59000000D03*
X19500000Y59000000D03*
X21000000Y59000000D03*
X22500000Y59000000D03*
X24000000Y59000000D03*
X25500000Y59000000D03*
X27000000Y59000000D03*
X3000000Y57500000D03*
X16500000Y57500000D03*
X18000000Y57500000D03*
X19500000Y57500000D03*
X21000000Y57500000D03*
X22500000Y57500000D03*
X24000000Y57500000D03*
X25500000Y57500000D03*
X27000000Y57500000D03*
X3000000Y56000000D03*
X4500000Y56000000D03*
X6000000Y56000000D03*
X13500000Y56000000D03*
X15000000Y56000000D03*
X16500000Y56000000D03*
X18000000Y56000000D03*
X19500000Y56000000D03*
X21000000Y56000000D03*
X22500000Y56000000D03*
X24000000Y56000000D03*
X25500000Y56000000D03*
X3000000Y54500000D03*
X4500000Y54500000D03*
X6000000Y54500000D03*
X7500000Y54500000D03*
X9000000Y54500000D03*
X10500000Y54500000D03*
X12000000Y54500000D03*
X13500000Y54500000D03*
X15000000Y54500000D03*
X16500000Y54500000D03*
X18000000Y54500000D03*
X19500000Y54500000D03*
X21000000Y54500000D03*
X22500000Y54500000D03*
X24000000Y54500000D03*
X25500000Y54500000D03*
X3000000Y53000000D03*
X4500000Y53000000D03*
X6000000Y53000000D03*
X7500000Y53000000D03*
X9000000Y53000000D03*
X10500000Y53000000D03*
X12000000Y53000000D03*
X13500000Y53000000D03*
X15000000Y53000000D03*
X16500000Y53000000D03*
X18000000Y53000000D03*
X19500000Y53000000D03*
X21000000Y53000000D03*
X22500000Y53000000D03*
X24000000Y53000000D03*
X25500000Y53000000D03*
X27000000Y53000000D03*
X31500000Y80000000D03*
X33000000Y80000000D03*
X34500000Y80000000D03*
X31500000Y78500000D03*
X33000000Y78500000D03*
X34500000Y78500000D03*
X31500000Y77000000D03*
X33000000Y77000000D03*
X34500000Y77000000D03*
X31500000Y75500000D03*
X33000000Y75500000D03*
X34500000Y75500000D03*
X31500000Y74000000D03*
X33000000Y74000000D03*
X34500000Y74000000D03*
X31500000Y72500000D03*
X33000000Y72500000D03*
X34500000Y72500000D03*
X31500000Y71000000D03*
X33000000Y71000000D03*
X34500000Y71000000D03*
X31500000Y69500000D03*
X31500000Y68000000D03*
X33000000Y68000000D03*
X34500000Y68000000D03*
X31500000Y66500000D03*
X33000000Y66500000D03*
X34500000Y66500000D03*
X31500000Y65000000D03*
X33000000Y65000000D03*
X34500000Y65000000D03*
X31500000Y63500000D03*
X33000000Y63500000D03*
X34500000Y63500000D03*
X31500000Y62000000D03*
X33000000Y62000000D03*
X34500000Y62000000D03*
X34500000Y60500000D03*
X31500000Y59000000D03*
X33000000Y59000000D03*
X34500000Y59000000D03*
X31500000Y57500000D03*
X33000000Y57500000D03*
X34500000Y57500000D03*
X31500000Y56000000D03*
X33000000Y56000000D03*
X34500000Y56000000D03*
X31500000Y54500000D03*
X33000000Y54500000D03*
X34500000Y54500000D03*
X31500000Y53000000D03*
X33000000Y53000000D03*
X34500000Y53000000D03*
X39000000Y80000000D03*
X40500000Y80000000D03*
X42000000Y80000000D03*
X43500000Y80000000D03*
X45000000Y80000000D03*
X46500000Y80000000D03*
X48000000Y80000000D03*
X49500000Y80000000D03*
X51000000Y80000000D03*
X52500000Y80000000D03*
X54000000Y80000000D03*
X55500000Y80000000D03*
X57000000Y80000000D03*
X39000000Y78500000D03*
X40500000Y78500000D03*
X42000000Y78500000D03*
X43500000Y78500000D03*
X45000000Y78500000D03*
X46500000Y78500000D03*
X48000000Y78500000D03*
X49500000Y78500000D03*
X51000000Y78500000D03*
X52500000Y78500000D03*
X54000000Y78500000D03*
X55500000Y78500000D03*
X57000000Y78500000D03*
X39000000Y77000000D03*
X40500000Y77000000D03*
X42000000Y77000000D03*
X43500000Y77000000D03*
X45000000Y77000000D03*
X46500000Y77000000D03*
X48000000Y77000000D03*
X49500000Y77000000D03*
X51000000Y77000000D03*
X52500000Y77000000D03*
X54000000Y77000000D03*
X55500000Y77000000D03*
X57000000Y77000000D03*
X39000000Y75500000D03*
X40500000Y75500000D03*
X42000000Y75500000D03*
X43500000Y75500000D03*
X45000000Y75500000D03*
X46500000Y75500000D03*
X48000000Y75500000D03*
X49500000Y75500000D03*
X51000000Y75500000D03*
X52500000Y75500000D03*
X54000000Y75500000D03*
X55500000Y75500000D03*
X57000000Y75500000D03*
X39000000Y74000000D03*
X40500000Y74000000D03*
X42000000Y74000000D03*
X43500000Y74000000D03*
X45000000Y74000000D03*
X46500000Y74000000D03*
X48000000Y74000000D03*
X49500000Y74000000D03*
X51000000Y74000000D03*
X52500000Y74000000D03*
X54000000Y74000000D03*
X55500000Y74000000D03*
X57000000Y74000000D03*
X39000000Y72500000D03*
X40500000Y72500000D03*
X42000000Y72500000D03*
X43500000Y72500000D03*
X45000000Y72500000D03*
X46500000Y72500000D03*
X48000000Y72500000D03*
X49500000Y72500000D03*
X51000000Y72500000D03*
X52500000Y72500000D03*
X54000000Y72500000D03*
X55500000Y72500000D03*
X57000000Y72500000D03*
X39000000Y71000000D03*
X40500000Y71000000D03*
X42000000Y71000000D03*
X43500000Y71000000D03*
X45000000Y71000000D03*
X46500000Y71000000D03*
X48000000Y71000000D03*
X49500000Y71000000D03*
X51000000Y71000000D03*
X52500000Y71000000D03*
X54000000Y71000000D03*
X55500000Y71000000D03*
X57000000Y71000000D03*
X39000000Y69500000D03*
X40500000Y69500000D03*
X42000000Y69500000D03*
X43500000Y69500000D03*
X45000000Y69500000D03*
X46500000Y69500000D03*
X48000000Y69500000D03*
X49500000Y69500000D03*
X51000000Y69500000D03*
X52500000Y69500000D03*
X54000000Y69500000D03*
X55500000Y69500000D03*
X57000000Y69500000D03*
X39000000Y68000000D03*
X40500000Y68000000D03*
X42000000Y68000000D03*
X43500000Y68000000D03*
X45000000Y68000000D03*
X46500000Y68000000D03*
X48000000Y68000000D03*
X49500000Y68000000D03*
X51000000Y68000000D03*
X52500000Y68000000D03*
X54000000Y68000000D03*
X55500000Y68000000D03*
X57000000Y68000000D03*
X39000000Y66500000D03*
X40500000Y66500000D03*
X42000000Y66500000D03*
X43500000Y66500000D03*
X45000000Y66500000D03*
X46500000Y66500000D03*
X48000000Y66500000D03*
X49500000Y66500000D03*
X51000000Y66500000D03*
X52500000Y66500000D03*
X54000000Y66500000D03*
X55500000Y66500000D03*
X57000000Y66500000D03*
X39000000Y65000000D03*
X40500000Y65000000D03*
X42000000Y65000000D03*
X43500000Y65000000D03*
X45000000Y65000000D03*
X46500000Y65000000D03*
X48000000Y65000000D03*
X49500000Y65000000D03*
X51000000Y65000000D03*
X52500000Y65000000D03*
X54000000Y65000000D03*
X55500000Y65000000D03*
X57000000Y65000000D03*
X39000000Y63500000D03*
X40500000Y63500000D03*
X42000000Y63500000D03*
X43500000Y63500000D03*
X45000000Y63500000D03*
X46500000Y63500000D03*
X48000000Y63500000D03*
X49500000Y63500000D03*
X51000000Y63500000D03*
X52500000Y63500000D03*
X54000000Y63500000D03*
X55500000Y63500000D03*
X57000000Y63500000D03*
X39000000Y62000000D03*
X40500000Y62000000D03*
X42000000Y62000000D03*
X43500000Y62000000D03*
X45000000Y62000000D03*
X46500000Y62000000D03*
X48000000Y62000000D03*
X49500000Y62000000D03*
X51000000Y62000000D03*
X52500000Y62000000D03*
X54000000Y62000000D03*
X55500000Y62000000D03*
X57000000Y62000000D03*
X39000000Y60500000D03*
X40500000Y60500000D03*
X42000000Y60500000D03*
X43500000Y60500000D03*
X45000000Y60500000D03*
X46500000Y60500000D03*
X48000000Y60500000D03*
X49500000Y60500000D03*
X51000000Y60500000D03*
X52500000Y60500000D03*
X54000000Y60500000D03*
X55500000Y60500000D03*
X57000000Y60500000D03*
X39000000Y59000000D03*
X40500000Y59000000D03*
X42000000Y59000000D03*
X43500000Y59000000D03*
X45000000Y59000000D03*
X46500000Y59000000D03*
X48000000Y59000000D03*
X49500000Y59000000D03*
X51000000Y59000000D03*
X52500000Y59000000D03*
X54000000Y59000000D03*
X55500000Y59000000D03*
X57000000Y59000000D03*
X39000000Y57500000D03*
X40500000Y57500000D03*
X42000000Y57500000D03*
X43500000Y57500000D03*
X45000000Y57500000D03*
X46500000Y57500000D03*
X48000000Y57500000D03*
X49500000Y57500000D03*
X51000000Y57500000D03*
X52500000Y57500000D03*
X54000000Y57500000D03*
X55500000Y57500000D03*
X57000000Y57500000D03*
X42000000Y56000000D03*
X43500000Y56000000D03*
X45000000Y56000000D03*
X46500000Y56000000D03*
X48000000Y56000000D03*
X49500000Y56000000D03*
X51000000Y56000000D03*
X52500000Y56000000D03*
X54000000Y56000000D03*
X55500000Y56000000D03*
X42000000Y54500000D03*
X43500000Y54500000D03*
X45000000Y54500000D03*
X46500000Y54500000D03*
X48000000Y54500000D03*
X49500000Y54500000D03*
X51000000Y54500000D03*
X52500000Y54500000D03*
X54000000Y54500000D03*
X55500000Y54500000D03*
X39000000Y53000000D03*
X40500000Y53000000D03*
X42000000Y53000000D03*
X43500000Y53000000D03*
X45000000Y53000000D03*
X46500000Y53000000D03*
X48000000Y53000000D03*
X49500000Y53000000D03*
X51000000Y53000000D03*
X52500000Y53000000D03*
X54000000Y53000000D03*
X55500000Y53000000D03*
X57000000Y53000000D03*
X61500000Y80000000D03*
X63000000Y80000000D03*
X64500000Y80000000D03*
X61500000Y78500000D03*
X63000000Y78500000D03*
X64500000Y78500000D03*
X61500000Y77000000D03*
X63000000Y77000000D03*
X64500000Y77000000D03*
X61500000Y75500000D03*
X63000000Y75500000D03*
X64500000Y75500000D03*
X61500000Y74000000D03*
X63000000Y74000000D03*
X64500000Y74000000D03*
X61500000Y72500000D03*
X63000000Y72500000D03*
X64500000Y72500000D03*
X61500000Y71000000D03*
X63000000Y71000000D03*
X64500000Y71000000D03*
X61500000Y69500000D03*
X61500000Y68000000D03*
X63000000Y68000000D03*
X64500000Y68000000D03*
X61500000Y66500000D03*
X63000000Y66500000D03*
X64500000Y66500000D03*
X61500000Y65000000D03*
X63000000Y65000000D03*
X64500000Y65000000D03*
X61500000Y63500000D03*
X63000000Y63500000D03*
X64500000Y63500000D03*
X61500000Y62000000D03*
X63000000Y62000000D03*
X64500000Y62000000D03*
X64500000Y60500000D03*
X61500000Y59000000D03*
X63000000Y59000000D03*
X64500000Y59000000D03*
X61500000Y57500000D03*
X63000000Y57500000D03*
X64500000Y57500000D03*
X61500000Y56000000D03*
X63000000Y56000000D03*
X64500000Y56000000D03*
X61500000Y54500000D03*
X63000000Y54500000D03*
X64500000Y54500000D03*
X61500000Y53000000D03*
X63000000Y53000000D03*
X64500000Y53000000D03*
X69000000Y80000000D03*
X70500000Y80000000D03*
X72000000Y80000000D03*
X73500000Y80000000D03*
X75000000Y80000000D03*
X76500000Y80000000D03*
X78000000Y80000000D03*
X79500000Y80000000D03*
X81000000Y80000000D03*
X82500000Y80000000D03*
X84000000Y80000000D03*
X85500000Y80000000D03*
X87000000Y80000000D03*
X88500000Y80000000D03*
X90000000Y80000000D03*
X91500000Y80000000D03*
X93000000Y80000000D03*
X94500000Y80000000D03*
X96000000Y80000000D03*
X97500000Y80000000D03*
X69000000Y78500000D03*
X70500000Y78500000D03*
X72000000Y78500000D03*
X73500000Y78500000D03*
X75000000Y78500000D03*
X76500000Y78500000D03*
X78000000Y78500000D03*
X79500000Y78500000D03*
X81000000Y78500000D03*
X82500000Y78500000D03*
X84000000Y78500000D03*
X85500000Y78500000D03*
X87000000Y78500000D03*
X88500000Y78500000D03*
X90000000Y78500000D03*
X91500000Y78500000D03*
X93000000Y78500000D03*
X94500000Y78500000D03*
X96000000Y78500000D03*
X97500000Y78500000D03*
X69000000Y77000000D03*
X70500000Y77000000D03*
X72000000Y77000000D03*
X73500000Y77000000D03*
X75000000Y77000000D03*
X76500000Y77000000D03*
X78000000Y77000000D03*
X79500000Y77000000D03*
X81000000Y77000000D03*
X82500000Y77000000D03*
X84000000Y77000000D03*
X85500000Y77000000D03*
X87000000Y77000000D03*
X88500000Y77000000D03*
X90000000Y77000000D03*
X91500000Y77000000D03*
X93000000Y77000000D03*
X94500000Y77000000D03*
X96000000Y77000000D03*
X97500000Y77000000D03*
X69000000Y75500000D03*
X70500000Y75500000D03*
X72000000Y75500000D03*
X73500000Y75500000D03*
X75000000Y75500000D03*
X76500000Y75500000D03*
X78000000Y75500000D03*
X79500000Y75500000D03*
X81000000Y75500000D03*
X82500000Y75500000D03*
X84000000Y75500000D03*
X85500000Y75500000D03*
X87000000Y75500000D03*
X88500000Y75500000D03*
X90000000Y75500000D03*
X91500000Y75500000D03*
X93000000Y75500000D03*
X94500000Y75500000D03*
X96000000Y75500000D03*
X97500000Y75500000D03*
X69000000Y74000000D03*
X70500000Y74000000D03*
X72000000Y74000000D03*
X73500000Y74000000D03*
X75000000Y74000000D03*
X76500000Y74000000D03*
X78000000Y74000000D03*
X79500000Y74000000D03*
X81000000Y74000000D03*
X82500000Y74000000D03*
X84000000Y74000000D03*
X85500000Y74000000D03*
X87000000Y74000000D03*
X88500000Y74000000D03*
X90000000Y74000000D03*
X91500000Y74000000D03*
X93000000Y74000000D03*
X94500000Y74000000D03*
X96000000Y74000000D03*
X97500000Y74000000D03*
X69000000Y72500000D03*
X70500000Y72500000D03*
X72000000Y72500000D03*
X73500000Y72500000D03*
X75000000Y72500000D03*
X76500000Y72500000D03*
X78000000Y72500000D03*
X79500000Y72500000D03*
X81000000Y72500000D03*
X82500000Y72500000D03*
X84000000Y72500000D03*
X85500000Y72500000D03*
X87000000Y72500000D03*
X88500000Y72500000D03*
X90000000Y72500000D03*
X91500000Y72500000D03*
X93000000Y72500000D03*
X94500000Y72500000D03*
X96000000Y72500000D03*
X97500000Y72500000D03*
X69000000Y71000000D03*
X70500000Y71000000D03*
X72000000Y71000000D03*
X73500000Y71000000D03*
X75000000Y71000000D03*
X76500000Y71000000D03*
X78000000Y71000000D03*
X79500000Y71000000D03*
X81000000Y71000000D03*
X82500000Y71000000D03*
X84000000Y71000000D03*
X85500000Y71000000D03*
X87000000Y71000000D03*
X88500000Y71000000D03*
X90000000Y71000000D03*
X91500000Y71000000D03*
X93000000Y71000000D03*
X94500000Y71000000D03*
X96000000Y71000000D03*
X97500000Y71000000D03*
X69000000Y69500000D03*
X70500000Y69500000D03*
X72000000Y69500000D03*
X73500000Y69500000D03*
X75000000Y69500000D03*
X76500000Y69500000D03*
X78000000Y69500000D03*
X79500000Y69500000D03*
X87000000Y69500000D03*
X88500000Y69500000D03*
X90000000Y69500000D03*
X91500000Y69500000D03*
X93000000Y69500000D03*
X94500000Y69500000D03*
X96000000Y69500000D03*
X97500000Y69500000D03*
X69000000Y68000000D03*
X70500000Y68000000D03*
X72000000Y68000000D03*
X73500000Y68000000D03*
X75000000Y68000000D03*
X76500000Y68000000D03*
X78000000Y68000000D03*
X88500000Y68000000D03*
X90000000Y68000000D03*
X91500000Y68000000D03*
X93000000Y68000000D03*
X94500000Y68000000D03*
X96000000Y68000000D03*
X97500000Y68000000D03*
X69000000Y66500000D03*
X70500000Y66500000D03*
X72000000Y66500000D03*
X73500000Y66500000D03*
X75000000Y66500000D03*
X76500000Y66500000D03*
X88500000Y66500000D03*
X90000000Y66500000D03*
X91500000Y66500000D03*
X93000000Y66500000D03*
X94500000Y66500000D03*
X96000000Y66500000D03*
X97500000Y66500000D03*
X69000000Y65000000D03*
X70500000Y65000000D03*
X72000000Y65000000D03*
X73500000Y65000000D03*
X75000000Y65000000D03*
X76500000Y65000000D03*
X90000000Y65000000D03*
X91500000Y65000000D03*
X93000000Y65000000D03*
X94500000Y65000000D03*
X96000000Y65000000D03*
X97500000Y65000000D03*
X69000000Y63500000D03*
X70500000Y63500000D03*
X72000000Y63500000D03*
X73500000Y63500000D03*
X75000000Y63500000D03*
X76500000Y63500000D03*
X88500000Y63500000D03*
X90000000Y63500000D03*
X91500000Y63500000D03*
X93000000Y63500000D03*
X94500000Y63500000D03*
X96000000Y63500000D03*
X97500000Y63500000D03*
X69000000Y62000000D03*
X70500000Y62000000D03*
X72000000Y62000000D03*
X73500000Y62000000D03*
X75000000Y62000000D03*
X76500000Y62000000D03*
X78000000Y62000000D03*
X88500000Y62000000D03*
X90000000Y62000000D03*
X91500000Y62000000D03*
X93000000Y62000000D03*
X94500000Y62000000D03*
X96000000Y62000000D03*
X97500000Y62000000D03*
X69000000Y60500000D03*
X70500000Y60500000D03*
X72000000Y60500000D03*
X73500000Y60500000D03*
X75000000Y60500000D03*
X76500000Y60500000D03*
X78000000Y60500000D03*
X79500000Y60500000D03*
X87000000Y60500000D03*
X88500000Y60500000D03*
X90000000Y60500000D03*
X91500000Y60500000D03*
X93000000Y60500000D03*
X94500000Y60500000D03*
X96000000Y60500000D03*
X97500000Y60500000D03*
X69000000Y59000000D03*
X70500000Y59000000D03*
X76500000Y59000000D03*
X78000000Y59000000D03*
X79500000Y59000000D03*
X81000000Y59000000D03*
X82500000Y59000000D03*
X84000000Y59000000D03*
X85500000Y59000000D03*
X87000000Y59000000D03*
X88500000Y59000000D03*
X90000000Y59000000D03*
X91500000Y59000000D03*
X93000000Y59000000D03*
X94500000Y59000000D03*
X96000000Y59000000D03*
X97500000Y59000000D03*
X69000000Y57500000D03*
X70500000Y57500000D03*
X76500000Y57500000D03*
X78000000Y57500000D03*
X79500000Y57500000D03*
X81000000Y57500000D03*
X82500000Y57500000D03*
X84000000Y57500000D03*
X85500000Y57500000D03*
X87000000Y57500000D03*
X88500000Y57500000D03*
X90000000Y57500000D03*
X91500000Y57500000D03*
X72000000Y56000000D03*
X73500000Y56000000D03*
X75000000Y56000000D03*
X76500000Y56000000D03*
X78000000Y56000000D03*
X79500000Y56000000D03*
X81000000Y56000000D03*
X82500000Y56000000D03*
X84000000Y56000000D03*
X85500000Y56000000D03*
X87000000Y56000000D03*
X88500000Y56000000D03*
X90000000Y56000000D03*
X91500000Y56000000D03*
X72000000Y54500000D03*
X73500000Y54500000D03*
X75000000Y54500000D03*
X76500000Y54500000D03*
X78000000Y54500000D03*
X79500000Y54500000D03*
X81000000Y54500000D03*
X82500000Y54500000D03*
X84000000Y54500000D03*
X85500000Y54500000D03*
X87000000Y54500000D03*
X88500000Y54500000D03*
X90000000Y54500000D03*
X91500000Y54500000D03*
X93000000Y54500000D03*
X94500000Y54500000D03*
X96000000Y54500000D03*
X97500000Y54500000D03*
X69000000Y53000000D03*
X70500000Y53000000D03*
X72000000Y53000000D03*
X73500000Y53000000D03*
X75000000Y53000000D03*
X76500000Y53000000D03*
X78000000Y53000000D03*
X79500000Y53000000D03*
X81000000Y53000000D03*
X82500000Y53000000D03*
X84000000Y53000000D03*
X85500000Y53000000D03*
X91500000Y53000000D03*
X93000000Y53000000D03*
X94500000Y53000000D03*
X96000000Y53000000D03*
X97500000Y53000000D03*
X102000000Y80000000D03*
X103500000Y80000000D03*
X105000000Y80000000D03*
X106500000Y80000000D03*
X108000000Y80000000D03*
X109500000Y80000000D03*
X111000000Y80000000D03*
X112500000Y80000000D03*
X114000000Y80000000D03*
X115500000Y80000000D03*
X117000000Y80000000D03*
X118500000Y80000000D03*
X120000000Y80000000D03*
X121500000Y80000000D03*
X123000000Y80000000D03*
X124500000Y80000000D03*
X126000000Y80000000D03*
X127500000Y80000000D03*
X129000000Y80000000D03*
X130500000Y80000000D03*
X132000000Y80000000D03*
X133500000Y80000000D03*
X135000000Y80000000D03*
X136500000Y80000000D03*
X138000000Y80000000D03*
X102000000Y78500000D03*
X103500000Y78500000D03*
X105000000Y78500000D03*
X106500000Y78500000D03*
X108000000Y78500000D03*
X109500000Y78500000D03*
X111000000Y78500000D03*
X112500000Y78500000D03*
X114000000Y78500000D03*
X115500000Y78500000D03*
X117000000Y78500000D03*
X118500000Y78500000D03*
X120000000Y78500000D03*
X121500000Y78500000D03*
X123000000Y78500000D03*
X124500000Y78500000D03*
X126000000Y78500000D03*
X127500000Y78500000D03*
X129000000Y78500000D03*
X130500000Y78500000D03*
X132000000Y78500000D03*
X133500000Y78500000D03*
X135000000Y78500000D03*
X136500000Y78500000D03*
X138000000Y78500000D03*
X102000000Y77000000D03*
X103500000Y77000000D03*
X105000000Y77000000D03*
X106500000Y77000000D03*
X108000000Y77000000D03*
X109500000Y77000000D03*
X111000000Y77000000D03*
X112500000Y77000000D03*
X114000000Y77000000D03*
X115500000Y77000000D03*
X117000000Y77000000D03*
X118500000Y77000000D03*
X120000000Y77000000D03*
X121500000Y77000000D03*
X123000000Y77000000D03*
X124500000Y77000000D03*
X126000000Y77000000D03*
X127500000Y77000000D03*
X129000000Y77000000D03*
X130500000Y77000000D03*
X132000000Y77000000D03*
X133500000Y77000000D03*
X135000000Y77000000D03*
X136500000Y77000000D03*
X138000000Y77000000D03*
X102000000Y75500000D03*
X103500000Y75500000D03*
X105000000Y75500000D03*
X106500000Y75500000D03*
X108000000Y75500000D03*
X109500000Y75500000D03*
X111000000Y75500000D03*
X112500000Y75500000D03*
X114000000Y75500000D03*
X115500000Y75500000D03*
X117000000Y75500000D03*
X118500000Y75500000D03*
X120000000Y75500000D03*
X121500000Y75500000D03*
X123000000Y75500000D03*
X124500000Y75500000D03*
X126000000Y75500000D03*
X127500000Y75500000D03*
X129000000Y75500000D03*
X130500000Y75500000D03*
X132000000Y75500000D03*
X133500000Y75500000D03*
X135000000Y75500000D03*
X136500000Y75500000D03*
X138000000Y75500000D03*
X102000000Y74000000D03*
X103500000Y74000000D03*
X105000000Y74000000D03*
X106500000Y74000000D03*
X108000000Y74000000D03*
X109500000Y74000000D03*
X111000000Y74000000D03*
X112500000Y74000000D03*
X114000000Y74000000D03*
X115500000Y74000000D03*
X117000000Y74000000D03*
X118500000Y74000000D03*
X120000000Y74000000D03*
X121500000Y74000000D03*
X123000000Y74000000D03*
X124500000Y74000000D03*
X126000000Y74000000D03*
X133500000Y74000000D03*
X135000000Y74000000D03*
X136500000Y74000000D03*
X138000000Y74000000D03*
X102000000Y72500000D03*
X103500000Y72500000D03*
X105000000Y72500000D03*
X106500000Y72500000D03*
X108000000Y72500000D03*
X109500000Y72500000D03*
X111000000Y72500000D03*
X112500000Y72500000D03*
X114000000Y72500000D03*
X115500000Y72500000D03*
X117000000Y72500000D03*
X118500000Y72500000D03*
X120000000Y72500000D03*
X121500000Y72500000D03*
X123000000Y72500000D03*
X136500000Y72500000D03*
X138000000Y72500000D03*
X102000000Y71000000D03*
X103500000Y71000000D03*
X105000000Y71000000D03*
X106500000Y71000000D03*
X108000000Y71000000D03*
X109500000Y71000000D03*
X111000000Y71000000D03*
X112500000Y71000000D03*
X114000000Y71000000D03*
X115500000Y71000000D03*
X117000000Y71000000D03*
X118500000Y71000000D03*
X120000000Y71000000D03*
X121500000Y71000000D03*
X138000000Y71000000D03*
X102000000Y69500000D03*
X103500000Y69500000D03*
X105000000Y69500000D03*
X106500000Y69500000D03*
X108000000Y69500000D03*
X109500000Y69500000D03*
X117000000Y69500000D03*
X118500000Y69500000D03*
X120000000Y69500000D03*
X121500000Y69500000D03*
X102000000Y68000000D03*
X103500000Y68000000D03*
X105000000Y68000000D03*
X106500000Y68000000D03*
X108000000Y68000000D03*
X118500000Y68000000D03*
X120000000Y68000000D03*
X102000000Y66500000D03*
X103500000Y66500000D03*
X105000000Y66500000D03*
X106500000Y66500000D03*
X118500000Y66500000D03*
X120000000Y66500000D03*
X102000000Y65000000D03*
X103500000Y65000000D03*
X105000000Y65000000D03*
X106500000Y65000000D03*
X120000000Y65000000D03*
X102000000Y63500000D03*
X103500000Y63500000D03*
X105000000Y63500000D03*
X106500000Y63500000D03*
X118500000Y63500000D03*
X120000000Y63500000D03*
X102000000Y62000000D03*
X103500000Y62000000D03*
X105000000Y62000000D03*
X106500000Y62000000D03*
X108000000Y62000000D03*
X118500000Y62000000D03*
X120000000Y62000000D03*
X102000000Y60500000D03*
X103500000Y60500000D03*
X105000000Y60500000D03*
X106500000Y60500000D03*
X108000000Y60500000D03*
X109500000Y60500000D03*
X117000000Y60500000D03*
X118500000Y60500000D03*
X120000000Y60500000D03*
X121500000Y60500000D03*
X102000000Y59000000D03*
X103500000Y59000000D03*
X105000000Y59000000D03*
X106500000Y59000000D03*
X108000000Y59000000D03*
X109500000Y59000000D03*
X111000000Y59000000D03*
X112500000Y59000000D03*
X114000000Y59000000D03*
X115500000Y59000000D03*
X117000000Y59000000D03*
X118500000Y59000000D03*
X120000000Y59000000D03*
X121500000Y59000000D03*
X138000000Y59000000D03*
X103500000Y57500000D03*
X105000000Y57500000D03*
X106500000Y57500000D03*
X108000000Y57500000D03*
X109500000Y57500000D03*
X111000000Y57500000D03*
X112500000Y57500000D03*
X114000000Y57500000D03*
X115500000Y57500000D03*
X117000000Y57500000D03*
X118500000Y57500000D03*
X120000000Y57500000D03*
X121500000Y57500000D03*
X123000000Y57500000D03*
X136500000Y57500000D03*
X138000000Y57500000D03*
X103500000Y56000000D03*
X105000000Y56000000D03*
X106500000Y56000000D03*
X108000000Y56000000D03*
X109500000Y56000000D03*
X111000000Y56000000D03*
X112500000Y56000000D03*
X114000000Y56000000D03*
X115500000Y56000000D03*
X117000000Y56000000D03*
X118500000Y56000000D03*
X120000000Y56000000D03*
X121500000Y56000000D03*
X123000000Y56000000D03*
X124500000Y56000000D03*
X126000000Y56000000D03*
X133500000Y56000000D03*
X135000000Y56000000D03*
X136500000Y56000000D03*
X138000000Y56000000D03*
X102000000Y54500000D03*
X103500000Y54500000D03*
X105000000Y54500000D03*
X106500000Y54500000D03*
X108000000Y54500000D03*
X109500000Y54500000D03*
X111000000Y54500000D03*
X112500000Y54500000D03*
X114000000Y54500000D03*
X115500000Y54500000D03*
X117000000Y54500000D03*
X118500000Y54500000D03*
X120000000Y54500000D03*
X121500000Y54500000D03*
X123000000Y54500000D03*
X124500000Y54500000D03*
X126000000Y54500000D03*
X127500000Y54500000D03*
X129000000Y54500000D03*
X130500000Y54500000D03*
X132000000Y54500000D03*
X133500000Y54500000D03*
X135000000Y54500000D03*
X136500000Y54500000D03*
X138000000Y54500000D03*
X102000000Y53000000D03*
X103500000Y53000000D03*
X105000000Y53000000D03*
X106500000Y53000000D03*
X108000000Y53000000D03*
X109500000Y53000000D03*
X111000000Y53000000D03*
X112500000Y53000000D03*
X114000000Y53000000D03*
X115500000Y53000000D03*
X117000000Y53000000D03*
X118500000Y53000000D03*
X120000000Y53000000D03*
X121500000Y53000000D03*
X123000000Y53000000D03*
X124500000Y53000000D03*
X126000000Y53000000D03*
X127500000Y53000000D03*
X129000000Y53000000D03*
X130500000Y53000000D03*
X132000000Y53000000D03*
X133500000Y53000000D03*
X135000000Y53000000D03*
X136500000Y53000000D03*
X138000000Y53000000D03*
D721*
X37000000Y47500000D03*
X38000000Y45000000D03*
X35250000Y43250000D03*
X67000000Y47500000D03*
X68000000Y45000000D03*
X65250000Y43250000D03*
X86000000Y44500000D03*
X87000000Y42000000D03*
X84250000Y40250000D03*
X89000000Y53000000D03*
X92000000Y48000000D03*
X27000000Y55000000D03*
X31750000Y60750000D03*
X38000000Y55000000D03*
X34250000Y69250000D03*
X57000000Y55000000D03*
X61750000Y60750000D03*
X68000000Y55000000D03*
X64250000Y69250000D03*
X35000000Y49500000D03*
X36250000Y42000000D03*
X65000000Y49500000D03*
X66250000Y42000000D03*
X86000000Y50000000D03*
X87000000Y53000000D03*
X85250000Y39000000D03*
X69000000Y33000000D03*
X72000000Y6000000D03*
X66000000Y6000000D03*
X65000000Y36000000D03*
X106000000Y35000000D03*
X83000000Y49000000D03*
X53750000Y65000000D03*
X129500000Y41000000D03*
X120750000Y41000000D03*
X87000000Y35000000D03*
X81500000Y14500000D03*
X29750000Y44500000D03*
X59750000Y44500000D03*
X76000000Y39000000D03*
X116000000Y31000000D03*
X104000000Y6000000D03*
X14000000Y32000000D03*
X6000000Y32000000D03*
X22500000Y32000000D03*
X96750000Y41000000D03*
X89750000Y49000000D03*
X105500000Y41000000D03*
X114500000Y41000000D03*
X123250000Y41750000D03*
X74000000Y35000000D03*
X72000000Y58000000D03*
X58000000Y36000000D03*
X55000000Y36000000D03*
X53000000Y32000000D03*
X111000000Y37000000D03*
X108000000Y35000000D03*
X107000000Y46000000D03*
X88750000Y39000000D03*
X79750000Y43250000D03*
X60750000Y46250000D03*
X69750000Y42000000D03*
X30750000Y46250000D03*
X39750000Y42000000D03*
X45500000Y31000000D03*
X72000000Y35000000D03*
X112000000Y6750000D03*
X127000000Y31000000D03*
X35000000Y39000000D03*
X33000000Y45000000D03*
X33500000Y32000000D03*
X60500000Y33250000D03*
X55000000Y32000000D03*
X67000000Y33250000D03*
X62500000Y33250000D03*
X71000000Y33750000D03*
X65000000Y39000000D03*
X63000000Y45000000D03*
X94000000Y35000000D03*
X84000000Y35000000D03*
X111000000Y35000000D03*
X99000000Y35000000D03*
X109250000Y41750000D03*
X96000000Y48000000D03*
X109000000Y46000000D03*
X100000000Y6000000D03*
X86000000Y7000000D03*
X94000000Y6000000D03*
X76000000Y7000000D03*
X58000000Y8000000D03*
X64000000Y7000000D03*
X74000000Y58000000D03*
X78000000Y43000000D03*
X132000000Y47000000D03*
X121000000Y31750000D03*
X27000000Y37000000D03*
D722*
X69000000Y33000000D02*
X77000000Y33000000D01*
X77000000Y33000000D02*
X77000000Y27500000D01*
X77110000Y27620000D02*
X77000000Y27500000D01*
X66000000Y6000000D02*
X71250000Y6000000D01*
X71250000Y6000000D02*
X71250000Y6500000D01*
X71250000Y6500000D02*
X71500000Y6500000D01*
X71500000Y6500000D02*
X71500000Y6750000D01*
X71500000Y6750000D02*
X73250000Y6750000D01*
X73250000Y6750000D02*
X73250000Y13000000D01*
X73250000Y13000000D02*
X73500000Y13000000D01*
X73500000Y13000000D02*
X73500000Y13500000D01*
X73500000Y13500000D02*
X74000000Y13500000D01*
X74000000Y13500000D02*
X74000000Y13750000D01*
X74000000Y13750000D02*
X82250000Y13750000D01*
X82250000Y13750000D02*
X82250000Y27500000D01*
X82190000Y27620000D02*
X82250000Y27500000D01*
X65000000Y36000000D02*
X106000000Y36000000D01*
X106000000Y36000000D02*
X106000000Y35000000D01*
X83000000Y49000000D02*
X65750000Y49000000D01*
X65750000Y49000000D02*
X65750000Y50000000D01*
X65750000Y50000000D02*
X65500000Y50000000D01*
X65500000Y50000000D02*
X65500000Y50250000D01*
X65500000Y50250000D02*
X53750000Y50250000D01*
X53750000Y50250000D02*
X53750000Y65000000D01*
X129500000Y41000000D02*
X120750000Y41000000D01*
X81500000Y14500000D02*
X72000000Y14500000D01*
X72000000Y14500000D02*
X72000000Y27500000D01*
X72030000Y27620000D02*
X72000000Y27500000D01*
X118500000Y17500000D02*
X102500000Y17500000D01*
X102500000Y17500000D02*
X102500000Y12500000D01*
X118380000Y17460000D02*
X118500000Y17500000D01*
X102510000Y12380000D02*
X102500000Y12500000D01*
X104000000Y6000000D02*
X117000000Y6000000D01*
X117000000Y6000000D02*
X117000000Y6250000D01*
X117000000Y6250000D02*
X117250000Y6250000D01*
X117250000Y6250000D02*
X117250000Y6500000D01*
X117250000Y6500000D02*
X117750000Y6500000D01*
X117750000Y6500000D02*
X117750000Y6750000D01*
X117750000Y6750000D02*
X133500000Y6750000D01*
X133500000Y6750000D02*
X133500000Y5000000D01*
X133620000Y5000000D02*
X133500000Y5000000D01*
X14000000Y32000000D02*
X6000000Y32000000D01*
X22500000Y32000000D02*
X14000000Y32000000D01*
X105500000Y41000000D02*
X96750000Y41000000D01*
X114500000Y41000000D02*
X105500000Y41000000D01*
X123250000Y41750000D02*
X114500000Y41750000D01*
X114500000Y41750000D02*
X114500000Y41000000D01*
X58000000Y36000000D02*
X55000000Y36000000D01*
X111000000Y37000000D02*
X108000000Y37000000D01*
X108000000Y37000000D02*
X108000000Y35000000D01*
X88750000Y39000000D02*
X93750000Y39000000D01*
X93750000Y39000000D02*
X93750000Y55250000D01*
X93750000Y55250000D02*
X94250000Y55250000D01*
X94250000Y55250000D02*
X94250000Y57000000D01*
X94190000Y57000000D02*
X94250000Y57000000D01*
X79750000Y43250000D02*
X88750000Y43250000D01*
X88750000Y43250000D02*
X88750000Y39000000D01*
X60750000Y46250000D02*
X69750000Y46250000D01*
X69750000Y46250000D02*
X69750000Y42000000D01*
X30750000Y46250000D02*
X39750000Y46250000D01*
X39750000Y46250000D02*
X39750000Y42000000D01*
X72000000Y35000000D02*
X61750000Y35000000D01*
X61750000Y35000000D02*
X61750000Y27500000D01*
X61870000Y27620000D02*
X61750000Y27500000D01*
X127000000Y31000000D02*
X116750000Y31000000D01*
X116750000Y31000000D02*
X116750000Y30500000D01*
X116750000Y30500000D02*
X116500000Y30500000D01*
X116500000Y30500000D02*
X116500000Y30250000D01*
X116500000Y30250000D02*
X105000000Y30250000D01*
X105000000Y30250000D02*
X105000000Y27500000D01*
X105050000Y27620000D02*
X105000000Y27500000D01*
X60500000Y33250000D02*
X55000000Y33250000D01*
X55000000Y33250000D02*
X55000000Y32000000D01*
X67000000Y33250000D02*
X62500000Y33250000D01*
X71000000Y33750000D02*
X67000000Y33750000D01*
X67000000Y33750000D02*
X67000000Y33250000D01*
X94000000Y35000000D02*
X87750000Y35000000D01*
X87750000Y35000000D02*
X87750000Y34500000D01*
X87750000Y34500000D02*
X87500000Y34500000D01*
X87500000Y34500000D02*
X87500000Y34250000D01*
X87500000Y34250000D02*
X84000000Y34250000D01*
X84000000Y34250000D02*
X84000000Y35000000D01*
X111000000Y35000000D02*
X108750000Y35000000D01*
X108750000Y35000000D02*
X108750000Y34500000D01*
X108750000Y34500000D02*
X108500000Y34500000D01*
X108500000Y34500000D02*
X108500000Y34250000D01*
X108500000Y34250000D02*
X99000000Y34250000D01*
X99000000Y34250000D02*
X99000000Y35000000D01*
X107500000Y27500000D02*
X110250000Y27500000D01*
X107590000Y27620000D02*
X107500000Y27500000D01*
X110130000Y27620000D02*
X110250000Y27500000D01*
X118500000Y22500000D02*
X110250000Y22500000D01*
X110250000Y22500000D02*
X110250000Y27500000D01*
X118380000Y22540000D02*
X118500000Y22500000D01*
X110130000Y27620000D02*
X110250000Y27500000D01*
X96000000Y48000000D02*
X109000000Y48000000D01*
X109000000Y48000000D02*
X109000000Y46000000D01*
X96750000Y57000000D02*
X96750000Y52250000D01*
X96750000Y52250000D02*
X96000000Y52250000D01*
X96000000Y52250000D02*
X96000000Y48000000D01*
X96730000Y57000000D02*
X96750000Y57000000D01*
X100000000Y6000000D02*
X103250000Y6000000D01*
X103250000Y6000000D02*
X103250000Y6500000D01*
X103250000Y6500000D02*
X103500000Y6500000D01*
X103500000Y6500000D02*
X103500000Y6750000D01*
X103500000Y6750000D02*
X107500000Y6750000D01*
X107500000Y6750000D02*
X107500000Y12500000D01*
X107590000Y12380000D02*
X107500000Y12500000D01*
X86000000Y7000000D02*
X94000000Y7000000D01*
X94000000Y7000000D02*
X94000000Y6000000D01*
X76000000Y7000000D02*
X86000000Y7000000D01*
X58000000Y8000000D02*
X64000000Y8000000D01*
X64000000Y8000000D02*
X64000000Y7000000D01*
X133500000Y17500000D02*
X119750000Y17500000D01*
X119750000Y17500000D02*
X119750000Y20500000D01*
X119750000Y20500000D02*
X119500000Y20500000D01*
X119500000Y20500000D02*
X119500000Y21000000D01*
X119500000Y21000000D02*
X119250000Y21000000D01*
X119250000Y21000000D02*
X119250000Y21250000D01*
X119250000Y21250000D02*
X118500000Y21250000D01*
X118500000Y21250000D02*
X118500000Y22500000D01*
X133620000Y17460000D02*
X133500000Y17500000D01*
X118380000Y22540000D02*
X118500000Y22500000D01*
M02*
